<?xml version="1.0" encoding="UTF-8" standalone="no"?>
<!DOCTYPE svg PUBLIC "-//W3C//DTD SVG 1.0//EN" "http://www.w3.org/TR/2001/PR-SVG-20010719/DTD/svg10.dtd">
<svg width="39cm" height="6cm" viewBox="278 279 763 105" xmlns="http://www.w3.org/2000/svg" xmlns:xlink="http://www.w3.org/1999/xlink">
  <g id="Background">
    <g>
      <rect style="fill: #ffffff; fill-opacity: 1; stroke-opacity: 1; stroke-width: 2; stroke: #000000" x="279" y="318" width="141" height="32.5778" rx="0" ry="0"/>
      <text font-size="16.9333" style="fill: #000000; fill-opacity: 1; stroke: none;text-anchor:middle;font-family:sans-serif;font-style:normal;font-weight:700" x="349.5" y="339.424">
        <tspan x="349.5" y="339.424">[T] main()</tspan>
      </text>
    </g>
    <g>
      <rect style="fill: #ffffff; fill-opacity: 1; stroke-opacity: 1; stroke-width: 2; stroke: #000000" x="470" y="280" width="330" height="32.5778" rx="0" ry="0"/>
      <text font-size="16.9333" style="fill: #000000; fill-opacity: 1; stroke: none;text-anchor:middle;font-family:sans-serif;font-style:normal;font-weight:700" x="635" y="301.424">
        <tspan x="635" y="301.424">[T] print_large_pizza_area()</tspan>
      </text>
    </g>
    <g>
      <rect style="fill: #ffffff; fill-opacity: 1; stroke-opacity: 1; stroke-width: 2; stroke: #000000" x="470" y="350" width="330" height="32.5778" rx="0" ry="0"/>
      <text font-size="16.9333" style="fill: #000000; fill-opacity: 1; stroke: none;text-anchor:middle;font-family:sans-serif;font-style:normal;font-weight:700" x="635" y="371.424">
        <tspan x="635" y="371.424">[T] print_small_pizza_area()</tspan>
      </text>
    </g>
    <g>
      <rect style="fill: #ffffff; fill-opacity: 1; stroke-opacity: 1; stroke-width: 2; stroke: #000000" x="840" y="280" width="200" height="32.5778" rx="0" ry="0"/>
      <text font-size="16.9333" style="fill: #000000; fill-opacity: 1; stroke: none;text-anchor:middle;font-family:sans-serif;font-style:normal;font-weight:700" x="940" y="301.424">
        <tspan x="940" y="301.424">[t] circle_area()</tspan>
      </text>
    </g>
    <g>
      <rect style="fill: #ffffff; fill-opacity: 1; stroke-opacity: 1; stroke-width: 2; stroke: #000000" x="840" y="350" width="200" height="32.5778" rx="0" ry="0"/>
      <text font-size="16.9333" style="fill: #000000; fill-opacity: 1; stroke: none;text-anchor:middle;font-family:sans-serif;font-style:normal;font-weight:700" x="940" y="371.424">
        <tspan x="940" y="371.424">[t] circle_area()</tspan>
      </text>
    </g>
    <g>
      <line style="fill: none; stroke-opacity: 1; stroke-width: 2; stroke: #000000" x1="800.996" y1="296.289" x2="832.274" y2="296.289"/>
      <polygon style="fill: #000000; fill-opacity: 1; stroke-opacity: 1; stroke-width: 2; stroke: #000000" fill-rule="evenodd" points="836.774,296.289 830.774,299.289 832.274,296.289 830.774,293.289 "/>
    </g>
    <g>
      <path style="fill: none; stroke-opacity: 1; stroke-width: 2; stroke: #000000" d="M 420.973 334.288 C 434.253,334.288 430,296 463.264,296.24"/>
      <polygon style="fill: #000000; fill-opacity: 1; stroke-opacity: 1; stroke-width: 2; stroke: #000000" fill-rule="evenodd" points="467.764,296.272 461.743,299.229 463.264,296.24 461.786,293.229 "/>
    </g>
    <g>
      <path style="fill: none; stroke-opacity: 1; stroke-width: 2; stroke: #000000" d="M 420.985 334.288 C 434.265,334.288 430,366 463.264,366.24"/>
      <polygon style="fill: #000000; fill-opacity: 1; stroke-opacity: 1; stroke-width: 2; stroke: #000000" fill-rule="evenodd" points="467.764,366.272 461.743,369.229 463.264,366.24 461.786,363.229 "/>
    </g>
    <g>
      <line style="fill: none; stroke-opacity: 1; stroke-width: 2; stroke: #000000" x1="800.996" y1="366.289" x2="832.274" y2="366.289"/>
      <polygon style="fill: #000000; fill-opacity: 1; stroke-opacity: 1; stroke-width: 2; stroke: #000000" fill-rule="evenodd" points="836.774,366.289 830.774,369.289 832.274,366.289 830.774,363.289 "/>
    </g>
  </g>
</svg>
