<?xml version="1.0" encoding="UTF-8"?>
<!DOCTYPE svg PUBLIC "-//W3C//DTD SVG 1.1//EN" "http://www.w3.org/Graphics/SVG/1.1/DTD/svg11.dtd">
<svg width="231mm" height="90mm" viewBox="0 0 23100 9000" version="1.1" baseProfile="tiny" xmlns="http://www.w3.org/2000/svg" stroke-width="28.222" stroke-linejoin="round" xml:space="preserve">
 <path fill="rgb(255,255,255)" stroke="none" d="M 11536,8999 L 1,8999 1,0 23070,0 23070,8999 11536,8999 Z"/>
 <path fill="none" stroke="rgb(179,179,179)" stroke-linejoin="round" d="M 11641,8172 L 2261,8172 2261,360 21021,360 21021,8172 11641,8172 Z"/>
 <path fill="none" stroke="rgb(238,238,238)" stroke-linejoin="round" d="M 2261,359 L 2261,8171"/>
 <path fill="none" stroke="rgb(238,238,238)" stroke-linejoin="round" d="M 3511,359 L 3511,8171"/>
 <path fill="none" stroke="rgb(238,238,238)" stroke-linejoin="round" d="M 4762,359 L 4762,8171"/>
 <path fill="none" stroke="rgb(238,238,238)" stroke-linejoin="round" d="M 6013,359 L 6013,8171"/>
 <path fill="none" stroke="rgb(238,238,238)" stroke-linejoin="round" d="M 7263,359 L 7263,8171"/>
 <path fill="none" stroke="rgb(238,238,238)" stroke-linejoin="round" d="M 8514,359 L 8514,8171"/>
 <path fill="none" stroke="rgb(238,238,238)" stroke-linejoin="round" d="M 9765,359 L 9765,8171"/>
 <path fill="none" stroke="rgb(238,238,238)" stroke-linejoin="round" d="M 11016,359 L 11016,8171"/>
 <path fill="none" stroke="rgb(238,238,238)" stroke-linejoin="round" d="M 12265,359 L 12265,8171"/>
 <path fill="none" stroke="rgb(238,238,238)" stroke-linejoin="round" d="M 13516,359 L 13516,8171"/>
 <path fill="none" stroke="rgb(238,238,238)" stroke-linejoin="round" d="M 14767,359 L 14767,8171"/>
 <path fill="none" stroke="rgb(238,238,238)" stroke-linejoin="round" d="M 16018,359 L 16018,8171"/>
 <path fill="none" stroke="rgb(238,238,238)" stroke-linejoin="round" d="M 17268,359 L 17268,8171"/>
 <path fill="none" stroke="rgb(238,238,238)" stroke-linejoin="round" d="M 18519,359 L 18519,8171"/>
 <path fill="none" stroke="rgb(238,238,238)" stroke-linejoin="round" d="M 19770,359 L 19770,8171"/>
 <path fill="none" stroke="rgb(238,238,238)" stroke-linejoin="round" d="M 21021,359 L 21021,8171"/>
 <path fill="none" stroke="rgb(238,238,238)" stroke-linejoin="round" d="M 21021,8171 L 2261,8171"/>
 <path fill="none" stroke="rgb(238,238,238)" stroke-linejoin="round" d="M 21021,6810 L 2261,6810"/>
 <path fill="none" stroke="rgb(238,238,238)" stroke-linejoin="round" d="M 21021,5450 L 2261,5450"/>
 <path fill="none" stroke="rgb(238,238,238)" stroke-linejoin="round" d="M 21021,4090 L 2261,4090"/>
 <path fill="none" stroke="rgb(238,238,238)" stroke-linejoin="round" d="M 21021,2730 L 2261,2730"/>
 <path fill="none" stroke="rgb(238,238,238)" stroke-linejoin="round" d="M 21021,1369 L 2261,1369"/>
 <path fill="none" stroke="rgb(179,179,179)" stroke-linejoin="round" d="M 2261,8321 L 2261,8171"/>
 <path fill="none" stroke="rgb(179,179,179)" stroke-linejoin="round" d="M 2261,8321 L 2261,8171"/>
 <path fill="none" stroke="rgb(179,179,179)" stroke-linejoin="round" d="M 3511,8321 L 3511,8171"/>
 <path fill="none" stroke="rgb(179,179,179)" stroke-linejoin="round" d="M 3511,8321 L 3511,8171"/>
 <path fill="none" stroke="rgb(179,179,179)" stroke-linejoin="round" d="M 4762,8321 L 4762,8171"/>
 <path fill="none" stroke="rgb(179,179,179)" stroke-linejoin="round" d="M 4762,8321 L 4762,8171"/>
 <path fill="none" stroke="rgb(179,179,179)" stroke-linejoin="round" d="M 6013,8321 L 6013,8171"/>
 <path fill="none" stroke="rgb(179,179,179)" stroke-linejoin="round" d="M 6013,8321 L 6013,8171"/>
 <path fill="none" stroke="rgb(179,179,179)" stroke-linejoin="round" d="M 7263,8321 L 7263,8171"/>
 <path fill="none" stroke="rgb(179,179,179)" stroke-linejoin="round" d="M 7263,8321 L 7263,8171"/>
 <path fill="none" stroke="rgb(179,179,179)" stroke-linejoin="round" d="M 8514,8321 L 8514,8171"/>
 <path fill="none" stroke="rgb(179,179,179)" stroke-linejoin="round" d="M 8514,8321 L 8514,8171"/>
 <path fill="none" stroke="rgb(179,179,179)" stroke-linejoin="round" d="M 9765,8321 L 9765,8171"/>
 <path fill="none" stroke="rgb(179,179,179)" stroke-linejoin="round" d="M 9765,8321 L 9765,8171"/>
 <path fill="none" stroke="rgb(179,179,179)" stroke-linejoin="round" d="M 11016,8321 L 11016,8171"/>
 <path fill="none" stroke="rgb(179,179,179)" stroke-linejoin="round" d="M 11016,8321 L 11016,8171"/>
 <path fill="none" stroke="rgb(179,179,179)" stroke-linejoin="round" d="M 12265,8321 L 12265,8171"/>
 <path fill="none" stroke="rgb(179,179,179)" stroke-linejoin="round" d="M 12265,8321 L 12265,8171"/>
 <path fill="none" stroke="rgb(179,179,179)" stroke-linejoin="round" d="M 13516,8321 L 13516,8171"/>
 <path fill="none" stroke="rgb(179,179,179)" stroke-linejoin="round" d="M 13516,8321 L 13516,8171"/>
 <path fill="none" stroke="rgb(179,179,179)" stroke-linejoin="round" d="M 14767,8321 L 14767,8171"/>
 <path fill="none" stroke="rgb(179,179,179)" stroke-linejoin="round" d="M 14767,8321 L 14767,8171"/>
 <path fill="none" stroke="rgb(179,179,179)" stroke-linejoin="round" d="M 16018,8321 L 16018,8171"/>
 <path fill="none" stroke="rgb(179,179,179)" stroke-linejoin="round" d="M 16018,8321 L 16018,8171"/>
 <path fill="none" stroke="rgb(179,179,179)" stroke-linejoin="round" d="M 17268,8321 L 17268,8171"/>
 <path fill="none" stroke="rgb(179,179,179)" stroke-linejoin="round" d="M 17268,8321 L 17268,8171"/>
 <path fill="none" stroke="rgb(179,179,179)" stroke-linejoin="round" d="M 18519,8321 L 18519,8171"/>
 <path fill="none" stroke="rgb(179,179,179)" stroke-linejoin="round" d="M 18519,8321 L 18519,8171"/>
 <path fill="none" stroke="rgb(179,179,179)" stroke-linejoin="round" d="M 19770,8321 L 19770,8171"/>
 <path fill="none" stroke="rgb(179,179,179)" stroke-linejoin="round" d="M 19770,8321 L 19770,8171"/>
 <path fill="none" stroke="rgb(179,179,179)" stroke-linejoin="round" d="M 21021,8321 L 21021,8171"/>
 <path fill="none" stroke="rgb(179,179,179)" stroke-linejoin="round" d="M 21021,8321 L 21021,8171"/>
 <path fill="none" stroke="rgb(179,179,179)" stroke-linejoin="round" d="M 2261,8171 L 21021,8171"/>
 <path fill="none" stroke="rgb(179,179,179)" stroke-linejoin="round" d="M 2261,359 L 21021,359"/>
 <path fill="none" stroke="rgb(179,179,179)" stroke-linejoin="round" d="M 2111,8171 L 2261,8171"/>
 <path fill="none" stroke="rgb(179,179,179)" stroke-linejoin="round" d="M 2111,8171 L 2261,8171"/>
 <path fill="none" stroke="rgb(179,179,179)" stroke-linejoin="round" d="M 2111,6810 L 2261,6810"/>
 <path fill="none" stroke="rgb(179,179,179)" stroke-linejoin="round" d="M 2111,6810 L 2261,6810"/>
 <path fill="none" stroke="rgb(179,179,179)" stroke-linejoin="round" d="M 2111,5450 L 2261,5450"/>
 <path fill="none" stroke="rgb(179,179,179)" stroke-linejoin="round" d="M 2111,5450 L 2261,5450"/>
 <path fill="none" stroke="rgb(179,179,179)" stroke-linejoin="round" d="M 2111,4090 L 2261,4090"/>
 <path fill="none" stroke="rgb(179,179,179)" stroke-linejoin="round" d="M 2111,4090 L 2261,4090"/>
 <path fill="none" stroke="rgb(179,179,179)" stroke-linejoin="round" d="M 2111,2730 L 2261,2730"/>
 <path fill="none" stroke="rgb(179,179,179)" stroke-linejoin="round" d="M 2111,2730 L 2261,2730"/>
 <path fill="none" stroke="rgb(179,179,179)" stroke-linejoin="round" d="M 2111,1369 L 2261,1369"/>
 <path fill="none" stroke="rgb(179,179,179)" stroke-linejoin="round" d="M 2111,1369 L 2261,1369"/>
 <path fill="none" stroke="rgb(179,179,179)" stroke-linejoin="round" d="M 2261,8171 L 2261,359"/>
 <path fill="none" stroke="rgb(179,179,179)" stroke-linejoin="round" d="M 21171,8171 L 21021,8171"/>
 <path fill="none" stroke="rgb(179,179,179)" stroke-linejoin="round" d="M 21171,8171 L 21021,8171"/>
 <path fill="none" stroke="rgb(179,179,179)" stroke-linejoin="round" d="M 21171,6964 L 21021,6964"/>
 <path fill="none" stroke="rgb(179,179,179)" stroke-linejoin="round" d="M 21171,6964 L 21021,6964"/>
 <path fill="none" stroke="rgb(179,179,179)" stroke-linejoin="round" d="M 21171,5758 L 21021,5758"/>
 <path fill="none" stroke="rgb(179,179,179)" stroke-linejoin="round" d="M 21171,5758 L 21021,5758"/>
 <path fill="none" stroke="rgb(179,179,179)" stroke-linejoin="round" d="M 21171,4551 L 21021,4551"/>
 <path fill="none" stroke="rgb(179,179,179)" stroke-linejoin="round" d="M 21171,4551 L 21021,4551"/>
 <path fill="none" stroke="rgb(179,179,179)" stroke-linejoin="round" d="M 21171,3346 L 21021,3346"/>
 <path fill="none" stroke="rgb(179,179,179)" stroke-linejoin="round" d="M 21171,3346 L 21021,3346"/>
 <path fill="none" stroke="rgb(179,179,179)" stroke-linejoin="round" d="M 21171,2140 L 21021,2140"/>
 <path fill="none" stroke="rgb(179,179,179)" stroke-linejoin="round" d="M 21171,2140 L 21021,2140"/>
 <path fill="none" stroke="rgb(179,179,179)" stroke-linejoin="round" d="M 21171,933 L 21021,933"/>
 <path fill="none" stroke="rgb(179,179,179)" stroke-linejoin="round" d="M 21171,933 L 21021,933"/>
 <path fill="none" stroke="rgb(179,179,179)" stroke-linejoin="round" d="M 21021,8171 L 21021,359"/>
 <path fill="none" stroke="rgb(197,0,11)" stroke-width="51" stroke-linejoin="round" d="M 2261,1194 L 3511,1069 4762,1295 6013,1671 7263,2233 8514,3112 9765,4856 11016,6142 12265,7041 13516,7489 14767,7764 16018,7935 17268,8054 18519,8113 19770,8141 21021,8156"/>
 <path fill="none" stroke="rgb(0,69,134)" stroke-width="51" stroke-linejoin="round" d="M 2261,8069 L 3511,7964 4762,7771 6013,7415 7263,6790 8514,5818 9765,5088 11016,4399 12265,3971 13516,3105 14767,2122 16018,1165 17268,1253 18519,1331 19770,1069 21021,1257"/>
 <path fill="none" stroke="rgb(0,69,134)" stroke-width="51" stroke-linejoin="round" stroke-dasharray="100,100" d="M 2261,1069 L 3511,1069 4762,1069 6013,1069 7263,1069 8514,1069 9765,1069 11016,1069 12265,1069 13516,1069 14767,1069 16018,1069 17268,1069 18519,1069 19770,1069 21021,1069"/>
 <text class="TextShape"><tspan class="TextParagraph" font-family="Liberation Sans, sans-serif" font-size="353px" font-weight="400"><tspan class="TextPosition" x="1884" y="8739"><tspan fill="rgb(0,0,0)" stroke="none">4KiB</tspan></tspan></tspan></text>
 <text class="TextShape"><tspan class="TextParagraph" font-family="Liberation Sans, sans-serif" font-size="353px" font-weight="400"><tspan class="TextPosition" x="3134" y="8739"><tspan fill="rgb(0,0,0)" stroke="none">8KiB</tspan></tspan></tspan></text>
 <text class="TextShape"><tspan class="TextParagraph" font-family="Liberation Sans, sans-serif" font-size="353px" font-weight="400"><tspan class="TextPosition" x="4285" y="8739"><tspan fill="rgb(0,0,0)" stroke="none">16KiB</tspan></tspan></tspan></text>
 <text class="TextShape"><tspan class="TextParagraph" font-family="Liberation Sans, sans-serif" font-size="353px" font-weight="400"><tspan class="TextPosition" x="5536" y="8739"><tspan fill="rgb(0,0,0)" stroke="none">32KiB</tspan></tspan></tspan></text>
 <text class="TextShape"><tspan class="TextParagraph" font-family="Liberation Sans, sans-serif" font-size="353px" font-weight="400"><tspan class="TextPosition" x="6786" y="8739"><tspan fill="rgb(0,0,0)" stroke="none">64KiB</tspan></tspan></tspan></text>
 <text class="TextShape"><tspan class="TextParagraph" font-family="Liberation Sans, sans-serif" font-size="353px" font-weight="400"><tspan class="TextPosition" x="7938" y="8739"><tspan fill="rgb(0,0,0)" stroke="none">128KiB</tspan></tspan></tspan></text>
 <text class="TextShape"><tspan class="TextParagraph" font-family="Liberation Sans, sans-serif" font-size="353px" font-weight="400"><tspan class="TextPosition" x="9189" y="8739"><tspan fill="rgb(0,0,0)" stroke="none">256KiB</tspan></tspan></tspan></text>
 <text class="TextShape"><tspan class="TextParagraph" font-family="Liberation Sans, sans-serif" font-size="353px" font-weight="400"><tspan class="TextPosition" x="10440" y="8739"><tspan fill="rgb(0,0,0)" stroke="none">512KiB</tspan></tspan></tspan></text>
 <text class="TextShape"><tspan class="TextParagraph" font-family="Liberation Sans, sans-serif" font-size="353px" font-weight="400"><tspan class="TextPosition" x="11856" y="8739"><tspan fill="rgb(0,0,0)" stroke="none">1MiB</tspan></tspan></tspan></text>
 <text class="TextShape"><tspan class="TextParagraph" font-family="Liberation Sans, sans-serif" font-size="353px" font-weight="400"><tspan class="TextPosition" x="13107" y="8739"><tspan fill="rgb(0,0,0)" stroke="none">2MiB</tspan></tspan></tspan></text>
 <text class="TextShape"><tspan class="TextParagraph" font-family="Liberation Sans, sans-serif" font-size="353px" font-weight="400"><tspan class="TextPosition" x="14358" y="8739"><tspan fill="rgb(0,0,0)" stroke="none">4MiB</tspan></tspan></tspan></text>
 <text class="TextShape"><tspan class="TextParagraph" font-family="Liberation Sans, sans-serif" font-size="353px" font-weight="400"><tspan class="TextPosition" x="15609" y="8739"><tspan fill="rgb(0,0,0)" stroke="none">8MiB</tspan></tspan></tspan></text>
 <text class="TextShape"><tspan class="TextParagraph" font-family="Liberation Sans, sans-serif" font-size="353px" font-weight="400"><tspan class="TextPosition" x="16759" y="8739"><tspan fill="rgb(0,0,0)" stroke="none">16MiB</tspan></tspan></tspan></text>
 <text class="TextShape"><tspan class="TextParagraph" font-family="Liberation Sans, sans-serif" font-size="353px" font-weight="400"><tspan class="TextPosition" x="18010" y="8739"><tspan fill="rgb(0,0,0)" stroke="none">32MiB</tspan></tspan></tspan></text>
 <text class="TextShape"><tspan class="TextParagraph" font-family="Liberation Sans, sans-serif" font-size="353px" font-weight="400"><tspan class="TextPosition" x="19261" y="8739"><tspan fill="rgb(0,0,0)" stroke="none">64MiB</tspan></tspan></tspan></text>
 <text class="TextShape"><tspan class="TextParagraph" font-family="Liberation Sans, sans-serif" font-size="353px" font-weight="400"><tspan class="TextPosition" x="20413" y="8739"><tspan fill="rgb(0,0,0)" stroke="none">128MiB</tspan></tspan></tspan></text>
 <text class="TextShape"><tspan class="TextParagraph" font-family="Liberation Sans, sans-serif" font-size="71px" font-weight="400"><tspan class="TextPosition" x="2195" y="247"><tspan fill="rgb(255,255,255)" stroke="none">4KiB</tspan></tspan></tspan></text>
 <text class="TextShape"><tspan class="TextParagraph" font-family="Liberation Sans, sans-serif" font-size="71px" font-weight="400"><tspan class="TextPosition" x="3445" y="247"><tspan fill="rgb(255,255,255)" stroke="none">8KiB</tspan></tspan></tspan></text>
 <text class="TextShape"><tspan class="TextParagraph" font-family="Liberation Sans, sans-serif" font-size="71px" font-weight="400"><tspan class="TextPosition" x="4676" y="247"><tspan fill="rgb(255,255,255)" stroke="none">16KiB</tspan></tspan></tspan></text>
 <text class="TextShape"><tspan class="TextParagraph" font-family="Liberation Sans, sans-serif" font-size="71px" font-weight="400"><tspan class="TextPosition" x="5927" y="247"><tspan fill="rgb(255,255,255)" stroke="none">32KiB</tspan></tspan></tspan></text>
 <text class="TextShape"><tspan class="TextParagraph" font-family="Liberation Sans, sans-serif" font-size="71px" font-weight="400"><tspan class="TextPosition" x="7177" y="247"><tspan fill="rgb(255,255,255)" stroke="none">64KiB</tspan></tspan></tspan></text>
 <text class="TextShape"><tspan class="TextParagraph" font-family="Liberation Sans, sans-serif" font-size="71px" font-weight="400"><tspan class="TextPosition" x="8408" y="247"><tspan fill="rgb(255,255,255)" stroke="none">128KiB</tspan></tspan></tspan></text>
 <text class="TextShape"><tspan class="TextParagraph" font-family="Liberation Sans, sans-serif" font-size="71px" font-weight="400"><tspan class="TextPosition" x="9659" y="247"><tspan fill="rgb(255,255,255)" stroke="none">256KiB</tspan></tspan></tspan></text>
 <text class="TextShape"><tspan class="TextParagraph" font-family="Liberation Sans, sans-serif" font-size="71px" font-weight="400"><tspan class="TextPosition" x="10910" y="247"><tspan fill="rgb(255,255,255)" stroke="none">512KiB</tspan></tspan></tspan></text>
 <text class="TextShape"><tspan class="TextParagraph" font-family="Liberation Sans, sans-serif" font-size="71px" font-weight="400"><tspan class="TextPosition" x="12193" y="247"><tspan fill="rgb(255,255,255)" stroke="none">1MiB</tspan></tspan></tspan></text>
 <text class="TextShape"><tspan class="TextParagraph" font-family="Liberation Sans, sans-serif" font-size="71px" font-weight="400"><tspan class="TextPosition" x="13444" y="247"><tspan fill="rgb(255,255,255)" stroke="none">2MiB</tspan></tspan></tspan></text>
 <text class="TextShape"><tspan class="TextParagraph" font-family="Liberation Sans, sans-serif" font-size="71px" font-weight="400"><tspan class="TextPosition" x="14695" y="247"><tspan fill="rgb(255,255,255)" stroke="none">4MiB</tspan></tspan></tspan></text>
 <text class="TextShape"><tspan class="TextParagraph" font-family="Liberation Sans, sans-serif" font-size="71px" font-weight="400"><tspan class="TextPosition" x="15946" y="247"><tspan fill="rgb(255,255,255)" stroke="none">8MiB</tspan></tspan></tspan></text>
 <text class="TextShape"><tspan class="TextParagraph" font-family="Liberation Sans, sans-serif" font-size="71px" font-weight="400"><tspan class="TextPosition" x="17176" y="247"><tspan fill="rgb(255,255,255)" stroke="none">16MiB</tspan></tspan></tspan></text>
 <text class="TextShape"><tspan class="TextParagraph" font-family="Liberation Sans, sans-serif" font-size="71px" font-weight="400"><tspan class="TextPosition" x="18427" y="247"><tspan fill="rgb(255,255,255)" stroke="none">32MiB</tspan></tspan></tspan></text>
 <text class="TextShape"><tspan class="TextParagraph" font-family="Liberation Sans, sans-serif" font-size="71px" font-weight="400"><tspan class="TextPosition" x="19678" y="247"><tspan fill="rgb(255,255,255)" stroke="none">64MiB</tspan></tspan></tspan></text>
 <text class="TextShape"><tspan class="TextParagraph" font-family="Liberation Sans, sans-serif" font-size="71px" font-weight="400"><tspan class="TextPosition" x="20909" y="247"><tspan fill="rgb(255,255,255)" stroke="none">128MiB</tspan></tspan></tspan></text>
 <text class="TextShape"><tspan class="TextParagraph" font-family="Liberation Sans, sans-serif" font-size="353px" font-weight="400"><tspan class="TextPosition" x="860" y="8292"><tspan fill="rgb(197,0,11)" stroke="none">0 IOPS</tspan></tspan></tspan></text>
 <text class="TextShape"><tspan class="TextParagraph" font-family="Liberation Sans, sans-serif" font-size="353px" font-weight="400"><tspan class="TextPosition" x="662" y="6931"><tspan fill="rgb(197,0,11)" stroke="none">20 IOPS</tspan></tspan></tspan></text>
 <text class="TextShape"><tspan class="TextParagraph" font-family="Liberation Sans, sans-serif" font-size="353px" font-weight="400"><tspan class="TextPosition" x="662" y="5571"><tspan fill="rgb(197,0,11)" stroke="none">40 IOPS</tspan></tspan></tspan></text>
 <text class="TextShape"><tspan class="TextParagraph" font-family="Liberation Sans, sans-serif" font-size="353px" font-weight="400"><tspan class="TextPosition" x="662" y="4210"><tspan fill="rgb(197,0,11)" stroke="none">60 IOPS</tspan></tspan></tspan></text>
 <text class="TextShape"><tspan class="TextParagraph" font-family="Liberation Sans, sans-serif" font-size="353px" font-weight="400"><tspan class="TextPosition" x="662" y="2850"><tspan fill="rgb(197,0,11)" stroke="none">80 IOPS</tspan></tspan></tspan></text>
 <text class="TextShape"><tspan class="TextParagraph" font-family="Liberation Sans, sans-serif" font-size="353px" font-weight="400"><tspan class="TextPosition" x="463" y="1489"><tspan fill="rgb(197,0,11)" stroke="none">100 IOPS</tspan></tspan></tspan></text>
 <text class="TextShape"><tspan class="TextParagraph" font-family="Liberation Sans, sans-serif" font-size="353px" font-weight="400"><tspan class="TextPosition" x="21271" y="8292"><tspan fill="rgb(0,69,134)" stroke="none">0 MB/s</tspan></tspan></tspan></text>
 <text class="TextShape"><tspan class="TextParagraph" font-family="Liberation Sans, sans-serif" font-size="353px" font-weight="400"><tspan class="TextPosition" x="21271" y="7085"><tspan fill="rgb(0,69,134)" stroke="none">5 MB/s</tspan></tspan></tspan></text>
 <text class="TextShape"><tspan class="TextParagraph" font-family="Liberation Sans, sans-serif" font-size="353px" font-weight="400"><tspan class="TextPosition" x="21271" y="5879"><tspan fill="rgb(0,69,134)" stroke="none">10 MB/s</tspan></tspan></tspan></text>
 <text class="TextShape"><tspan class="TextParagraph" font-family="Liberation Sans, sans-serif" font-size="353px" font-weight="400"><tspan class="TextPosition" x="21271" y="4672"><tspan fill="rgb(0,69,134)" stroke="none">15 MB/s</tspan></tspan></tspan></text>
 <text class="TextShape"><tspan class="TextParagraph" font-family="Liberation Sans, sans-serif" font-size="353px" font-weight="400"><tspan class="TextPosition" x="21271" y="3466"><tspan fill="rgb(0,69,134)" stroke="none">20 MB/s</tspan></tspan></tspan></text>
 <text class="TextShape"><tspan class="TextParagraph" font-family="Liberation Sans, sans-serif" font-size="353px" font-weight="400"><tspan class="TextPosition" x="21271" y="2260"><tspan fill="rgb(0,69,134)" stroke="none">25 MB/s</tspan></tspan></tspan></text>
 <text class="TextShape"><tspan class="TextParagraph" font-family="Liberation Sans, sans-serif" font-size="353px" font-weight="400"><tspan class="TextPosition" x="21271" y="1053"><tspan fill="rgb(0,69,134)" stroke="none">30 MB/s</tspan></tspan></tspan></text>
</svg>