<?xml version="1.0" encoding="UTF-8" standalone="no"?>
<!DOCTYPE svg PUBLIC "-//W3C//DTD SVG 1.0//EN" "http://www.w3.org/TR/2001/PR-SVG-20010719/DTD/svg10.dtd">
<svg width="96cm" height="15cm" viewBox="-2 398 1903 284" xmlns="http://www.w3.org/2000/svg" xmlns:xlink="http://www.w3.org/1999/xlink">
  <g id="Background">
    <g>
      <rect style="fill: #9fc5e8; fill-opacity: 1; stroke-opacity: 1; stroke-width: 2; stroke: #000000" x="400" y="500" width="100" height="100" rx="0" ry="0"/>
      <text font-size="31.6089" style="fill: #000000; fill-opacity: 1; stroke: none;text-anchor:middle;font-family:sans-serif;font-style:normal;font-weight:normal" x="450" y="559.584">
        <tspan x="450" y="559.584">6</tspan>
      </text>
    </g>
    <g>
      <rect style="fill: #a9c469; fill-opacity: 1; stroke-opacity: 1; stroke-width: 2; stroke: #000000" x="500" y="500" width="100" height="100" rx="0" ry="0"/>
      <text font-size="31.6089" style="fill: #000000; fill-opacity: 1; stroke: none;text-anchor:middle;font-family:sans-serif;font-style:normal;font-weight:normal" x="550" y="559.584">
        <tspan x="550" y="559.584">0</tspan>
      </text>
    </g>
    <g>
      <rect style="fill: #a9c469; fill-opacity: 1; stroke-opacity: 1; stroke-width: 2; stroke: #000000" x="600" y="500" width="100" height="100" rx="0" ry="0"/>
      <text font-size="31.6089" style="fill: #000000; fill-opacity: 1; stroke: none;text-anchor:middle;font-family:sans-serif;font-style:normal;font-weight:normal" x="650" y="559.584">
        <tspan x="650" y="559.584">1</tspan>
      </text>
    </g>
    <g>
      <rect style="fill: #a9c469; fill-opacity: 1; stroke-opacity: 1; stroke-width: 2; stroke: #000000" x="700" y="500" width="100" height="100" rx="0" ry="0"/>
      <text font-size="31.6089" style="fill: #000000; fill-opacity: 1; stroke: none;text-anchor:middle;font-family:sans-serif;font-style:normal;font-weight:normal" x="750" y="559.584">
        <tspan x="750" y="559.584">2</tspan>
      </text>
    </g>
    <g>
      <rect style="fill: #9fc5e8; fill-opacity: 1; stroke-opacity: 1; stroke-width: 2; stroke: #000000" x="800" y="500" width="100" height="100" rx="0" ry="0"/>
      <text font-size="31.6089" style="fill: #000000; fill-opacity: 1; stroke: none;text-anchor:middle;font-family:sans-serif;font-style:normal;font-weight:normal" x="850" y="559.584">
        <tspan x="850" y="559.584">0</tspan>
      </text>
    </g>
    <g>
      <rect style="fill: #9fc5e8; fill-opacity: 1; stroke-opacity: 1; stroke-width: 2; stroke: #000000" x="900" y="500" width="100" height="100" rx="0" ry="0"/>
      <text font-size="31.6089" style="fill: #000000; fill-opacity: 1; stroke: none;text-anchor:middle;font-family:sans-serif;font-style:normal;font-weight:normal" x="950" y="559.584">
        <tspan x="950" y="559.584">1</tspan>
      </text>
    </g>
    <g>
      <rect style="fill: #9fc5e8; fill-opacity: 1; stroke-opacity: 1; stroke-width: 2; stroke: #000000" x="1000" y="500" width="100" height="100" rx="0" ry="0"/>
      <text font-size="31.6089" style="fill: #000000; fill-opacity: 1; stroke: none;text-anchor:middle;font-family:sans-serif;font-style:normal;font-weight:normal" x="1050" y="559.584">
        <tspan x="1050" y="559.584">2</tspan>
      </text>
    </g>
    <g>
      <rect style="fill: #a9c469; fill-opacity: 1; stroke-opacity: 1; stroke-width: 2; stroke: #000000" x="1100" y="500" width="100" height="100" rx="0" ry="0"/>
      <text font-size="31.6089" style="fill: #000000; fill-opacity: 1; stroke: none;text-anchor:middle;font-family:sans-serif;font-style:normal;font-weight:normal" x="1150" y="559.584">
        <tspan x="1150" y="559.584">3</tspan>
      </text>
    </g>
    <g>
      <rect style="fill: #a9c469; fill-opacity: 1; stroke-opacity: 1; stroke-width: 2; stroke: #000000" x="1200" y="500" width="100" height="100" rx="0" ry="0"/>
      <text font-size="31.6089" style="fill: #000000; fill-opacity: 1; stroke: none;text-anchor:middle;font-family:sans-serif;font-style:normal;font-weight:normal" x="1250" y="559.584">
        <tspan x="1250" y="559.584">4</tspan>
      </text>
    </g>
    <g>
      <rect style="fill: #9fc5e8; fill-opacity: 1; stroke-opacity: 1; stroke-width: 2; stroke: #000000" x="1300" y="500" width="100" height="100" rx="0" ry="0"/>
      <text font-size="31.6089" style="fill: #000000; fill-opacity: 1; stroke: none;text-anchor:middle;font-family:sans-serif;font-style:normal;font-weight:normal" x="1350" y="559.584">
        <tspan x="1350" y="559.584">7</tspan>
      </text>
    </g>
    <g>
      <rect style="fill: #a9c469; fill-opacity: 1; stroke-opacity: 1; stroke-width: 2; stroke: #000000" x="1400" y="500" width="100" height="100" rx="0" ry="0"/>
      <text font-size="31.6089" style="fill: #000000; fill-opacity: 1; stroke: none;text-anchor:middle;font-family:sans-serif;font-style:normal;font-weight:normal" x="1450" y="559.584">
        <tspan x="1450" y="559.584">7</tspan>
      </text>
    </g>
    <g>
      <rect style="fill: #9fc5e8; fill-opacity: 1; stroke-opacity: 1; stroke-width: 2; stroke: #000000" x="1500" y="500" width="100" height="100" rx="0" ry="0"/>
      <text font-size="31.6089" style="fill: #000000; fill-opacity: 1; stroke: none;text-anchor:middle;font-family:sans-serif;font-style:normal;font-weight:normal" x="1550" y="559.584">
        <tspan x="1550" y="559.584">3</tspan>
      </text>
    </g>
    <g>
      <rect style="fill: #9fc5e8; fill-opacity: 1; stroke-opacity: 1; stroke-width: 2; stroke: #000000" x="1600" y="500" width="100" height="100" rx="0" ry="0"/>
      <text font-size="31.6089" style="fill: #000000; fill-opacity: 1; stroke: none;text-anchor:middle;font-family:sans-serif;font-style:normal;font-weight:normal" x="1650" y="559.584">
        <tspan x="1650" y="559.584">4</tspan>
      </text>
    </g>
    <g>
      <rect style="fill: #a9c469; fill-opacity: 1; stroke-opacity: 1; stroke-width: 2; stroke: #000000" x="1700" y="500" width="100" height="100" rx="0" ry="0"/>
      <text font-size="31.6089" style="fill: #000000; fill-opacity: 1; stroke: none;text-anchor:middle;font-family:sans-serif;font-style:normal;font-weight:normal" x="1750" y="559.584">
        <tspan x="1750" y="559.584">5</tspan>
      </text>
    </g>
    <g>
      <rect style="fill: #a9c469; fill-opacity: 1; stroke-opacity: 1; stroke-width: 2; stroke: #000000" x="1800" y="500" width="100" height="100" rx="0" ry="0"/>
      <text font-size="31.6089" style="fill: #000000; fill-opacity: 1; stroke: none;text-anchor:middle;font-family:sans-serif;font-style:normal;font-weight:normal" x="1850" y="559.584">
        <tspan x="1850" y="559.584">6</tspan>
      </text>
    </g>
    <g>
      <polyline style="fill: none; stroke-opacity: 1; stroke-width: 4; stroke: #579d1c" points="550,498.996 550,460 1150,460 1150,487.024 "/>
      <polygon style="fill: #579d1c; fill-opacity: 1; stroke-opacity: 1; stroke-width: 4; stroke: #579d1c" fill-rule="evenodd" points="1150,494.524 1145,484.524 1150,487.024 1155,484.524 "/>
    </g>
    <g>
      <polyline style="fill: none; stroke-opacity: 1; stroke-width: 4; stroke: #579d1c" points="1250,498.995 1250,440 1750,440 1750,487.023 "/>
      <polygon style="fill: #579d1c; fill-opacity: 1; stroke-opacity: 1; stroke-width: 4; stroke: #579d1c" fill-rule="evenodd" points="1750,494.523 1745,484.523 1750,487.023 1755,484.523 "/>
    </g>
    <g>
      <polyline style="fill: none; stroke-opacity: 1; stroke-width: 4; stroke: #579d1c" points="1850,498.996 1850,460 1450,460 1450,487.024 "/>
      <polygon style="fill: #579d1c; fill-opacity: 1; stroke-opacity: 1; stroke-width: 4; stroke: #579d1c" fill-rule="evenodd" points="1450,494.524 1445,484.524 1450,487.024 1455,484.524 "/>
    </g>
    <g>
      <polyline style="fill: none; stroke-opacity: 1; stroke-width: 4; stroke: #0084d1" points="1050,600.996 1050,641.998 1550,641.998 1550,612.969 "/>
      <polygon style="fill: #0084d1; fill-opacity: 1; stroke-opacity: 1; stroke-width: 4; stroke: #0084d1" fill-rule="evenodd" points="1550,605.469 1555,615.469 1550,612.969 1545,615.469 "/>
    </g>
    <g>
      <polyline style="fill: none; stroke-opacity: 1; stroke-width: 4; stroke: #0084d1" points="1650,600.996 1650,660.024 350,660.024 350,612.968 "/>
      <polygon style="fill: #0084d1; fill-opacity: 1; stroke-opacity: 1; stroke-width: 4; stroke: #0084d1" fill-rule="evenodd" points="350,605.468 355,615.468 350,612.968 345,615.468 "/>
    </g>
    <g>
      <rect style="fill: #9fc5e8; fill-opacity: 1; stroke-opacity: 1; stroke-width: 2; stroke: #000000" x="300" y="500" width="100" height="100" rx="0" ry="0"/>
      <text font-size="31.6089" style="fill: #000000; fill-opacity: 1; stroke: none;text-anchor:middle;font-family:sans-serif;font-style:normal;font-weight:normal" x="350" y="559.584">
        <tspan x="350" y="559.584">5</tspan>
      </text>
    </g>
    <g>
      <polyline style="fill: none; stroke-opacity: 1; stroke-width: 4; stroke: #0084d1" points="450,600.988 450,680 1350,680 1350,612.96 "/>
      <polygon style="fill: #0084d1; fill-opacity: 1; stroke-opacity: 1; stroke-width: 4; stroke: #0084d1" fill-rule="evenodd" points="1350,605.46 1355,615.46 1350,612.96 1345,615.46 "/>
    </g>
    <g>
      <rect style="fill: #a9c469; fill-opacity: 1; stroke-opacity: 1; stroke-width: 2; stroke: #000000" x="0" y="400" width="260" height="60" rx="0" ry="0"/>
      <text font-size="31.6089" style="fill: #000000; fill-opacity: 1; stroke: none;text-anchor:middle;font-family:sans-serif;font-style:normal;font-weight:normal" x="130" y="439.584">
        <tspan x="130" y="439.584">File A</tspan>
      </text>
    </g>
    <g>
      <rect style="fill: #9fc5e8; fill-opacity: 1; stroke-opacity: 1; stroke-width: 2; stroke: #000000" x="0" y="620" width="260" height="60" rx="0" ry="0"/>
      <text font-size="31.6089" style="fill: #000000; fill-opacity: 1; stroke: none;text-anchor:middle;font-family:sans-serif;font-style:normal;font-weight:normal" x="130" y="659.584">
        <tspan x="130" y="659.584">File B</tspan>
      </text>
    </g>
  </g>
</svg>
