<?xml version="1.0" encoding="UTF-8" standalone="no"?>
<!DOCTYPE svg PUBLIC "-//W3C//DTD SVG 1.0//EN" "http://www.w3.org/TR/2001/PR-SVG-20010719/DTD/svg10.dtd">
<svg width="56cm" height="37cm" viewBox="153 1154 1109 732" xmlns="http://www.w3.org/2000/svg" xmlns:xlink="http://www.w3.org/1999/xlink">
  <g id="Background">
    <g>
      <rect style="fill: #ffffff; fill-opacity: 1; stroke-opacity: 1; stroke-width: 2; stroke: #000000" x="300" y="1280" width="960" height="460" rx="0" ry="0"/>
      <text font-size="12.8" style="fill: #000000; fill-opacity: 1; stroke: none;text-anchor:middle;font-family:sans-serif;font-style:normal;font-weight:normal" x="780" y="1513.88">
        <tspan x="780" y="1513.88"></tspan>
      </text>
    </g>
    <g>
      <line style="fill: none; stroke-opacity: 1; stroke-width: 4; stroke: #000000" x1="780" y1="1200" x2="779.662" y2="1253.06"/>
      <polygon style="fill: #000000; fill-opacity: 1; stroke-opacity: 1; stroke-width: 4; stroke: #000000" fill-rule="evenodd" points="779.614,1260.56 774.678,1250.53 779.662,1253.06 784.678,1250.59 "/>
    </g>
    <text font-size="27.0933" style="fill: #000000; fill-opacity: 1; stroke: none;text-anchor:start;font-family:sans-serif;font-style:normal;font-weight:normal" x="720" y="1180">
      <tspan x="720" y="1180">Filesystem</tspan>
    </text>
    <g>
      <rect style="fill: #bce6ab; fill-opacity: 1; stroke-opacity: 1; stroke-width: 2; stroke: #000000" x="339.8" y="1300" width="100.4" height="140" rx="0" ry="0"/>
      <text font-size="22.5778" style="fill: #000000; fill-opacity: 1; stroke: none;text-anchor:middle;font-family:sans-serif;font-style:normal;font-weight:normal" x="390" y="1334.51">
        <tspan x="390" y="1334.51">000100</tspan>
        <tspan x="390" y="1362.74">001011</tspan>
        <tspan x="390" y="1390.96">010101</tspan>
        <tspan x="390" y="1419.18">001100</tspan>
      </text>
    </g>
    <g>
      <rect style="fill: #ff6550; fill-opacity: 1; stroke-opacity: 1; stroke-width: 2; stroke: #000000" x="519.8" y="1340" width="100.4" height="140" rx="0" ry="0"/>
      <text font-size="22.5778" style="fill: #000000; fill-opacity: 1; stroke: none;text-anchor:middle;font-family:sans-serif;font-style:normal;font-weight:normal" x="570" y="1374.51">
        <tspan x="570" y="1374.51">111011</tspan>
        <tspan x="570" y="1402.74">110100</tspan>
        <tspan x="570" y="1430.96">010101</tspan>
        <tspan x="570" y="1459.18">110011</tspan>
      </text>
    </g>
    <g>
      <rect style="fill: #bce6ab; fill-opacity: 1; stroke-opacity: 1; stroke-width: 2; stroke: #000000" x="439.8" y="1520" width="100.4" height="140" rx="0" ry="0"/>
      <text font-size="22.5778" style="fill: #000000; fill-opacity: 1; stroke: none;text-anchor:middle;font-family:sans-serif;font-style:normal;font-weight:normal" x="490" y="1554.51">
        <tspan x="490" y="1554.51">101010</tspan>
        <tspan x="490" y="1582.74">001110</tspan>
        <tspan x="490" y="1610.96">011000</tspan>
        <tspan x="490" y="1639.18">000001</tspan>
      </text>
    </g>
    <g>
      <rect style="fill: #bce6ab; fill-opacity: 1; stroke-opacity: 1; stroke-width: 2; stroke: #000000" x="659.8" y="1380" width="100.4" height="140" rx="0" ry="0"/>
      <text font-size="22.5778" style="fill: #000000; fill-opacity: 1; stroke: none;text-anchor:middle;font-family:sans-serif;font-style:normal;font-weight:normal" x="710" y="1414.51">
        <tspan x="710" y="1414.51">111111</tspan>
        <tspan x="710" y="1442.74">001111</tspan>
        <tspan x="710" y="1470.96">100010</tspan>
        <tspan x="710" y="1499.18">000101</tspan>
      </text>
    </g>
    <g>
      <rect style="fill: #bce6ab; fill-opacity: 1; stroke-opacity: 1; stroke-width: 2; stroke: #000000" x="319.8" y="1580" width="100.4" height="140" rx="0" ry="0"/>
      <text font-size="22.5778" style="fill: #000000; fill-opacity: 1; stroke: none;text-anchor:middle;font-family:sans-serif;font-style:normal;font-weight:normal" x="370" y="1614.51">
        <tspan x="370" y="1614.51">001011</tspan>
        <tspan x="370" y="1642.74">010101</tspan>
        <tspan x="370" y="1670.96">001100</tspan>
        <tspan x="370" y="1699.18">000100</tspan>
      </text>
    </g>
    <g>
      <rect style="fill: #ff6550; fill-opacity: 1; stroke-opacity: 1; stroke-width: 2; stroke: #000000" x="939.8" y="1560" width="100.4" height="140" rx="0" ry="0"/>
      <text font-size="22.5778" style="fill: #000000; fill-opacity: 1; stroke: none;text-anchor:middle;font-family:sans-serif;font-style:normal;font-weight:normal" x="990" y="1594.51">
        <tspan x="990" y="1594.51">110001</tspan>
        <tspan x="990" y="1622.74">111110</tspan>
        <tspan x="990" y="1650.96">000000</tspan>
        <tspan x="990" y="1679.18">010110</tspan>
      </text>
    </g>
    <g>
      <line style="fill: none; stroke-opacity: 1; stroke-width: 4; stroke: #000000" x1="780" y1="1760" x2="780" y2="1828.03"/>
      <polygon style="fill: #000000; fill-opacity: 1; stroke-opacity: 1; stroke-width: 4; stroke: #000000" fill-rule="evenodd" points="780,1835.53 775,1825.53 780,1828.03 785,1825.53 "/>
    </g>
    <text font-size="27.0933" style="fill: #000000; fill-opacity: 1; stroke: none;text-anchor:start;font-family:sans-serif;font-style:normal;font-weight:normal" x="720" y="1880">
      <tspan x="720" y="1880">Scheduler</tspan>
    </text>
    <g>
      <polyline style="fill: none; stroke-opacity: 1; stroke-width: 4; stroke-dasharray: 10; stroke: #000000" points="760,1200 760,1260 280,1260 280,1760 760,1760 760,1828 "/>
      <polygon style="fill: #000000; fill-opacity: 1; stroke-opacity: 1; stroke-width: 4; stroke: #000000" fill-rule="evenodd" points="755,1828 760,1838 765,1828 "/>
    </g>
    <text font-size="23.7067" style="fill: #000000; fill-opacity: 1; stroke: none;text-anchor:start;font-family:sans-serif;font-style:normal;font-weight:normal" x="153" y="1520">
      <tspan x="153" y="1520">O_DIRECT</tspan>
    </text>
    <g>
      <rect style="fill: #bce6ab; fill-opacity: 1; stroke-opacity: 1; stroke-width: 2; stroke: #000000" x="560" y="1560" width="100.4" height="147.556" rx="0" ry="0"/>
      <text font-size="22.5778" style="fill: #000000; fill-opacity: 1; stroke: none;text-anchor:middle;font-family:sans-serif;font-style:normal;font-weight:normal" x="610.2" y="1598.29">
        <tspan x="610.2" y="1598.29">010100</tspan>
        <tspan x="610.2" y="1626.51">111101</tspan>
        <tspan x="610.2" y="1654.74">001010</tspan>
        <tspan x="610.2" y="1682.96">000010</tspan>
      </text>
    </g>
    <g>
      <rect style="fill: #bce6ab; fill-opacity: 1; stroke-opacity: 1; stroke-width: 2; stroke: #000000" x="1060" y="1560" width="100.4" height="140" rx="0" ry="0"/>
      <text font-size="22.5778" style="fill: #000000; fill-opacity: 1; stroke: none;text-anchor:middle;font-family:sans-serif;font-style:normal;font-weight:normal" x="1110.2" y="1594.51">
        <tspan x="1110.2" y="1594.51">101010</tspan>
        <tspan x="1110.2" y="1622.74">001110</tspan>
        <tspan x="1110.2" y="1650.96">011000</tspan>
        <tspan x="1110.2" y="1679.18">000001</tspan>
      </text>
    </g>
    <g>
      <rect style="fill: #bce6ab; fill-opacity: 1; stroke-opacity: 1; stroke-width: 2; stroke: #000000" x="700" y="1580" width="100.4" height="140" rx="0" ry="0"/>
      <text font-size="22.5778" style="fill: #000000; fill-opacity: 1; stroke: none;text-anchor:middle;font-family:sans-serif;font-style:normal;font-weight:normal" x="750.2" y="1614.51">
        <tspan x="750.2" y="1614.51">111111</tspan>
        <tspan x="750.2" y="1642.74">001111</tspan>
        <tspan x="750.2" y="1670.96">100010</tspan>
        <tspan x="750.2" y="1699.18">000101</tspan>
      </text>
    </g>
    <g>
      <rect style="fill: #bce6ab; fill-opacity: 1; stroke-opacity: 1; stroke-width: 2; stroke: #000000" x="820" y="1500" width="100.4" height="140" rx="0" ry="0"/>
      <text font-size="22.5778" style="fill: #000000; fill-opacity: 1; stroke: none;text-anchor:middle;font-family:sans-serif;font-style:normal;font-weight:normal" x="870.2" y="1534.51">
        <tspan x="870.2" y="1534.51">101010</tspan>
        <tspan x="870.2" y="1562.74">001110</tspan>
        <tspan x="870.2" y="1590.96">011000</tspan>
        <tspan x="870.2" y="1619.18">000001</tspan>
      </text>
    </g>
    <g>
      <rect style="fill: #bce6ab; fill-opacity: 1; stroke-opacity: 1; stroke-width: 2; stroke: #000000" x="840" y="1340" width="100.4" height="140" rx="0" ry="0"/>
      <text font-size="22.5778" style="fill: #000000; fill-opacity: 1; stroke: none;text-anchor:middle;font-family:sans-serif;font-style:normal;font-weight:normal" x="890.2" y="1374.51">
        <tspan x="890.2" y="1374.51">001011</tspan>
        <tspan x="890.2" y="1402.74">010101</tspan>
        <tspan x="890.2" y="1430.96">001100</tspan>
        <tspan x="890.2" y="1459.18">000100</tspan>
      </text>
    </g>
    <g>
      <rect style="fill: #bce6ab; fill-opacity: 1; stroke-opacity: 1; stroke-width: 2; stroke: #000000" x="980" y="1380" width="100.4" height="140" rx="0" ry="0"/>
      <text font-size="22.5778" style="fill: #000000; fill-opacity: 1; stroke: none;text-anchor:middle;font-family:sans-serif;font-style:normal;font-weight:normal" x="1030.2" y="1414.51">
        <tspan x="1030.2" y="1414.51">101010</tspan>
        <tspan x="1030.2" y="1442.74">001110</tspan>
        <tspan x="1030.2" y="1470.96">011000</tspan>
        <tspan x="1030.2" y="1499.18">000001</tspan>
      </text>
    </g>
    <g>
      <rect style="fill: #bce6ab; fill-opacity: 1; stroke-opacity: 1; stroke-width: 2; stroke: #000000" x="1120" y="1320" width="100.4" height="140" rx="0" ry="0"/>
      <text font-size="22.5778" style="fill: #000000; fill-opacity: 1; stroke: none;text-anchor:middle;font-family:sans-serif;font-style:normal;font-weight:normal" x="1170.2" y="1354.51">
        <tspan x="1170.2" y="1354.51">111111</tspan>
        <tspan x="1170.2" y="1382.74">001111</tspan>
        <tspan x="1170.2" y="1410.96">100010</tspan>
        <tspan x="1170.2" y="1439.18">000101</tspan>
      </text>
    </g>
  </g>
</svg>
