<?xml version="1.0" encoding="UTF-8"?>
<!DOCTYPE svg PUBLIC "-//W3C//DTD SVG 1.1//EN" "http://www.w3.org/Graphics/SVG/1.1/DTD/svg11.dtd">
<svg width="218mm" height="82mm" viewBox="0 0 21800 8200" version="1.1" baseProfile="tiny" xmlns="http://www.w3.org/2000/svg" stroke-width="28.222" stroke-linejoin="round" xml:space="preserve">
 <path fill="rgb(255,255,255)" stroke="none" d="M 10905,8160 L 10,8160 10,0 21800,0 21800,8160 10905,8160 Z"/>
 <path fill="none" stroke="rgb(221,221,221)" stroke-linejoin="round" d="M 11059,7488 L 2546,7488 2546,228 19572,228 19572,7488 11059,7488 Z"/>
 <path fill="none" stroke="rgb(238,238,238)" stroke-linejoin="round" d="M 2546,227 L 2546,7487"/>
 <path fill="none" stroke="rgb(238,238,238)" stroke-linejoin="round" d="M 3547,227 L 3547,7487"/>
 <path fill="none" stroke="rgb(238,238,238)" stroke-linejoin="round" d="M 4549,227 L 4549,7487"/>
 <path fill="none" stroke="rgb(238,238,238)" stroke-linejoin="round" d="M 5550,227 L 5550,7487"/>
 <path fill="none" stroke="rgb(238,238,238)" stroke-linejoin="round" d="M 6552,227 L 6552,7487"/>
 <path fill="none" stroke="rgb(238,238,238)" stroke-linejoin="round" d="M 7553,227 L 7553,7487"/>
 <path fill="none" stroke="rgb(238,238,238)" stroke-linejoin="round" d="M 8555,227 L 8555,7487"/>
 <path fill="none" stroke="rgb(238,238,238)" stroke-linejoin="round" d="M 9557,227 L 9557,7487"/>
 <path fill="none" stroke="rgb(238,238,238)" stroke-linejoin="round" d="M 10558,227 L 10558,7487"/>
 <path fill="none" stroke="rgb(238,238,238)" stroke-linejoin="round" d="M 11559,227 L 11559,7487"/>
 <path fill="none" stroke="rgb(238,238,238)" stroke-linejoin="round" d="M 12560,227 L 12560,7487"/>
 <path fill="none" stroke="rgb(238,238,238)" stroke-linejoin="round" d="M 13562,227 L 13562,7487"/>
 <path fill="none" stroke="rgb(238,238,238)" stroke-linejoin="round" d="M 14564,227 L 14564,7487"/>
 <path fill="none" stroke="rgb(238,238,238)" stroke-linejoin="round" d="M 15565,227 L 15565,7487"/>
 <path fill="none" stroke="rgb(238,238,238)" stroke-linejoin="round" d="M 16567,227 L 16567,7487"/>
 <path fill="none" stroke="rgb(238,238,238)" stroke-linejoin="round" d="M 17568,227 L 17568,7487"/>
 <path fill="none" stroke="rgb(238,238,238)" stroke-linejoin="round" d="M 18570,227 L 18570,7487"/>
 <path fill="none" stroke="rgb(238,238,238)" stroke-linejoin="round" d="M 19572,227 L 19572,7487"/>
 <path fill="none" stroke="rgb(238,238,238)" stroke-linejoin="round" d="M 19572,7487 L 2546,7487"/>
 <path fill="none" stroke="rgb(238,238,238)" stroke-linejoin="round" d="M 19572,6369 L 2546,6369"/>
 <path fill="none" stroke="rgb(238,238,238)" stroke-linejoin="round" d="M 19572,5252 L 2546,5252"/>
 <path fill="none" stroke="rgb(238,238,238)" stroke-linejoin="round" d="M 19572,4135 L 2546,4135"/>
 <path fill="none" stroke="rgb(238,238,238)" stroke-linejoin="round" d="M 19572,3019 L 2546,3019"/>
 <path fill="none" stroke="rgb(238,238,238)" stroke-linejoin="round" d="M 19572,1902 L 2546,1902"/>
 <path fill="none" stroke="rgb(238,238,238)" stroke-linejoin="round" d="M 19572,785 L 2546,785"/>
 <path fill="none" stroke="rgb(179,179,179)" stroke-linejoin="round" d="M 2546,7637 L 2546,7487"/>
 <path fill="none" stroke="rgb(179,179,179)" stroke-linejoin="round" d="M 2546,7637 L 2546,7487"/>
 <path fill="none" stroke="rgb(179,179,179)" stroke-linejoin="round" d="M 3547,7637 L 3547,7487"/>
 <path fill="none" stroke="rgb(179,179,179)" stroke-linejoin="round" d="M 3547,7637 L 3547,7487"/>
 <path fill="none" stroke="rgb(179,179,179)" stroke-linejoin="round" d="M 4549,7637 L 4549,7487"/>
 <path fill="none" stroke="rgb(179,179,179)" stroke-linejoin="round" d="M 4549,7637 L 4549,7487"/>
 <path fill="none" stroke="rgb(179,179,179)" stroke-linejoin="round" d="M 5550,7637 L 5550,7487"/>
 <path fill="none" stroke="rgb(179,179,179)" stroke-linejoin="round" d="M 5550,7637 L 5550,7487"/>
 <path fill="none" stroke="rgb(179,179,179)" stroke-linejoin="round" d="M 6552,7637 L 6552,7487"/>
 <path fill="none" stroke="rgb(179,179,179)" stroke-linejoin="round" d="M 6552,7637 L 6552,7487"/>
 <path fill="none" stroke="rgb(179,179,179)" stroke-linejoin="round" d="M 7553,7637 L 7553,7487"/>
 <path fill="none" stroke="rgb(179,179,179)" stroke-linejoin="round" d="M 7553,7637 L 7553,7487"/>
 <path fill="none" stroke="rgb(179,179,179)" stroke-linejoin="round" d="M 8555,7637 L 8555,7487"/>
 <path fill="none" stroke="rgb(179,179,179)" stroke-linejoin="round" d="M 8555,7637 L 8555,7487"/>
 <path fill="none" stroke="rgb(179,179,179)" stroke-linejoin="round" d="M 9557,7637 L 9557,7487"/>
 <path fill="none" stroke="rgb(179,179,179)" stroke-linejoin="round" d="M 9557,7637 L 9557,7487"/>
 <path fill="none" stroke="rgb(179,179,179)" stroke-linejoin="round" d="M 10558,7637 L 10558,7487"/>
 <path fill="none" stroke="rgb(179,179,179)" stroke-linejoin="round" d="M 10558,7637 L 10558,7487"/>
 <path fill="none" stroke="rgb(179,179,179)" stroke-linejoin="round" d="M 11559,7637 L 11559,7487"/>
 <path fill="none" stroke="rgb(179,179,179)" stroke-linejoin="round" d="M 11559,7637 L 11559,7487"/>
 <path fill="none" stroke="rgb(179,179,179)" stroke-linejoin="round" d="M 12560,7637 L 12560,7487"/>
 <path fill="none" stroke="rgb(179,179,179)" stroke-linejoin="round" d="M 12560,7637 L 12560,7487"/>
 <path fill="none" stroke="rgb(179,179,179)" stroke-linejoin="round" d="M 13562,7637 L 13562,7487"/>
 <path fill="none" stroke="rgb(179,179,179)" stroke-linejoin="round" d="M 13562,7637 L 13562,7487"/>
 <path fill="none" stroke="rgb(179,179,179)" stroke-linejoin="round" d="M 14564,7637 L 14564,7487"/>
 <path fill="none" stroke="rgb(179,179,179)" stroke-linejoin="round" d="M 14564,7637 L 14564,7487"/>
 <path fill="none" stroke="rgb(179,179,179)" stroke-linejoin="round" d="M 15565,7637 L 15565,7487"/>
 <path fill="none" stroke="rgb(179,179,179)" stroke-linejoin="round" d="M 15565,7637 L 15565,7487"/>
 <path fill="none" stroke="rgb(179,179,179)" stroke-linejoin="round" d="M 16567,7637 L 16567,7487"/>
 <path fill="none" stroke="rgb(179,179,179)" stroke-linejoin="round" d="M 16567,7637 L 16567,7487"/>
 <path fill="none" stroke="rgb(179,179,179)" stroke-linejoin="round" d="M 17568,7637 L 17568,7487"/>
 <path fill="none" stroke="rgb(179,179,179)" stroke-linejoin="round" d="M 17568,7637 L 17568,7487"/>
 <path fill="none" stroke="rgb(179,179,179)" stroke-linejoin="round" d="M 18570,7637 L 18570,7487"/>
 <path fill="none" stroke="rgb(179,179,179)" stroke-linejoin="round" d="M 18570,7637 L 18570,7487"/>
 <path fill="none" stroke="rgb(179,179,179)" stroke-linejoin="round" d="M 19572,7637 L 19572,7487"/>
 <path fill="none" stroke="rgb(179,179,179)" stroke-linejoin="round" d="M 19572,7637 L 19572,7487"/>
 <path fill="none" stroke="rgb(179,179,179)" stroke-linejoin="round" d="M 2546,7487 L 19572,7487"/>
 <path fill="none" stroke="rgb(179,179,179)" stroke-linejoin="round" d="M 2546,227 L 19572,227"/>
 <path fill="none" stroke="rgb(179,179,179)" stroke-linejoin="round" d="M 2396,7487 L 2546,7487"/>
 <path fill="none" stroke="rgb(179,179,179)" stroke-linejoin="round" d="M 2396,7487 L 2546,7487"/>
 <path fill="none" stroke="rgb(179,179,179)" stroke-linejoin="round" d="M 2396,6369 L 2546,6369"/>
 <path fill="none" stroke="rgb(179,179,179)" stroke-linejoin="round" d="M 2396,6369 L 2546,6369"/>
 <path fill="none" stroke="rgb(179,179,179)" stroke-linejoin="round" d="M 2396,5252 L 2546,5252"/>
 <path fill="none" stroke="rgb(179,179,179)" stroke-linejoin="round" d="M 2396,5252 L 2546,5252"/>
 <path fill="none" stroke="rgb(179,179,179)" stroke-linejoin="round" d="M 2396,4135 L 2546,4135"/>
 <path fill="none" stroke="rgb(179,179,179)" stroke-linejoin="round" d="M 2396,4135 L 2546,4135"/>
 <path fill="none" stroke="rgb(179,179,179)" stroke-linejoin="round" d="M 2396,3019 L 2546,3019"/>
 <path fill="none" stroke="rgb(179,179,179)" stroke-linejoin="round" d="M 2396,3019 L 2546,3019"/>
 <path fill="none" stroke="rgb(179,179,179)" stroke-linejoin="round" d="M 2396,1902 L 2546,1902"/>
 <path fill="none" stroke="rgb(179,179,179)" stroke-linejoin="round" d="M 2396,1902 L 2546,1902"/>
 <path fill="none" stroke="rgb(179,179,179)" stroke-linejoin="round" d="M 2396,785 L 2546,785"/>
 <path fill="none" stroke="rgb(179,179,179)" stroke-linejoin="round" d="M 2396,785 L 2546,785"/>
 <path fill="none" stroke="rgb(179,179,179)" stroke-linejoin="round" d="M 2546,7487 L 2546,227"/>
 <path fill="none" stroke="rgb(179,179,179)" stroke-linejoin="round" d="M 19722,7487 L 19572,7487"/>
 <path fill="none" stroke="rgb(179,179,179)" stroke-linejoin="round" d="M 19722,7487 L 19572,7487"/>
 <path fill="none" stroke="rgb(179,179,179)" stroke-linejoin="round" d="M 19722,6637 L 19572,6637"/>
 <path fill="none" stroke="rgb(179,179,179)" stroke-linejoin="round" d="M 19722,6637 L 19572,6637"/>
 <path fill="none" stroke="rgb(179,179,179)" stroke-linejoin="round" d="M 19722,5787 L 19572,5787"/>
 <path fill="none" stroke="rgb(179,179,179)" stroke-linejoin="round" d="M 19722,5787 L 19572,5787"/>
 <path fill="none" stroke="rgb(179,179,179)" stroke-linejoin="round" d="M 19722,4937 L 19572,4937"/>
 <path fill="none" stroke="rgb(179,179,179)" stroke-linejoin="round" d="M 19722,4937 L 19572,4937"/>
 <path fill="none" stroke="rgb(179,179,179)" stroke-linejoin="round" d="M 19722,4088 L 19572,4088"/>
 <path fill="none" stroke="rgb(179,179,179)" stroke-linejoin="round" d="M 19722,4088 L 19572,4088"/>
 <path fill="none" stroke="rgb(179,179,179)" stroke-linejoin="round" d="M 19722,3239 L 19572,3239"/>
 <path fill="none" stroke="rgb(179,179,179)" stroke-linejoin="round" d="M 19722,3239 L 19572,3239"/>
 <path fill="none" stroke="rgb(179,179,179)" stroke-linejoin="round" d="M 19722,2389 L 19572,2389"/>
 <path fill="none" stroke="rgb(179,179,179)" stroke-linejoin="round" d="M 19722,2389 L 19572,2389"/>
 <path fill="none" stroke="rgb(179,179,179)" stroke-linejoin="round" d="M 19722,1540 L 19572,1540"/>
 <path fill="none" stroke="rgb(179,179,179)" stroke-linejoin="round" d="M 19722,1540 L 19572,1540"/>
 <path fill="none" stroke="rgb(179,179,179)" stroke-linejoin="round" d="M 19722,690 L 19572,690"/>
 <path fill="none" stroke="rgb(179,179,179)" stroke-linejoin="round" d="M 19722,690 L 19572,690"/>
 <path fill="none" stroke="rgb(179,179,179)" stroke-linejoin="round" d="M 19572,7487 L 19572,227"/>
 <path fill="none" stroke="rgb(0,69,134)" stroke-width="51" stroke-linejoin="round" d="M 2546,7057 L 3547,6807 4549,6432 5550,5824 6552,5361 7553,4847 8555,4466 9557,3886 10558,2986 11559,2192 12560,1937 13562,1361 14564,684 15565,592 16567,642 17568,687 18570,619 19572,665"/>
 <path fill="none" stroke="rgb(197,0,11)" stroke-width="51" stroke-linejoin="round" d="M 2546,592 L 3547,2038 4549,3256 5550,4152 6552,5355 7553,6163 8555,6729 9557,7035 10558,7204 11559,7321 12560,7400 13562,7438 14564,7460 15565,7473 16567,7480 17568,7483 18570,7485 19572,7486"/>
 <text class="TextShape"><tspan class="TextParagraph" font-family="Liberation Sans, sans-serif" font-size="353px" font-weight="400"><tspan class="TextPosition" x="2169" y="8055"><tspan fill="rgb(0,0,0)" stroke="none">4KiB</tspan></tspan></tspan></text>
 <text class="TextShape"><tspan class="TextParagraph" font-family="Liberation Sans, sans-serif" font-size="353px" font-weight="400"><tspan class="TextPosition" x="4072" y="8055"><tspan fill="rgb(0,0,0)" stroke="none">16KiB</tspan></tspan></tspan></text>
 <text class="TextShape"><tspan class="TextParagraph" font-family="Liberation Sans, sans-serif" font-size="353px" font-weight="400"><tspan class="TextPosition" x="6075" y="8055"><tspan fill="rgb(0,0,0)" stroke="none">64KiB</tspan></tspan></tspan></text>
 <text class="TextShape"><tspan class="TextParagraph" font-family="Liberation Sans, sans-serif" font-size="353px" font-weight="400"><tspan class="TextPosition" x="7979" y="8055"><tspan fill="rgb(0,0,0)" stroke="none">256KiB</tspan></tspan></tspan></text>
 <text class="TextShape"><tspan class="TextParagraph" font-family="Liberation Sans, sans-serif" font-size="353px" font-weight="400"><tspan class="TextPosition" x="10148" y="8055"><tspan fill="rgb(0,0,0)" stroke="none">1MiB</tspan></tspan></tspan></text>
 <text class="TextShape"><tspan class="TextParagraph" font-family="Liberation Sans, sans-serif" font-size="353px" font-weight="400"><tspan class="TextPosition" x="12151" y="8055"><tspan fill="rgb(0,0,0)" stroke="none">4MiB</tspan></tspan></tspan></text>
 <text class="TextShape"><tspan class="TextParagraph" font-family="Liberation Sans, sans-serif" font-size="353px" font-weight="400"><tspan class="TextPosition" x="14055" y="8055"><tspan fill="rgb(0,0,0)" stroke="none">16MiB</tspan></tspan></tspan></text>
 <text class="TextShape"><tspan class="TextParagraph" font-family="Liberation Sans, sans-serif" font-size="353px" font-weight="400"><tspan class="TextPosition" x="16058" y="8055"><tspan fill="rgb(0,0,0)" stroke="none">64MiB</tspan></tspan></tspan></text>
 <text class="TextShape"><tspan class="TextParagraph" font-family="Liberation Sans, sans-serif" font-size="353px" font-weight="400"><tspan class="TextPosition" x="17962" y="8055"><tspan fill="rgb(0,0,0)" stroke="none">256MiB</tspan></tspan></tspan></text>
 <text class="TextShape"><tspan class="TextParagraph" font-family="Liberation Sans, sans-serif" font-size="71px" font-weight="400"><tspan class="TextPosition" x="2480" y="115"><tspan fill="rgb(255,255,255)" stroke="none">4KiB</tspan></tspan></tspan></text>
 <text class="TextShape"><tspan class="TextParagraph" font-family="Liberation Sans, sans-serif" font-size="71px" font-weight="400"><tspan class="TextPosition" x="4463" y="115"><tspan fill="rgb(255,255,255)" stroke="none">16KiB</tspan></tspan></tspan></text>
 <text class="TextShape"><tspan class="TextParagraph" font-family="Liberation Sans, sans-serif" font-size="71px" font-weight="400"><tspan class="TextPosition" x="6466" y="115"><tspan fill="rgb(255,255,255)" stroke="none">64KiB</tspan></tspan></tspan></text>
 <text class="TextShape"><tspan class="TextParagraph" font-family="Liberation Sans, sans-serif" font-size="71px" font-weight="400"><tspan class="TextPosition" x="8449" y="115"><tspan fill="rgb(255,255,255)" stroke="none">256KiB</tspan></tspan></tspan></text>
 <text class="TextShape"><tspan class="TextParagraph" font-family="Liberation Sans, sans-serif" font-size="71px" font-weight="400"><tspan class="TextPosition" x="10485" y="115"><tspan fill="rgb(255,255,255)" stroke="none">1MiB</tspan></tspan></tspan></text>
 <text class="TextShape"><tspan class="TextParagraph" font-family="Liberation Sans, sans-serif" font-size="71px" font-weight="400"><tspan class="TextPosition" x="12488" y="115"><tspan fill="rgb(255,255,255)" stroke="none">4MiB</tspan></tspan></tspan></text>
 <text class="TextShape"><tspan class="TextParagraph" font-family="Liberation Sans, sans-serif" font-size="71px" font-weight="400"><tspan class="TextPosition" x="14472" y="115"><tspan fill="rgb(255,255,255)" stroke="none">16MiB</tspan></tspan></tspan></text>
 <text class="TextShape"><tspan class="TextParagraph" font-family="Liberation Sans, sans-serif" font-size="71px" font-weight="400"><tspan class="TextPosition" x="16475" y="115"><tspan fill="rgb(255,255,255)" stroke="none">64MiB</tspan></tspan></tspan></text>
 <text class="TextShape"><tspan class="TextParagraph" font-family="Liberation Sans, sans-serif" font-size="71px" font-weight="400"><tspan class="TextPosition" x="18458" y="115"><tspan fill="rgb(255,255,255)" stroke="none">256MiB</tspan></tspan></tspan></text>
 <text class="TextShape"><tspan class="TextParagraph" font-family="Liberation Sans, sans-serif" font-size="353px" font-weight="400"><tspan class="TextPosition" x="1145" y="7608"><tspan fill="rgb(197,0,11)" stroke="none">0 IOPS</tspan></tspan></tspan></text>
 <text class="TextShape"><tspan class="TextParagraph" font-family="Liberation Sans, sans-serif" font-size="353px" font-weight="400"><tspan class="TextPosition" x="444" y="6490"><tspan fill="rgb(197,0,11)" stroke="none">1,000 IOPS</tspan></tspan></tspan></text>
 <text class="TextShape"><tspan class="TextParagraph" font-family="Liberation Sans, sans-serif" font-size="353px" font-weight="400"><tspan class="TextPosition" x="444" y="5373"><tspan fill="rgb(197,0,11)" stroke="none">2,000 IOPS</tspan></tspan></tspan></text>
 <text class="TextShape"><tspan class="TextParagraph" font-family="Liberation Sans, sans-serif" font-size="353px" font-weight="400"><tspan class="TextPosition" x="444" y="4256"><tspan fill="rgb(197,0,11)" stroke="none">3,000 IOPS</tspan></tspan></tspan></text>
 <text class="TextShape"><tspan class="TextParagraph" font-family="Liberation Sans, sans-serif" font-size="353px" font-weight="400"><tspan class="TextPosition" x="444" y="3139"><tspan fill="rgb(197,0,11)" stroke="none">4,000 IOPS</tspan></tspan></tspan></text>
 <text class="TextShape"><tspan class="TextParagraph" font-family="Liberation Sans, sans-serif" font-size="353px" font-weight="400"><tspan class="TextPosition" x="444" y="2022"><tspan fill="rgb(197,0,11)" stroke="none">5,000 IOPS</tspan></tspan></tspan></text>
 <text class="TextShape"><tspan class="TextParagraph" font-family="Liberation Sans, sans-serif" font-size="353px" font-weight="400"><tspan class="TextPosition" x="444" y="905"><tspan fill="rgb(197,0,11)" stroke="none">6,000 IOPS</tspan></tspan></tspan></text>
 <text class="TextShape"><tspan class="TextParagraph" font-family="Liberation Sans, sans-serif" font-size="353px" font-weight="400"><tspan class="TextPosition" x="19822" y="7608"><tspan fill="rgb(0,69,134)" stroke="none">0 MB/s</tspan></tspan></tspan></text>
 <text class="TextShape"><tspan class="TextParagraph" font-family="Liberation Sans, sans-serif" font-size="353px" font-weight="400"><tspan class="TextPosition" x="19822" y="6758"><tspan fill="rgb(0,69,134)" stroke="none">50 MB/s</tspan></tspan></tspan></text>
 <text class="TextShape"><tspan class="TextParagraph" font-family="Liberation Sans, sans-serif" font-size="353px" font-weight="400"><tspan class="TextPosition" x="19822" y="5908"><tspan fill="rgb(0,69,134)" stroke="none">100 MB/s</tspan></tspan></tspan></text>
 <text class="TextShape"><tspan class="TextParagraph" font-family="Liberation Sans, sans-serif" font-size="353px" font-weight="400"><tspan class="TextPosition" x="19822" y="5058"><tspan fill="rgb(0,69,134)" stroke="none">150 MB/s</tspan></tspan></tspan></text>
 <text class="TextShape"><tspan class="TextParagraph" font-family="Liberation Sans, sans-serif" font-size="353px" font-weight="400"><tspan class="TextPosition" x="19822" y="4209"><tspan fill="rgb(0,69,134)" stroke="none">200 MB/s</tspan></tspan></tspan></text>
 <text class="TextShape"><tspan class="TextParagraph" font-family="Liberation Sans, sans-serif" font-size="353px" font-weight="400"><tspan class="TextPosition" x="19822" y="3359"><tspan fill="rgb(0,69,134)" stroke="none">250 MB/s</tspan></tspan></tspan></text>
 <text class="TextShape"><tspan class="TextParagraph" font-family="Liberation Sans, sans-serif" font-size="353px" font-weight="400"><tspan class="TextPosition" x="19822" y="2509"><tspan fill="rgb(0,69,134)" stroke="none">300 MB/s</tspan></tspan></tspan></text>
 <text class="TextShape"><tspan class="TextParagraph" font-family="Liberation Sans, sans-serif" font-size="353px" font-weight="400"><tspan class="TextPosition" x="19822" y="1660"><tspan fill="rgb(0,69,134)" stroke="none">350 MB/s</tspan></tspan></tspan></text>
 <text class="TextShape"><tspan class="TextParagraph" font-family="Liberation Sans, sans-serif" font-size="353px" font-weight="400"><tspan class="TextPosition" x="19822" y="810"><tspan fill="rgb(0,69,134)" stroke="none">400 MB/s</tspan></tspan></tspan></text>
</svg>