<?xml version="1.0" encoding="UTF-8" standalone="no"?>
<!DOCTYPE svg PUBLIC "-//W3C//DTD SVG 1.0//EN" "http://www.w3.org/TR/2001/PR-SVG-20010719/DTD/svg10.dtd">
<svg width="91cm" height="45cm" viewBox="373 99 1811 897" xmlns="http://www.w3.org/2000/svg" xmlns:xlink="http://www.w3.org/1999/xlink">
  <g id="Background">
    <g>
      <rect style="fill: #d8e5e5; fill-opacity: 1; stroke-opacity: 1; stroke-width: 2; stroke: #000000" x="920" y="430" width="1100" height="170" rx="10" ry="10"/>
      <text font-size="12.8" style="fill: #000000; fill-opacity: 1; stroke: none;text-anchor:middle;font-family:sans-serif;font-style:normal;font-weight:normal" x="1470" y="518.881">
        <tspan x="1470" y="518.881"></tspan>
      </text>
    </g>
    <g>
      <line style="fill: none; stroke-opacity: 1; stroke-width: 4; stroke: #c5000e" x1="667.472" y1="390" x2="1700" y2="390"/>
      <polygon style="fill: #c5000e; fill-opacity: 1; stroke-opacity: 1; stroke-width: 4; stroke: #c5000e" fill-rule="evenodd" points="664.472,390 668.472,388 667.472,390 668.472,392 "/>
    </g>
    <line style="fill: none; stroke-opacity: 1; stroke-width: 4; stroke: #004eca" x1="1010" y1="430" x2="1010" y2="460"/>
    <line style="fill: none; stroke-opacity: 1; stroke-width: 4; stroke: #004eca" x1="1010" y1="580" x2="1010" y2="610"/>
    <line style="fill: none; stroke-opacity: 1; stroke-width: 4; stroke: #004eca" x1="1010" y1="730" x2="1010" y2="760"/>
    <line style="fill: none; stroke-opacity: 1; stroke-width: 4; stroke: #004eca" x1="1010" y1="800" x2="1010" y2="830"/>
    <line style="fill: none; stroke-opacity: 1; stroke-width: 4; stroke-dasharray: 4; stroke: #004eca" x1="1010" y1="760" x2="1010" y2="800"/>
    <line style="fill: none; stroke-opacity: 1; stroke-width: 4; stroke: #004eca" x1="1210" y1="430" x2="1210" y2="460"/>
    <line style="fill: none; stroke-opacity: 1; stroke-width: 4; stroke: #004eca" x1="1210" y1="580" x2="1210" y2="610"/>
    <line style="fill: none; stroke-opacity: 1; stroke-width: 4; stroke: #004eca" x1="1410" y1="430" x2="1410" y2="460"/>
    <line style="fill: none; stroke-opacity: 1; stroke-width: 4; stroke: #004eca" x1="1410" y1="580" x2="1410" y2="610"/>
    <line style="fill: none; stroke-opacity: 1; stroke-width: 4; stroke: #004eca" x1="1610" y1="580" x2="1610" y2="610"/>
    <line style="fill: none; stroke-opacity: 1; stroke-width: 4; stroke: #004eca" x1="1610" y1="430" x2="1610" y2="460"/>
    <line style="fill: none; stroke-opacity: 1; stroke-width: 4; stroke: #004eca" x1="1900" y1="430" x2="1900" y2="460"/>
    <line style="fill: none; stroke-opacity: 1; stroke-width: 4; stroke: #004eca" x1="1900" y1="580" x2="1900" y2="610"/>
    <line style="fill: none; stroke-opacity: 1; stroke-width: 4; stroke: #c5000e" x1="1820" y1="390" x2="1840" y2="370"/>
    <g>
      <line style="fill: none; stroke-opacity: 1; stroke-width: 4; stroke: #c5000e" x1="1530" y1="390" x2="1550" y2="370"/>
      <path style="fill: #c5000e; fill-opacity: 1; stroke-opacity: 1; stroke-width: 4; stroke: #c5000e" fill-rule="evenodd" d="M 1530 390 C 1528.94,388.939 1528.94,386.818 1530,385.757 C 1531.06,384.697 1533.18,384.697 1534.24,385.757 C 1535.3,386.818 1535.3,388.939 1534.24,390 C 1533.18,391.061 1531.06,391.061 1530,390z"/>
    </g>
    <g>
      <line style="fill: none; stroke-opacity: 1; stroke-width: 4; stroke: #c5000e" x1="1330" y1="390" x2="1350" y2="370"/>
      <path style="fill: #c5000e; fill-opacity: 1; stroke-opacity: 1; stroke-width: 4; stroke: #c5000e" fill-rule="evenodd" d="M 1330 390 C 1328.94,388.939 1328.94,386.818 1330,385.757 C 1331.06,384.697 1333.18,384.697 1334.24,385.757 C 1335.3,386.818 1335.3,388.939 1334.24,390 C 1333.18,391.061 1331.06,391.061 1330,390z"/>
    </g>
    <g>
      <line style="fill: none; stroke-opacity: 1; stroke-width: 4; stroke: #c5000e" x1="1130" y1="390" x2="1150" y2="370"/>
      <path style="fill: #c5000e; fill-opacity: 1; stroke-opacity: 1; stroke-width: 4; stroke: #c5000e" fill-rule="evenodd" d="M 1130 390 C 1128.94,388.939 1128.94,386.818 1130,385.757 C 1131.06,384.697 1133.18,384.697 1134.24,385.757 C 1135.3,386.818 1135.3,388.939 1134.24,390 C 1133.18,391.061 1131.06,391.061 1130,390z"/>
    </g>
    <g>
      <line style="fill: none; stroke-opacity: 1; stroke-width: 4; stroke: #c5000e" x1="930" y1="390" x2="950" y2="370"/>
      <path style="fill: #c5000e; fill-opacity: 1; stroke-opacity: 1; stroke-width: 4; stroke: #c5000e" fill-rule="evenodd" d="M 930 390 C 928.939,388.939 928.939,386.818 930,385.757 C 931.061,384.697 933.182,384.697 934.243,385.757 C 935.303,386.818 935.303,388.939 934.243,390 C 933.182,391.061 931.061,391.061 930,390z"/>
    </g>
    <line style="fill: none; stroke-opacity: 1; stroke-width: 4; stroke-dasharray: 4; stroke: #c5000e" x1="1700" y1="390" x2="1770" y2="390"/>
    <line style="fill: none; stroke-opacity: 1; stroke-width: 4; stroke: #c5000e" x1="1770" y1="390" x2="1820" y2="390"/>
    <line style="fill: none; stroke-opacity: 1; stroke-width: 4; stroke: #c5000e" x1="1820" y1="540" x2="1840" y2="520"/>
    <g>
      <line style="fill: none; stroke-opacity: 1; stroke-width: 4; stroke: #c5000e" x1="1530" y1="540" x2="1550" y2="520"/>
      <path style="fill: #c5000e; fill-opacity: 1; stroke-opacity: 1; stroke-width: 4; stroke: #c5000e" fill-rule="evenodd" d="M 1530 540 C 1528.94,538.939 1528.94,536.818 1530,535.757 C 1531.06,534.697 1533.18,534.697 1534.24,535.757 C 1535.3,536.818 1535.3,538.939 1534.24,540 C 1533.18,541.061 1531.06,541.061 1530,540z"/>
    </g>
    <g>
      <line style="fill: none; stroke-opacity: 1; stroke-width: 4; stroke: #c5000e" x1="1330" y1="540" x2="1350" y2="520"/>
      <path style="fill: #c5000e; fill-opacity: 1; stroke-opacity: 1; stroke-width: 4; stroke: #c5000e" fill-rule="evenodd" d="M 1330 540 C 1328.94,538.939 1328.94,536.818 1330,535.757 C 1331.06,534.697 1333.18,534.697 1334.24,535.757 C 1335.3,536.818 1335.3,538.939 1334.24,540 C 1333.18,541.061 1331.06,541.061 1330,540z"/>
    </g>
    <g>
      <line style="fill: none; stroke-opacity: 1; stroke-width: 4; stroke: #c5000e" x1="1130" y1="540" x2="1150" y2="520"/>
      <path style="fill: #c5000e; fill-opacity: 1; stroke-opacity: 1; stroke-width: 4; stroke: #c5000e" fill-rule="evenodd" d="M 1130 540 C 1128.94,538.939 1128.94,536.818 1130,535.757 C 1131.06,534.697 1133.18,534.697 1134.24,535.757 C 1135.3,536.818 1135.3,538.939 1134.24,540 C 1133.18,541.061 1131.06,541.061 1130,540z"/>
    </g>
    <g>
      <line style="fill: none; stroke-opacity: 1; stroke-width: 4; stroke: #c5000e" x1="930" y1="540" x2="950" y2="520"/>
      <path style="fill: #c5000e; fill-opacity: 1; stroke-opacity: 1; stroke-width: 4; stroke: #c5000e" fill-rule="evenodd" d="M 930 540 C 928.939,538.939 928.939,536.818 930,535.757 C 931.061,534.697 933.182,534.697 934.243,535.757 C 935.303,536.818 935.303,538.939 934.243,540 C 933.182,541.061 931.061,541.061 930,540z"/>
    </g>
    <line style="fill: none; stroke-opacity: 1; stroke-width: 4; stroke-dasharray: 4; stroke: #c5000e" x1="1700" y1="540" x2="1770" y2="540"/>
    <line style="fill: none; stroke-opacity: 1; stroke-width: 4; stroke: #c5000e" x1="1770" y1="540" x2="1820" y2="540"/>
    <line style="fill: none; stroke-opacity: 1; stroke-width: 4; stroke: #c5000e" x1="870" y1="540" x2="1700" y2="540"/>
    <line style="fill: none; stroke-opacity: 1; stroke-width: 4; stroke: #c5000e" x1="1820" y1="690" x2="1840" y2="670"/>
    <g>
      <line style="fill: none; stroke-opacity: 1; stroke-width: 4; stroke: #c5000e" x1="1530" y1="690" x2="1550" y2="670"/>
      <path style="fill: #c5000e; fill-opacity: 1; stroke-opacity: 1; stroke-width: 4; stroke: #c5000e" fill-rule="evenodd" d="M 1530 690 C 1528.94,688.939 1528.94,686.818 1530,685.757 C 1531.06,684.697 1533.18,684.697 1534.24,685.757 C 1535.3,686.818 1535.3,688.939 1534.24,690 C 1533.18,691.061 1531.06,691.061 1530,690z"/>
    </g>
    <g>
      <line style="fill: none; stroke-opacity: 1; stroke-width: 4; stroke: #c5000e" x1="1330" y1="690" x2="1350" y2="670"/>
      <path style="fill: #c5000e; fill-opacity: 1; stroke-opacity: 1; stroke-width: 4; stroke: #c5000e" fill-rule="evenodd" d="M 1330 690 C 1328.94,688.939 1328.94,686.818 1330,685.757 C 1331.06,684.697 1333.18,684.697 1334.24,685.757 C 1335.3,686.818 1335.3,688.939 1334.24,690 C 1333.18,691.061 1331.06,691.061 1330,690z"/>
    </g>
    <g>
      <line style="fill: none; stroke-opacity: 1; stroke-width: 4; stroke: #c5000e" x1="1130" y1="690" x2="1150" y2="670"/>
      <path style="fill: #c5000e; fill-opacity: 1; stroke-opacity: 1; stroke-width: 4; stroke: #c5000e" fill-rule="evenodd" d="M 1130 690 C 1128.94,688.939 1128.94,686.818 1130,685.757 C 1131.06,684.697 1133.18,684.697 1134.24,685.757 C 1135.3,686.818 1135.3,688.939 1134.24,690 C 1133.18,691.061 1131.06,691.061 1130,690z"/>
    </g>
    <g>
      <line style="fill: none; stroke-opacity: 1; stroke-width: 4; stroke: #c5000e" x1="930" y1="690" x2="950" y2="670"/>
      <path style="fill: #c5000e; fill-opacity: 1; stroke-opacity: 1; stroke-width: 4; stroke: #c5000e" fill-rule="evenodd" d="M 930 690 C 928.939,688.939 928.939,686.818 930,685.757 C 931.061,684.697 933.182,684.697 934.243,685.757 C 935.303,686.818 935.303,688.939 934.243,690 C 933.182,691.061 931.061,691.061 930,690z"/>
    </g>
    <line style="fill: none; stroke-opacity: 1; stroke-width: 4; stroke-dasharray: 4; stroke: #c5000e" x1="1700" y1="690" x2="1770" y2="690"/>
    <line style="fill: none; stroke-opacity: 1; stroke-width: 4; stroke: #c5000e" x1="1770" y1="690" x2="1820" y2="690"/>
    <line style="fill: none; stroke-opacity: 1; stroke-width: 4; stroke: #c5000e" x1="780" y1="910" x2="1710" y2="910"/>
    <line style="fill: none; stroke-opacity: 1; stroke-width: 4; stroke: #c5000e" x1="1820" y1="910" x2="1840" y2="890"/>
    <g>
      <line style="fill: none; stroke-opacity: 1; stroke-width: 4; stroke: #c5000e" x1="1530" y1="910" x2="1550" y2="890"/>
      <path style="fill: #c5000e; fill-opacity: 1; stroke-opacity: 1; stroke-width: 4; stroke: #c5000e" fill-rule="evenodd" d="M 1530 910 C 1528.94,908.939 1528.94,906.818 1530,905.757 C 1531.06,904.697 1533.18,904.697 1534.24,905.757 C 1535.3,906.818 1535.3,908.939 1534.24,910 C 1533.18,911.061 1531.06,911.061 1530,910z"/>
    </g>
    <g>
      <line style="fill: none; stroke-opacity: 1; stroke-width: 4; stroke: #c5000e" x1="1330" y1="910" x2="1350" y2="890"/>
      <path style="fill: #c5000e; fill-opacity: 1; stroke-opacity: 1; stroke-width: 4; stroke: #c5000e" fill-rule="evenodd" d="M 1330 910 C 1328.94,908.939 1328.94,906.818 1330,905.757 C 1331.06,904.697 1333.18,904.697 1334.24,905.757 C 1335.3,906.818 1335.3,908.939 1334.24,910 C 1333.18,911.061 1331.06,911.061 1330,910z"/>
    </g>
    <g>
      <line style="fill: none; stroke-opacity: 1; stroke-width: 4; stroke: #c5000e" x1="1130" y1="910" x2="1150" y2="890"/>
      <path style="fill: #c5000e; fill-opacity: 1; stroke-opacity: 1; stroke-width: 4; stroke: #c5000e" fill-rule="evenodd" d="M 1130 910 C 1128.94,908.939 1128.94,906.818 1130,905.757 C 1131.06,904.697 1133.18,904.697 1134.24,905.757 C 1135.3,906.818 1135.3,908.939 1134.24,910 C 1133.18,911.061 1131.06,911.061 1130,910z"/>
    </g>
    <g>
      <line style="fill: none; stroke-opacity: 1; stroke-width: 4; stroke: #c5000e" x1="930" y1="910" x2="950" y2="890"/>
      <path style="fill: #c5000e; fill-opacity: 1; stroke-opacity: 1; stroke-width: 4; stroke: #c5000e" fill-rule="evenodd" d="M 930 910 C 928.939,908.939 928.939,906.818 930,905.757 C 931.061,904.697 933.182,904.697 934.243,905.757 C 935.303,906.818 935.303,908.939 934.243,910 C 933.182,911.061 931.061,911.061 930,910z"/>
    </g>
    <line style="fill: none; stroke-opacity: 1; stroke-width: 4; stroke-dasharray: 4; stroke: #c5000e" x1="1710" y1="910" x2="1780" y2="910"/>
    <line style="fill: none; stroke-opacity: 1; stroke-width: 4; stroke: #c5000e" x1="1780" y1="910" x2="1820" y2="910"/>
    <line style="fill: none; stroke-opacity: 1; stroke-width: 4; stroke: #004eca" x1="1010" y1="270" x2="1010" y2="310"/>
    <line style="fill: none; stroke-opacity: 1; stroke-width: 4; stroke: #004eca" x1="1210" y1="240" x2="1210" y2="310"/>
    <line style="fill: none; stroke-opacity: 1; stroke-width: 4; stroke: #004eca" x1="1410" y1="210" x2="1410" y2="310"/>
    <line style="fill: none; stroke-opacity: 1; stroke-width: 4; stroke: #004eca" x1="1610" y1="180" x2="1610" y2="310"/>
    <line style="fill: none; stroke-opacity: 1; stroke-width: 4; stroke: #004eca" x1="1900" y1="120" x2="1900" y2="310"/>
    <line style="fill: none; stroke-opacity: 1; stroke-width: 4; stroke-dasharray: 4; stroke: #004eca" x1="1590" y1="130" x2="1590" y2="170"/>
    <line style="fill: none; stroke-opacity: 1; stroke-width: 4; stroke-dasharray: 4; stroke: #004eca" x1="1790" y1="980" x2="1720" y2="980"/>
    <g>
      <line style="fill: none; stroke-opacity: 1; stroke-width: 4; stroke: #004eca" x1="1010" y1="950" x2="1010" y2="980"/>
      <path style="fill: #004eca; fill-opacity: 1; stroke-opacity: 1; stroke-width: 4; stroke: #004eca" fill-rule="evenodd" d="M 1010 980 C 1008.5,980 1007,978.5 1007,977 C 1007,975.5 1008.5,974 1010,974 C 1011.5,974 1013,975.5 1013,977 C 1013,978.5 1011.5,980 1010,980z"/>
    </g>
    <g>
      <line style="fill: none; stroke-opacity: 1; stroke-width: 4; stroke: #004eca" x1="1210" y1="950" x2="1210" y2="980"/>
      <path style="fill: #004eca; fill-opacity: 1; stroke-opacity: 1; stroke-width: 4; stroke: #004eca" fill-rule="evenodd" d="M 1210 980 C 1208.5,980 1207,978.5 1207,977 C 1207,975.5 1208.5,974 1210,974 C 1211.5,974 1213,975.5 1213,977 C 1213,978.5 1211.5,980 1210,980z"/>
    </g>
    <g>
      <line style="fill: none; stroke-opacity: 1; stroke-width: 4; stroke: #004eca" x1="1410" y1="950" x2="1410" y2="980"/>
      <path style="fill: #004eca; fill-opacity: 1; stroke-opacity: 1; stroke-width: 4; stroke: #004eca" fill-rule="evenodd" d="M 1410 980 C 1408.5,980 1407,978.5 1407,977 C 1407,975.5 1408.5,974 1410,974 C 1411.5,974 1413,975.5 1413,977 C 1413,978.5 1411.5,980 1410,980z"/>
    </g>
    <g>
      <line style="fill: none; stroke-opacity: 1; stroke-width: 4; stroke: #004eca" x1="1610" y1="950" x2="1610" y2="980"/>
      <path style="fill: #004eca; fill-opacity: 1; stroke-opacity: 1; stroke-width: 4; stroke: #004eca" fill-rule="evenodd" d="M 1610 980 C 1608.5,980 1607,978.5 1607,977 C 1607,975.5 1608.5,974 1610,974 C 1611.5,974 1613,975.5 1613,977 C 1613,978.5 1611.5,980 1610,980z"/>
    </g>
    <line style="fill: none; stroke-opacity: 1; stroke-width: 4; stroke: #004eca" x1="1900" y1="950" x2="1900" y2="980"/>
    <g>
      <line style="fill: none; stroke-opacity: 1; stroke-width: 4; stroke: #004eca" x1="1720" y1="980" x2="667.472" y2="980"/>
      <polygon style="fill: #004eca; fill-opacity: 1; stroke-opacity: 1; stroke-width: 4; stroke: #004eca" fill-rule="evenodd" points="664.472,980 668.472,978 667.472,980 668.472,982 "/>
    </g>
    <line style="fill: none; stroke-opacity: 1; stroke-width: 4; stroke: #004eca" x1="1900" y1="980" x2="1790" y2="980"/>
    <g>
      <line style="fill: none; stroke-opacity: 1; stroke-width: 4; stroke: #004eca" x1="667.472" y1="270" x2="1010" y2="270"/>
      <polygon style="fill: #004eca; fill-opacity: 1; stroke-opacity: 1; stroke-width: 4; stroke: #004eca" fill-rule="evenodd" points="664.472,270 668.472,268 667.472,270 668.472,272 "/>
    </g>
    <g>
      <line style="fill: none; stroke-opacity: 1; stroke-width: 4; stroke: #004eca" x1="667.472" y1="240" x2="1210" y2="240"/>
      <polygon style="fill: #004eca; fill-opacity: 1; stroke-opacity: 1; stroke-width: 4; stroke: #004eca" fill-rule="evenodd" points="664.472,240 668.472,238 667.472,240 668.472,242 "/>
    </g>
    <g>
      <line style="fill: none; stroke-opacity: 1; stroke-width: 4; stroke: #004eca" x1="667.472" y1="210" x2="1410" y2="210"/>
      <polygon style="fill: #004eca; fill-opacity: 1; stroke-opacity: 1; stroke-width: 4; stroke: #004eca" fill-rule="evenodd" points="664.472,210 668.472,208 667.472,210 668.472,212 "/>
    </g>
    <g>
      <line style="fill: none; stroke-opacity: 1; stroke-width: 4; stroke: #004eca" x1="667.472" y1="180" x2="1610" y2="180"/>
      <polygon style="fill: #004eca; fill-opacity: 1; stroke-opacity: 1; stroke-width: 4; stroke: #004eca" fill-rule="evenodd" points="664.472,180 668.472,178 667.472,180 668.472,182 "/>
    </g>
    <g>
      <line style="fill: none; stroke-opacity: 1; stroke-width: 4; stroke: #004eca" x1="667.472" y1="120" x2="1900" y2="120"/>
      <polygon style="fill: #004eca; fill-opacity: 1; stroke-opacity: 1; stroke-width: 4; stroke: #004eca" fill-rule="evenodd" points="664.472,120 668.472,118 667.472,120 668.472,122 "/>
    </g>
    <g>
      <polyline style="fill: none; stroke-opacity: 1; stroke-width: 4; stroke: #000000" points="1010,310 1010,330 990,330 990,410 1010,410 1010,430 "/>
      <line style="fill: none; stroke-opacity: 1; stroke-width: 4; stroke: #000000" x1="980" y1="330" x2="980" y2="410"/>
      <line style="fill: none; stroke-opacity: 1; stroke-width: 4; stroke: #000000" x1="970" y1="330" x2="970" y2="410"/>
      <line style="fill: none; stroke-opacity: 1; stroke-width: 4; stroke: #000000" x1="970" y1="370" x2="950" y2="370"/>
    </g>
    <g>
      <polyline style="fill: none; stroke-opacity: 1; stroke-width: 4; stroke: #000000" points="1210,310 1210,330 1190,330 1190,410 1210,410 1210,430 "/>
      <line style="fill: none; stroke-opacity: 1; stroke-width: 4; stroke: #000000" x1="1180" y1="330" x2="1180" y2="410"/>
      <line style="fill: none; stroke-opacity: 1; stroke-width: 4; stroke: #000000" x1="1170" y1="330" x2="1170" y2="410"/>
      <line style="fill: none; stroke-opacity: 1; stroke-width: 4; stroke: #000000" x1="1170" y1="370" x2="1150" y2="370"/>
    </g>
    <g>
      <polyline style="fill: none; stroke-opacity: 1; stroke-width: 4; stroke: #000000" points="1410,310 1410,330 1390,330 1390,410 1410,410 1410,430 "/>
      <line style="fill: none; stroke-opacity: 1; stroke-width: 4; stroke: #000000" x1="1380" y1="330" x2="1380" y2="410"/>
      <line style="fill: none; stroke-opacity: 1; stroke-width: 4; stroke: #000000" x1="1370" y1="330" x2="1370" y2="410"/>
      <line style="fill: none; stroke-opacity: 1; stroke-width: 4; stroke: #000000" x1="1370" y1="370" x2="1350" y2="370"/>
    </g>
    <g>
      <polyline style="fill: none; stroke-opacity: 1; stroke-width: 4; stroke: #000000" points="1610,310 1610,330 1590,330 1590,410 1610,410 1610,430 "/>
      <line style="fill: none; stroke-opacity: 1; stroke-width: 4; stroke: #000000" x1="1580" y1="330" x2="1580" y2="410"/>
      <line style="fill: none; stroke-opacity: 1; stroke-width: 4; stroke: #000000" x1="1570" y1="330" x2="1570" y2="410"/>
      <line style="fill: none; stroke-opacity: 1; stroke-width: 4; stroke: #000000" x1="1570" y1="370" x2="1550" y2="370"/>
    </g>
    <g>
      <polyline style="fill: none; stroke-opacity: 1; stroke-width: 4; stroke: #000000" points="1900,310 1900,330 1880,330 1880,410 1900,410 1900,430 "/>
      <line style="fill: none; stroke-opacity: 1; stroke-width: 4; stroke: #000000" x1="1870" y1="330" x2="1870" y2="410"/>
      <line style="fill: none; stroke-opacity: 1; stroke-width: 4; stroke: #000000" x1="1860" y1="330" x2="1860" y2="410"/>
      <line style="fill: none; stroke-opacity: 1; stroke-width: 4; stroke: #000000" x1="1860" y1="370" x2="1840" y2="370"/>
    </g>
    <g>
      <polyline style="fill: none; stroke-opacity: 1; stroke-width: 4; stroke: #000000" points="1010,460 1010,480 990,480 990,560 1010,560 1010,580 "/>
      <line style="fill: none; stroke-opacity: 1; stroke-width: 4; stroke: #000000" x1="980" y1="480" x2="980" y2="560"/>
      <line style="fill: none; stroke-opacity: 1; stroke-width: 4; stroke: #000000" x1="970" y1="480" x2="970" y2="560"/>
      <line style="fill: none; stroke-opacity: 1; stroke-width: 4; stroke: #000000" x1="970" y1="520" x2="950" y2="520"/>
    </g>
    <g>
      <polyline style="fill: none; stroke-opacity: 1; stroke-width: 4; stroke: #000000" points="1210,460 1210,480 1190,480 1190,560 1210,560 1210,580 "/>
      <line style="fill: none; stroke-opacity: 1; stroke-width: 4; stroke: #000000" x1="1180" y1="480" x2="1180" y2="560"/>
      <line style="fill: none; stroke-opacity: 1; stroke-width: 4; stroke: #000000" x1="1170" y1="480" x2="1170" y2="560"/>
      <line style="fill: none; stroke-opacity: 1; stroke-width: 4; stroke: #000000" x1="1170" y1="520" x2="1150" y2="520"/>
    </g>
    <g>
      <polyline style="fill: none; stroke-opacity: 1; stroke-width: 4; stroke: #000000" points="1410,460 1410,480 1390,480 1390,560 1410,560 1410,580 "/>
      <line style="fill: none; stroke-opacity: 1; stroke-width: 4; stroke: #000000" x1="1380" y1="480" x2="1380" y2="560"/>
      <line style="fill: none; stroke-opacity: 1; stroke-width: 4; stroke: #000000" x1="1370" y1="480" x2="1370" y2="560"/>
      <line style="fill: none; stroke-opacity: 1; stroke-width: 4; stroke: #000000" x1="1370" y1="520" x2="1350" y2="520"/>
    </g>
    <g>
      <polyline style="fill: none; stroke-opacity: 1; stroke-width: 4; stroke: #000000" points="1610,460 1610,480 1590,480 1590,560 1610,560 1610,580 "/>
      <line style="fill: none; stroke-opacity: 1; stroke-width: 4; stroke: #000000" x1="1580" y1="480" x2="1580" y2="560"/>
      <line style="fill: none; stroke-opacity: 1; stroke-width: 4; stroke: #000000" x1="1570" y1="480" x2="1570" y2="560"/>
      <line style="fill: none; stroke-opacity: 1; stroke-width: 4; stroke: #000000" x1="1570" y1="520" x2="1550" y2="520"/>
    </g>
    <g>
      <polyline style="fill: none; stroke-opacity: 1; stroke-width: 4; stroke: #000000" points="1900,460 1900,480 1880,480 1880,560 1900,560 1900,580 "/>
      <line style="fill: none; stroke-opacity: 1; stroke-width: 4; stroke: #000000" x1="1870" y1="480" x2="1870" y2="560"/>
      <line style="fill: none; stroke-opacity: 1; stroke-width: 4; stroke: #000000" x1="1860" y1="480" x2="1860" y2="560"/>
      <line style="fill: none; stroke-opacity: 1; stroke-width: 4; stroke: #000000" x1="1860" y1="520" x2="1840" y2="520"/>
    </g>
    <g>
      <polyline style="fill: none; stroke-opacity: 1; stroke-width: 4; stroke: #000000" points="1010,610 1010,630 990,630 990,710 1010,710 1010,730 "/>
      <line style="fill: none; stroke-opacity: 1; stroke-width: 4; stroke: #000000" x1="980" y1="630" x2="980" y2="710"/>
      <line style="fill: none; stroke-opacity: 1; stroke-width: 4; stroke: #000000" x1="970" y1="630" x2="970" y2="710"/>
      <line style="fill: none; stroke-opacity: 1; stroke-width: 4; stroke: #000000" x1="970" y1="670" x2="950" y2="670"/>
    </g>
    <g>
      <polyline style="fill: none; stroke-opacity: 1; stroke-width: 4; stroke: #000000" points="1210,610 1210,630 1190,630 1190,710 1210,710 1210,730 "/>
      <line style="fill: none; stroke-opacity: 1; stroke-width: 4; stroke: #000000" x1="1180" y1="630" x2="1180" y2="710"/>
      <line style="fill: none; stroke-opacity: 1; stroke-width: 4; stroke: #000000" x1="1170" y1="630" x2="1170" y2="710"/>
      <line style="fill: none; stroke-opacity: 1; stroke-width: 4; stroke: #000000" x1="1170" y1="670" x2="1150" y2="670"/>
    </g>
    <g>
      <polyline style="fill: none; stroke-opacity: 1; stroke-width: 4; stroke: #000000" points="1410,610 1410,630 1390,630 1390,710 1410,710 1410,730 "/>
      <line style="fill: none; stroke-opacity: 1; stroke-width: 4; stroke: #000000" x1="1380" y1="630" x2="1380" y2="710"/>
      <line style="fill: none; stroke-opacity: 1; stroke-width: 4; stroke: #000000" x1="1370" y1="630" x2="1370" y2="710"/>
      <line style="fill: none; stroke-opacity: 1; stroke-width: 4; stroke: #000000" x1="1370" y1="670" x2="1350" y2="670"/>
    </g>
    <g>
      <polyline style="fill: none; stroke-opacity: 1; stroke-width: 4; stroke: #000000" points="1610,610 1610,630 1590,630 1590,710 1610,710 1610,730 "/>
      <line style="fill: none; stroke-opacity: 1; stroke-width: 4; stroke: #000000" x1="1580" y1="630" x2="1580" y2="710"/>
      <line style="fill: none; stroke-opacity: 1; stroke-width: 4; stroke: #000000" x1="1570" y1="630" x2="1570" y2="710"/>
      <line style="fill: none; stroke-opacity: 1; stroke-width: 4; stroke: #000000" x1="1570" y1="670" x2="1550" y2="670"/>
    </g>
    <g>
      <polyline style="fill: none; stroke-opacity: 1; stroke-width: 4; stroke: #000000" points="1900,610 1900,630 1880,630 1880,710 1900,710 1900,730 "/>
      <line style="fill: none; stroke-opacity: 1; stroke-width: 4; stroke: #000000" x1="1870" y1="630" x2="1870" y2="710"/>
      <line style="fill: none; stroke-opacity: 1; stroke-width: 4; stroke: #000000" x1="1860" y1="630" x2="1860" y2="710"/>
      <line style="fill: none; stroke-opacity: 1; stroke-width: 4; stroke: #000000" x1="1860" y1="670" x2="1840" y2="670"/>
    </g>
    <line style="fill: none; stroke-opacity: 1; stroke-width: 4; stroke: #004eca" x1="1210" y1="730" x2="1210" y2="760"/>
    <line style="fill: none; stroke-opacity: 1; stroke-width: 4; stroke: #004eca" x1="1210" y1="800" x2="1210" y2="830"/>
    <line style="fill: none; stroke-opacity: 1; stroke-width: 4; stroke-dasharray: 4; stroke: #004eca" x1="1210" y1="760" x2="1210" y2="800"/>
    <line style="fill: none; stroke-opacity: 1; stroke-width: 4; stroke: #004eca" x1="1410" y1="730" x2="1410" y2="760"/>
    <line style="fill: none; stroke-opacity: 1; stroke-width: 4; stroke: #004eca" x1="1410" y1="800" x2="1410" y2="830"/>
    <line style="fill: none; stroke-opacity: 1; stroke-width: 4; stroke-dasharray: 4; stroke: #004eca" x1="1410" y1="760" x2="1410" y2="800"/>
    <line style="fill: none; stroke-opacity: 1; stroke-width: 4; stroke: #004eca" x1="1610" y1="730" x2="1610" y2="760"/>
    <line style="fill: none; stroke-opacity: 1; stroke-width: 4; stroke: #004eca" x1="1610" y1="800" x2="1610" y2="830"/>
    <line style="fill: none; stroke-opacity: 1; stroke-width: 4; stroke-dasharray: 4; stroke: #004eca" x1="1610" y1="760" x2="1610" y2="800"/>
    <line style="fill: none; stroke-opacity: 1; stroke-width: 4; stroke: #004eca" x1="1900" y1="730" x2="1900" y2="760"/>
    <line style="fill: none; stroke-opacity: 1; stroke-width: 4; stroke: #004eca" x1="1900" y1="800" x2="1900" y2="830"/>
    <line style="fill: none; stroke-opacity: 1; stroke-width: 4; stroke-dasharray: 4; stroke: #004eca" x1="1900" y1="760" x2="1900" y2="800"/>
    <g>
      <polyline style="fill: none; stroke-opacity: 1; stroke-width: 4; stroke: #000000" points="1010,830 1010,850 990,850 990,930 1010,930 1010,950 "/>
      <line style="fill: none; stroke-opacity: 1; stroke-width: 4; stroke: #000000" x1="980" y1="850" x2="980" y2="930"/>
      <line style="fill: none; stroke-opacity: 1; stroke-width: 4; stroke: #000000" x1="970" y1="850" x2="970" y2="930"/>
      <line style="fill: none; stroke-opacity: 1; stroke-width: 4; stroke: #000000" x1="970" y1="890" x2="950" y2="890"/>
    </g>
    <g>
      <polyline style="fill: none; stroke-opacity: 1; stroke-width: 4; stroke: #000000" points="1210,830 1210,850 1190,850 1190,930 1210,930 1210,950 "/>
      <line style="fill: none; stroke-opacity: 1; stroke-width: 4; stroke: #000000" x1="1180" y1="850" x2="1180" y2="930"/>
      <line style="fill: none; stroke-opacity: 1; stroke-width: 4; stroke: #000000" x1="1170" y1="850" x2="1170" y2="930"/>
      <line style="fill: none; stroke-opacity: 1; stroke-width: 4; stroke: #000000" x1="1170" y1="890" x2="1150" y2="890"/>
    </g>
    <g>
      <polyline style="fill: none; stroke-opacity: 1; stroke-width: 4; stroke: #000000" points="1410,830 1410,850 1390,850 1390,930 1410,930 1410,950 "/>
      <line style="fill: none; stroke-opacity: 1; stroke-width: 4; stroke: #000000" x1="1380" y1="850" x2="1380" y2="930"/>
      <line style="fill: none; stroke-opacity: 1; stroke-width: 4; stroke: #000000" x1="1370" y1="850" x2="1370" y2="930"/>
      <line style="fill: none; stroke-opacity: 1; stroke-width: 4; stroke: #000000" x1="1370" y1="890" x2="1350" y2="890"/>
    </g>
    <g>
      <polyline style="fill: none; stroke-opacity: 1; stroke-width: 4; stroke: #000000" points="1610,830 1610,850 1590,850 1590,930 1610,930 1610,950 "/>
      <line style="fill: none; stroke-opacity: 1; stroke-width: 4; stroke: #000000" x1="1580" y1="850" x2="1580" y2="930"/>
      <line style="fill: none; stroke-opacity: 1; stroke-width: 4; stroke: #000000" x1="1570" y1="850" x2="1570" y2="930"/>
      <line style="fill: none; stroke-opacity: 1; stroke-width: 4; stroke: #000000" x1="1570" y1="890" x2="1550" y2="890"/>
    </g>
    <g>
      <polyline style="fill: none; stroke-opacity: 1; stroke-width: 4; stroke: #000000" points="1900,830 1900,850 1880,850 1880,930 1900,930 1900,950 "/>
      <line style="fill: none; stroke-opacity: 1; stroke-width: 4; stroke: #000000" x1="1870" y1="850" x2="1870" y2="930"/>
      <line style="fill: none; stroke-opacity: 1; stroke-width: 4; stroke: #000000" x1="1860" y1="850" x2="1860" y2="930"/>
      <line style="fill: none; stroke-opacity: 1; stroke-width: 4; stroke: #000000" x1="1860" y1="890" x2="1840" y2="890"/>
    </g>
    <line style="fill: none; stroke-opacity: 1; stroke-width: 4; stroke: #c5000e" x1="840" y1="690" x2="1700" y2="690"/>
    <line style="fill: none; stroke-opacity: 1; stroke-width: 4; stroke-dasharray: 4; stroke: #004eca" x1="1150" y1="130" x2="1150" y2="170"/>
    <line style="fill: none; stroke-opacity: 1; stroke-width: 4; stroke-dasharray: 4; stroke: #004eca" x1="710" y1="130" x2="710" y2="170"/>
    <text font-size="27.0933" style="fill: #000000; fill-opacity: 1; stroke: none;text-anchor:start;font-family:sans-serif;font-style:normal;font-weight:normal" x="567.69" y="513.008">
      <tspan x="567.69" y="513.008">WL</tspan>
    </text>
    <text font-size="18.0622" style="fill: #000000; fill-opacity: 1; stroke: none;text-anchor:start;font-family:sans-serif;font-style:normal;font-weight:normal" x="611.69" y="515.008">
      <tspan x="611.69" y="515.008">127</tspan>
    </text>
    <text font-size="27.0933" style="fill: #000000; fill-opacity: 1; stroke: none;text-anchor:start;font-family:sans-serif;font-style:normal;font-weight:normal" x="566.394" y="458.734">
      <tspan x="566.394" y="458.734">WL</tspan>
    </text>
    <text font-size="18.0622" style="fill: #000000; fill-opacity: 1; stroke: none;text-anchor:start;font-family:sans-serif;font-style:normal;font-weight:normal" x="610.394" y="460.734">
      <tspan x="610.394" y="460.734">2</tspan>
    </text>
    <text font-size="27.0933" style="fill: #000000; fill-opacity: 1; stroke: none;text-anchor:start;font-family:sans-serif;font-style:normal;font-weight:normal" x="567.69" y="427.46">
      <tspan x="567.69" y="427.46">WL</tspan>
    </text>
    <text font-size="18.0622" style="fill: #000000; fill-opacity: 1; stroke: none;text-anchor:start;font-family:sans-serif;font-style:normal;font-weight:normal" x="611.69" y="429.46">
      <tspan x="611.69" y="429.46">1</tspan>
    </text>
    <text font-size="27.0933" style="fill: #000000; fill-opacity: 1; stroke: none;text-anchor:start;font-family:sans-serif;font-style:normal;font-weight:normal" x="566.394" y="395.536">
      <tspan x="566.394" y="395.536">WL</tspan>
    </text>
    <text font-size="18.0622" style="fill: #000000; fill-opacity: 1; stroke: none;text-anchor:start;font-family:sans-serif;font-style:normal;font-weight:normal" x="610.394" y="397.536">
      <tspan x="610.394" y="397.536">0</tspan>
    </text>
    <text font-size="27.0933" style="fill: #000000; fill-opacity: 1; stroke: none;text-anchor:start;font-family:sans-serif;font-style:normal;font-weight:normal" x="373.152" y="446.68">
      <tspan x="373.152" y="446.68">Word lines</tspan>
    </text>
    <path style="fill: none; stroke-opacity: 1; stroke-width: 2; stroke: #000000" d="M 539.074,359.444 A 366.147,366.147 0 0 0 539.722,520.9"/>
    <g>
      <line style="fill: none; stroke-opacity: 1; stroke-width: 4; stroke: #c5000e" x1="667.472" y1="420" x2="870" y2="420"/>
      <polygon style="fill: #c5000e; fill-opacity: 1; stroke-opacity: 1; stroke-width: 4; stroke: #c5000e" fill-rule="evenodd" points="664.472,420 668.472,418 667.472,420 668.472,422 "/>
    </g>
    <line style="fill: none; stroke-opacity: 1; stroke-width: 4; stroke: #c5000e" x1="870" y1="540" x2="870" y2="420"/>
    <g>
      <line style="fill: none; stroke-opacity: 1; stroke-width: 4; stroke: #c5000e" x1="667.472" y1="450" x2="840" y2="450"/>
      <polygon style="fill: #c5000e; fill-opacity: 1; stroke-opacity: 1; stroke-width: 4; stroke: #c5000e" fill-rule="evenodd" points="664.472,450 668.472,448 667.472,450 668.472,452 "/>
    </g>
    <line style="fill: none; stroke-opacity: 1; stroke-width: 4; stroke: #c5000e" x1="840" y1="690" x2="840" y2="450"/>
    <g>
      <line style="fill: none; stroke-opacity: 1; stroke-width: 4; stroke: #c5000e" x1="667.472" y1="510" x2="780" y2="510"/>
      <polygon style="fill: #c5000e; fill-opacity: 1; stroke-opacity: 1; stroke-width: 4; stroke: #c5000e" fill-rule="evenodd" points="664.472,510 668.472,508 667.472,510 668.472,512 "/>
    </g>
    <line style="fill: none; stroke-opacity: 1; stroke-width: 4; stroke: #c5000e" x1="780" y1="910" x2="780" y2="510"/>
    <line style="fill: none; stroke-opacity: 1; stroke-width: 4; stroke-dasharray: 4; stroke: #c5000e" x1="700" y1="460" x2="700" y2="500"/>
    <line style="fill: none; stroke-opacity: 1; stroke-width: 4; stroke-dasharray: 4; stroke: #c5000e" x1="830" y1="600" x2="790" y2="600"/>
    <text font-size="27.0933" style="fill: #000000; fill-opacity: 1; stroke: none;text-anchor:start;font-family:sans-serif;font-style:normal;font-weight:normal" x="556.648" y="280.874">
      <tspan x="556.648" y="280.874">BL</tspan>
    </text>
    <text font-size="18.0622" style="fill: #000000; fill-opacity: 1; stroke: none;text-anchor:start;font-family:sans-serif;font-style:normal;font-weight:normal" x="592.648" y="284.874">
      <tspan x="592.648" y="284.874">0</tspan>
    </text>
    <text font-size="27.0933" style="fill: #000000; fill-opacity: 1; stroke: none;text-anchor:start;font-family:sans-serif;font-style:normal;font-weight:normal" x="556.648" y="249.654">
      <tspan x="556.648" y="249.654">BL</tspan>
    </text>
    <text font-size="18.0622" style="fill: #000000; fill-opacity: 1; stroke: none;text-anchor:start;font-family:sans-serif;font-style:normal;font-weight:normal" x="592.648" y="253.654">
      <tspan x="592.648" y="253.654">1</tspan>
    </text>
    <text font-size="27.0933" style="fill: #000000; fill-opacity: 1; stroke: none;text-anchor:start;font-family:sans-serif;font-style:normal;font-weight:normal" x="556" y="219.082">
      <tspan x="556" y="219.082">BL</tspan>
    </text>
    <text font-size="18.0622" style="fill: #000000; fill-opacity: 1; stroke: none;text-anchor:start;font-family:sans-serif;font-style:normal;font-weight:normal" x="592" y="223.082">
      <tspan x="592" y="223.082">2</tspan>
    </text>
    <text font-size="27.0933" style="fill: #000000; fill-opacity: 1; stroke: none;text-anchor:start;font-family:sans-serif;font-style:normal;font-weight:normal" x="556" y="128">
      <tspan x="556" y="128">BL</tspan>
    </text>
    <text font-size="18.0622" style="fill: #000000; fill-opacity: 1; stroke: none;text-anchor:start;font-family:sans-serif;font-style:normal;font-weight:normal" x="592" y="132">
      <tspan x="592" y="132">16383</tspan>
    </text>
    <text font-size="27.0933" style="fill: #000000; fill-opacity: 1; stroke: none;text-anchor:start;font-family:sans-serif;font-style:normal;font-weight:normal" x="403.57" y="202.546">
      <tspan x="403.57" y="202.546">Bit lines</tspan>
    </text>
    <text font-size="27.0933" style="fill: #000000; fill-opacity: 1; stroke: none;text-anchor:start;font-family:sans-serif;font-style:normal;font-weight:normal" x="490" y="990">
      <tspan x="490" y="990">Source line</tspan>
    </text>
    <path style="fill: none; stroke-opacity: 1; stroke-width: 2; stroke: #000000" d="M 538.18,100.943 A 531.217,531.217 0 0 0 537.53,295.794"/>
    <text font-size="27.0933" style="fill: #000000; fill-opacity: 1; stroke: none;text-anchor:start;font-family:sans-serif;font-style:normal;font-weight:normal" x="1933" y="460">
      <tspan x="1933" y="460">Page</tspan>
    </text>
    <text font-size="18.0622" style="fill: #000000; fill-opacity: 1; stroke: none;text-anchor:start;font-family:sans-serif;font-style:normal;font-weight:normal" x="1998.8" y="464.55">
      <tspan x="1998.8" y="464.55">1</tspan>
    </text>
    <text font-size="27.0933" style="fill: #000000; fill-opacity: 1; stroke: none;text-anchor:start;font-family:sans-serif;font-style:normal;font-weight:normal" x="555.946" y="189.249">
      <tspan x="555.946" y="189.249">BL</tspan>
    </text>
    <text font-size="18.0622" style="fill: #000000; fill-opacity: 1; stroke: none;text-anchor:start;font-family:sans-serif;font-style:normal;font-weight:normal" x="591.946" y="193.249">
      <tspan x="591.946" y="193.249">3</tspan>
    </text>
    <g>
      <line style="fill: none; stroke-opacity: 1; stroke-width: 4; stroke: #579d1c" x1="730" y1="650" x2="668.972" y2="650"/>
      <polygon style="fill: #579d1c; fill-opacity: 1; stroke-opacity: 1; stroke-width: 4; stroke: #579d1c" fill-rule="evenodd" points="664.472,650 670.472,647 668.972,650 670.472,653 "/>
    </g>
    <line style="fill: none; stroke-opacity: 1; stroke-width: 4; stroke: #579d1c" x1="730" y1="650" x2="730" y2="730"/>
    <text font-size="27.0933" style="fill: #000000; fill-opacity: 1; stroke: none;text-anchor:start;font-family:sans-serif;font-style:normal;font-weight:normal" x="420" y="660">
      <tspan x="420" y="660">Body (substrate)</tspan>
    </text>
    <line style="fill: none; stroke-opacity: 1; stroke-width: 4; stroke: #579d1c" x1="714" y1="730" x2="746" y2="730"/>
    <text font-size="27.0933" style="fill: #000000; fill-opacity: 1; stroke: none;text-anchor:start;font-family:sans-serif;font-style:normal;font-weight:normal" x="1940" y="160">
      <tspan x="1940" y="160">2  bits/cell</tspan>
      <tspan x="1940" y="193.867">16384  cells/page</tspan>
      <tspan x="1940" y="227.733">128  pages</tspan>
    </text>
    <text font-size="27.0933" style="fill: #000000; fill-opacity: 1; stroke: none;text-anchor:start;font-family:sans-serif;font-style:normal;font-weight:normal" x="1942.2" y="271.05">
      <tspan x="1942.2" y="271.05">512 KiB  total</tspan>
    </text>
    <line style="fill: none; stroke-opacity: 1; stroke-width: 2; stroke: #000000" x1="1942.2" y1="241.05" x2="2182.2" y2="241.05"/>
  </g>
</svg>
