<?xml version="1.0" encoding="UTF-8" standalone="no"?>
<!DOCTYPE svg PUBLIC "-//W3C//DTD SVG 1.0//EN" "http://www.w3.org/TR/2001/PR-SVG-20010719/DTD/svg10.dtd">
<svg width="43cm" height="47cm" viewBox="718 331 841 923" xmlns="http://www.w3.org/2000/svg" xmlns:xlink="http://www.w3.org/1999/xlink">
  <g id="Background">
    <g>
      <rect style="fill: #9fc5e8; fill-opacity: 1; stroke-opacity: 1; stroke-width: 2; stroke: #000000" x="740" y="1180" width="40" height="73" rx="0" ry="0"/>
      <text font-size="12.8" style="fill: #000000; fill-opacity: 1; stroke: none;text-anchor:middle;font-family:sans-serif;font-style:normal;font-weight:normal" x="760" y="1220.38">
        <tspan x="760" y="1220.38"></tspan>
      </text>
    </g>
    <g>
      <rect style="fill: #ffffff; fill-opacity: 1; stroke-opacity: 1; stroke-width: 2; stroke: #000000" x="740" y="420" width="40" height="760" rx="0" ry="0"/>
      <text font-size="12.8" style="fill: #000000; fill-opacity: 1; stroke: none;text-anchor:middle;font-family:sans-serif;font-style:normal;font-weight:normal" x="760" y="803.881">
        <tspan x="760" y="803.881"></tspan>
      </text>
    </g>
    <g>
      <rect style="fill: #9fc5e8; fill-opacity: 1; stroke-opacity: 1; stroke-width: 2; stroke: #000000" x="800" y="1000" width="40" height="253" rx="0" ry="0"/>
      <text font-size="12.8" style="fill: #000000; fill-opacity: 1; stroke: none;text-anchor:middle;font-family:sans-serif;font-style:normal;font-weight:normal" x="820" y="1130.38">
        <tspan x="820" y="1130.38"></tspan>
      </text>
    </g>
    <g>
      <rect style="fill: #ffffff; fill-opacity: 1; stroke-opacity: 1; stroke-width: 2; stroke: #000000" x="800" y="420" width="40" height="580" rx="0" ry="0"/>
      <text font-size="12.8" style="fill: #000000; fill-opacity: 1; stroke: none;text-anchor:middle;font-family:sans-serif;font-style:normal;font-weight:normal" x="820" y="713.881">
        <tspan x="820" y="713.881"></tspan>
      </text>
    </g>
    <g>
      <rect style="fill: #9fc5e8; fill-opacity: 1; stroke-opacity: 1; stroke-width: 2; stroke: #000000" x="860" y="540" width="40" height="713" rx="0" ry="0"/>
      <text font-size="12.8" style="fill: #000000; fill-opacity: 1; stroke: none;text-anchor:middle;font-family:sans-serif;font-style:normal;font-weight:normal" x="880" y="900.381">
        <tspan x="880" y="900.381"></tspan>
      </text>
    </g>
    <g>
      <rect style="fill: #ffffff; fill-opacity: 1; stroke-opacity: 1; stroke-width: 2; stroke: #000000" x="860" y="420" width="40" height="120" rx="0" ry="0"/>
      <text font-size="12.8" style="fill: #000000; fill-opacity: 1; stroke: none;text-anchor:middle;font-family:sans-serif;font-style:normal;font-weight:normal" x="880" y="483.881">
        <tspan x="880" y="483.881"></tspan>
      </text>
    </g>
    <g>
      <rect style="fill: #9fc5e8; fill-opacity: 1; stroke-opacity: 1; stroke-width: 2; stroke: #000000" x="920" y="780" width="40" height="473" rx="0" ry="0"/>
      <text font-size="12.8" style="fill: #000000; fill-opacity: 1; stroke: none;text-anchor:middle;font-family:sans-serif;font-style:normal;font-weight:normal" x="940" y="1020.38">
        <tspan x="940" y="1020.38"></tspan>
      </text>
    </g>
    <g>
      <rect style="fill: #ffffff; fill-opacity: 1; stroke-opacity: 1; stroke-width: 2; stroke: #000000" x="920" y="420" width="40" height="360" rx="0" ry="0"/>
      <text font-size="12.8" style="fill: #000000; fill-opacity: 1; stroke: none;text-anchor:middle;font-family:sans-serif;font-style:normal;font-weight:normal" x="940" y="603.881">
        <tspan x="940" y="603.881"></tspan>
      </text>
    </g>
    <text font-size="30.48" style="fill: #000000; fill-opacity: 1; stroke: none;text-anchor:start;font-family:sans-serif;font-style:normal;font-weight:normal" x="820" y="360">
      <tspan x="820" y="360">SLC</tspan>
    </text>
    <text font-size="27.0933" style="fill: #000000; fill-opacity: 1; stroke: none;text-anchor:start;font-family:sans-serif;font-style:normal;font-weight:normal" x="752" y="408">
      <tspan x="752" y="408">0</tspan>
    </text>
    <text font-size="27.0933" style="fill: #000000; fill-opacity: 1; stroke: none;text-anchor:start;font-family:sans-serif;font-style:normal;font-weight:normal" x="814" y="408">
      <tspan x="814" y="408">1</tspan>
    </text>
    <text font-size="27.0933" style="fill: #000000; fill-opacity: 1; stroke: none;text-anchor:start;font-family:sans-serif;font-style:normal;font-weight:normal" x="876" y="408">
      <tspan x="876" y="408">1</tspan>
    </text>
    <text font-size="27.0933" style="fill: #000000; fill-opacity: 1; stroke: none;text-anchor:start;font-family:sans-serif;font-style:normal;font-weight:normal" x="932" y="408">
      <tspan x="932" y="408">1</tspan>
    </text>
    <g>
      <rect style="fill: #9fc5e8; fill-opacity: 1; stroke-opacity: 1; stroke-width: 2; stroke: #000000" x="1240" y="1180" width="40" height="73" rx="0" ry="0"/>
      <text font-size="12.8" style="fill: #000000; fill-opacity: 1; stroke: none;text-anchor:middle;font-family:sans-serif;font-style:normal;font-weight:normal" x="1260" y="1220.38">
        <tspan x="1260" y="1220.38"></tspan>
      </text>
    </g>
    <g>
      <rect style="fill: #ffffff; fill-opacity: 1; stroke-opacity: 1; stroke-width: 2; stroke: #000000" x="1240" y="420" width="40" height="760" rx="0" ry="0"/>
      <text font-size="12.8" style="fill: #000000; fill-opacity: 1; stroke: none;text-anchor:middle;font-family:sans-serif;font-style:normal;font-weight:normal" x="1260" y="803.881">
        <tspan x="1260" y="803.881"></tspan>
      </text>
    </g>
    <g>
      <rect style="fill: #9fc5e8; fill-opacity: 1; stroke-opacity: 1; stroke-width: 2; stroke: #000000" x="1300" y="1000" width="40" height="253" rx="0" ry="0"/>
      <text font-size="12.8" style="fill: #000000; fill-opacity: 1; stroke: none;text-anchor:middle;font-family:sans-serif;font-style:normal;font-weight:normal" x="1320" y="1130.38">
        <tspan x="1320" y="1130.38"></tspan>
      </text>
    </g>
    <g>
      <rect style="fill: #ffffff; fill-opacity: 1; stroke-opacity: 1; stroke-width: 2; stroke: #000000" x="1300" y="420" width="40" height="580" rx="0" ry="0"/>
      <text font-size="12.8" style="fill: #000000; fill-opacity: 1; stroke: none;text-anchor:middle;font-family:sans-serif;font-style:normal;font-weight:normal" x="1320" y="713.881">
        <tspan x="1320" y="713.881"></tspan>
      </text>
    </g>
    <g>
      <rect style="fill: #9fc5e8; fill-opacity: 1; stroke-opacity: 1; stroke-width: 2; stroke: #000000" x="1360" y="528" width="40" height="725" rx="0" ry="0"/>
      <text font-size="12.8" style="fill: #000000; fill-opacity: 1; stroke: none;text-anchor:middle;font-family:sans-serif;font-style:normal;font-weight:normal" x="1380" y="894.381">
        <tspan x="1380" y="894.381"></tspan>
      </text>
    </g>
    <g>
      <rect style="fill: #ffffff; fill-opacity: 1; stroke-opacity: 1; stroke-width: 2; stroke: #000000" x="1360" y="420" width="40" height="108" rx="0" ry="0"/>
      <text font-size="12.8" style="fill: #000000; fill-opacity: 1; stroke: none;text-anchor:middle;font-family:sans-serif;font-style:normal;font-weight:normal" x="1380" y="477.881">
        <tspan x="1380" y="477.881"></tspan>
      </text>
    </g>
    <g>
      <rect style="fill: #9fc5e8; fill-opacity: 1; stroke-opacity: 1; stroke-width: 2; stroke: #000000" x="1420" y="780" width="40" height="473" rx="0" ry="0"/>
      <text font-size="12.8" style="fill: #000000; fill-opacity: 1; stroke: none;text-anchor:middle;font-family:sans-serif;font-style:normal;font-weight:normal" x="1440" y="1020.38">
        <tspan x="1440" y="1020.38"></tspan>
      </text>
    </g>
    <g>
      <rect style="fill: #ffffff; fill-opacity: 1; stroke-opacity: 1; stroke-width: 2; stroke: #000000" x="1420" y="420" width="40" height="360" rx="0" ry="0"/>
      <text font-size="12.8" style="fill: #000000; fill-opacity: 1; stroke: none;text-anchor:middle;font-family:sans-serif;font-style:normal;font-weight:normal" x="1440" y="603.881">
        <tspan x="1440" y="603.881"></tspan>
      </text>
    </g>
    <text font-size="30.48" style="fill: #000000; fill-opacity: 1; stroke: none;text-anchor:start;font-family:sans-serif;font-style:normal;font-weight:normal" x="1320" y="360">
      <tspan x="1320" y="360">TLC</tspan>
    </text>
    <text font-size="24.8356" style="fill: #000000; fill-opacity: 1; stroke: none;text-anchor:start;font-family:sans-serif;font-style:normal;font-weight:normal" x="1236" y="408">
      <tspan x="1236" y="408">000</tspan>
    </text>
    <text font-size="24.8356" style="fill: #000000; fill-opacity: 1; stroke: none;text-anchor:start;font-family:sans-serif;font-style:normal;font-weight:normal" x="1296" y="408">
      <tspan x="1296" y="408">010</tspan>
    </text>
    <text font-size="24.8356" style="fill: #000000; fill-opacity: 1; stroke: none;text-anchor:start;font-family:sans-serif;font-style:normal;font-weight:normal" x="1356" y="408">
      <tspan x="1356" y="408">111</tspan>
    </text>
    <text font-size="24.8356" style="fill: #000000; fill-opacity: 1; stroke: none;text-anchor:start;font-family:sans-serif;font-style:normal;font-weight:normal" x="1416" y="408">
      <tspan x="1416" y="408">100</tspan>
    </text>
    <line style="fill: none; stroke-opacity: 1; stroke-width: 2; stroke-dasharray: 4; stroke: #ff0000" x1="1220" y1="1060" x2="1512" y2="1060"/>
    <line style="fill: none; stroke-opacity: 1; stroke-width: 2; stroke-dasharray: 4; stroke: #ff0000" x1="1220" y1="960" x2="1512" y2="960"/>
    <line style="fill: none; stroke-opacity: 1; stroke-width: 2; stroke-dasharray: 4; stroke: #ff0000" x1="1220" y1="860" x2="1512" y2="860"/>
    <line style="fill: none; stroke-opacity: 1; stroke-width: 2; stroke-dasharray: 4; stroke: #ff0000" x1="1220" y1="760" x2="1512" y2="760"/>
    <line style="fill: none; stroke-opacity: 1; stroke-width: 2; stroke-dasharray: 4; stroke: #ff0000" x1="1220" y1="560" x2="1512" y2="560"/>
    <line style="fill: none; stroke-opacity: 1; stroke-width: 2; stroke-dasharray: 4; stroke: #ff0000" x1="1172" y1="660" x2="1512" y2="660"/>
    <line style="fill: none; stroke-opacity: 1; stroke-width: 2; stroke-dasharray: 4; stroke: #ff0000" x1="1220" y1="1160" x2="1512" y2="1160"/>
    <polyline style="fill: none; stroke-opacity: 1; stroke-width: 3; stroke: #ff0000" points="980,1088 992,1088 992,1252 980,1252 "/>
    <text font-size="30.48" style="fill: #ff0000; fill-opacity: 1; stroke: none;text-anchor:start;font-family:sans-serif;font-style:normal;font-weight:normal" x="1004" y="1176">
      <tspan x="1004" y="1176">0</tspan>
    </text>
    <g>
      <polyline style="fill: none; stroke-opacity: 1; stroke-width: 3; stroke: #ff0000" points="992,420 992,1072 980,1072 "/>
      <line style="fill: none; stroke-opacity: 1; stroke-width: 3; stroke: #ff0000" x1="992" y1="400" x2="992" y2="404"/>
      <line style="fill: none; stroke-opacity: 1; stroke-width: 3; stroke: #ff0000" x1="992" y1="406.667" x2="992" y2="410.667"/>
      <line style="fill: none; stroke-opacity: 1; stroke-width: 3; stroke: #ff0000" x1="992" y1="413.333" x2="992" y2="417.333"/>
    </g>
    <text font-size="30.48" style="fill: #ff0000; fill-opacity: 1; stroke: none;text-anchor:start;font-family:sans-serif;font-style:normal;font-weight:normal" x="1004" y="792">
      <tspan x="1004" y="792">1</tspan>
    </text>
    <line style="fill: none; stroke-opacity: 1; stroke-width: 2; stroke-dasharray: 4; stroke: #ff0000" x1="720" y1="1080" x2="1012" y2="1080"/>
    <polyline style="fill: none; stroke-opacity: 1; stroke-width: 3; stroke: #ff0000" points="1480,1168 1492,1168 1492,1252 1480,1252 "/>
    <text font-size="30.48" style="fill: #ff0000; fill-opacity: 1; stroke: none;text-anchor:start;font-family:monospace;font-style:normal;font-weight:normal" x="1504" y="1220">
      <tspan x="1504" y="1220">000</tspan>
    </text>
    <polyline style="fill: none; stroke-opacity: 1; stroke-width: 3; stroke: #ff0000" points="1480,1068 1492,1068 1492,1152 1480,1152 "/>
    <polyline style="fill: none; stroke-opacity: 1; stroke-width: 3; stroke: #ff0000" points="1480,968 1492,968 1492,1052 1480,1052 "/>
    <polyline style="fill: none; stroke-opacity: 1; stroke-width: 3; stroke: #ff0000" points="1480,868 1492,868 1492,952 1480,952 "/>
    <polyline style="fill: none; stroke-opacity: 1; stroke-width: 3; stroke: #ff0000" points="1480,768 1492,768 1492,852 1480,852 "/>
    <polyline style="fill: none; stroke-opacity: 1; stroke-width: 3; stroke: #ff0000" points="1480,668 1492,668 1492,752 1480,752 "/>
    <polyline style="fill: none; stroke-opacity: 1; stroke-width: 3; stroke: #ff0000" points="1480,568 1492,568 1492,652 1480,652 "/>
    <g>
      <polyline style="fill: none; stroke-opacity: 1; stroke-width: 3; stroke: #ff0000" points="1492,416 1492,552 1480,552 "/>
      <line style="fill: none; stroke-opacity: 1; stroke-width: 3; stroke: #ff0000" x1="1492" y1="396" x2="1492" y2="400"/>
      <line style="fill: none; stroke-opacity: 1; stroke-width: 3; stroke: #ff0000" x1="1492" y1="402.667" x2="1492" y2="406.667"/>
      <line style="fill: none; stroke-opacity: 1; stroke-width: 3; stroke: #ff0000" x1="1492" y1="409.333" x2="1492" y2="413.333"/>
    </g>
    <text font-size="30.48" style="fill: #ff0000; fill-opacity: 1; stroke: none;text-anchor:start;font-family:monospace;font-style:normal;font-weight:normal" x="1504" y="1120">
      <tspan x="1504" y="1120">001</tspan>
    </text>
    <text font-size="30.48" style="fill: #ff0000; fill-opacity: 1; stroke: none;text-anchor:start;font-family:monospace;font-style:normal;font-weight:normal" x="1504" y="1020">
      <tspan x="1504" y="1020">010</tspan>
    </text>
    <text font-size="30.48" style="fill: #ff0000; fill-opacity: 1; stroke: none;text-anchor:start;font-family:monospace;font-style:normal;font-weight:normal" x="1504" y="920">
      <tspan x="1504" y="920">011</tspan>
    </text>
    <text font-size="30.48" style="fill: #ff0000; fill-opacity: 1; stroke: none;text-anchor:start;font-family:monospace;font-style:normal;font-weight:normal" x="1504" y="820">
      <tspan x="1504" y="820">100</tspan>
    </text>
    <text font-size="30.48" style="fill: #ff0000; fill-opacity: 1; stroke: none;text-anchor:start;font-family:monospace;font-style:normal;font-weight:normal" x="1504" y="720">
      <tspan x="1504" y="720">101</tspan>
    </text>
    <text font-size="30.48" style="fill: #ff0000; fill-opacity: 1; stroke: none;text-anchor:start;font-family:monospace;font-style:normal;font-weight:normal" x="1500" y="620">
      <tspan x="1500" y="620">110</tspan>
    </text>
    <text font-size="30.48" style="fill: #ff0000; fill-opacity: 1; stroke: none;text-anchor:start;font-family:monospace;font-style:normal;font-weight:normal" x="1504" y="488">
      <tspan x="1504" y="488">111</tspan>
    </text>
  </g>
</svg>
