<?xml version="1.0" encoding="UTF-8" standalone="no"?>
<!DOCTYPE svg PUBLIC "-//W3C//DTD SVG 1.0//EN" "http://www.w3.org/TR/2001/PR-SVG-20010719/DTD/svg10.dtd">
<svg width="87cm" height="16cm" viewBox="98 238 1723 306" xmlns="http://www.w3.org/2000/svg" xmlns:xlink="http://www.w3.org/1999/xlink">
  <g>
    <rect style="fill: #f5faff" x="1630" y="240" width="180" height="200"/>
    <path style="fill: #f5faff" d="M 1630,240 A 10,10 0 0 0 1620,250 L 1630,250 z"/>
    <path style="fill: #f5faff" d="M 1820,250 A 10,10 0 0 0 1810,240 L 1810,250 z"/>
    <rect style="fill: #f5faff" x="1620" y="250" width="200" height="180"/>
    <path style="fill: #f5faff" d="M 1620,430 A 10,10 0 0 0 1630,440 L 1630,430 z"/>
    <path style="fill: #f5faff" d="M 1810,440 A 10,10 0 0 0 1820,430 L 1810,430 z"/>
    <line style="fill: none; fill-opacity:0; stroke-width: 2; stroke: #cedff2" x1="1630" y1="240" x2="1810" y2="240"/>
    <line style="fill: none; fill-opacity:0; stroke-width: 2; stroke: #cedff2" x1="1630" y1="440" x2="1810" y2="440"/>
    <path style="fill: none; fill-opacity:0; stroke-width: 2; stroke: #cedff2" d="M 1630,240 A 10,10 0 0 0 1620,250"/>
    <path style="fill: none; fill-opacity:0; stroke-width: 2; stroke: #cedff2" d="M 1820,250 A 10,10 0 0 0 1810,240"/>
    <line style="fill: none; fill-opacity:0; stroke-width: 2; stroke: #cedff2" x1="1620" y1="250" x2="1620" y2="430"/>
    <line style="fill: none; fill-opacity:0; stroke-width: 2; stroke: #cedff2" x1="1820" y1="250" x2="1820" y2="430"/>
    <path style="fill: none; fill-opacity:0; stroke-width: 2; stroke: #cedff2" d="M 1620,430 A 10,10 0 0 0 1630,440"/>
    <path style="fill: none; fill-opacity:0; stroke-width: 2; stroke: #cedff2" d="M 1810,440 A 10,10 0 0 0 1820,430"/>
    <text font-size="12.8" style="fill: #000000;text-anchor:middle;font-family:sans-serif;font-style:normal;font-weight:normal" x="1720" y="343.9">
      <tspan x="1720" y="343.9"></tspan>
    </text>
  </g>
  <g>
    <rect style="fill: #f5faff" x="1250" y="240" width="180" height="200"/>
    <path style="fill: #f5faff" d="M 1250,240 A 10,10 0 0 0 1240,250 L 1250,250 z"/>
    <path style="fill: #f5faff" d="M 1440,250 A 10,10 0 0 0 1430,240 L 1430,250 z"/>
    <rect style="fill: #f5faff" x="1240" y="250" width="200" height="180"/>
    <path style="fill: #f5faff" d="M 1240,430 A 10,10 0 0 0 1250,440 L 1250,430 z"/>
    <path style="fill: #f5faff" d="M 1430,440 A 10,10 0 0 0 1440,430 L 1430,430 z"/>
    <line style="fill: none; fill-opacity:0; stroke-width: 2; stroke: #cedff2" x1="1250" y1="240" x2="1430" y2="240"/>
    <line style="fill: none; fill-opacity:0; stroke-width: 2; stroke: #cedff2" x1="1250" y1="440" x2="1430" y2="440"/>
    <path style="fill: none; fill-opacity:0; stroke-width: 2; stroke: #cedff2" d="M 1250,240 A 10,10 0 0 0 1240,250"/>
    <path style="fill: none; fill-opacity:0; stroke-width: 2; stroke: #cedff2" d="M 1440,250 A 10,10 0 0 0 1430,240"/>
    <line style="fill: none; fill-opacity:0; stroke-width: 2; stroke: #cedff2" x1="1240" y1="250" x2="1240" y2="430"/>
    <line style="fill: none; fill-opacity:0; stroke-width: 2; stroke: #cedff2" x1="1440" y1="250" x2="1440" y2="430"/>
    <path style="fill: none; fill-opacity:0; stroke-width: 2; stroke: #cedff2" d="M 1240,430 A 10,10 0 0 0 1250,440"/>
    <path style="fill: none; fill-opacity:0; stroke-width: 2; stroke: #cedff2" d="M 1430,440 A 10,10 0 0 0 1440,430"/>
    <text font-size="12.8" style="fill: #000000;text-anchor:middle;font-family:sans-serif;font-style:normal;font-weight:normal" x="1340" y="343.9">
      <tspan x="1340" y="343.9"></tspan>
    </text>
  </g>
  <g>
    <rect style="fill: #f5faff" x="870" y="240" width="180" height="200"/>
    <path style="fill: #f5faff" d="M 870,240 A 10,10 0 0 0 860,250 L 870,250 z"/>
    <path style="fill: #f5faff" d="M 1060,250 A 10,10 0 0 0 1050,240 L 1050,250 z"/>
    <rect style="fill: #f5faff" x="860" y="250" width="200" height="180"/>
    <path style="fill: #f5faff" d="M 860,430 A 10,10 0 0 0 870,440 L 870,430 z"/>
    <path style="fill: #f5faff" d="M 1050,440 A 10,10 0 0 0 1060,430 L 1050,430 z"/>
    <line style="fill: none; fill-opacity:0; stroke-width: 2; stroke: #cedff2" x1="870" y1="240" x2="1050" y2="240"/>
    <line style="fill: none; fill-opacity:0; stroke-width: 2; stroke: #cedff2" x1="870" y1="440" x2="1050" y2="440"/>
    <path style="fill: none; fill-opacity:0; stroke-width: 2; stroke: #cedff2" d="M 870,240 A 10,10 0 0 0 860,250"/>
    <path style="fill: none; fill-opacity:0; stroke-width: 2; stroke: #cedff2" d="M 1060,250 A 10,10 0 0 0 1050,240"/>
    <line style="fill: none; fill-opacity:0; stroke-width: 2; stroke: #cedff2" x1="860" y1="250" x2="860" y2="430"/>
    <line style="fill: none; fill-opacity:0; stroke-width: 2; stroke: #cedff2" x1="1060" y1="250" x2="1060" y2="430"/>
    <path style="fill: none; fill-opacity:0; stroke-width: 2; stroke: #cedff2" d="M 860,430 A 10,10 0 0 0 870,440"/>
    <path style="fill: none; fill-opacity:0; stroke-width: 2; stroke: #cedff2" d="M 1050,440 A 10,10 0 0 0 1060,430"/>
    <text font-size="12.8" style="fill: #000000;text-anchor:middle;font-family:sans-serif;font-style:normal;font-weight:normal" x="960" y="343.9">
      <tspan x="960" y="343.9"></tspan>
    </text>
  </g>
  <g>
    <rect style="fill: #f5faff" x="490" y="240" width="180" height="200"/>
    <path style="fill: #f5faff" d="M 490,240 A 10,10 0 0 0 480,250 L 490,250 z"/>
    <path style="fill: #f5faff" d="M 680,250 A 10,10 0 0 0 670,240 L 670,250 z"/>
    <rect style="fill: #f5faff" x="480" y="250" width="200" height="180"/>
    <path style="fill: #f5faff" d="M 480,430 A 10,10 0 0 0 490,440 L 490,430 z"/>
    <path style="fill: #f5faff" d="M 670,440 A 10,10 0 0 0 680,430 L 670,430 z"/>
    <line style="fill: none; fill-opacity:0; stroke-width: 2; stroke: #cedff2" x1="490" y1="240" x2="670" y2="240"/>
    <line style="fill: none; fill-opacity:0; stroke-width: 2; stroke: #cedff2" x1="490" y1="440" x2="670" y2="440"/>
    <path style="fill: none; fill-opacity:0; stroke-width: 2; stroke: #cedff2" d="M 490,240 A 10,10 0 0 0 480,250"/>
    <path style="fill: none; fill-opacity:0; stroke-width: 2; stroke: #cedff2" d="M 680,250 A 10,10 0 0 0 670,240"/>
    <line style="fill: none; fill-opacity:0; stroke-width: 2; stroke: #cedff2" x1="480" y1="250" x2="480" y2="430"/>
    <line style="fill: none; fill-opacity:0; stroke-width: 2; stroke: #cedff2" x1="680" y1="250" x2="680" y2="430"/>
    <path style="fill: none; fill-opacity:0; stroke-width: 2; stroke: #cedff2" d="M 480,430 A 10,10 0 0 0 490,440"/>
    <path style="fill: none; fill-opacity:0; stroke-width: 2; stroke: #cedff2" d="M 670,440 A 10,10 0 0 0 680,430"/>
    <text font-size="12.8" style="fill: #000000;text-anchor:middle;font-family:sans-serif;font-style:normal;font-weight:normal" x="580" y="343.9">
      <tspan x="580" y="343.9"></tspan>
    </text>
  </g>
  <g>
    <rect style="fill: #f5faff" x="110" y="240" width="180" height="200"/>
    <path style="fill: #f5faff" d="M 110,240 A 10,10 0 0 0 100,250 L 110,250 z"/>
    <path style="fill: #f5faff" d="M 300,250 A 10,10 0 0 0 290,240 L 290,250 z"/>
    <rect style="fill: #f5faff" x="100" y="250" width="200" height="180"/>
    <path style="fill: #f5faff" d="M 100,430 A 10,10 0 0 0 110,440 L 110,430 z"/>
    <path style="fill: #f5faff" d="M 290,440 A 10,10 0 0 0 300,430 L 290,430 z"/>
    <line style="fill: none; fill-opacity:0; stroke-width: 2; stroke: #cedff2" x1="110" y1="240" x2="290" y2="240"/>
    <line style="fill: none; fill-opacity:0; stroke-width: 2; stroke: #cedff2" x1="110" y1="440" x2="290" y2="440"/>
    <path style="fill: none; fill-opacity:0; stroke-width: 2; stroke: #cedff2" d="M 110,240 A 10,10 0 0 0 100,250"/>
    <path style="fill: none; fill-opacity:0; stroke-width: 2; stroke: #cedff2" d="M 300,250 A 10,10 0 0 0 290,240"/>
    <line style="fill: none; fill-opacity:0; stroke-width: 2; stroke: #cedff2" x1="100" y1="250" x2="100" y2="430"/>
    <line style="fill: none; fill-opacity:0; stroke-width: 2; stroke: #cedff2" x1="300" y1="250" x2="300" y2="430"/>
    <path style="fill: none; fill-opacity:0; stroke-width: 2; stroke: #cedff2" d="M 100,430 A 10,10 0 0 0 110,440"/>
    <path style="fill: none; fill-opacity:0; stroke-width: 2; stroke: #cedff2" d="M 290,440 A 10,10 0 0 0 300,430"/>
    <text font-size="12.8" style="fill: #000000;text-anchor:middle;font-family:sans-serif;font-style:normal;font-weight:normal" x="200" y="343.9">
      <tspan x="200" y="343.9"></tspan>
    </text>
  </g>
  <g>
    <line style="fill: none; fill-opacity:0; stroke-width: 4; stroke: #000000" x1="340" y1="340" x2="428.028" y2="340"/>
    <polygon style="fill: #000000" points="435.528,340 425.528,345 428.028,340 425.528,335 "/>
    <polygon style="fill: none; fill-opacity:0; stroke-width: 4; stroke: #000000" points="435.528,340 425.528,345 428.028,340 425.528,335 "/>
  </g>
  <g>
    <polyline style="fill: none; fill-opacity:0; stroke-width: 4; stroke: #000000" points="1720,460 1720,500 200,500 200,471.972 "/>
    <polygon style="fill: #000000" points="200,464.472 205,474.472 200,471.972 195,474.472 "/>
    <polygon style="fill: none; fill-opacity:0; stroke-width: 4; stroke: #000000" points="200,464.472 205,474.472 200,471.972 195,474.472 "/>
  </g>
  <text font-size="27.0933" style="fill: #000000;text-anchor:start;font-family:sans-serif;font-style:normal;font-weight:normal" x="267.494" y="538.054">
    <tspan x="267.494" y="538.054">Erase block</tspan>
  </text>
  <text font-size="27.0933" style="fill: #000000;text-anchor:middle;font-family:monospace;font-style:normal;font-weight:normal" x="392" y="280">
    <tspan x="392" y="280">Program</tspan>
    <tspan x="392" y="313.867">page</tspan>
  </text>
  <text font-size="18.0622" style="fill: #000000;text-anchor:start;font-family:monospace;font-style:normal;font-weight:normal" x="424" y="320">
    <tspan x="424" y="320">0</tspan>
  </text>
  <text font-size="27.0933" style="fill: #000000;text-anchor:middle;font-family:sans-serif;font-style:normal;font-weight:normal" x="772" y="280">
    <tspan x="772" y="280">Program</tspan>
    <tspan x="772" y="313.867">page</tspan>
  </text>
  <text font-size="18.0622" style="fill: #000000;text-anchor:start;font-family:monospace;font-style:normal;font-weight:normal" x="804" y="320">
    <tspan x="804" y="320">1</tspan>
  </text>
  <text font-size="27.0933" style="fill: #000000;text-anchor:middle;font-family:sans-serif;font-style:normal;font-weight:normal" x="1152" y="280">
    <tspan x="1152" y="280">Program</tspan>
    <tspan x="1152" y="313.867">page</tspan>
  </text>
  <text font-size="18.0622" style="fill: #000000;text-anchor:start;font-family:monospace;font-style:normal;font-weight:normal" x="1184" y="320">
    <tspan x="1184" y="320">2</tspan>
  </text>
  <text font-size="27.0933" style="fill: #000000;text-anchor:middle;font-family:sans-serif;font-style:normal;font-weight:normal" x="1532" y="280">
    <tspan x="1532" y="280">Program</tspan>
    <tspan x="1532" y="313.867">page</tspan>
  </text>
  <text font-size="18.0622" style="fill: #000000;text-anchor:start;font-family:monospace;font-style:normal;font-weight:normal" x="1564" y="320">
    <tspan x="1564" y="320">3</tspan>
  </text>
  <g>
    <rect style="fill: #d0f0c0" x="120" y="260" width="160" height="42.1"/>
    <rect style="fill: none; fill-opacity:0; stroke-width: 2.35099e-37; stroke: #000000" x="120" y="260" width="160" height="42.1"/>
    <text font-size="30.48" style="fill: #000000;text-anchor:middle;font-family:monospace;font-style:normal;font-weight:normal" x="200" y="290.3">
      <tspan x="200" y="290.3">00000000</tspan>
    </text>
  </g>
  <g>
    <rect style="fill: #d0f0c0" x="120" y="300" width="160" height="42.1"/>
    <rect style="fill: none; fill-opacity:0; stroke-width: 2.35099e-37; stroke: #000000" x="120" y="300" width="160" height="42.1"/>
    <text font-size="30.48" style="fill: #000000;text-anchor:middle;font-family:monospace;font-style:normal;font-weight:normal" x="200" y="330.3">
      <tspan x="200" y="330.3">00000000</tspan>
    </text>
  </g>
  <g>
    <rect style="fill: #d0f0c0" x="120" y="340" width="160" height="42.1"/>
    <rect style="fill: none; fill-opacity:0; stroke-width: 2.35099e-37; stroke: #000000" x="120" y="340" width="160" height="42.1"/>
    <text font-size="30.48" style="fill: #000000;text-anchor:middle;font-family:monospace;font-style:normal;font-weight:normal" x="200" y="370.3">
      <tspan x="200" y="370.3">00000000</tspan>
    </text>
  </g>
  <g>
    <rect style="fill: #d0f0c0" x="120" y="380" width="160" height="42.1"/>
    <rect style="fill: none; fill-opacity:0; stroke-width: 2.35099e-37; stroke: #000000" x="120" y="380" width="160" height="42.1"/>
    <text font-size="30.48" style="fill: #000000;text-anchor:middle;font-family:monospace;font-style:normal;font-weight:normal" x="200" y="410.3">
      <tspan x="200" y="410.3">00000000</tspan>
    </text>
  </g>
  <g>
    <rect style="fill: #ffe599" x="500" y="260" width="160" height="42.1"/>
    <rect style="fill: none; fill-opacity:0; stroke-width: 2.35099e-37; stroke: #000000" x="500" y="260" width="160" height="42.1"/>
    <text font-size="30.48" style="fill: #000000;text-anchor:middle;font-family:monospace;font-style:normal;font-weight:normal" x="580" y="290.3">
      <tspan x="580" y="290.3">01011111</tspan>
    </text>
  </g>
  <g>
    <rect style="fill: #d0f0c0" x="500" y="300" width="160" height="42.1"/>
    <rect style="fill: none; fill-opacity:0; stroke-width: 2.35099e-37; stroke: #000000" x="500" y="300" width="160" height="42.1"/>
    <text font-size="30.48" style="fill: #000000;text-anchor:middle;font-family:monospace;font-style:normal;font-weight:normal" x="580" y="330.3">
      <tspan x="580" y="330.3">00000000</tspan>
    </text>
  </g>
  <g>
    <rect style="fill: #d0f0c0" x="500" y="340" width="160" height="42.1"/>
    <rect style="fill: none; fill-opacity:0; stroke-width: 2.35099e-37; stroke: #000000" x="500" y="340" width="160" height="42.1"/>
    <text font-size="30.48" style="fill: #000000;text-anchor:middle;font-family:monospace;font-style:normal;font-weight:normal" x="580" y="370.3">
      <tspan x="580" y="370.3">00000000</tspan>
    </text>
  </g>
  <g>
    <rect style="fill: #d0f0c0" x="500" y="380" width="160" height="42.1"/>
    <rect style="fill: none; fill-opacity:0; stroke-width: 2.35099e-37; stroke: #000000" x="500" y="380" width="160" height="42.1"/>
    <text font-size="30.48" style="fill: #000000;text-anchor:middle;font-family:monospace;font-style:normal;font-weight:normal" x="580" y="410.3">
      <tspan x="580" y="410.3">00000000</tspan>
    </text>
  </g>
  <g>
    <rect style="fill: #ffe599" x="880" y="260" width="160" height="42.1"/>
    <rect style="fill: none; fill-opacity:0; stroke-width: 2.35099e-37; stroke: #000000" x="880" y="260" width="160" height="42.1"/>
    <text font-size="30.48" style="fill: #000000;text-anchor:middle;font-family:monospace;font-style:normal;font-weight:normal" x="960" y="290.3">
      <tspan x="960" y="290.3">01011111</tspan>
    </text>
  </g>
  <g>
    <rect style="fill: #ffe599" x="880" y="300" width="160" height="42.1"/>
    <rect style="fill: none; fill-opacity:0; stroke-width: 2.35099e-37; stroke: #000000" x="880" y="300" width="160" height="42.1"/>
    <text font-size="30.48" style="fill: #000000;text-anchor:middle;font-family:monospace;font-style:normal;font-weight:normal" x="960" y="330.3">
      <tspan x="960" y="330.3">00011000</tspan>
    </text>
  </g>
  <g>
    <rect style="fill: #d0f0c0" x="880" y="340" width="160" height="42.1"/>
    <rect style="fill: none; fill-opacity:0; stroke-width: 2.35099e-37; stroke: #000000" x="880" y="340" width="160" height="42.1"/>
    <text font-size="30.48" style="fill: #000000;text-anchor:middle;font-family:monospace;font-style:normal;font-weight:normal" x="960" y="370.3">
      <tspan x="960" y="370.3">00000000</tspan>
    </text>
  </g>
  <g>
    <rect style="fill: #d0f0c0" x="880" y="380" width="160" height="42.1"/>
    <rect style="fill: none; fill-opacity:0; stroke-width: 2.35099e-37; stroke: #000000" x="880" y="380" width="160" height="42.1"/>
    <text font-size="30.48" style="fill: #000000;text-anchor:middle;font-family:monospace;font-style:normal;font-weight:normal" x="960" y="410.3">
      <tspan x="960" y="410.3">00000000</tspan>
    </text>
  </g>
  <g>
    <rect style="fill: #ffe599" x="1260" y="260" width="160" height="42.1"/>
    <rect style="fill: none; fill-opacity:0; stroke-width: 2.35099e-37; stroke: #000000" x="1260" y="260" width="160" height="42.1"/>
    <text font-size="30.48" style="fill: #000000;text-anchor:middle;font-family:monospace;font-style:normal;font-weight:normal" x="1340" y="290.3">
      <tspan x="1340" y="290.3">01011111</tspan>
    </text>
  </g>
  <g>
    <rect style="fill: #ffe599" x="1260" y="300" width="160" height="42.1"/>
    <rect style="fill: none; fill-opacity:0; stroke-width: 2.35099e-37; stroke: #000000" x="1260" y="300" width="160" height="42.1"/>
    <text font-size="30.48" style="fill: #000000;text-anchor:middle;font-family:monospace;font-style:normal;font-weight:normal" x="1340" y="330.3">
      <tspan x="1340" y="330.3">00011000</tspan>
    </text>
  </g>
  <g>
    <rect style="fill: #ffe599" x="1260" y="340" width="160" height="42.1"/>
    <rect style="fill: none; fill-opacity:0; stroke-width: 2.35099e-37; stroke: #000000" x="1260" y="340" width="160" height="42.1"/>
    <text font-size="30.48" style="fill: #000000;text-anchor:middle;font-family:monospace;font-style:normal;font-weight:normal" x="1340" y="370.3">
      <tspan x="1340" y="370.3">01011100</tspan>
    </text>
  </g>
  <g>
    <rect style="fill: #d0f0c0" x="1260" y="380" width="160" height="42.1"/>
    <rect style="fill: none; fill-opacity:0; stroke-width: 2.35099e-37; stroke: #000000" x="1260" y="380" width="160" height="42.1"/>
    <text font-size="30.48" style="fill: #000000;text-anchor:middle;font-family:monospace;font-style:normal;font-weight:normal" x="1340" y="410.3">
      <tspan x="1340" y="410.3">00000000</tspan>
    </text>
  </g>
  <g>
    <rect style="fill: #ffe599" x="1640" y="260" width="160" height="42.1"/>
    <rect style="fill: none; fill-opacity:0; stroke-width: 2.35099e-37; stroke: #000000" x="1640" y="260" width="160" height="42.1"/>
    <text font-size="30.48" style="fill: #000000;text-anchor:middle;font-family:monospace;font-style:normal;font-weight:normal" x="1720" y="290.3">
      <tspan x="1720" y="290.3">01011111</tspan>
    </text>
  </g>
  <g>
    <rect style="fill: #ffe599" x="1640" y="300" width="160" height="42.1"/>
    <rect style="fill: none; fill-opacity:0; stroke-width: 2.35099e-37; stroke: #000000" x="1640" y="300" width="160" height="42.1"/>
    <text font-size="30.48" style="fill: #000000;text-anchor:middle;font-family:monospace;font-style:normal;font-weight:normal" x="1720" y="330.3">
      <tspan x="1720" y="330.3">00011000</tspan>
    </text>
  </g>
  <g>
    <rect style="fill: #ffe599" x="1640" y="340" width="160" height="42.1"/>
    <rect style="fill: none; fill-opacity:0; stroke-width: 2.35099e-37; stroke: #000000" x="1640" y="340" width="160" height="42.1"/>
    <text font-size="30.48" style="fill: #000000;text-anchor:middle;font-family:monospace;font-style:normal;font-weight:normal" x="1720" y="370.3">
      <tspan x="1720" y="370.3">01011100</tspan>
    </text>
  </g>
  <g>
    <rect style="fill: #ffe599" x="1640" y="380" width="160" height="42.1"/>
    <rect style="fill: none; fill-opacity:0; stroke-width: 2.35099e-37; stroke: #000000" x="1640" y="380" width="160" height="42.1"/>
    <text font-size="30.48" style="fill: #000000;text-anchor:middle;font-family:monospace;font-style:normal;font-weight:normal" x="1720" y="410.3">
      <tspan x="1720" y="410.3">11111110</tspan>
    </text>
  </g>
  <g>
    <line style="fill: none; fill-opacity:0; stroke-width: 4; stroke: #000000" x1="720" y1="340" x2="807.028" y2="340"/>
    <polygon style="fill: #000000" points="814.528,340 804.528,345 807.028,340 804.528,335 "/>
    <polygon style="fill: none; fill-opacity:0; stroke-width: 4; stroke: #000000" points="814.528,340 804.528,345 807.028,340 804.528,335 "/>
  </g>
  <g>
    <line style="fill: none; fill-opacity:0; stroke-width: 4; stroke: #000000" x1="1100" y1="340" x2="1187.03" y2="340"/>
    <polygon style="fill: #000000" points="1194.53,340 1184.53,345 1187.03,340 1184.53,335 "/>
    <polygon style="fill: none; fill-opacity:0; stroke-width: 4; stroke: #000000" points="1194.53,340 1184.53,345 1187.03,340 1184.53,335 "/>
  </g>
  <g>
    <line style="fill: none; fill-opacity:0; stroke-width: 4; stroke: #000000" x1="1480" y1="340" x2="1567.03" y2="340"/>
    <polygon style="fill: #000000" points="1574.53,340 1564.53,345 1567.03,340 1564.53,335 "/>
    <polygon style="fill: none; fill-opacity:0; stroke-width: 4; stroke: #000000" points="1574.53,340 1564.53,345 1567.03,340 1564.53,335 "/>
  </g>
  <g>
    <path style="fill: none; fill-opacity:0; stroke-width: 4; stroke-dasharray: 8; stroke: #000000" d="M 530.933,489.654 A 56.3258,56.3258 0 0 0 579,448"/>
    <polygon style="fill: #000000" points="531.078,487.217 524.999,490.054 530.916,493.215 "/>
    <polygon style="fill: none; fill-opacity:0; stroke-width: 4; stroke: #000000" points="531.078,487.217 524.999,490.054 530.916,493.215 "/>
  </g>
  <g>
    <path style="fill: none; fill-opacity:0; stroke-width: 4; stroke-dasharray: 8; stroke: #000000" d="M 911.033,490.354 A 56.3258,56.3258 0 0 0 959.1,448.7"/>
    <polygon style="fill: #000000" points="911.178,487.917 905.099,490.754 911.016,493.915 "/>
    <polygon style="fill: none; fill-opacity:0; stroke-width: 4; stroke: #000000" points="911.178,487.917 905.099,490.754 911.016,493.915 "/>
  </g>
  <g>
    <path style="fill: none; fill-opacity:0; stroke-width: 4; stroke-dasharray: 8; stroke: #000000" d="M 1293.33,489.254 A 56.3258,56.3258 0 0 0 1341.4,447.6"/>
    <polygon style="fill: #000000" points="1293.48,486.817 1287.4,489.654 1293.32,492.815 "/>
    <polygon style="fill: none; fill-opacity:0; stroke-width: 4; stroke: #000000" points="1293.48,486.817 1287.4,489.654 1293.32,492.815 "/>
  </g>
</svg>
