<?xml version="1.0" encoding="UTF-8"?>
<!DOCTYPE svg PUBLIC "-//W3C//DTD SVG 1.1//EN" "http://www.w3.org/Graphics/SVG/1.1/DTD/svg11.dtd">
<svg width="200mm" height="73mm" viewBox="0 0 20000 7300" version="1.1" baseProfile="tiny" xmlns="http://www.w3.org/2000/svg" stroke-width="28.222" stroke-linejoin="round" xml:space="preserve">
 <path fill="rgb(255,255,255)" stroke="none" d="M 10038,7324 L 22,7324 22,0 20054,0 20054,7324 10038,7324 Z"/>
 <path fill="none" stroke="rgb(179,179,179)" stroke-linejoin="round" d="M 9329,6531 L 2208,6531 2208,345 16449,345 16449,6531 9329,6531 Z"/>
 <path fill="none" stroke="rgb(238,238,238)" stroke-linejoin="round" d="M 2208,344 L 2208,6530"/>
 <path fill="none" stroke="rgb(238,238,238)" stroke-linejoin="round" d="M 2957,344 L 2957,6530"/>
 <path fill="none" stroke="rgb(238,238,238)" stroke-linejoin="round" d="M 3707,344 L 3707,6530"/>
 <path fill="none" stroke="rgb(238,238,238)" stroke-linejoin="round" d="M 4456,344 L 4456,6530"/>
 <path fill="none" stroke="rgb(238,238,238)" stroke-linejoin="round" d="M 5206,344 L 5206,6530"/>
 <path fill="none" stroke="rgb(238,238,238)" stroke-linejoin="round" d="M 5955,344 L 5955,6530"/>
 <path fill="none" stroke="rgb(238,238,238)" stroke-linejoin="round" d="M 6705,344 L 6705,6530"/>
 <path fill="none" stroke="rgb(238,238,238)" stroke-linejoin="round" d="M 7455,344 L 7455,6530"/>
 <path fill="none" stroke="rgb(238,238,238)" stroke-linejoin="round" d="M 8204,344 L 8204,6530"/>
 <path fill="none" stroke="rgb(238,238,238)" stroke-linejoin="round" d="M 8954,344 L 8954,6530"/>
 <path fill="none" stroke="rgb(238,238,238)" stroke-linejoin="round" d="M 9703,344 L 9703,6530"/>
 <path fill="none" stroke="rgb(238,238,238)" stroke-linejoin="round" d="M 10452,344 L 10452,6530"/>
 <path fill="none" stroke="rgb(238,238,238)" stroke-linejoin="round" d="M 11201,344 L 11201,6530"/>
 <path fill="none" stroke="rgb(238,238,238)" stroke-linejoin="round" d="M 11951,344 L 11951,6530"/>
 <path fill="none" stroke="rgb(238,238,238)" stroke-linejoin="round" d="M 12701,344 L 12701,6530"/>
 <path fill="none" stroke="rgb(238,238,238)" stroke-linejoin="round" d="M 13450,344 L 13450,6530"/>
 <path fill="none" stroke="rgb(238,238,238)" stroke-linejoin="round" d="M 14200,344 L 14200,6530"/>
 <path fill="none" stroke="rgb(238,238,238)" stroke-linejoin="round" d="M 14949,344 L 14949,6530"/>
 <path fill="none" stroke="rgb(238,238,238)" stroke-linejoin="round" d="M 15699,344 L 15699,6530"/>
 <path fill="none" stroke="rgb(238,238,238)" stroke-linejoin="round" d="M 16448,344 L 16448,6530"/>
 <path fill="none" stroke="rgb(238,238,238)" stroke-linejoin="round" d="M 16448,6530 L 2208,6530"/>
 <path fill="none" stroke="rgb(238,238,238)" stroke-linejoin="round" d="M 16448,4983 L 2208,4983"/>
 <path fill="none" stroke="rgb(238,238,238)" stroke-linejoin="round" d="M 16448,3437 L 2208,3437"/>
 <path fill="none" stroke="rgb(238,238,238)" stroke-linejoin="round" d="M 16448,1890 L 2208,1890"/>
 <path fill="none" stroke="rgb(238,238,238)" stroke-linejoin="round" d="M 16448,344 L 2208,344"/>
 <path fill="none" stroke="rgb(179,179,179)" stroke-linejoin="round" d="M 2208,6680 L 2208,6530"/>
 <path fill="none" stroke="rgb(179,179,179)" stroke-linejoin="round" d="M 2208,6680 L 2208,6530"/>
 <path fill="none" stroke="rgb(179,179,179)" stroke-linejoin="round" d="M 2957,6680 L 2957,6530"/>
 <path fill="none" stroke="rgb(179,179,179)" stroke-linejoin="round" d="M 2957,6680 L 2957,6530"/>
 <path fill="none" stroke="rgb(179,179,179)" stroke-linejoin="round" d="M 3707,6680 L 3707,6530"/>
 <path fill="none" stroke="rgb(179,179,179)" stroke-linejoin="round" d="M 3707,6680 L 3707,6530"/>
 <path fill="none" stroke="rgb(179,179,179)" stroke-linejoin="round" d="M 4456,6680 L 4456,6530"/>
 <path fill="none" stroke="rgb(179,179,179)" stroke-linejoin="round" d="M 4456,6680 L 4456,6530"/>
 <path fill="none" stroke="rgb(179,179,179)" stroke-linejoin="round" d="M 5206,6680 L 5206,6530"/>
 <path fill="none" stroke="rgb(179,179,179)" stroke-linejoin="round" d="M 5206,6680 L 5206,6530"/>
 <path fill="none" stroke="rgb(179,179,179)" stroke-linejoin="round" d="M 5955,6680 L 5955,6530"/>
 <path fill="none" stroke="rgb(179,179,179)" stroke-linejoin="round" d="M 5955,6680 L 5955,6530"/>
 <path fill="none" stroke="rgb(179,179,179)" stroke-linejoin="round" d="M 6705,6680 L 6705,6530"/>
 <path fill="none" stroke="rgb(179,179,179)" stroke-linejoin="round" d="M 6705,6680 L 6705,6530"/>
 <path fill="none" stroke="rgb(179,179,179)" stroke-linejoin="round" d="M 7455,6680 L 7455,6530"/>
 <path fill="none" stroke="rgb(179,179,179)" stroke-linejoin="round" d="M 7455,6680 L 7455,6530"/>
 <path fill="none" stroke="rgb(179,179,179)" stroke-linejoin="round" d="M 8204,6680 L 8204,6530"/>
 <path fill="none" stroke="rgb(179,179,179)" stroke-linejoin="round" d="M 8204,6680 L 8204,6530"/>
 <path fill="none" stroke="rgb(179,179,179)" stroke-linejoin="round" d="M 8954,6680 L 8954,6530"/>
 <path fill="none" stroke="rgb(179,179,179)" stroke-linejoin="round" d="M 8954,6680 L 8954,6530"/>
 <path fill="none" stroke="rgb(179,179,179)" stroke-linejoin="round" d="M 9703,6680 L 9703,6530"/>
 <path fill="none" stroke="rgb(179,179,179)" stroke-linejoin="round" d="M 9703,6680 L 9703,6530"/>
 <path fill="none" stroke="rgb(179,179,179)" stroke-linejoin="round" d="M 10452,6680 L 10452,6530"/>
 <path fill="none" stroke="rgb(179,179,179)" stroke-linejoin="round" d="M 10452,6680 L 10452,6530"/>
 <path fill="none" stroke="rgb(179,179,179)" stroke-linejoin="round" d="M 11201,6680 L 11201,6530"/>
 <path fill="none" stroke="rgb(179,179,179)" stroke-linejoin="round" d="M 11201,6680 L 11201,6530"/>
 <path fill="none" stroke="rgb(179,179,179)" stroke-linejoin="round" d="M 11951,6680 L 11951,6530"/>
 <path fill="none" stroke="rgb(179,179,179)" stroke-linejoin="round" d="M 11951,6680 L 11951,6530"/>
 <path fill="none" stroke="rgb(179,179,179)" stroke-linejoin="round" d="M 12701,6680 L 12701,6530"/>
 <path fill="none" stroke="rgb(179,179,179)" stroke-linejoin="round" d="M 12701,6680 L 12701,6530"/>
 <path fill="none" stroke="rgb(179,179,179)" stroke-linejoin="round" d="M 13450,6680 L 13450,6530"/>
 <path fill="none" stroke="rgb(179,179,179)" stroke-linejoin="round" d="M 13450,6680 L 13450,6530"/>
 <path fill="none" stroke="rgb(179,179,179)" stroke-linejoin="round" d="M 14200,6680 L 14200,6530"/>
 <path fill="none" stroke="rgb(179,179,179)" stroke-linejoin="round" d="M 14200,6680 L 14200,6530"/>
 <path fill="none" stroke="rgb(179,179,179)" stroke-linejoin="round" d="M 14949,6680 L 14949,6530"/>
 <path fill="none" stroke="rgb(179,179,179)" stroke-linejoin="round" d="M 14949,6680 L 14949,6530"/>
 <path fill="none" stroke="rgb(179,179,179)" stroke-linejoin="round" d="M 15699,6680 L 15699,6530"/>
 <path fill="none" stroke="rgb(179,179,179)" stroke-linejoin="round" d="M 15699,6680 L 15699,6530"/>
 <path fill="none" stroke="rgb(179,179,179)" stroke-linejoin="round" d="M 16448,6680 L 16448,6530"/>
 <path fill="none" stroke="rgb(179,179,179)" stroke-linejoin="round" d="M 16448,6680 L 16448,6530"/>
 <path fill="none" stroke="rgb(179,179,179)" stroke-linejoin="round" d="M 2208,6530 L 16448,6530"/>
 <path fill="none" stroke="rgb(179,179,179)" stroke-linejoin="round" d="M 2208,344 L 16448,344"/>
 <path fill="none" stroke="rgb(179,179,179)" stroke-linejoin="round" d="M 2058,6530 L 2208,6530"/>
 <path fill="none" stroke="rgb(179,179,179)" stroke-linejoin="round" d="M 2058,6530 L 2208,6530"/>
 <path fill="none" stroke="rgb(179,179,179)" stroke-linejoin="round" d="M 2058,4983 L 2208,4983"/>
 <path fill="none" stroke="rgb(179,179,179)" stroke-linejoin="round" d="M 2058,4983 L 2208,4983"/>
 <path fill="none" stroke="rgb(179,179,179)" stroke-linejoin="round" d="M 2058,3437 L 2208,3437"/>
 <path fill="none" stroke="rgb(179,179,179)" stroke-linejoin="round" d="M 2058,3437 L 2208,3437"/>
 <path fill="none" stroke="rgb(179,179,179)" stroke-linejoin="round" d="M 2058,1890 L 2208,1890"/>
 <path fill="none" stroke="rgb(179,179,179)" stroke-linejoin="round" d="M 2058,1890 L 2208,1890"/>
 <path fill="none" stroke="rgb(179,179,179)" stroke-linejoin="round" d="M 2058,344 L 2208,344"/>
 <path fill="none" stroke="rgb(179,179,179)" stroke-linejoin="round" d="M 2058,344 L 2208,344"/>
 <path fill="none" stroke="rgb(179,179,179)" stroke-linejoin="round" d="M 2208,6530 L 2208,344"/>
 <path fill="none" stroke="rgb(179,179,179)" stroke-linejoin="round" d="M 16448,6530 L 16448,344"/>
 <path fill="none" stroke="rgb(87,157,28)" stroke-width="51" stroke-linejoin="round" d="M 2208,6228 L 2957,5955 3707,5478 4456,4732 5206,3743 5955,2688 6705,1790 7455,1163 8204,782 8954,571 9703,459 10452,402 11201,373 11951,358 12701,351 13450,347 14200,345 14949,344 15699,344 16448,344"/>
 <path fill="none" stroke="rgb(255,211,32)" stroke-width="51" stroke-linejoin="round" d="M 2208,6498 L 2957,6467 3707,6405 4456,6286 5206,6061 5955,5659 6705,5003 7455,4080 8204,3021 8954,2052 9703,1335 10452,882 11201,625 11951,488 12701,416 13450,380 14200,362 14949,353 15699,348 16448,346"/>
 <path fill="none" stroke="rgb(197,0,11)" stroke-width="51" stroke-linejoin="round" d="M 2208,6526 L 2957,6523 3707,6517 4456,6504 5206,6479 5955,6430 6705,6333 7455,6149 8204,5813 8954,5244 9703,4401 10452,3364 11201,2341 11951,1535 12701,1002 13450,692 14200,523 14949,434 15699,389 16448,366"/>
 <text class="TextShape"><tspan class="TextParagraph" font-family="Liberation Sans" font-size="353px" font-weight="400"><tspan class="TextPosition" x="1778" y="7098"><tspan fill="rgb(0,0,0)" stroke="none">1 KiB</tspan></tspan></tspan></text>
 <text class="TextShape"><tspan class="TextParagraph" font-family="Liberation Sans" font-size="353px" font-weight="400"><tspan class="TextPosition" x="3277" y="7098"><tspan fill="rgb(0,0,0)" stroke="none">4 KiB</tspan></tspan></tspan></text>
 <text class="TextShape"><tspan class="TextParagraph" font-family="Liberation Sans" font-size="353px" font-weight="400"><tspan class="TextPosition" x="4677" y="7098"><tspan fill="rgb(0,0,0)" stroke="none">16 KiB</tspan></tspan></tspan></text>
 <text class="TextShape"><tspan class="TextParagraph" font-family="Liberation Sans" font-size="353px" font-weight="400"><tspan class="TextPosition" x="6176" y="7098"><tspan fill="rgb(0,0,0)" stroke="none">64 KiB</tspan></tspan></tspan></text>
 <text class="TextShape"><tspan class="TextParagraph" font-family="Liberation Sans" font-size="353px" font-weight="400"><tspan class="TextPosition" x="7575" y="7098"><tspan fill="rgb(0,0,0)" stroke="none">256 KiB</tspan></tspan></tspan></text>
 <text class="TextShape"><tspan class="TextParagraph" font-family="Liberation Sans" font-size="353px" font-weight="400"><tspan class="TextPosition" x="9240" y="7098"><tspan fill="rgb(0,0,0)" stroke="none">1 MiB</tspan></tspan></tspan></text>
 <text class="TextShape"><tspan class="TextParagraph" font-family="Liberation Sans" font-size="353px" font-weight="400"><tspan class="TextPosition" x="10739" y="7098"><tspan fill="rgb(0,0,0)" stroke="none">4 MiB</tspan></tspan></tspan></text>
 <text class="TextShape"><tspan class="TextParagraph" font-family="Liberation Sans" font-size="353px" font-weight="400"><tspan class="TextPosition" x="12140" y="7098"><tspan fill="rgb(0,0,0)" stroke="none">16 MiB</tspan></tspan></tspan></text>
 <text class="TextShape"><tspan class="TextParagraph" font-family="Liberation Sans" font-size="353px" font-weight="400"><tspan class="TextPosition" x="13639" y="7098"><tspan fill="rgb(0,0,0)" stroke="none">64 MiB</tspan></tspan></tspan></text>
 <text class="TextShape"><tspan class="TextParagraph" font-family="Liberation Sans" font-size="353px" font-weight="400"><tspan class="TextPosition" x="15038" y="7098"><tspan fill="rgb(0,0,0)" stroke="none">256 MiB</tspan></tspan></tspan></text>
 <text class="TextShape"><tspan class="TextParagraph" font-family="Liberation Sans" font-size="71px" font-weight="400"><tspan class="TextPosition" x="2135" y="232"><tspan fill="rgb(255,255,255)" stroke="none">1 KiB</tspan></tspan></tspan></text>
 <text class="TextShape"><tspan class="TextParagraph" font-family="Liberation Sans" font-size="71px" font-weight="400"><tspan class="TextPosition" x="3634" y="232"><tspan fill="rgb(255,255,255)" stroke="none">4 KiB</tspan></tspan></tspan></text>
 <text class="TextShape"><tspan class="TextParagraph" font-family="Liberation Sans" font-size="71px" font-weight="400"><tspan class="TextPosition" x="5113" y="232"><tspan fill="rgb(255,255,255)" stroke="none">16 KiB</tspan></tspan></tspan></text>
 <text class="TextShape"><tspan class="TextParagraph" font-family="Liberation Sans" font-size="71px" font-weight="400"><tspan class="TextPosition" x="6612" y="232"><tspan fill="rgb(255,255,255)" stroke="none">64 KiB</tspan></tspan></tspan></text>
 <text class="TextShape"><tspan class="TextParagraph" font-family="Liberation Sans" font-size="71px" font-weight="400"><tspan class="TextPosition" x="8091" y="232"><tspan fill="rgb(255,255,255)" stroke="none">256 KiB</tspan></tspan></tspan></text>
 <text class="TextShape"><tspan class="TextParagraph" font-family="Liberation Sans" font-size="71px" font-weight="400"><tspan class="TextPosition" x="9623" y="232"><tspan fill="rgb(255,255,255)" stroke="none">1 MiB</tspan></tspan></tspan></text>
 <text class="TextShape"><tspan class="TextParagraph" font-family="Liberation Sans" font-size="71px" font-weight="400"><tspan class="TextPosition" x="11122" y="232"><tspan fill="rgb(255,255,255)" stroke="none">4 MiB</tspan></tspan></tspan></text>
 <text class="TextShape"><tspan class="TextParagraph" font-family="Liberation Sans" font-size="71px" font-weight="400"><tspan class="TextPosition" x="12603" y="232"><tspan fill="rgb(255,255,255)" stroke="none">16 MiB</tspan></tspan></tspan></text>
 <text class="TextShape"><tspan class="TextParagraph" font-family="Liberation Sans" font-size="71px" font-weight="400"><tspan class="TextPosition" x="14102" y="232"><tspan fill="rgb(255,255,255)" stroke="none">64 MiB</tspan></tspan></tspan></text>
 <text class="TextShape"><tspan class="TextParagraph" font-family="Liberation Sans" font-size="71px" font-weight="400"><tspan class="TextPosition" x="15581" y="232"><tspan fill="rgb(255,255,255)" stroke="none">256 MiB</tspan></tspan></tspan></text>
 <text class="TextShape"><tspan class="TextParagraph" font-family="Liberation Sans" font-size="353px" font-weight="400"><tspan class="TextPosition" x="820" y="6651"><tspan fill="rgb(0,0,0)" stroke="none">0 MB/s</tspan></tspan></tspan></text>
 <text class="TextShape"><tspan class="TextParagraph" font-family="Liberation Sans" font-size="353px" font-weight="400"><tspan class="TextPosition" x="622" y="5104"><tspan fill="rgb(0,0,0)" stroke="none">50 MB/s</tspan></tspan></tspan></text>
 <text class="TextShape"><tspan class="TextParagraph" font-family="Liberation Sans" font-size="353px" font-weight="400"><tspan class="TextPosition" x="423" y="3557"><tspan fill="rgb(0,0,0)" stroke="none">100 MB/s</tspan></tspan></tspan></text>
 <text class="TextShape"><tspan class="TextParagraph" font-family="Liberation Sans" font-size="353px" font-weight="400"><tspan class="TextPosition" x="423" y="2010"><tspan fill="rgb(0,0,0)" stroke="none">150 MB/s</tspan></tspan></tspan></text>
 <text class="TextShape"><tspan class="TextParagraph" font-family="Liberation Sans" font-size="353px" font-weight="400"><tspan class="TextPosition" x="423" y="464"><tspan fill="rgb(0,0,0)" stroke="none">200 MB/s</tspan></tspan></tspan></text>
 <text class="TextShape"><tspan class="TextParagraph" font-family="Liberation Sans" font-size="71px" font-weight="400"><tspan class="TextPosition" x="16548" y="6558"><tspan fill="rgb(255,255,255)" stroke="none">0 MB/s</tspan></tspan></tspan></text>
 <text class="TextShape"><tspan class="TextParagraph" font-family="Liberation Sans" font-size="71px" font-weight="400"><tspan class="TextPosition" x="16548" y="5011"><tspan fill="rgb(255,255,255)" stroke="none">50 MB/s</tspan></tspan></tspan></text>
 <text class="TextShape"><tspan class="TextParagraph" font-family="Liberation Sans" font-size="71px" font-weight="400"><tspan class="TextPosition" x="16548" y="3464"><tspan fill="rgb(255,255,255)" stroke="none">100 MB/s</tspan></tspan></tspan></text>
 <text class="TextShape"><tspan class="TextParagraph" font-family="Liberation Sans" font-size="71px" font-weight="400"><tspan class="TextPosition" x="16548" y="1917"><tspan fill="rgb(255,255,255)" stroke="none">150 MB/s</tspan></tspan></tspan></text>
 <text class="TextShape"><tspan class="TextParagraph" font-family="Liberation Sans" font-size="71px" font-weight="400"><tspan class="TextPosition" x="16548" y="371"><tspan fill="rgb(255,255,255)" stroke="none">200 MB/s</tspan></tspan></tspan></text>
 <path fill="none" stroke="rgb(87,157,28)" stroke-width="51" stroke-linejoin="round" d="M 17344,3163 L 18144,3163"/>
 <path fill="none" stroke="rgb(255,211,32)" stroke-width="51" stroke-linejoin="round" d="M 17344,3661 L 18144,3661"/>
 <path fill="none" stroke="rgb(197,0,11)" stroke-width="51" stroke-linejoin="round" d="M 17344,4158 L 18144,4158"/>
 <text class="TextShape"><tspan class="TextParagraph" font-family="Liberation Mono, monospace" font-size="353px" font-weight="400"><tspan class="TextPosition" x="18244" y="3256"><tspan fill="rgb(0,0,0)" stroke="none"> </tspan><tspan fill="rgb(0,0,0)" stroke="none">0.1 ms</tspan></tspan></tspan></text>
 <text class="TextShape"><tspan class="TextParagraph" font-family="Liberation Mono, monospace" font-size="353px" font-weight="400"><tspan class="TextPosition" x="18244" y="3753"><tspan fill="rgb(0,0,0)" stroke="none"> </tspan><tspan fill="rgb(0,0,0)" stroke="none">1.0 ms</tspan></tspan></tspan></text>
 <text class="TextShape"><tspan class="TextParagraph" font-family="Liberation Mono, monospace" font-size="353px" font-weight="400"><tspan class="TextPosition" x="18244" y="4251"><tspan fill="rgb(0,0,0)" stroke="none">10.0 ms</tspan></tspan></tspan></text>
</svg>