<?xml version="1.0" encoding="UTF-8" standalone="no"?>
<!DOCTYPE svg PUBLIC "-//W3C//DTD SVG 1.0//EN" "http://www.w3.org/TR/2001/PR-SVG-20010719/DTD/svg10.dtd">
<svg width="72cm" height="18cm" viewBox="-162 209 1423 342" xmlns="http://www.w3.org/2000/svg" xmlns:xlink="http://www.w3.org/1999/xlink">
  <g id="Background">
    <polyline style="fill: none; stroke-opacity: 1; stroke-width: 3; stroke: #ffd320" points="550,300 830,400 "/>
    <polyline style="fill: none; stroke-opacity: 1; stroke-width: 3; stroke: #ffd320" points="950,300 830,400 "/>
    <polyline style="fill: none; stroke-opacity: 1; stroke-width: 3; stroke: #c5000e" points="350,300 510,400 "/>
    <polyline style="fill: none; stroke-opacity: 1; stroke-width: 3; stroke: #c5000e" points="750,300 510,400 "/>
    <polyline style="fill: none; stroke-opacity: 1; stroke-width: 3; stroke: #579d1c" points="250,300 348,400 "/>
    <polyline style="fill: none; stroke-opacity: 1; stroke-width: 3; stroke: #579d1c" points="650,300 348,400 "/>
    <polyline style="fill: none; stroke-opacity: 1; stroke-width: 3; stroke: #004586" points="450,300 670,400 "/>
    <polyline style="fill: none; stroke-opacity: 1; stroke-width: 3; stroke: #004586" points="850,300 670,400 "/>
    <g>
      <rect style="fill: #a9c469; fill-opacity: 1; stroke-opacity: 1; stroke-width: 2; stroke: #000000" x="200" y="260" width="100" height="40" rx="0" ry="0"/>
      <text font-size="22.5778" style="fill: #000000; fill-opacity: 1; stroke: none;text-anchor:middle;font-family:sans-serif;font-style:normal;font-weight:normal" x="250" y="286.847">
        <tspan x="250" y="286.847">i+0</tspan>
      </text>
    </g>
    <g>
      <rect style="fill: #e35a47; fill-opacity: 1; stroke-opacity: 1; stroke-width: 2; stroke: #000000" x="300" y="260" width="100" height="40" rx="0" ry="0"/>
      <text font-size="22.5778" style="fill: #000000; fill-opacity: 1; stroke: none;text-anchor:middle;font-family:sans-serif;font-style:normal;font-weight:normal" x="350" y="286.847">
        <tspan x="350" y="286.847">i+1</tspan>
      </text>
    </g>
    <g>
      <rect style="fill: #729fcf; fill-opacity: 1; stroke-opacity: 1; stroke-width: 2; stroke: #000000" x="400" y="260" width="100" height="40" rx="0" ry="0"/>
      <text font-size="22.5778" style="fill: #000000; fill-opacity: 1; stroke: none;text-anchor:middle;font-family:sans-serif;font-style:normal;font-weight:normal" x="450" y="286.847">
        <tspan x="450" y="286.847">i+2</tspan>
      </text>
    </g>
    <g>
      <rect style="fill: #f8de7e; fill-opacity: 1; stroke-opacity: 1; stroke-width: 2; stroke: #000000" x="500" y="260" width="100" height="40" rx="0" ry="0"/>
      <text font-size="22.5778" style="fill: #000000; fill-opacity: 1; stroke: none;text-anchor:middle;font-family:sans-serif;font-style:normal;font-weight:normal" x="550" y="286.847">
        <tspan x="550" y="286.847">i+3</tspan>
      </text>
    </g>
    <g>
      <rect style="fill: #a9c469; fill-opacity: 1; stroke-opacity: 1; stroke-width: 2; stroke: #000000" x="600" y="260" width="100" height="40" rx="0" ry="0"/>
      <text font-size="22.5778" style="fill: #000000; fill-opacity: 1; stroke: none;text-anchor:middle;font-family:sans-serif;font-style:normal;font-weight:normal" x="650" y="286.847">
        <tspan x="650" y="286.847">i+4</tspan>
      </text>
    </g>
    <g>
      <rect style="fill: #e35a47; fill-opacity: 1; stroke-opacity: 1; stroke-width: 2; stroke: #000000" x="700" y="260" width="100" height="40" rx="0" ry="0"/>
      <text font-size="22.5778" style="fill: #000000; fill-opacity: 1; stroke: none;text-anchor:middle;font-family:sans-serif;font-style:normal;font-weight:normal" x="750" y="286.847">
        <tspan x="750" y="286.847">i+5</tspan>
      </text>
    </g>
    <g>
      <rect style="fill: #729fcf; fill-opacity: 1; stroke-opacity: 1; stroke-width: 2; stroke: #000000" x="800" y="260" width="100" height="40" rx="0" ry="0"/>
      <text font-size="22.5778" style="fill: #000000; fill-opacity: 1; stroke: none;text-anchor:middle;font-family:sans-serif;font-style:normal;font-weight:normal" x="850" y="286.847">
        <tspan x="850" y="286.847">i+6</tspan>
      </text>
    </g>
    <g>
      <rect style="fill: #f8de7e; fill-opacity: 1; stroke-opacity: 1; stroke-width: 2; stroke: #000000" x="900" y="260" width="100" height="40" rx="0" ry="0"/>
      <text font-size="22.5778" style="fill: #000000; fill-opacity: 1; stroke: none;text-anchor:middle;font-family:sans-serif;font-style:normal;font-weight:normal" x="950" y="286.847">
        <tspan x="950" y="286.847">i+7</tspan>
      </text>
    </g>
    <g>
      <rect style="fill: #a9c469; fill-opacity: 1; stroke-opacity: 1; stroke-width: 2; stroke: #000000" x="300" y="440" width="100" height="100" rx="0" ry="0"/>
      <text font-size="22.5778" style="fill: #000000; fill-opacity: 1; stroke: none;text-anchor:middle;font-family:sans-serif;font-style:normal;font-weight:normal" x="350" y="496.847">
        <tspan x="350" y="496.847">Chip #0</tspan>
      </text>
    </g>
    <g>
      <rect style="fill: #e35a47; fill-opacity: 1; stroke-opacity: 1; stroke-width: 2; stroke: #000000" x="460" y="440" width="100" height="100" rx="0" ry="0"/>
      <text font-size="22.5778" style="fill: #000000; fill-opacity: 1; stroke: none;text-anchor:middle;font-family:sans-serif;font-style:normal;font-weight:normal" x="510" y="496.847">
        <tspan x="510" y="496.847">Chip #1</tspan>
      </text>
    </g>
    <g>
      <line style="fill: none; stroke-opacity: 1; stroke-width: 2; stroke: #000000" x1="204.472" y1="240" x2="995.528" y2="240"/>
      <polyline style="fill: none; stroke-opacity: 1; stroke-width: 2; stroke: #000000" points="212.236,235 202.236,240 212.236,245 "/>
      <polyline style="fill: none; stroke-opacity: 1; stroke-width: 2; stroke: #000000" points="987.764,245 997.764,240 987.764,235 "/>
    </g>
    <text font-size="22.5778" style="fill: #000000; fill-opacity: 1; stroke: none;text-anchor:start;font-family:sans-serif;font-style:normal;font-weight:normal" x="544" y="230">
      <tspan x="544" y="230">Request</tspan>
    </text>
    <g>
      <rect style="fill: #729fcf; fill-opacity: 1; stroke-opacity: 1; stroke-width: 2; stroke: #000000" x="620" y="440" width="100" height="100" rx="0" ry="0"/>
      <text font-size="22.5778" style="fill: #000000; fill-opacity: 1; stroke: none;text-anchor:middle;font-family:sans-serif;font-style:normal;font-weight:normal" x="670" y="496.847">
        <tspan x="670" y="496.847">Chip #2</tspan>
      </text>
    </g>
    <g>
      <rect style="fill: #f8de7e; fill-opacity: 1; stroke-opacity: 1; stroke-width: 2; stroke: #000000" x="780" y="440" width="100" height="100" rx="0" ry="0"/>
      <text font-size="22.5778" style="fill: #000000; fill-opacity: 1; stroke: none;text-anchor:middle;font-family:sans-serif;font-style:normal;font-weight:normal" x="830" y="496.847">
        <tspan x="830" y="496.847">Chip #3</tspan>
      </text>
    </g>
    <line style="fill: none; stroke-opacity: 1; stroke-width: 2; stroke: #000000" x1="200" y1="232" x2="200" y2="300"/>
    <line style="fill: none; stroke-opacity: 1; stroke-width: 2; stroke: #000000" x1="1000" y1="232" x2="1000" y2="300"/>
    <g>
      <rect style="fill: #c0c0c0; fill-opacity: 1; stroke-opacity: 1; stroke-width: 2; stroke: #000000" x="100" y="260" width="100" height="40" rx="0" ry="0"/>
      <text font-size="22.5778" style="fill: #000000; fill-opacity: 1; stroke: none;text-anchor:middle;font-family:sans-serif;font-style:normal;font-weight:normal" x="150" y="286.847">
        <tspan x="150" y="286.847"></tspan>
      </text>
    </g>
    <g>
      <rect style="fill: #c0c0c0; fill-opacity: 1; stroke-opacity: 1; stroke-width: 2; stroke: #000000" x="1000" y="260" width="100" height="40" rx="0" ry="0"/>
      <text font-size="22.5778" style="fill: #000000; fill-opacity: 1; stroke: none;text-anchor:middle;font-family:sans-serif;font-style:normal;font-weight:normal" x="1050" y="286.847">
        <tspan x="1050" y="286.847"></tspan>
      </text>
    </g>
    <g>
      <rect style="fill: #c0c0c0; fill-opacity: 1; stroke-opacity: 1; stroke-width: 2; stroke: #000000" x="-60" y="260" width="100" height="40" rx="0" ry="0"/>
      <text font-size="22.5778" style="fill: #000000; fill-opacity: 1; stroke: none;text-anchor:middle;font-family:sans-serif;font-style:normal;font-weight:normal" x="-10" y="286.847">
        <tspan x="-10" y="286.847"></tspan>
      </text>
    </g>
    <g>
      <rect style="fill: #c0c0c0; fill-opacity: 1; stroke-opacity: 1; stroke-width: 2; stroke: #000000" x="1160" y="260" width="100" height="40" rx="0" ry="0"/>
      <text font-size="22.5778" style="fill: #000000; fill-opacity: 1; stroke: none;text-anchor:middle;font-family:sans-serif;font-style:normal;font-weight:normal" x="1210" y="286.847">
        <tspan x="1210" y="286.847"></tspan>
      </text>
    </g>
    <text font-size="31.6089" style="fill: #000000; fill-opacity: 1; stroke: none;text-anchor:start;font-family:sans-serif;font-style:normal;font-weight:normal" x="56" y="284">
      <tspan x="56" y="284">...</tspan>
    </text>
    <text font-size="31.6089" style="fill: #000000; fill-opacity: 1; stroke: none;text-anchor:start;font-family:sans-serif;font-style:normal;font-weight:normal" x="1116" y="284">
      <tspan x="1116" y="284">...</tspan>
    </text>
    <g>
      <line style="fill: none; stroke-opacity: 1; stroke-width: 2; stroke: #000000" x1="-55.5279" y1="240" x2="35.5279" y2="240"/>
      <polyline style="fill: none; stroke-opacity: 1; stroke-width: 2; stroke: #000000" points="-47.7639,235 -57.7639,240 -47.7639,245 "/>
      <polyline style="fill: none; stroke-opacity: 1; stroke-width: 2; stroke: #000000" points="27.7639,245 37.7639,240 27.7639,235 "/>
    </g>
    <text font-size="22.5778" style="fill: #000000; fill-opacity: 1; stroke: none;text-anchor:start;font-family:sans-serif;font-style:normal;font-weight:normal" x="-44" y="232">
      <tspan x="-44" y="232">Sector</tspan>
    </text>
    <line style="fill: none; stroke-opacity: 1; stroke-width: 2; stroke: #000000" x1="-60" y1="230" x2="-60" y2="300"/>
    <line style="fill: none; stroke-opacity: 1; stroke-width: 2; stroke: #000000" x1="40" y1="230" x2="40" y2="300"/>
    <g>
      <rect style="fill: #c0c0c0; fill-opacity: 1; stroke-opacity: 1; stroke-width: 2; stroke: #000000" x="-160" y="260" width="100" height="40" rx="0" ry="0"/>
      <text font-size="22.5778" style="fill: #000000; fill-opacity: 1; stroke: none;text-anchor:middle;font-family:sans-serif;font-style:normal;font-weight:normal" x="-110" y="286.847">
        <tspan x="-110" y="286.847"></tspan>
      </text>
    </g>
    <line style="fill: none; stroke-opacity: 1; stroke-width: 2; stroke: #000000" x1="290" y1="450" x2="300" y2="450"/>
    <line style="fill: none; stroke-opacity: 1; stroke-width: 2; stroke: #000000" x1="290" y1="460" x2="300" y2="460"/>
    <line style="fill: none; stroke-opacity: 1; stroke-width: 2; stroke: #000000" x1="290" y1="470" x2="300" y2="470"/>
    <line style="fill: none; stroke-opacity: 1; stroke-width: 2; stroke: #000000" x1="290" y1="480" x2="300" y2="480"/>
    <line style="fill: none; stroke-opacity: 1; stroke-width: 2; stroke: #000000" x1="290" y1="490" x2="300" y2="490"/>
    <line style="fill: none; stroke-opacity: 1; stroke-width: 2; stroke: #000000" x1="290" y1="500" x2="300" y2="500"/>
    <line style="fill: none; stroke-opacity: 1; stroke-width: 2; stroke: #000000" x1="290" y1="510" x2="300" y2="510"/>
    <line style="fill: none; stroke-opacity: 1; stroke-width: 2; stroke: #000000" x1="290" y1="520" x2="300" y2="520"/>
    <line style="fill: none; stroke-opacity: 1; stroke-width: 2; stroke: #000000" x1="290" y1="530" x2="300" y2="530"/>
    <line style="fill: none; stroke-opacity: 1; stroke-width: 2; stroke: #000000" x1="400" y1="450" x2="410" y2="450"/>
    <line style="fill: none; stroke-opacity: 1; stroke-width: 2; stroke: #000000" x1="400" y1="460" x2="410" y2="460"/>
    <line style="fill: none; stroke-opacity: 1; stroke-width: 2; stroke: #000000" x1="400" y1="470" x2="410" y2="470"/>
    <line style="fill: none; stroke-opacity: 1; stroke-width: 2; stroke: #000000" x1="400" y1="480" x2="410" y2="480"/>
    <line style="fill: none; stroke-opacity: 1; stroke-width: 2; stroke: #000000" x1="400" y1="490" x2="410" y2="490"/>
    <line style="fill: none; stroke-opacity: 1; stroke-width: 2; stroke: #000000" x1="400" y1="500" x2="410" y2="500"/>
    <line style="fill: none; stroke-opacity: 1; stroke-width: 2; stroke: #000000" x1="400" y1="510" x2="410" y2="510"/>
    <line style="fill: none; stroke-opacity: 1; stroke-width: 2; stroke: #000000" x1="400" y1="520" x2="410" y2="520"/>
    <line style="fill: none; stroke-opacity: 1; stroke-width: 2; stroke: #000000" x1="400" y1="530" x2="410" y2="530"/>
    <line style="fill: none; stroke-opacity: 1; stroke-width: 2; stroke: #000000" x1="310" y1="550" x2="310" y2="540"/>
    <line style="fill: none; stroke-opacity: 1; stroke-width: 2; stroke: #000000" x1="320" y1="550" x2="320" y2="540"/>
    <line style="fill: none; stroke-opacity: 1; stroke-width: 2; stroke: #000000" x1="330" y1="550" x2="330" y2="540"/>
    <line style="fill: none; stroke-opacity: 1; stroke-width: 2; stroke: #000000" x1="340" y1="550" x2="340" y2="540"/>
    <line style="fill: none; stroke-opacity: 1; stroke-width: 2; stroke: #000000" x1="350" y1="550" x2="350" y2="540"/>
    <line style="fill: none; stroke-opacity: 1; stroke-width: 2; stroke: #000000" x1="360" y1="550" x2="360" y2="540"/>
    <line style="fill: none; stroke-opacity: 1; stroke-width: 2; stroke: #000000" x1="370" y1="550" x2="370" y2="540"/>
    <line style="fill: none; stroke-opacity: 1; stroke-width: 2; stroke: #000000" x1="380" y1="550" x2="380" y2="540"/>
    <line style="fill: none; stroke-opacity: 1; stroke-width: 2; stroke: #000000" x1="390" y1="550" x2="390" y2="540"/>
    <line style="fill: none; stroke-opacity: 1; stroke-width: 2; stroke: #000000" x1="310" y1="440" x2="310" y2="430"/>
    <line style="fill: none; stroke-opacity: 1; stroke-width: 2; stroke: #000000" x1="320" y1="440" x2="320" y2="430"/>
    <line style="fill: none; stroke-opacity: 1; stroke-width: 2; stroke: #000000" x1="330" y1="440" x2="330" y2="430"/>
    <line style="fill: none; stroke-opacity: 1; stroke-width: 2; stroke: #000000" x1="340" y1="440" x2="340" y2="430"/>
    <line style="fill: none; stroke-opacity: 1; stroke-width: 2; stroke: #000000" x1="350" y1="440" x2="350" y2="430"/>
    <line style="fill: none; stroke-opacity: 1; stroke-width: 2; stroke: #000000" x1="360" y1="440" x2="360" y2="430"/>
    <line style="fill: none; stroke-opacity: 1; stroke-width: 2; stroke: #000000" x1="370" y1="440" x2="370" y2="430"/>
    <line style="fill: none; stroke-opacity: 1; stroke-width: 2; stroke: #000000" x1="380" y1="440" x2="380" y2="430"/>
    <line style="fill: none; stroke-opacity: 1; stroke-width: 2; stroke: #000000" x1="390" y1="440" x2="390" y2="430"/>
    <g>
      <polyline style="fill: none; stroke-opacity: 1; stroke-width: 4; stroke: #579d1c" points="348,400 348,431.028 "/>
      <polygon style="fill: #579d1c; fill-opacity: 1; stroke-opacity: 1; stroke-width: 4; stroke: #579d1c" fill-rule="evenodd" points="348,435.528 345,429.528 348,431.028 351,429.528 "/>
    </g>
    <line style="fill: none; stroke-opacity: 1; stroke-width: 2; stroke: #000000" x1="450" y1="450" x2="460" y2="450"/>
    <line style="fill: none; stroke-opacity: 1; stroke-width: 2; stroke: #000000" x1="450" y1="460" x2="460" y2="460"/>
    <line style="fill: none; stroke-opacity: 1; stroke-width: 2; stroke: #000000" x1="450" y1="470" x2="460" y2="470"/>
    <line style="fill: none; stroke-opacity: 1; stroke-width: 2; stroke: #000000" x1="450" y1="480" x2="460" y2="480"/>
    <line style="fill: none; stroke-opacity: 1; stroke-width: 2; stroke: #000000" x1="450" y1="490" x2="460" y2="490"/>
    <line style="fill: none; stroke-opacity: 1; stroke-width: 2; stroke: #000000" x1="450" y1="500" x2="460" y2="500"/>
    <line style="fill: none; stroke-opacity: 1; stroke-width: 2; stroke: #000000" x1="450" y1="510" x2="460" y2="510"/>
    <line style="fill: none; stroke-opacity: 1; stroke-width: 2; stroke: #000000" x1="450" y1="520" x2="460" y2="520"/>
    <line style="fill: none; stroke-opacity: 1; stroke-width: 2; stroke: #000000" x1="450" y1="530" x2="460" y2="530"/>
    <line style="fill: none; stroke-opacity: 1; stroke-width: 2; stroke: #000000" x1="560" y1="450" x2="570" y2="450"/>
    <line style="fill: none; stroke-opacity: 1; stroke-width: 2; stroke: #000000" x1="560" y1="460" x2="570" y2="460"/>
    <line style="fill: none; stroke-opacity: 1; stroke-width: 2; stroke: #000000" x1="560" y1="470" x2="570" y2="470"/>
    <line style="fill: none; stroke-opacity: 1; stroke-width: 2; stroke: #000000" x1="560" y1="480" x2="570" y2="480"/>
    <line style="fill: none; stroke-opacity: 1; stroke-width: 2; stroke: #000000" x1="560" y1="490" x2="570" y2="490"/>
    <line style="fill: none; stroke-opacity: 1; stroke-width: 2; stroke: #000000" x1="560" y1="500" x2="570" y2="500"/>
    <line style="fill: none; stroke-opacity: 1; stroke-width: 2; stroke: #000000" x1="560" y1="510" x2="570" y2="510"/>
    <line style="fill: none; stroke-opacity: 1; stroke-width: 2; stroke: #000000" x1="560" y1="520" x2="570" y2="520"/>
    <line style="fill: none; stroke-opacity: 1; stroke-width: 2; stroke: #000000" x1="560" y1="530" x2="570" y2="530"/>
    <line style="fill: none; stroke-opacity: 1; stroke-width: 2; stroke: #000000" x1="610" y1="450" x2="620" y2="450"/>
    <line style="fill: none; stroke-opacity: 1; stroke-width: 2; stroke: #000000" x1="610" y1="460" x2="620" y2="460"/>
    <line style="fill: none; stroke-opacity: 1; stroke-width: 2; stroke: #000000" x1="610" y1="470" x2="620" y2="470"/>
    <line style="fill: none; stroke-opacity: 1; stroke-width: 2; stroke: #000000" x1="610" y1="480" x2="620" y2="480"/>
    <line style="fill: none; stroke-opacity: 1; stroke-width: 2; stroke: #000000" x1="610" y1="490" x2="620" y2="490"/>
    <line style="fill: none; stroke-opacity: 1; stroke-width: 2; stroke: #000000" x1="610" y1="500" x2="620" y2="500"/>
    <line style="fill: none; stroke-opacity: 1; stroke-width: 2; stroke: #000000" x1="610" y1="510" x2="620" y2="510"/>
    <line style="fill: none; stroke-opacity: 1; stroke-width: 2; stroke: #000000" x1="610" y1="520" x2="620" y2="520"/>
    <line style="fill: none; stroke-opacity: 1; stroke-width: 2; stroke: #000000" x1="610" y1="530" x2="620" y2="530"/>
    <line style="fill: none; stroke-opacity: 1; stroke-width: 2; stroke: #000000" x1="720" y1="450" x2="730" y2="450"/>
    <line style="fill: none; stroke-opacity: 1; stroke-width: 2; stroke: #000000" x1="720" y1="460" x2="730" y2="460"/>
    <line style="fill: none; stroke-opacity: 1; stroke-width: 2; stroke: #000000" x1="720" y1="470" x2="730" y2="470"/>
    <line style="fill: none; stroke-opacity: 1; stroke-width: 2; stroke: #000000" x1="720" y1="480" x2="730" y2="480"/>
    <line style="fill: none; stroke-opacity: 1; stroke-width: 2; stroke: #000000" x1="720" y1="490" x2="730" y2="490"/>
    <line style="fill: none; stroke-opacity: 1; stroke-width: 2; stroke: #000000" x1="720" y1="500" x2="730" y2="500"/>
    <line style="fill: none; stroke-opacity: 1; stroke-width: 2; stroke: #000000" x1="720" y1="510" x2="730" y2="510"/>
    <line style="fill: none; stroke-opacity: 1; stroke-width: 2; stroke: #000000" x1="720" y1="520" x2="730" y2="520"/>
    <line style="fill: none; stroke-opacity: 1; stroke-width: 2; stroke: #000000" x1="720" y1="530" x2="730" y2="530"/>
    <line style="fill: none; stroke-opacity: 1; stroke-width: 2; stroke: #000000" x1="770" y1="450" x2="780" y2="450"/>
    <line style="fill: none; stroke-opacity: 1; stroke-width: 2; stroke: #000000" x1="770" y1="460" x2="780" y2="460"/>
    <line style="fill: none; stroke-opacity: 1; stroke-width: 2; stroke: #000000" x1="770" y1="470" x2="780" y2="470"/>
    <line style="fill: none; stroke-opacity: 1; stroke-width: 2; stroke: #000000" x1="770" y1="480" x2="780" y2="480"/>
    <line style="fill: none; stroke-opacity: 1; stroke-width: 2; stroke: #000000" x1="770" y1="490" x2="780" y2="490"/>
    <line style="fill: none; stroke-opacity: 1; stroke-width: 2; stroke: #000000" x1="770" y1="500" x2="780" y2="500"/>
    <line style="fill: none; stroke-opacity: 1; stroke-width: 2; stroke: #000000" x1="770" y1="510" x2="780" y2="510"/>
    <line style="fill: none; stroke-opacity: 1; stroke-width: 2; stroke: #000000" x1="770" y1="520" x2="780" y2="520"/>
    <line style="fill: none; stroke-opacity: 1; stroke-width: 2; stroke: #000000" x1="770" y1="530" x2="780" y2="530"/>
    <line style="fill: none; stroke-opacity: 1; stroke-width: 2; stroke: #000000" x1="880" y1="450" x2="890" y2="450"/>
    <line style="fill: none; stroke-opacity: 1; stroke-width: 2; stroke: #000000" x1="880" y1="460" x2="890" y2="460"/>
    <line style="fill: none; stroke-opacity: 1; stroke-width: 2; stroke: #000000" x1="880" y1="470" x2="890" y2="470"/>
    <line style="fill: none; stroke-opacity: 1; stroke-width: 2; stroke: #000000" x1="880" y1="480" x2="890" y2="480"/>
    <line style="fill: none; stroke-opacity: 1; stroke-width: 2; stroke: #000000" x1="880" y1="490" x2="890" y2="490"/>
    <line style="fill: none; stroke-opacity: 1; stroke-width: 2; stroke: #000000" x1="880" y1="500" x2="890" y2="500"/>
    <line style="fill: none; stroke-opacity: 1; stroke-width: 2; stroke: #000000" x1="880" y1="510" x2="890" y2="510"/>
    <line style="fill: none; stroke-opacity: 1; stroke-width: 2; stroke: #000000" x1="880" y1="520" x2="890" y2="520"/>
    <line style="fill: none; stroke-opacity: 1; stroke-width: 2; stroke: #000000" x1="880" y1="530" x2="890" y2="530"/>
    <line style="fill: none; stroke-opacity: 1; stroke-width: 2; stroke: #000000" x1="470" y1="550" x2="470" y2="540"/>
    <line style="fill: none; stroke-opacity: 1; stroke-width: 2; stroke: #000000" x1="480" y1="550" x2="480" y2="540"/>
    <line style="fill: none; stroke-opacity: 1; stroke-width: 2; stroke: #000000" x1="490" y1="550" x2="490" y2="540"/>
    <line style="fill: none; stroke-opacity: 1; stroke-width: 2; stroke: #000000" x1="500" y1="550" x2="500" y2="540"/>
    <line style="fill: none; stroke-opacity: 1; stroke-width: 2; stroke: #000000" x1="510" y1="550" x2="510" y2="540"/>
    <line style="fill: none; stroke-opacity: 1; stroke-width: 2; stroke: #000000" x1="520" y1="550" x2="520" y2="540"/>
    <line style="fill: none; stroke-opacity: 1; stroke-width: 2; stroke: #000000" x1="530" y1="550" x2="530" y2="540"/>
    <line style="fill: none; stroke-opacity: 1; stroke-width: 2; stroke: #000000" x1="540" y1="550" x2="540" y2="540"/>
    <line style="fill: none; stroke-opacity: 1; stroke-width: 2; stroke: #000000" x1="550" y1="550" x2="550" y2="540"/>
    <line style="fill: none; stroke-opacity: 1; stroke-width: 2; stroke: #000000" x1="630" y1="550" x2="630" y2="540"/>
    <line style="fill: none; stroke-opacity: 1; stroke-width: 2; stroke: #000000" x1="640" y1="550" x2="640" y2="540"/>
    <line style="fill: none; stroke-opacity: 1; stroke-width: 2; stroke: #000000" x1="650" y1="550" x2="650" y2="540"/>
    <line style="fill: none; stroke-opacity: 1; stroke-width: 2; stroke: #000000" x1="660" y1="550" x2="660" y2="540"/>
    <line style="fill: none; stroke-opacity: 1; stroke-width: 2; stroke: #000000" x1="670" y1="550" x2="670" y2="540"/>
    <line style="fill: none; stroke-opacity: 1; stroke-width: 2; stroke: #000000" x1="680" y1="550" x2="680" y2="540"/>
    <line style="fill: none; stroke-opacity: 1; stroke-width: 2; stroke: #000000" x1="690" y1="550" x2="690" y2="540"/>
    <line style="fill: none; stroke-opacity: 1; stroke-width: 2; stroke: #000000" x1="700" y1="550" x2="700" y2="540"/>
    <line style="fill: none; stroke-opacity: 1; stroke-width: 2; stroke: #000000" x1="710" y1="550" x2="710" y2="540"/>
    <line style="fill: none; stroke-opacity: 1; stroke-width: 2; stroke: #000000" x1="790" y1="550" x2="790" y2="540"/>
    <line style="fill: none; stroke-opacity: 1; stroke-width: 2; stroke: #000000" x1="800" y1="550" x2="800" y2="540"/>
    <line style="fill: none; stroke-opacity: 1; stroke-width: 2; stroke: #000000" x1="810" y1="550" x2="810" y2="540"/>
    <line style="fill: none; stroke-opacity: 1; stroke-width: 2; stroke: #000000" x1="820" y1="550" x2="820" y2="540"/>
    <line style="fill: none; stroke-opacity: 1; stroke-width: 2; stroke: #000000" x1="830" y1="550" x2="830" y2="540"/>
    <line style="fill: none; stroke-opacity: 1; stroke-width: 2; stroke: #000000" x1="840" y1="550" x2="840" y2="540"/>
    <line style="fill: none; stroke-opacity: 1; stroke-width: 2; stroke: #000000" x1="850" y1="550" x2="850" y2="540"/>
    <line style="fill: none; stroke-opacity: 1; stroke-width: 2; stroke: #000000" x1="860" y1="550" x2="860" y2="540"/>
    <line style="fill: none; stroke-opacity: 1; stroke-width: 2; stroke: #000000" x1="870" y1="550" x2="870" y2="540"/>
    <line style="fill: none; stroke-opacity: 1; stroke-width: 2; stroke: #000000" x1="790" y1="440" x2="790" y2="430"/>
    <line style="fill: none; stroke-opacity: 1; stroke-width: 2; stroke: #000000" x1="800" y1="440" x2="800" y2="430"/>
    <line style="fill: none; stroke-opacity: 1; stroke-width: 2; stroke: #000000" x1="810" y1="440" x2="810" y2="430"/>
    <line style="fill: none; stroke-opacity: 1; stroke-width: 2; stroke: #000000" x1="820" y1="440" x2="820" y2="430"/>
    <line style="fill: none; stroke-opacity: 1; stroke-width: 2; stroke: #000000" x1="830" y1="440" x2="830" y2="430"/>
    <line style="fill: none; stroke-opacity: 1; stroke-width: 2; stroke: #000000" x1="840" y1="440" x2="840" y2="430"/>
    <line style="fill: none; stroke-opacity: 1; stroke-width: 2; stroke: #000000" x1="850" y1="440" x2="850" y2="430"/>
    <line style="fill: none; stroke-opacity: 1; stroke-width: 2; stroke: #000000" x1="860" y1="440" x2="860" y2="430"/>
    <line style="fill: none; stroke-opacity: 1; stroke-width: 2; stroke: #000000" x1="870" y1="440" x2="870" y2="430"/>
    <line style="fill: none; stroke-opacity: 1; stroke-width: 2; stroke: #000000" x1="630" y1="440" x2="630" y2="430"/>
    <line style="fill: none; stroke-opacity: 1; stroke-width: 2; stroke: #000000" x1="640" y1="440" x2="640" y2="430"/>
    <line style="fill: none; stroke-opacity: 1; stroke-width: 2; stroke: #000000" x1="650" y1="440" x2="650" y2="430"/>
    <line style="fill: none; stroke-opacity: 1; stroke-width: 2; stroke: #000000" x1="660" y1="440" x2="660" y2="430"/>
    <line style="fill: none; stroke-opacity: 1; stroke-width: 2; stroke: #000000" x1="670" y1="440" x2="670" y2="430"/>
    <line style="fill: none; stroke-opacity: 1; stroke-width: 2; stroke: #000000" x1="680" y1="440" x2="680" y2="430"/>
    <line style="fill: none; stroke-opacity: 1; stroke-width: 2; stroke: #000000" x1="690" y1="440" x2="690" y2="430"/>
    <line style="fill: none; stroke-opacity: 1; stroke-width: 2; stroke: #000000" x1="700" y1="440" x2="700" y2="430"/>
    <line style="fill: none; stroke-opacity: 1; stroke-width: 2; stroke: #000000" x1="710" y1="440" x2="710" y2="430"/>
    <line style="fill: none; stroke-opacity: 1; stroke-width: 2; stroke: #000000" x1="470" y1="440" x2="470" y2="430"/>
    <line style="fill: none; stroke-opacity: 1; stroke-width: 2; stroke: #000000" x1="480" y1="440" x2="480" y2="430"/>
    <line style="fill: none; stroke-opacity: 1; stroke-width: 2; stroke: #000000" x1="490" y1="440" x2="490" y2="430"/>
    <line style="fill: none; stroke-opacity: 1; stroke-width: 2; stroke: #000000" x1="500" y1="440" x2="500" y2="430"/>
    <line style="fill: none; stroke-opacity: 1; stroke-width: 2; stroke: #000000" x1="510" y1="440" x2="510" y2="430"/>
    <line style="fill: none; stroke-opacity: 1; stroke-width: 2; stroke: #000000" x1="520" y1="440" x2="520" y2="430"/>
    <line style="fill: none; stroke-opacity: 1; stroke-width: 2; stroke: #000000" x1="530" y1="440" x2="530" y2="430"/>
    <line style="fill: none; stroke-opacity: 1; stroke-width: 2; stroke: #000000" x1="540" y1="440" x2="540" y2="430"/>
    <line style="fill: none; stroke-opacity: 1; stroke-width: 2; stroke: #000000" x1="550" y1="440" x2="550" y2="430"/>
    <g>
      <polyline style="fill: none; stroke-opacity: 1; stroke-width: 4; stroke: #c5000e" points="510,400 510,431.028 "/>
      <polygon style="fill: #c5000e; fill-opacity: 1; stroke-opacity: 1; stroke-width: 4; stroke: #c5000e" fill-rule="evenodd" points="510,435.528 507,429.528 510,431.028 513,429.528 "/>
    </g>
    <g>
      <polyline style="fill: none; stroke-opacity: 1; stroke-width: 4; stroke: #004586" points="670,400 670,431.028 "/>
      <polygon style="fill: #004586; fill-opacity: 1; stroke-opacity: 1; stroke-width: 4; stroke: #004586" fill-rule="evenodd" points="670,435.528 667,429.528 670,431.028 673,429.528 "/>
    </g>
    <g>
      <polyline style="fill: none; stroke-opacity: 1; stroke-width: 4; stroke: #ffd320" points="830,400 830,431.028 "/>
      <polygon style="fill: #ffd320; fill-opacity: 1; stroke-opacity: 1; stroke-width: 4; stroke: #ffd320" fill-rule="evenodd" points="830,435.528 827,429.528 830,431.028 833,429.528 "/>
    </g>
  </g>
</svg>
