<?xml version="1.0" encoding="UTF-8" standalone="no"?>
<!DOCTYPE svg PUBLIC "-//W3C//DTD SVG 1.0//EN" "http://www.w3.org/TR/2001/PR-SVG-20010719/DTD/svg10.dtd">
<svg width="76cm" height="12cm" viewBox="118 318 1507 223" xmlns="http://www.w3.org/2000/svg" xmlns:xlink="http://www.w3.org/1999/xlink">
  <g>
    <rect style="fill: #bad874" x="540" y="320" width="300" height="60"/>
    <rect style="fill: none; fill-opacity:0; stroke-width: 2; stroke: #000000" x="540" y="320" width="300" height="60"/>
    <text font-size="27.0933" style="fill: #000000;text-anchor:middle;font-family:sans-serif;font-style:normal;font-weight:normal" x="690" y="358.217">
      <tspan x="690" y="358.217">Process read data</tspan>
    </text>
  </g>
  <g>
    <rect style="fill: #e5e5e5" x="840" y="320" width="22" height="60"/>
    <rect style="fill: none; fill-opacity:0; stroke-width: 2; stroke: #000000" x="840" y="320" width="22" height="60"/>
    <text font-size="12.8" style="fill: #000000;text-anchor:middle;font-family:sans-serif;font-style:normal;font-weight:normal" x="851" y="353.9">
      <tspan x="851" y="353.9"></tspan>
    </text>
  </g>
  <g>
    <line style="fill: none; fill-opacity:0; stroke-width: 4; stroke: #000000" x1="280" y1="388" x2="280" y2="460"/>
    <polygon style="fill: #000000" points="275,460 280,470 285,460 "/>
    <polygon style="fill: none; fill-opacity:0; stroke-width: 4; stroke: #000000" points="275,460 280,470 285,460 "/>
  </g>
  <text font-size="27.0933" style="fill: #000000;text-anchor:start;font-family:sans-serif;font-style:normal;font-weight:normal" x="289" y="432">
    <tspan x="289" y="432">read()</tspan>
  </text>
  <g>
    <line style="fill: none; fill-opacity:0; stroke-width: 4; stroke: #000000" x1="540" y1="472" x2="540" y2="400"/>
    <polygon style="fill: #000000" points="545,400 540,390 535,400 "/>
    <polygon style="fill: none; fill-opacity:0; stroke-width: 4; stroke: #000000" points="545,400 540,390 535,400 "/>
  </g>
  <g>
    <line style="fill: none; fill-opacity:0; stroke-width: 4; stroke: #000000" x1="840" y1="388" x2="840" y2="460"/>
    <polygon style="fill: #000000" points="835,460 840,470 845,460 "/>
    <polygon style="fill: none; fill-opacity:0; stroke-width: 4; stroke: #000000" points="835,460 840,470 845,460 "/>
  </g>
  <g>
    <line style="fill: none; fill-opacity:0; stroke-width: 4; stroke: #000000" x1="860" y1="472" x2="860" y2="400"/>
    <polygon style="fill: #000000" points="865,400 860,390 855,400 "/>
    <polygon style="fill: none; fill-opacity:0; stroke-width: 4; stroke: #000000" points="865,400 860,390 855,400 "/>
  </g>
  <g>
    <rect style="fill: #bad874" x="860" y="320" width="300" height="60"/>
    <rect style="fill: none; fill-opacity:0; stroke-width: 2; stroke: #000000" x="860" y="320" width="300" height="60"/>
    <text font-size="27.0933" style="fill: #000000;text-anchor:middle;font-family:sans-serif;font-style:normal;font-weight:normal" x="1010" y="358.217">
      <tspan x="1010" y="358.217">Process read data</tspan>
    </text>
  </g>
  <g>
    <rect style="fill: #bad874" x="1180" y="320" width="300" height="60"/>
    <rect style="fill: none; fill-opacity:0; stroke-width: 2; stroke: #000000" x="1180" y="320" width="300" height="60"/>
    <text font-size="27.0933" style="fill: #000000;text-anchor:middle;font-family:sans-serif;font-style:normal;font-weight:normal" x="1330" y="358.217">
      <tspan x="1330" y="358.217">Process read data</tspan>
    </text>
  </g>
  <g>
    <rect style="fill: #e5e5e5" x="1160" y="320" width="22" height="60"/>
    <rect style="fill: none; fill-opacity:0; stroke-width: 2; stroke: #000000" x="1160" y="320" width="22" height="60"/>
    <text font-size="12.8" style="fill: #000000;text-anchor:middle;font-family:sans-serif;font-style:normal;font-weight:normal" x="1171" y="353.9">
      <tspan x="1171" y="353.9"></tspan>
    </text>
  </g>
  <g>
    <rect style="fill: #e5e5e5" x="280" y="320" width="260" height="60"/>
    <rect style="fill: none; fill-opacity:0; stroke-width: 2; stroke: #000000" x="280" y="320" width="260" height="60"/>
    <text font-size="12.8" style="fill: #000000;text-anchor:middle;font-family:sans-serif;font-style:normal;font-weight:normal" x="410" y="353.9">
      <tspan x="410" y="353.9"></tspan>
    </text>
  </g>
  <g>
    <rect style="fill: #bad874" x="540" y="480" width="200" height="60"/>
    <rect style="fill: none; fill-opacity:0; stroke-width: 2; stroke: #000000" x="540" y="480" width="200" height="60"/>
    <text font-size="27.0933" style="fill: #000000;text-anchor:middle;font-family:sans-serif;font-style:normal;font-weight:normal" x="640" y="518.217">
      <tspan x="640" y="518.217">Readahead</tspan>
    </text>
  </g>
  <g>
    <rect style="fill: #e5e5e5" x="740" y="480" width="120" height="60"/>
    <rect style="fill: none; fill-opacity:0; stroke-width: 2; stroke: #000000" x="740" y="480" width="120" height="60"/>
    <text font-size="12.8" style="fill: #000000;text-anchor:middle;font-family:sans-serif;font-style:normal;font-weight:normal" x="800" y="513.9">
      <tspan x="800" y="513.9"></tspan>
    </text>
  </g>
  <g>
    <rect style="fill: #bad874" x="860" y="480" width="200" height="60"/>
    <rect style="fill: none; fill-opacity:0; stroke-width: 2; stroke: #000000" x="860" y="480" width="200" height="60"/>
    <text font-size="27.0933" style="fill: #000000;text-anchor:middle;font-family:sans-serif;font-style:normal;font-weight:normal" x="960" y="518.217">
      <tspan x="960" y="518.217">Readahead</tspan>
    </text>
  </g>
  <g>
    <rect style="fill: #e5e5e5" x="1060" y="480" width="120" height="60"/>
    <rect style="fill: none; fill-opacity:0; stroke-width: 2; stroke: #000000" x="1060" y="480" width="120" height="60"/>
    <text font-size="12.8" style="fill: #000000;text-anchor:middle;font-family:sans-serif;font-style:normal;font-weight:normal" x="1120" y="513.9">
      <tspan x="1120" y="513.9"></tspan>
    </text>
  </g>
  <g>
    <rect style="fill: #bad874" x="1180" y="480" width="200" height="60"/>
    <rect style="fill: none; fill-opacity:0; stroke-width: 2; stroke: #000000" x="1180" y="480" width="200" height="60"/>
    <text font-size="27.0933" style="fill: #000000;text-anchor:middle;font-family:sans-serif;font-style:normal;font-weight:normal" x="1280" y="518.217">
      <tspan x="1280" y="518.217">Readahead</tspan>
    </text>
  </g>
  <g>
    <rect style="fill: #e5e5e5" x="1380" y="480" width="100" height="60"/>
    <rect style="fill: none; fill-opacity:0; stroke-width: 2; stroke: #000000" x="1380" y="480" width="100" height="60"/>
    <text font-size="12.8" style="fill: #000000;text-anchor:middle;font-family:sans-serif;font-style:normal;font-weight:normal" x="1430" y="513.9">
      <tspan x="1430" y="513.9"></tspan>
    </text>
  </g>
  <g>
    <rect style="fill: #bad874" x="280" y="480" width="260" height="60"/>
    <rect style="fill: none; fill-opacity:0; stroke-width: 2; stroke: #000000" x="280" y="480" width="260" height="60"/>
    <text font-size="27.0933" style="fill: #000000;text-anchor:middle;font-family:sans-serif;font-style:normal;font-weight:normal" x="410" y="518.217">
      <tspan x="410" y="518.217">Read</tspan>
    </text>
  </g>
  <g>
    <line style="fill: none; fill-opacity:0; stroke-width: 4; stroke: #000000" x1="1160" y1="388" x2="1160" y2="460"/>
    <polygon style="fill: #000000" points="1155,460 1160,470 1165,460 "/>
    <polygon style="fill: none; fill-opacity:0; stroke-width: 4; stroke: #000000" points="1155,460 1160,470 1165,460 "/>
  </g>
  <g>
    <line style="fill: none; fill-opacity:0; stroke-width: 4; stroke: #000000" x1="1180" y1="472" x2="1180" y2="400"/>
    <polygon style="fill: #000000" points="1185,400 1180,390 1175,400 "/>
    <polygon style="fill: none; fill-opacity:0; stroke-width: 4; stroke: #000000" points="1185,400 1180,390 1175,400 "/>
  </g>
  <text font-size="27.0933" style="fill: #000000;text-anchor:start;font-family:sans-serif;font-style:normal;font-weight:normal" x="875.6" y="437.15">
    <tspan x="875.6" y="437.15">read()</tspan>
  </text>
  <text font-size="27.0933" style="fill: #000000;text-anchor:start;font-family:sans-serif;font-style:normal;font-weight:normal" x="1194.2" y="431.15">
    <tspan x="1194.2" y="431.15">read()</tspan>
  </text>
  <text font-size="27.0933" style="fill: #000000;text-anchor:start;font-family:sans-serif;font-style:normal;font-weight:normal" x="118" y="355">
    <tspan x="118" y="355">Application</tspan>
  </text>
  <text font-size="27.0933" style="fill: #000000;text-anchor:start;font-family:sans-serif;font-style:normal;font-weight:normal" x="154" y="511">
    <tspan x="154" y="511">Storage</tspan>
  </text>
  <g>
    <line style="fill: none; fill-opacity:0; stroke-width: 4; stroke: #000000" x1="1520" y1="430" x2="1608.03" y2="430"/>
    <polygon style="fill: #000000" points="1615.53,430 1605.53,435 1608.03,430 1605.53,425 "/>
    <polygon style="fill: none; fill-opacity:0; stroke-width: 4; stroke: #000000" points="1615.53,430 1605.53,435 1608.03,430 1605.53,425 "/>
  </g>
  <text font-size="27.0933" style="fill: #000000;text-anchor:start;font-family:sans-serif;font-style:normal;font-weight:normal" x="1528" y="418">
    <tspan x="1528" y="418">Time</tspan>
  </text>
</svg>
