<?xml version="1.0" encoding="UTF-8" standalone="no"?>
<!DOCTYPE svg PUBLIC "-//W3C//DTD SVG 1.0//EN" "http://www.w3.org/TR/2001/PR-SVG-20010719/DTD/svg10.dtd">
<svg width="49cm" height="8cm" viewBox="358 678 963 143" xmlns="http://www.w3.org/2000/svg" xmlns:xlink="http://www.w3.org/1999/xlink">
  <g>
    <rect style="fill: #bce6ab" x="360" y="680" width="120" height="40"/>
    <rect style="fill: none; fill-opacity:0; stroke-width: 2; stroke: #000000" x="360" y="680" width="120" height="40"/>
    <text font-size="27.0933" style="fill: #000000;text-anchor:middle;font-family:sans-serif;font-style:normal;font-weight:normal" x="420" y="708.217">
      <tspan x="420" y="708.217">sda1</tspan>
    </text>
  </g>
  <g>
    <rect style="fill: #ff6550" x="480" y="680" width="240" height="40"/>
    <rect style="fill: none; fill-opacity:0; stroke-width: 2; stroke: #000000" x="480" y="680" width="240" height="40"/>
    <text font-size="27.0933" style="fill: #000000;text-anchor:middle;font-family:sans-serif;font-style:normal;font-weight:normal" x="600" y="708.217">
      <tspan x="600" y="708.217">sda2</tspan>
    </text>
  </g>
  <g>
    <rect style="fill: #ffffff" x="720" y="680" width="400" height="40"/>
    <rect style="fill: none; fill-opacity:0; stroke-width: 2; stroke: #000000" x="720" y="680" width="400" height="40"/>
    <text font-size="27.0933" style="fill: #000000;text-anchor:middle;font-family:sans-serif;font-style:normal;font-weight:normal" x="920" y="708.217">
      <tspan x="920" y="708.217">free</tspan>
    </text>
  </g>
  <g>
    <rect style="fill: #9fc5e8" x="1120" y="680" width="200" height="40"/>
    <rect style="fill: none; fill-opacity:0; stroke-width: 2; stroke: #000000" x="1120" y="680" width="200" height="40"/>
    <text font-size="27.0933" style="fill: #000000;text-anchor:middle;font-family:sans-serif;font-style:normal;font-weight:normal" x="1220" y="708.217">
      <tspan x="1220" y="708.217">sda3</tspan>
    </text>
  </g>
  <g>
    <rect style="fill: #bce6ab" x="360" y="780" width="120" height="40"/>
    <rect style="fill: none; fill-opacity:0; stroke-width: 2; stroke: #000000" x="360" y="780" width="120" height="40"/>
    <text font-size="27.0933" style="fill: #000000;text-anchor:middle;font-family:sans-serif;font-style:normal;font-weight:normal" x="420" y="808.217">
      <tspan x="420" y="808.217">sda1</tspan>
    </text>
  </g>
  <g>
    <rect style="fill: #ff6550" x="480" y="780" width="560" height="40"/>
    <rect style="fill: none; fill-opacity:0; stroke-width: 2; stroke: #000000" x="480" y="780" width="560" height="40"/>
    <text font-size="27.0933" style="fill: #000000;text-anchor:middle;font-family:sans-serif;font-style:normal;font-weight:normal" x="760" y="808.217">
      <tspan x="760" y="808.217">sda2</tspan>
    </text>
  </g>
  <g>
    <rect style="fill: #ffffff" x="1040" y="780" width="80" height="40"/>
    <rect style="fill: none; fill-opacity:0; stroke-width: 2; stroke: #000000" x="1040" y="780" width="80" height="40"/>
    <text font-size="27.0933" style="fill: #000000;text-anchor:middle;font-family:sans-serif;font-style:normal;font-weight:normal" x="1080" y="808.217">
      <tspan x="1080" y="808.217">free</tspan>
    </text>
  </g>
  <g>
    <rect style="fill: #9fc5e8" x="1120" y="780" width="200" height="40"/>
    <rect style="fill: none; fill-opacity:0; stroke-width: 2; stroke: #000000" x="1120" y="780" width="200" height="40"/>
    <text font-size="27.0933" style="fill: #000000;text-anchor:middle;font-family:sans-serif;font-style:normal;font-weight:normal" x="1220" y="808.217">
      <tspan x="1220" y="808.217">sda3</tspan>
    </text>
  </g>
  <g>
    <path style="fill: none; fill-opacity:0; stroke-width: 2; stroke: #000000" d="M 720 720 C 720,780 1040,720 1040,773.264"/>
    <polygon style="fill: #000000" points="1040,777.764 1037,771.764 1040,773.264 1043,771.764 "/>
    <polygon style="fill: none; fill-opacity:0; stroke-width: 2; stroke: #000000" points="1040,777.764 1037,771.764 1040,773.264 1043,771.764 "/>
  </g>
</svg>
