<?xml version="1.0" encoding="UTF-8" standalone="no"?>
<!DOCTYPE svg PUBLIC "-//W3C//DTD SVG 1.0//EN" "http://www.w3.org/TR/2001/PR-SVG-20010719/DTD/svg10.dtd">
<svg width="51cm" height="12cm" viewBox="339 465 1003 224" xmlns="http://www.w3.org/2000/svg" xmlns:xlink="http://www.w3.org/1999/xlink">
  <g id="Background">
    <g>
      <rect style="fill: #e8e8e8; fill-opacity: 1; stroke-opacity: 1; stroke-width: 2; stroke: #000000" x="360" y="520" width="980" height="40" rx="0" ry="0"/>
      <text font-size="12.8" style="fill: #000000; fill-opacity: 1; stroke: none;text-anchor:middle;font-family:sans-serif;font-style:normal;font-weight:normal" x="850" y="543.881">
        <tspan x="850" y="543.881"></tspan>
      </text>
    </g>
    <g>
      <path style="fill: none; stroke-opacity: 1; stroke-width: 2; stroke: #000000" d="M 800.238 516.641 C 656.238,464.641 544,472 544,510.764"/>
      <polygon style="fill: #000000; fill-opacity: 1; stroke-opacity: 1; stroke-width: 2; stroke: #000000" fill-rule="evenodd" points="544,513.764 542,509.764 544,510.764 546,509.764 "/>
    </g>
    <g>
      <path style="fill: none; stroke-opacity: 1; stroke-width: 2; stroke: #000000" d="M 766.828 517.172 C 782.828,501.172 798.851,496.169 803.346,511.153"/>
      <polygon style="fill: #000000; fill-opacity: 1; stroke-opacity: 1; stroke-width: 2; stroke: #000000" fill-rule="evenodd" points="804.208,514.027 801.143,510.77 803.346,511.153 804.974,509.621 "/>
    </g>
    <g>
      <path style="fill: none; stroke-opacity: 1; stroke-width: 2; stroke: #000000" d="M 1240.16 516.867 C 976.164,438.867 852.716,472.065 845.652,510.913"/>
      <polygon style="fill: #000000; fill-opacity: 1; stroke-opacity: 1; stroke-width: 2; stroke: #000000" fill-rule="evenodd" points="845.116,513.865 843.863,509.571 845.652,510.913 847.799,510.287 "/>
    </g>
    <g>
      <path style="fill: none; stroke-opacity: 1; stroke-width: 2; stroke: #000000" d="M 1007.72 516.54 C 1109.72,476.54 1241.82,472.004 1243.58,510.773"/>
      <polygon style="fill: #000000; fill-opacity: 1; stroke-opacity: 1; stroke-width: 2; stroke: #000000" fill-rule="evenodd" points="1243.72,513.77 1241.54,509.865 1243.58,510.773 1245.53,509.684 "/>
    </g>
    <g>
      <rect style="fill: #e8e8e8; fill-opacity: 1; stroke-opacity: 1; stroke-width: 2; stroke: #000000" x="360" y="648" width="980" height="40" rx="0" ry="0"/>
      <text font-size="12.8" style="fill: #000000; fill-opacity: 1; stroke: none;text-anchor:middle;font-family:sans-serif;font-style:normal;font-weight:normal" x="850" y="671.881">
        <tspan x="850" y="671.881"></tspan>
      </text>
    </g>
    <g>
      <path style="fill: none; stroke-opacity: 1; stroke-width: 2; stroke: #000000" d="M 547.767 646.655 C 631.767,616.655 752.735,614.205 761.079,639.238"/>
      <polygon style="fill: #000000; fill-opacity: 1; stroke-opacity: 1; stroke-width: 2; stroke: #000000" fill-rule="evenodd" points="762.028,642.084 758.866,638.922 761.079,639.238 762.66,637.657 "/>
    </g>
    <g>
      <path style="fill: none; stroke-opacity: 1; stroke-width: 2; stroke: #000000" d="M 766.058 644.57 C 778.058,624.57 792.735,614.205 801.079,639.238"/>
      <polygon style="fill: #000000; fill-opacity: 1; stroke-opacity: 1; stroke-width: 2; stroke: #000000" fill-rule="evenodd" points="802.028,642.084 798.866,638.922 801.079,639.238 802.66,637.657 "/>
    </g>
    <g>
      <path style="fill: none; stroke-opacity: 1; stroke-width: 2; stroke: #000000" d="M 810.058 644.57 C 822.058,624.57 832.735,614.205 841.079,639.238"/>
      <polygon style="fill: #000000; fill-opacity: 1; stroke-opacity: 1; stroke-width: 2; stroke: #000000" fill-rule="evenodd" points="842.028,642.084 838.866,638.922 841.079,639.238 842.66,637.657 "/>
    </g>
    <g>
      <path style="fill: none; stroke-opacity: 1; stroke-width: 2; stroke: #000000" d="M 847.692 646.462 C 919.692,616.462 992.735,614.205 1001.08,639.238"/>
      <polygon style="fill: #000000; fill-opacity: 1; stroke-opacity: 1; stroke-width: 2; stroke: #000000" fill-rule="evenodd" points="1002.03,642.084 998.866,638.922 1001.08,639.238 1002.66,637.657 "/>
    </g>
    <g>
      <path style="fill: none; stroke-opacity: 1; stroke-width: 2; stroke: #000000" d="M 1007.67 646.405 C 1099.67,606.405 1192.74,614.205 1201.08,639.238"/>
      <polygon style="fill: #000000; fill-opacity: 1; stroke-opacity: 1; stroke-width: 2; stroke: #000000" fill-rule="evenodd" points="1202.03,642.084 1198.87,638.922 1201.08,639.238 1202.66,637.657 "/>
    </g>
    <g>
      <path style="fill: none; stroke-opacity: 1; stroke-width: 2; stroke: #000000" d="M 1206.06 644.57 C 1218.06,624.57 1232.74,614.205 1241.08,639.238"/>
      <polygon style="fill: #000000; fill-opacity: 1; stroke-opacity: 1; stroke-width: 2; stroke: #000000" fill-rule="evenodd" points="1242.03,642.084 1238.87,638.922 1241.08,639.238 1242.66,637.657 "/>
    </g>
    <g>
      <line style="fill: none; stroke-opacity: 1; stroke-width: 2; stroke: #000000" x1="1204" y1="476" x2="1204" y2="510.764"/>
      <line style="fill: none; stroke-opacity: 1; stroke-width: 2; stroke: #000000" x1="1204" y1="468" x2="1204" y2="469.6"/>
      <line style="fill: none; stroke-opacity: 1; stroke-width: 2; stroke: #000000" x1="1204" y1="470.667" x2="1204" y2="472.267"/>
      <line style="fill: none; stroke-opacity: 1; stroke-width: 2; stroke: #000000" x1="1204" y1="473.333" x2="1204" y2="474.933"/>
      <polygon style="fill: #000000; fill-opacity: 1; stroke-opacity: 1; stroke-width: 2; stroke: #000000" fill-rule="evenodd" points="1204,513.764 1202,509.764 1204,510.764 1206,509.764 "/>
    </g>
    <g>
      <path style="fill: none; stroke-opacity: 1; stroke-width: 2; stroke: #000000" d="M 1200.15 514.929 C 1092.15,484.929 1017.26,480.205 1006.92,511.238"/>
      <polygon style="fill: #000000; fill-opacity: 1; stroke-opacity: 1; stroke-width: 2; stroke: #000000" fill-rule="evenodd" points="1005.97,514.084 1005.34,509.657 1006.92,511.238 1009.13,510.922 "/>
    </g>
    <g>
      <path style="fill: none; stroke-opacity: 1; stroke-width: 2; stroke: #000000" d="M 840.927 517.439 C 816.927,497.439 768.496,484.031 765.146,510.835"/>
      <polygon style="fill: #000000; fill-opacity: 1; stroke-opacity: 1; stroke-width: 2; stroke: #000000" fill-rule="evenodd" points="764.773,513.812 763.285,509.595 765.146,510.835 767.254,510.091 "/>
    </g>
    <g>
      <rect style="fill: #ff4500; fill-opacity: 1; stroke-opacity: 1; stroke-width: 1; stroke: #000000" x="540" y="520" width="8" height="40" rx="0" ry="0"/>
      <text font-size="1.6" style="fill: #000000; fill-opacity: 1; stroke: none;text-anchor:middle;font-family:sans-serif;font-style:normal;font-weight:normal" x="544" y="540.485">
        <tspan x="544" y="540.485"></tspan>
      </text>
    </g>
    <g>
      <rect style="fill: #ff4500; fill-opacity: 1; stroke-opacity: 1; stroke-width: 1; stroke: #000000" x="760" y="520" width="8" height="40" rx="0" ry="0"/>
      <text font-size="1.6" style="fill: #000000; fill-opacity: 1; stroke: none;text-anchor:middle;font-family:sans-serif;font-style:normal;font-weight:normal" x="764" y="540.485">
        <tspan x="764" y="540.485"></tspan>
      </text>
    </g>
    <g>
      <rect style="fill: #ff4500; fill-opacity: 1; stroke-opacity: 1; stroke-width: 1; stroke: #000000" x="800" y="520" width="8" height="40" rx="0" ry="0"/>
      <text font-size="1.6" style="fill: #000000; fill-opacity: 1; stroke: none;text-anchor:middle;font-family:sans-serif;font-style:normal;font-weight:normal" x="804" y="540.485">
        <tspan x="804" y="540.485"></tspan>
      </text>
    </g>
    <g>
      <rect style="fill: #ff4500; fill-opacity: 1; stroke-opacity: 1; stroke-width: 1; stroke: #000000" x="840" y="520" width="8" height="40" rx="0" ry="0"/>
      <text font-size="1.6" style="fill: #000000; fill-opacity: 1; stroke: none;text-anchor:middle;font-family:sans-serif;font-style:normal;font-weight:normal" x="844" y="540.485">
        <tspan x="844" y="540.485"></tspan>
      </text>
    </g>
    <g>
      <rect style="fill: #ff4500; fill-opacity: 1; stroke-opacity: 1; stroke-width: 1; stroke: #000000" x="1000" y="520" width="8" height="40" rx="0" ry="0"/>
      <text font-size="1.6" style="fill: #000000; fill-opacity: 1; stroke: none;text-anchor:middle;font-family:sans-serif;font-style:normal;font-weight:normal" x="1004" y="540.485">
        <tspan x="1004" y="540.485"></tspan>
      </text>
    </g>
    <g>
      <rect style="fill: #ff4500; fill-opacity: 1; stroke-opacity: 1; stroke-width: 1; stroke: #000000" x="1200" y="520" width="8" height="40" rx="0" ry="0"/>
      <text font-size="1.6" style="fill: #000000; fill-opacity: 1; stroke: none;text-anchor:middle;font-family:sans-serif;font-style:normal;font-weight:normal" x="1204" y="540.485">
        <tspan x="1204" y="540.485"></tspan>
      </text>
    </g>
    <g>
      <rect style="fill: #ff4500; fill-opacity: 1; stroke-opacity: 1; stroke-width: 1; stroke: #000000" x="1240" y="520" width="8" height="40" rx="0" ry="0"/>
      <text font-size="1.6" style="fill: #000000; fill-opacity: 1; stroke: none;text-anchor:middle;font-family:sans-serif;font-style:normal;font-weight:normal" x="1244" y="540.485">
        <tspan x="1244" y="540.485"></tspan>
      </text>
    </g>
    <g>
      <rect style="fill: #ff4500; fill-opacity: 1; stroke-opacity: 1; stroke-width: 1; stroke: #000000" x="540" y="648" width="8" height="40" rx="0" ry="0"/>
      <text font-size="1.6" style="fill: #000000; fill-opacity: 1; stroke: none;text-anchor:middle;font-family:sans-serif;font-style:normal;font-weight:normal" x="544" y="668.485">
        <tspan x="544" y="668.485"></tspan>
      </text>
    </g>
    <g>
      <rect style="fill: #ff4500; fill-opacity: 1; stroke-opacity: 1; stroke-width: 1; stroke: #000000" x="760" y="648" width="8" height="40" rx="0" ry="0"/>
      <text font-size="1.6" style="fill: #000000; fill-opacity: 1; stroke: none;text-anchor:middle;font-family:sans-serif;font-style:normal;font-weight:normal" x="764" y="668.485">
        <tspan x="764" y="668.485"></tspan>
      </text>
    </g>
    <g>
      <rect style="fill: #ff4500; fill-opacity: 1; stroke-opacity: 1; stroke-width: 1; stroke: #000000" x="800" y="648" width="8" height="40" rx="0" ry="0"/>
      <text font-size="1.6" style="fill: #000000; fill-opacity: 1; stroke: none;text-anchor:middle;font-family:sans-serif;font-style:normal;font-weight:normal" x="804" y="668.485">
        <tspan x="804" y="668.485"></tspan>
      </text>
    </g>
    <g>
      <rect style="fill: #ff4500; fill-opacity: 1; stroke-opacity: 1; stroke-width: 1; stroke: #000000" x="840" y="648" width="8" height="40" rx="0" ry="0"/>
      <text font-size="1.6" style="fill: #000000; fill-opacity: 1; stroke: none;text-anchor:middle;font-family:sans-serif;font-style:normal;font-weight:normal" x="844" y="668.485">
        <tspan x="844" y="668.485"></tspan>
      </text>
    </g>
    <g>
      <rect style="fill: #ff4500; fill-opacity: 1; stroke-opacity: 1; stroke-width: 1; stroke: #000000" x="1000" y="648" width="8" height="40" rx="0" ry="0"/>
      <text font-size="1.6" style="fill: #000000; fill-opacity: 1; stroke: none;text-anchor:middle;font-family:sans-serif;font-style:normal;font-weight:normal" x="1004" y="668.485">
        <tspan x="1004" y="668.485"></tspan>
      </text>
    </g>
    <g>
      <rect style="fill: #ff4500; fill-opacity: 1; stroke-opacity: 1; stroke-width: 1; stroke: #000000" x="1200" y="648" width="8" height="40" rx="0" ry="0"/>
      <text font-size="1.6" style="fill: #000000; fill-opacity: 1; stroke: none;text-anchor:middle;font-family:sans-serif;font-style:normal;font-weight:normal" x="1204" y="668.485">
        <tspan x="1204" y="668.485"></tspan>
      </text>
    </g>
    <g>
      <rect style="fill: #ff4500; fill-opacity: 1; stroke-opacity: 1; stroke-width: 1; stroke: #000000" x="1240" y="648" width="8" height="40" rx="0" ry="0"/>
      <text font-size="1.6" style="fill: #000000; fill-opacity: 1; stroke: none;text-anchor:middle;font-family:sans-serif;font-style:normal;font-weight:normal" x="1244" y="668.485">
        <tspan x="1244" y="668.485"></tspan>
      </text>
    </g>
    <text font-size="20.32" style="fill: #000000; fill-opacity: 1; stroke: none;text-anchor:end;font-family:sans-serif;font-style:normal;font-weight:normal" x="484" y="508">
      <tspan x="484" y="508">No reordering</tspan>
    </text>
    <text font-size="20.32" style="fill: #000000; fill-opacity: 1; stroke: none;text-anchor:end;font-family:sans-serif;font-style:normal;font-weight:normal" x="492" y="636">
      <tspan x="492" y="636">Full reordering</tspan>
    </text>
    <line style="fill: none; stroke-opacity: 1; stroke-width: 2; stroke: #ffffff" x1="340" y1="540" x2="340" y2="648"/>
    <g>
      <line style="fill: none; stroke-opacity: 1; stroke-width: 2; stroke: #000000" x1="544" y1="600" x2="544" y2="638.764"/>
      <line style="fill: none; stroke-opacity: 1; stroke-width: 2; stroke: #000000" x1="544" y1="592" x2="544" y2="593.6"/>
      <line style="fill: none; stroke-opacity: 1; stroke-width: 2; stroke: #000000" x1="544" y1="594.667" x2="544" y2="596.267"/>
      <line style="fill: none; stroke-opacity: 1; stroke-width: 2; stroke: #000000" x1="544" y1="597.333" x2="544" y2="598.933"/>
      <polygon style="fill: #000000; fill-opacity: 1; stroke-opacity: 1; stroke-width: 2; stroke: #000000" fill-rule="evenodd" points="544,641.764 542,637.764 544,638.764 546,637.764 "/>
    </g>
  </g>
</svg>
