<?xml version="1.0" encoding="UTF-8"?>
<!DOCTYPE svg PUBLIC "-//W3C//DTD SVG 1.1//EN" "http://www.w3.org/Graphics/SVG/1.1/DTD/svg11.dtd">
<svg width="160mm" height="80mm" viewBox="0 0 16000 8000" version="1.1" baseProfile="tiny" xmlns="http://www.w3.org/2000/svg" stroke-width="28.222" stroke-linejoin="round" xml:space="preserve">
 <path fill="rgb(255,255,255)" stroke="none" d="M 8005,7997 L 5,7997 5,1 16004,1 16004,7997 8005,7997 Z"/>
 <path fill="none" stroke="rgb(179,179,179)" stroke-linejoin="round" d="M 8357,7191 L 1264,7191 1264,359 15450,359 15450,7191 8357,7191 Z"/>
 <path fill="none" stroke="rgb(238,238,238)" stroke-linejoin="round" d="M 1264,358 L 1264,7190"/>
 <path fill="none" stroke="rgb(238,238,238)" stroke-linejoin="round" d="M 1939,358 L 1939,7190"/>
 <path fill="none" stroke="rgb(238,238,238)" stroke-linejoin="round" d="M 2615,358 L 2615,7190"/>
 <path fill="none" stroke="rgb(238,238,238)" stroke-linejoin="round" d="M 3290,358 L 3290,7190"/>
 <path fill="none" stroke="rgb(238,238,238)" stroke-linejoin="round" d="M 3966,358 L 3966,7190"/>
 <path fill="none" stroke="rgb(238,238,238)" stroke-linejoin="round" d="M 4641,358 L 4641,7190"/>
 <path fill="none" stroke="rgb(238,238,238)" stroke-linejoin="round" d="M 5317,358 L 5317,7190"/>
 <path fill="none" stroke="rgb(238,238,238)" stroke-linejoin="round" d="M 5993,358 L 5993,7190"/>
 <path fill="none" stroke="rgb(238,238,238)" stroke-linejoin="round" d="M 6668,358 L 6668,7190"/>
 <path fill="none" stroke="rgb(238,238,238)" stroke-linejoin="round" d="M 7344,358 L 7344,7190"/>
 <path fill="none" stroke="rgb(238,238,238)" stroke-linejoin="round" d="M 8018,358 L 8018,7190"/>
 <path fill="none" stroke="rgb(238,238,238)" stroke-linejoin="round" d="M 8694,358 L 8694,7190"/>
 <path fill="none" stroke="rgb(238,238,238)" stroke-linejoin="round" d="M 9369,358 L 9369,7190"/>
 <path fill="none" stroke="rgb(238,238,238)" stroke-linejoin="round" d="M 10045,358 L 10045,7190"/>
 <path fill="none" stroke="rgb(238,238,238)" stroke-linejoin="round" d="M 10721,358 L 10721,7190"/>
 <path fill="none" stroke="rgb(238,238,238)" stroke-linejoin="round" d="M 11396,358 L 11396,7190"/>
 <path fill="none" stroke="rgb(238,238,238)" stroke-linejoin="round" d="M 12072,358 L 12072,7190"/>
 <path fill="none" stroke="rgb(238,238,238)" stroke-linejoin="round" d="M 12747,358 L 12747,7190"/>
 <path fill="none" stroke="rgb(238,238,238)" stroke-linejoin="round" d="M 13423,358 L 13423,7190"/>
 <path fill="none" stroke="rgb(238,238,238)" stroke-linejoin="round" d="M 14098,358 L 14098,7190"/>
 <path fill="none" stroke="rgb(238,238,238)" stroke-linejoin="round" d="M 14774,358 L 14774,7190"/>
 <path fill="none" stroke="rgb(238,238,238)" stroke-linejoin="round" d="M 15450,358 L 15450,7190"/>
 <path fill="none" stroke="rgb(238,238,238)" stroke-linejoin="round" d="M 15450,7190 L 1264,7190"/>
 <path fill="none" stroke="rgb(238,238,238)" stroke-linejoin="round" d="M 15450,5823 L 1264,5823"/>
 <path fill="none" stroke="rgb(238,238,238)" stroke-linejoin="round" d="M 15450,4456 L 1264,4456"/>
 <path fill="none" stroke="rgb(238,238,238)" stroke-linejoin="round" d="M 15450,3091 L 1264,3091"/>
 <path fill="none" stroke="rgb(238,238,238)" stroke-linejoin="round" d="M 15450,1724 L 1264,1724"/>
 <path fill="none" stroke="rgb(238,238,238)" stroke-linejoin="round" d="M 15450,358 L 1264,358"/>
 <path fill="none" stroke="rgb(179,179,179)" stroke-linejoin="round" d="M 1264,7340 L 1264,7190"/>
 <path fill="none" stroke="rgb(179,179,179)" stroke-linejoin="round" d="M 1264,7340 L 1264,7190"/>
 <path fill="none" stroke="rgb(179,179,179)" stroke-linejoin="round" d="M 1939,7340 L 1939,7190"/>
 <path fill="none" stroke="rgb(179,179,179)" stroke-linejoin="round" d="M 1939,7340 L 1939,7190"/>
 <path fill="none" stroke="rgb(179,179,179)" stroke-linejoin="round" d="M 2615,7340 L 2615,7190"/>
 <path fill="none" stroke="rgb(179,179,179)" stroke-linejoin="round" d="M 2615,7340 L 2615,7190"/>
 <path fill="none" stroke="rgb(179,179,179)" stroke-linejoin="round" d="M 3290,7340 L 3290,7190"/>
 <path fill="none" stroke="rgb(179,179,179)" stroke-linejoin="round" d="M 3290,7340 L 3290,7190"/>
 <path fill="none" stroke="rgb(179,179,179)" stroke-linejoin="round" d="M 3966,7340 L 3966,7190"/>
 <path fill="none" stroke="rgb(179,179,179)" stroke-linejoin="round" d="M 3966,7340 L 3966,7190"/>
 <path fill="none" stroke="rgb(179,179,179)" stroke-linejoin="round" d="M 4641,7340 L 4641,7190"/>
 <path fill="none" stroke="rgb(179,179,179)" stroke-linejoin="round" d="M 4641,7340 L 4641,7190"/>
 <path fill="none" stroke="rgb(179,179,179)" stroke-linejoin="round" d="M 5317,7340 L 5317,7190"/>
 <path fill="none" stroke="rgb(179,179,179)" stroke-linejoin="round" d="M 5317,7340 L 5317,7190"/>
 <path fill="none" stroke="rgb(179,179,179)" stroke-linejoin="round" d="M 5993,7340 L 5993,7190"/>
 <path fill="none" stroke="rgb(179,179,179)" stroke-linejoin="round" d="M 5993,7340 L 5993,7190"/>
 <path fill="none" stroke="rgb(179,179,179)" stroke-linejoin="round" d="M 6668,7340 L 6668,7190"/>
 <path fill="none" stroke="rgb(179,179,179)" stroke-linejoin="round" d="M 6668,7340 L 6668,7190"/>
 <path fill="none" stroke="rgb(179,179,179)" stroke-linejoin="round" d="M 7344,7340 L 7344,7190"/>
 <path fill="none" stroke="rgb(179,179,179)" stroke-linejoin="round" d="M 7344,7340 L 7344,7190"/>
 <path fill="none" stroke="rgb(179,179,179)" stroke-linejoin="round" d="M 8018,7340 L 8018,7190"/>
 <path fill="none" stroke="rgb(179,179,179)" stroke-linejoin="round" d="M 8018,7340 L 8018,7190"/>
 <path fill="none" stroke="rgb(179,179,179)" stroke-linejoin="round" d="M 8694,7340 L 8694,7190"/>
 <path fill="none" stroke="rgb(179,179,179)" stroke-linejoin="round" d="M 8694,7340 L 8694,7190"/>
 <path fill="none" stroke="rgb(179,179,179)" stroke-linejoin="round" d="M 9369,7340 L 9369,7190"/>
 <path fill="none" stroke="rgb(179,179,179)" stroke-linejoin="round" d="M 9369,7340 L 9369,7190"/>
 <path fill="none" stroke="rgb(179,179,179)" stroke-linejoin="round" d="M 10045,7340 L 10045,7190"/>
 <path fill="none" stroke="rgb(179,179,179)" stroke-linejoin="round" d="M 10045,7340 L 10045,7190"/>
 <path fill="none" stroke="rgb(179,179,179)" stroke-linejoin="round" d="M 10721,7340 L 10721,7190"/>
 <path fill="none" stroke="rgb(179,179,179)" stroke-linejoin="round" d="M 10721,7340 L 10721,7190"/>
 <path fill="none" stroke="rgb(179,179,179)" stroke-linejoin="round" d="M 11396,7340 L 11396,7190"/>
 <path fill="none" stroke="rgb(179,179,179)" stroke-linejoin="round" d="M 11396,7340 L 11396,7190"/>
 <path fill="none" stroke="rgb(179,179,179)" stroke-linejoin="round" d="M 12072,7340 L 12072,7190"/>
 <path fill="none" stroke="rgb(179,179,179)" stroke-linejoin="round" d="M 12072,7340 L 12072,7190"/>
 <path fill="none" stroke="rgb(179,179,179)" stroke-linejoin="round" d="M 12747,7340 L 12747,7190"/>
 <path fill="none" stroke="rgb(179,179,179)" stroke-linejoin="round" d="M 12747,7340 L 12747,7190"/>
 <path fill="none" stroke="rgb(179,179,179)" stroke-linejoin="round" d="M 13423,7340 L 13423,7190"/>
 <path fill="none" stroke="rgb(179,179,179)" stroke-linejoin="round" d="M 13423,7340 L 13423,7190"/>
 <path fill="none" stroke="rgb(179,179,179)" stroke-linejoin="round" d="M 14098,7340 L 14098,7190"/>
 <path fill="none" stroke="rgb(179,179,179)" stroke-linejoin="round" d="M 14098,7340 L 14098,7190"/>
 <path fill="none" stroke="rgb(179,179,179)" stroke-linejoin="round" d="M 14774,7340 L 14774,7190"/>
 <path fill="none" stroke="rgb(179,179,179)" stroke-linejoin="round" d="M 14774,7340 L 14774,7190"/>
 <path fill="none" stroke="rgb(179,179,179)" stroke-linejoin="round" d="M 15450,7340 L 15450,7190"/>
 <path fill="none" stroke="rgb(179,179,179)" stroke-linejoin="round" d="M 15450,7340 L 15450,7190"/>
 <path fill="none" stroke="rgb(179,179,179)" stroke-linejoin="round" d="M 1264,7190 L 15450,7190"/>
 <path fill="none" stroke="rgb(179,179,179)" stroke-linejoin="round" d="M 1264,358 L 15450,358"/>
 <path fill="none" stroke="rgb(179,179,179)" stroke-linejoin="round" d="M 1114,7190 L 1264,7190"/>
 <path fill="none" stroke="rgb(179,179,179)" stroke-linejoin="round" d="M 1114,7190 L 1264,7190"/>
 <path fill="none" stroke="rgb(179,179,179)" stroke-linejoin="round" d="M 1114,5823 L 1264,5823"/>
 <path fill="none" stroke="rgb(179,179,179)" stroke-linejoin="round" d="M 1114,5823 L 1264,5823"/>
 <path fill="none" stroke="rgb(179,179,179)" stroke-linejoin="round" d="M 1114,4456 L 1264,4456"/>
 <path fill="none" stroke="rgb(179,179,179)" stroke-linejoin="round" d="M 1114,4456 L 1264,4456"/>
 <path fill="none" stroke="rgb(179,179,179)" stroke-linejoin="round" d="M 1114,3091 L 1264,3091"/>
 <path fill="none" stroke="rgb(179,179,179)" stroke-linejoin="round" d="M 1114,3091 L 1264,3091"/>
 <path fill="none" stroke="rgb(179,179,179)" stroke-linejoin="round" d="M 1114,1724 L 1264,1724"/>
 <path fill="none" stroke="rgb(179,179,179)" stroke-linejoin="round" d="M 1114,1724 L 1264,1724"/>
 <path fill="none" stroke="rgb(179,179,179)" stroke-linejoin="round" d="M 1114,358 L 1264,358"/>
 <path fill="none" stroke="rgb(179,179,179)" stroke-linejoin="round" d="M 1114,358 L 1264,358"/>
 <path fill="none" stroke="rgb(179,179,179)" stroke-linejoin="round" d="M 1264,7190 L 1264,358"/>
 <path fill="none" stroke="rgb(179,179,179)" stroke-linejoin="round" d="M 15450,7190 L 15450,358"/>
 <path fill="none" stroke="rgb(0,69,134)" stroke-width="80" stroke-linejoin="round" d="M 1264,931 L 1939,2926 2615,4645 3290,5451 3966,5864 4641,6072 5317,6135 5993,6190 6668,6213 7344,6263 8018,6203 8694,6253 9369,6277 10045,6271 10721,6266 11396,5826 12072,5592 12747,5561 13423,5521 14098,5442 14774,5361 15450,5223"/>
 <path fill="rgb(0,69,134)" stroke="none" d="M 1189,856 L 1189,1006 1339,1006 1339,856 1189,856 Z"/>
 <path fill="none" stroke="rgb(0,69,134)" stroke-linejoin="round" d="M 1189,856 L 1189,1006 1339,1006 1339,856 1189,856 Z"/>
 <path fill="rgb(0,69,134)" stroke="none" d="M 1864,2851 L 1864,3001 2014,3001 2014,2851 1864,2851 Z"/>
 <path fill="none" stroke="rgb(0,69,134)" stroke-linejoin="round" d="M 1864,2851 L 1864,3001 2014,3001 2014,2851 1864,2851 Z"/>
 <path fill="rgb(0,69,134)" stroke="none" d="M 2540,4570 L 2540,4720 2690,4720 2690,4570 2540,4570 Z"/>
 <path fill="none" stroke="rgb(0,69,134)" stroke-linejoin="round" d="M 2540,4570 L 2540,4720 2690,4720 2690,4570 2540,4570 Z"/>
 <path fill="rgb(0,69,134)" stroke="none" d="M 3215,5376 L 3215,5526 3365,5526 3365,5376 3215,5376 Z"/>
 <path fill="none" stroke="rgb(0,69,134)" stroke-linejoin="round" d="M 3215,5376 L 3215,5526 3365,5526 3365,5376 3215,5376 Z"/>
 <path fill="rgb(0,69,134)" stroke="none" d="M 3891,5789 L 3891,5939 4041,5939 4041,5789 3891,5789 Z"/>
 <path fill="none" stroke="rgb(0,69,134)" stroke-linejoin="round" d="M 3891,5789 L 3891,5939 4041,5939 4041,5789 3891,5789 Z"/>
 <path fill="rgb(0,69,134)" stroke="none" d="M 4566,5997 L 4566,6147 4716,6147 4716,5997 4566,5997 Z"/>
 <path fill="none" stroke="rgb(0,69,134)" stroke-linejoin="round" d="M 4566,5997 L 4566,6147 4716,6147 4716,5997 4566,5997 Z"/>
 <path fill="rgb(0,69,134)" stroke="none" d="M 5242,6060 L 5242,6210 5392,6210 5392,6060 5242,6060 Z"/>
 <path fill="none" stroke="rgb(0,69,134)" stroke-linejoin="round" d="M 5242,6060 L 5242,6210 5392,6210 5392,6060 5242,6060 Z"/>
 <path fill="rgb(0,69,134)" stroke="none" d="M 5918,6115 L 5918,6265 6068,6265 6068,6115 5918,6115 Z"/>
 <path fill="none" stroke="rgb(0,69,134)" stroke-linejoin="round" d="M 5918,6115 L 5918,6265 6068,6265 6068,6115 5918,6115 Z"/>
 <path fill="rgb(0,69,134)" stroke="none" d="M 6593,6138 L 6593,6288 6743,6288 6743,6138 6593,6138 Z"/>
 <path fill="none" stroke="rgb(0,69,134)" stroke-linejoin="round" d="M 6593,6138 L 6593,6288 6743,6288 6743,6138 6593,6138 Z"/>
 <path fill="rgb(0,69,134)" stroke="none" d="M 7269,6188 L 7269,6338 7419,6338 7419,6188 7269,6188 Z"/>
 <path fill="none" stroke="rgb(0,69,134)" stroke-linejoin="round" d="M 7269,6188 L 7269,6338 7419,6338 7419,6188 7269,6188 Z"/>
 <path fill="rgb(0,69,134)" stroke="none" d="M 7944,6128 L 7944,6278 8093,6278 8093,6128 7944,6128 Z"/>
 <path fill="none" stroke="rgb(0,69,134)" stroke-linejoin="round" d="M 7944,6128 L 7944,6278 8093,6278 8093,6128 7944,6128 Z"/>
 <path fill="rgb(0,69,134)" stroke="none" d="M 8619,6178 L 8619,6328 8769,6328 8769,6178 8619,6178 Z"/>
 <path fill="none" stroke="rgb(0,69,134)" stroke-linejoin="round" d="M 8619,6178 L 8619,6328 8769,6328 8769,6178 8619,6178 Z"/>
 <path fill="rgb(0,69,134)" stroke="none" d="M 9294,6202 L 9294,6352 9444,6352 9444,6202 9294,6202 Z"/>
 <path fill="none" stroke="rgb(0,69,134)" stroke-linejoin="round" d="M 9294,6202 L 9294,6352 9444,6352 9444,6202 9294,6202 Z"/>
 <path fill="rgb(0,69,134)" stroke="none" d="M 9970,6196 L 9970,6346 10120,6346 10120,6196 9970,6196 Z"/>
 <path fill="none" stroke="rgb(0,69,134)" stroke-linejoin="round" d="M 9970,6196 L 9970,6346 10120,6346 10120,6196 9970,6196 Z"/>
 <path fill="rgb(0,69,134)" stroke="none" d="M 10646,6191 L 10646,6341 10796,6341 10796,6191 10646,6191 Z"/>
 <path fill="none" stroke="rgb(0,69,134)" stroke-linejoin="round" d="M 10646,6191 L 10646,6341 10796,6341 10796,6191 10646,6191 Z"/>
 <path fill="rgb(0,69,134)" stroke="none" d="M 11321,5751 L 11321,5901 11471,5901 11471,5751 11321,5751 Z"/>
 <path fill="none" stroke="rgb(0,69,134)" stroke-linejoin="round" d="M 11321,5751 L 11321,5901 11471,5901 11471,5751 11321,5751 Z"/>
 <path fill="rgb(0,69,134)" stroke="none" d="M 11997,5517 L 11997,5667 12147,5667 12147,5517 11997,5517 Z"/>
 <path fill="none" stroke="rgb(0,69,134)" stroke-linejoin="round" d="M 11997,5517 L 11997,5667 12147,5667 12147,5517 11997,5517 Z"/>
 <path fill="rgb(0,69,134)" stroke="none" d="M 12672,5486 L 12672,5636 12822,5636 12822,5486 12672,5486 Z"/>
 <path fill="none" stroke="rgb(0,69,134)" stroke-linejoin="round" d="M 12672,5486 L 12672,5636 12822,5636 12822,5486 12672,5486 Z"/>
 <path fill="rgb(0,69,134)" stroke="none" d="M 13348,5446 L 13348,5596 13498,5596 13498,5446 13348,5446 Z"/>
 <path fill="none" stroke="rgb(0,69,134)" stroke-linejoin="round" d="M 13348,5446 L 13348,5596 13498,5596 13498,5446 13348,5446 Z"/>
 <path fill="rgb(0,69,134)" stroke="none" d="M 14023,5367 L 14023,5517 14173,5517 14173,5367 14023,5367 Z"/>
 <path fill="none" stroke="rgb(0,69,134)" stroke-linejoin="round" d="M 14023,5367 L 14023,5517 14173,5517 14173,5367 14023,5367 Z"/>
 <path fill="rgb(0,69,134)" stroke="none" d="M 14699,5286 L 14699,5436 14849,5436 14849,5286 14699,5286 Z"/>
 <path fill="none" stroke="rgb(0,69,134)" stroke-linejoin="round" d="M 14699,5286 L 14699,5436 14849,5436 14849,5286 14699,5286 Z"/>
 <path fill="rgb(0,69,134)" stroke="none" d="M 15375,5148 L 15375,5298 15525,5298 15525,5148 15375,5148 Z"/>
 <path fill="none" stroke="rgb(0,69,134)" stroke-linejoin="round" d="M 15375,5148 L 15375,5298 15525,5298 15525,5148 15375,5148 Z"/>
 <text class="TextShape"><tspan class="TextParagraph" font-family="Liberation Sans" font-size="353px" font-weight="400"><tspan class="TextPosition" x="1165" y="7758"><tspan fill="rgb(0,0,0)" stroke="none">8</tspan></tspan></tspan></text>
 <text class="TextShape"><tspan class="TextParagraph" font-family="Liberation Sans" font-size="353px" font-weight="400"><tspan class="TextPosition" x="2416" y="7758"><tspan fill="rgb(0,0,0)" stroke="none">32</tspan></tspan></tspan></text>
 <text class="TextShape"><tspan class="TextParagraph" font-family="Liberation Sans" font-size="353px" font-weight="400"><tspan class="TextPosition" x="3668" y="7758"><tspan fill="rgb(0,0,0)" stroke="none">128</tspan></tspan></tspan></text>
 <text class="TextShape"><tspan class="TextParagraph" font-family="Liberation Sans" font-size="353px" font-weight="400"><tspan class="TextPosition" x="5019" y="7758"><tspan fill="rgb(0,0,0)" stroke="none">512</tspan></tspan></tspan></text>
 <text class="TextShape"><tspan class="TextParagraph" font-family="Liberation Sans" font-size="353px" font-weight="400"><tspan class="TextPosition" x="6291" y="7758"><tspan fill="rgb(0,0,0)" stroke="none">2KiB</tspan></tspan></tspan></text>
 <text class="TextShape"><tspan class="TextParagraph" font-family="Liberation Sans" font-size="353px" font-weight="400"><tspan class="TextPosition" x="7642" y="7758"><tspan fill="rgb(0,0,0)" stroke="none">8KiB</tspan></tspan></tspan></text>
 <text class="TextShape"><tspan class="TextParagraph" font-family="Liberation Sans" font-size="353px" font-weight="400"><tspan class="TextPosition" x="8893" y="7758"><tspan fill="rgb(0,0,0)" stroke="none">32KiB</tspan></tspan></tspan></text>
 <text class="TextShape"><tspan class="TextParagraph" font-family="Liberation Sans" font-size="353px" font-weight="400"><tspan class="TextPosition" x="10146" y="7758"><tspan fill="rgb(0,0,0)" stroke="none">128KiB</tspan></tspan></tspan></text>
 <text class="TextShape"><tspan class="TextParagraph" font-family="Liberation Sans" font-size="353px" font-weight="400"><tspan class="TextPosition" x="11497" y="7758"><tspan fill="rgb(0,0,0)" stroke="none">512KiB</tspan></tspan></tspan></text>
 <text class="TextShape"><tspan class="TextParagraph" font-family="Liberation Sans" font-size="353px" font-weight="400"><tspan class="TextPosition" x="13014" y="7758"><tspan fill="rgb(0,0,0)" stroke="none">2MiB</tspan></tspan></tspan></text>
 <text class="TextShape"><tspan class="TextParagraph" font-family="Liberation Sans" font-size="353px" font-weight="400"><tspan class="TextPosition" x="14365" y="7758"><tspan fill="rgb(0,0,0)" stroke="none">8MiB</tspan></tspan></tspan></text>
 <text class="TextShape"><tspan class="TextParagraph" font-family="Liberation Sans" font-size="71px" font-weight="400"><tspan class="TextPosition" x="1244" y="246"><tspan fill="rgb(255,255,255)" stroke="none">8</tspan></tspan></tspan></text>
 <text class="TextShape"><tspan class="TextParagraph" font-family="Liberation Sans" font-size="71px" font-weight="400"><tspan class="TextPosition" x="2575" y="246"><tspan fill="rgb(255,255,255)" stroke="none">32</tspan></tspan></tspan></text>
 <text class="TextShape"><tspan class="TextParagraph" font-family="Liberation Sans" font-size="71px" font-weight="400"><tspan class="TextPosition" x="3906" y="246"><tspan fill="rgb(255,255,255)" stroke="none">128</tspan></tspan></tspan></text>
 <text class="TextShape"><tspan class="TextParagraph" font-family="Liberation Sans" font-size="71px" font-weight="400"><tspan class="TextPosition" x="5257" y="246"><tspan fill="rgb(255,255,255)" stroke="none">512</tspan></tspan></tspan></text>
 <text class="TextShape"><tspan class="TextParagraph" font-family="Liberation Sans" font-size="71px" font-weight="400"><tspan class="TextPosition" x="6602" y="246"><tspan fill="rgb(255,255,255)" stroke="none">2KiB</tspan></tspan></tspan></text>
 <text class="TextShape"><tspan class="TextParagraph" font-family="Liberation Sans" font-size="71px" font-weight="400"><tspan class="TextPosition" x="7953" y="246"><tspan fill="rgb(255,255,255)" stroke="none">8KiB</tspan></tspan></tspan></text>
 <text class="TextShape"><tspan class="TextParagraph" font-family="Liberation Sans" font-size="71px" font-weight="400"><tspan class="TextPosition" x="9284" y="246"><tspan fill="rgb(255,255,255)" stroke="none">32KiB</tspan></tspan></tspan></text>
 <text class="TextShape"><tspan class="TextParagraph" font-family="Liberation Sans" font-size="71px" font-weight="400"><tspan class="TextPosition" x="10616" y="246"><tspan fill="rgb(255,255,255)" stroke="none">128KiB</tspan></tspan></tspan></text>
 <text class="TextShape"><tspan class="TextParagraph" font-family="Liberation Sans" font-size="71px" font-weight="400"><tspan class="TextPosition" x="11967" y="246"><tspan fill="rgb(255,255,255)" stroke="none">512KiB</tspan></tspan></tspan></text>
 <text class="TextShape"><tspan class="TextParagraph" font-family="Liberation Sans" font-size="71px" font-weight="400"><tspan class="TextPosition" x="13351" y="246"><tspan fill="rgb(255,255,255)" stroke="none">2MiB</tspan></tspan></tspan></text>
 <text class="TextShape"><tspan class="TextParagraph" font-family="Liberation Sans" font-size="71px" font-weight="400"><tspan class="TextPosition" x="14702" y="246"><tspan fill="rgb(255,255,255)" stroke="none">8MiB</tspan></tspan></tspan></text>
 <text class="TextShape"><tspan class="TextParagraph" font-family="Liberation Sans" font-size="353px" font-weight="400"><tspan class="TextPosition" x="525" y="7311"><tspan fill="rgb(0,0,0)" stroke="none">0 s</tspan></tspan></tspan></text>
 <text class="TextShape"><tspan class="TextParagraph" font-family="Liberation Sans" font-size="353px" font-weight="400"><tspan class="TextPosition" x="525" y="5944"><tspan fill="rgb(0,0,0)" stroke="none">5 s</tspan></tspan></tspan></text>
 <text class="TextShape"><tspan class="TextParagraph" font-family="Liberation Sans" font-size="353px" font-weight="400"><tspan class="TextPosition" x="326" y="4577"><tspan fill="rgb(0,0,0)" stroke="none">10 s</tspan></tspan></tspan></text>
 <text class="TextShape"><tspan class="TextParagraph" font-family="Liberation Sans" font-size="353px" font-weight="400"><tspan class="TextPosition" x="326" y="3211"><tspan fill="rgb(0,0,0)" stroke="none">15 s</tspan></tspan></tspan></text>
 <text class="TextShape"><tspan class="TextParagraph" font-family="Liberation Sans" font-size="353px" font-weight="400"><tspan class="TextPosition" x="326" y="1844"><tspan fill="rgb(0,0,0)" stroke="none">20 s</tspan></tspan></tspan></text>
 <text class="TextShape"><tspan class="TextParagraph" font-family="Liberation Sans" font-size="353px" font-weight="400"><tspan class="TextPosition" x="326" y="478"><tspan fill="rgb(0,0,0)" stroke="none">25 s</tspan></tspan></tspan></text>
 <text class="TextShape"><tspan class="TextParagraph" font-family="Liberation Sans" font-size="71px" font-weight="400"><tspan class="TextPosition" x="15550" y="7218"><tspan fill="rgb(255,255,255)" stroke="none">0 s</tspan></tspan></tspan></text>
 <text class="TextShape"><tspan class="TextParagraph" font-family="Liberation Sans" font-size="71px" font-weight="400"><tspan class="TextPosition" x="15550" y="5851"><tspan fill="rgb(255,255,255)" stroke="none">5 s</tspan></tspan></tspan></text>
 <text class="TextShape"><tspan class="TextParagraph" font-family="Liberation Sans" font-size="71px" font-weight="400"><tspan class="TextPosition" x="15550" y="4484"><tspan fill="rgb(255,255,255)" stroke="none">10 s</tspan></tspan></tspan></text>
 <text class="TextShape"><tspan class="TextParagraph" font-family="Liberation Sans" font-size="71px" font-weight="400"><tspan class="TextPosition" x="15550" y="3118"><tspan fill="rgb(255,255,255)" stroke="none">15 s</tspan></tspan></tspan></text>
 <text class="TextShape"><tspan class="TextParagraph" font-family="Liberation Sans" font-size="71px" font-weight="400"><tspan class="TextPosition" x="15550" y="1751"><tspan fill="rgb(255,255,255)" stroke="none">20 s</tspan></tspan></tspan></text>
 <text class="TextShape"><tspan class="TextParagraph" font-family="Liberation Sans" font-size="71px" font-weight="400"><tspan class="TextPosition" x="15550" y="385"><tspan fill="rgb(255,255,255)" stroke="none">25 s</tspan></tspan></tspan></text>
</svg>