<?xml version="1.0" encoding="UTF-8"?>
<!DOCTYPE svg PUBLIC "-//W3C//DTD SVG 1.1//EN" "http://www.w3.org/Graphics/SVG/1.1/DTD/svg11.dtd">
<svg width="171mm" height="71mm" viewBox="0 0 17100 7100" version="1.1" baseProfile="tiny" xmlns="http://www.w3.org/2000/svg" stroke-width="28.222" stroke-linejoin="round" xml:space="preserve">
 <path fill="rgb(255,255,255)" stroke="none" d="M 8581,6957 L 18,6957 18,0 17143,0 17143,6957 8581,6957 Z"/>
 <path fill="none" stroke="rgb(178,178,178)" stroke-linejoin="round" d="M 7583,6421 L 1589,6421 1589,138 13576,138 13576,6421 7583,6421 Z"/>
 <path fill="none" stroke="rgb(238,238,238)" stroke-linejoin="round" d="M 1589,136 L 1589,6420"/>
 <path fill="none" stroke="rgb(238,238,238)" stroke-linejoin="round" d="M 2787,136 L 2787,6420"/>
 <path fill="none" stroke="rgb(238,238,238)" stroke-linejoin="round" d="M 3986,136 L 3986,6420"/>
 <path fill="none" stroke="rgb(238,238,238)" stroke-linejoin="round" d="M 5185,136 L 5185,6420"/>
 <path fill="none" stroke="rgb(238,238,238)" stroke-linejoin="round" d="M 6384,136 L 6384,6420"/>
 <path fill="none" stroke="rgb(238,238,238)" stroke-linejoin="round" d="M 7583,136 L 7583,6420"/>
 <path fill="none" stroke="rgb(238,238,238)" stroke-linejoin="round" d="M 8780,136 L 8780,6420"/>
 <path fill="none" stroke="rgb(238,238,238)" stroke-linejoin="round" d="M 9979,136 L 9979,6420"/>
 <path fill="none" stroke="rgb(238,238,238)" stroke-linejoin="round" d="M 11178,136 L 11178,6420"/>
 <path fill="none" stroke="rgb(238,238,238)" stroke-linejoin="round" d="M 12377,136 L 12377,6420"/>
 <path fill="none" stroke="rgb(238,238,238)" stroke-linejoin="round" d="M 13576,136 L 13576,6420"/>
 <path fill="none" stroke="rgb(238,238,238)" stroke-linejoin="round" d="M 13576,6420 L 1589,6420"/>
 <path fill="none" stroke="rgb(238,238,238)" stroke-linejoin="round" d="M 13576,5211 L 1589,5211"/>
 <path fill="none" stroke="rgb(238,238,238)" stroke-linejoin="round" d="M 13576,4003 L 1589,4003"/>
 <path fill="none" stroke="rgb(238,238,238)" stroke-linejoin="round" d="M 13576,2794 L 1589,2794"/>
 <path fill="none" stroke="rgb(238,238,238)" stroke-linejoin="round" d="M 13576,1586 L 1589,1586"/>
 <path fill="none" stroke="rgb(238,238,238)" stroke-linejoin="round" d="M 13576,378 L 1589,378"/>
 <path fill="none" stroke="rgb(179,179,179)" stroke-linejoin="round" d="M 1589,6568 L 1589,6420"/>
 <path fill="none" stroke="rgb(179,179,179)" stroke-linejoin="round" d="M 1589,6568 L 1589,6420"/>
 <path fill="none" stroke="rgb(179,179,179)" stroke-linejoin="round" d="M 2787,6568 L 2787,6420"/>
 <path fill="none" stroke="rgb(179,179,179)" stroke-linejoin="round" d="M 2787,6568 L 2787,6420"/>
 <path fill="none" stroke="rgb(179,179,179)" stroke-linejoin="round" d="M 3986,6568 L 3986,6420"/>
 <path fill="none" stroke="rgb(179,179,179)" stroke-linejoin="round" d="M 3986,6568 L 3986,6420"/>
 <path fill="none" stroke="rgb(179,179,179)" stroke-linejoin="round" d="M 5185,6568 L 5185,6420"/>
 <path fill="none" stroke="rgb(179,179,179)" stroke-linejoin="round" d="M 5185,6568 L 5185,6420"/>
 <path fill="none" stroke="rgb(179,179,179)" stroke-linejoin="round" d="M 6384,6568 L 6384,6420"/>
 <path fill="none" stroke="rgb(179,179,179)" stroke-linejoin="round" d="M 6384,6568 L 6384,6420"/>
 <path fill="none" stroke="rgb(179,179,179)" stroke-linejoin="round" d="M 7583,6568 L 7583,6420"/>
 <path fill="none" stroke="rgb(179,179,179)" stroke-linejoin="round" d="M 7583,6568 L 7583,6420"/>
 <path fill="none" stroke="rgb(179,179,179)" stroke-linejoin="round" d="M 8780,6568 L 8780,6420"/>
 <path fill="none" stroke="rgb(179,179,179)" stroke-linejoin="round" d="M 8780,6568 L 8780,6420"/>
 <path fill="none" stroke="rgb(179,179,179)" stroke-linejoin="round" d="M 9979,6568 L 9979,6420"/>
 <path fill="none" stroke="rgb(179,179,179)" stroke-linejoin="round" d="M 9979,6568 L 9979,6420"/>
 <path fill="none" stroke="rgb(179,179,179)" stroke-linejoin="round" d="M 11178,6568 L 11178,6420"/>
 <path fill="none" stroke="rgb(179,179,179)" stroke-linejoin="round" d="M 11178,6568 L 11178,6420"/>
 <path fill="none" stroke="rgb(179,179,179)" stroke-linejoin="round" d="M 12377,6568 L 12377,6420"/>
 <path fill="none" stroke="rgb(179,179,179)" stroke-linejoin="round" d="M 12377,6568 L 12377,6420"/>
 <path fill="none" stroke="rgb(179,179,179)" stroke-linejoin="round" d="M 13576,6568 L 13576,6420"/>
 <path fill="none" stroke="rgb(179,179,179)" stroke-linejoin="round" d="M 13576,6568 L 13576,6420"/>
 <path fill="none" stroke="rgb(179,179,179)" stroke-linejoin="round" d="M 1589,6420 L 13576,6420"/>
 <path fill="none" stroke="rgb(179,179,179)" stroke-linejoin="round" d="M 1439,6420 L 1589,6420"/>
 <path fill="none" stroke="rgb(179,179,179)" stroke-linejoin="round" d="M 1439,6420 L 1589,6420"/>
 <path fill="none" stroke="rgb(179,179,179)" stroke-linejoin="round" d="M 1439,5211 L 1589,5211"/>
 <path fill="none" stroke="rgb(179,179,179)" stroke-linejoin="round" d="M 1439,5211 L 1589,5211"/>
 <path fill="none" stroke="rgb(179,179,179)" stroke-linejoin="round" d="M 1439,4003 L 1589,4003"/>
 <path fill="none" stroke="rgb(179,179,179)" stroke-linejoin="round" d="M 1439,4003 L 1589,4003"/>
 <path fill="none" stroke="rgb(179,179,179)" stroke-linejoin="round" d="M 1439,2794 L 1589,2794"/>
 <path fill="none" stroke="rgb(179,179,179)" stroke-linejoin="round" d="M 1439,2794 L 1589,2794"/>
 <path fill="none" stroke="rgb(179,179,179)" stroke-linejoin="round" d="M 1439,1586 L 1589,1586"/>
 <path fill="none" stroke="rgb(179,179,179)" stroke-linejoin="round" d="M 1439,1586 L 1589,1586"/>
 <path fill="none" stroke="rgb(179,179,179)" stroke-linejoin="round" d="M 1439,378 L 1589,378"/>
 <path fill="none" stroke="rgb(179,179,179)" stroke-linejoin="round" d="M 1439,378 L 1589,378"/>
 <path fill="none" stroke="rgb(179,179,179)" stroke-linejoin="round" d="M 1589,6420 L 1589,136"/>
 <path fill="none" stroke="rgb(179,179,179)" stroke-linejoin="round" d="M 13726,6420 L 13576,6420"/>
 <path fill="none" stroke="rgb(179,179,179)" stroke-linejoin="round" d="M 13726,6420 L 13576,6420"/>
 <path fill="none" stroke="rgb(179,179,179)" stroke-linejoin="round" d="M 13726,5211 L 13576,5211"/>
 <path fill="none" stroke="rgb(179,179,179)" stroke-linejoin="round" d="M 13726,5211 L 13576,5211"/>
 <path fill="none" stroke="rgb(179,179,179)" stroke-linejoin="round" d="M 13726,4003 L 13576,4003"/>
 <path fill="none" stroke="rgb(179,179,179)" stroke-linejoin="round" d="M 13726,4003 L 13576,4003"/>
 <path fill="none" stroke="rgb(179,179,179)" stroke-linejoin="round" d="M 13726,2794 L 13576,2794"/>
 <path fill="none" stroke="rgb(179,179,179)" stroke-linejoin="round" d="M 13726,2794 L 13576,2794"/>
 <path fill="none" stroke="rgb(179,179,179)" stroke-linejoin="round" d="M 13726,1586 L 13576,1586"/>
 <path fill="none" stroke="rgb(179,179,179)" stroke-linejoin="round" d="M 13726,1586 L 13576,1586"/>
 <path fill="none" stroke="rgb(179,179,179)" stroke-linejoin="round" d="M 13726,378 L 13576,378"/>
 <path fill="none" stroke="rgb(179,179,179)" stroke-linejoin="round" d="M 13726,378 L 13576,378"/>
 <path fill="none" stroke="rgb(179,179,179)" stroke-linejoin="round" d="M 13576,6420 L 13576,136"/>
 <path fill="none" stroke="rgb(174,207,0)" stroke-width="80" stroke-linejoin="round" d="M 1589,6299 L 1708,5937 1828,5787 1948,5672 2068,5574 2188,5488 2308,5412 2428,5340 2548,5274 2667,5211 2787,5152 2907,5097 3027,5043 3147,4992 3267,4942 3387,4895 3507,4849 3626,4805 3746,4761 3866,4719 3986,4678 4106,4638 4226,4599 4346,4560 4466,4524 4586,4486 4705,4451 4825,4415 4945,4381 5065,4347 5185,4314 5305,4280 5425,4249 5545,4216 5664,4186 5784,4154 5904,4124 6024,4094 6144,4065 6264,4035 6384,4006 6504,3978 6623,3950 6743,3922 6863,3894 6983,3867 7103,3841 7223,3814 7343,3788 7463,3762 7583,3735 7702,3711 7822,3685 7942,3660 8062,3635 8182,3610 8302,3587 8422,3562 8542,3538 8660,3515 8780,3491 8900,3467 9020,3445 9140,3422 9260,3399 9380,3377 9500,3354 9619,3331 9739,3310 9859,3288 9979,3266 10099,3245 10219,3223 10339,3201 10459,3181 10579,3160 10698,3139 10818,3119 10938,3098 11058,3077 11178,3057 11298,3037 11418,3016 11538,2996 11657,2977 11777,2957 11897,2937 12017,2918 12137,2899 12257,2879 12377,2860 12497,2841 12616,2822 12736,2803 12856,2785 12976,2766 13096,2747 13216,2728 13336,2711 13456,2692 13576,2674"/>
 <path fill="none" stroke="rgb(87,157,28)" stroke-width="80" stroke-linejoin="round" d="M 1589,5284 L 1708,4922 1828,4771 1948,4657 2068,4559 2188,4473 2308,4397 2428,4325 2548,4259 2667,4197 2787,4137 2907,4082 3027,4028 3147,3977 3267,3928 3387,3880 3507,3834 3626,3790 3746,3746 3866,3704 3986,3663 4106,3623 4226,3584 4346,3545 4466,3508 4586,3471 4705,3436 4825,3400 4945,3366 5065,3332 5185,3299 5305,3265 5425,3234 5545,3201 5664,3171 5784,3139 5904,3109 6024,3079 6144,3050 6264,3020 6384,2992 6504,2963 6623,2934 6743,2907 6863,2879 6983,2853 7103,2825 7223,2799 7343,2773 7463,2746 7583,2721 7702,2695 7822,2670 7942,2645 8062,2620 8182,2595 8302,2572 8422,2547 8542,2523 8660,2500 8780,2476 8900,2453 9020,2430 9140,2407 9260,2385 9380,2362 9500,2339 9619,2317 9739,2295 9859,2273 9979,2252 10099,2230 10219,2208 10339,2186 10459,2166 10579,2145 10698,2123 10818,2103 10938,2082 11058,2062 11178,2042 11298,2022 11418,2001 11538,1982 11657,1962 11777,1942 11897,1922 12017,1903 12137,1883 12257,1864 12377,1845 12497,1826 12616,1807 12736,1788 12856,1770 12976,1751 13096,1732 13216,1714 13336,1696 13456,1677 13576,1659"/>
 <path fill="none" stroke="rgb(49,64,4)" stroke-width="80" stroke-linejoin="round" d="M 1589,4293 L 1708,3931 1828,3781 1948,3665 2068,3568 2188,3482 2308,3405 2428,3334 2548,3268 2667,3205 2787,3147 2907,3091 3027,3038 3147,2987 3267,2937 3387,2889 3507,2844 3626,2798 3746,2755 3866,2713 3986,2672 4106,2632 4226,2593 4346,2555 4466,2518 4586,2481 4705,2445 4825,2409 4945,2375 5065,2341 5185,2308 5305,2275 5425,2243 5545,2211 5664,2180 5784,2149 5904,2118 6024,2088 6144,2058 6264,2030 6384,2000 6504,1972 6623,1944 6743,1916 6863,1889 6983,1861 7103,1835 7223,1808 7343,1782 7463,1756 7583,1730 7702,1705 7822,1679 7942,1654 8062,1630 8182,1605 8302,1580 8422,1557 8542,1532 8660,1509 8780,1485 8900,1462 9020,1439 9140,1416 9260,1393 9380,1371 9500,1348 9619,1326 9739,1304 9859,1282 9979,1260 10099,1239 10219,1217 10339,1196 10459,1175 10579,1154 10698,1133 10818,1112 10938,1092 11058,1071 11178,1050 11298,1031 11418,1011 11538,990 11657,971 11777,951 11897,931 12017,912 12137,893 12257,873 12377,854 12497,836 12616,816 12736,797 12856,778 12976,760 13096,741 13216,723 13336,705 13456,687 13576,668"/>
 <text class="TextShape"><tspan class="TextParagraph" font-family="Liberation Sans, sans-serif" font-size="348px" font-weight="400"><tspan class="TextPosition" x="1331" y="6980"><tspan fill="rgb(0,0,0)" stroke="none">0%</tspan></tspan></tspan></text>
 <text class="TextShape"><tspan class="TextParagraph" font-family="Liberation Sans, sans-serif" font-size="348px" font-weight="400"><tspan class="TextPosition" x="2430" y="6980"><tspan fill="rgb(0,0,0)" stroke="none">10%</tspan></tspan></tspan></text>
 <text class="TextShape"><tspan class="TextParagraph" font-family="Liberation Sans, sans-serif" font-size="348px" font-weight="400"><tspan class="TextPosition" x="3629" y="6980"><tspan fill="rgb(0,0,0)" stroke="none">20%</tspan></tspan></tspan></text>
 <text class="TextShape"><tspan class="TextParagraph" font-family="Liberation Sans, sans-serif" font-size="348px" font-weight="400"><tspan class="TextPosition" x="4828" y="6980"><tspan fill="rgb(0,0,0)" stroke="none">30%</tspan></tspan></tspan></text>
 <text class="TextShape"><tspan class="TextParagraph" font-family="Liberation Sans, sans-serif" font-size="348px" font-weight="400"><tspan class="TextPosition" x="6027" y="6980"><tspan fill="rgb(0,0,0)" stroke="none">40%</tspan></tspan></tspan></text>
 <text class="TextShape"><tspan class="TextParagraph" font-family="Liberation Sans, sans-serif" font-size="348px" font-weight="400"><tspan class="TextPosition" x="7226" y="6980"><tspan fill="rgb(0,0,0)" stroke="none">50%</tspan></tspan></tspan></text>
 <text class="TextShape"><tspan class="TextParagraph" font-family="Liberation Sans, sans-serif" font-size="348px" font-weight="400"><tspan class="TextPosition" x="8424" y="6980"><tspan fill="rgb(0,0,0)" stroke="none">60%</tspan></tspan></tspan></text>
 <text class="TextShape"><tspan class="TextParagraph" font-family="Liberation Sans, sans-serif" font-size="348px" font-weight="400"><tspan class="TextPosition" x="9623" y="6980"><tspan fill="rgb(0,0,0)" stroke="none">70%</tspan></tspan></tspan></text>
 <text class="TextShape"><tspan class="TextParagraph" font-family="Liberation Sans, sans-serif" font-size="348px" font-weight="400"><tspan class="TextPosition" x="10822" y="6980"><tspan fill="rgb(0,0,0)" stroke="none">80%</tspan></tspan></tspan></text>
 <text class="TextShape"><tspan class="TextParagraph" font-family="Liberation Sans, sans-serif" font-size="348px" font-weight="400"><tspan class="TextPosition" x="12021" y="6980"><tspan fill="rgb(0,0,0)" stroke="none">90%</tspan></tspan></tspan></text>
 <text class="TextShape"><tspan class="TextParagraph" font-family="Liberation Sans, sans-serif" font-size="348px" font-weight="400"><tspan class="TextPosition" x="13120" y="6980"><tspan fill="rgb(0,0,0)" stroke="none">100%</tspan></tspan></tspan></text>
 <text class="TextShape"><tspan class="TextParagraph" font-family="Liberation Sans, sans-serif" font-size="348px" font-weight="400"><tspan class="TextPosition" x="558" y="6539"><tspan fill="rgb(0,0,0)" stroke="none">0 ms</tspan></tspan></tspan></text>
 <text class="TextShape"><tspan class="TextParagraph" font-family="Liberation Sans, sans-serif" font-size="348px" font-weight="400"><tspan class="TextPosition" x="558" y="5330"><tspan fill="rgb(0,0,0)" stroke="none">5 ms</tspan></tspan></tspan></text>
 <text class="TextShape"><tspan class="TextParagraph" font-family="Liberation Sans, sans-serif" font-size="348px" font-weight="400"><tspan class="TextPosition" x="360" y="4122"><tspan fill="rgb(0,0,0)" stroke="none">10 ms</tspan></tspan></tspan></text>
 <text class="TextShape"><tspan class="TextParagraph" font-family="Liberation Sans, sans-serif" font-size="348px" font-weight="400"><tspan class="TextPosition" x="360" y="2913"><tspan fill="rgb(0,0,0)" stroke="none">15 ms</tspan></tspan></tspan></text>
 <text class="TextShape"><tspan class="TextParagraph" font-family="Liberation Sans, sans-serif" font-size="348px" font-weight="400"><tspan class="TextPosition" x="360" y="1705"><tspan fill="rgb(0,0,0)" stroke="none">20 ms</tspan></tspan></tspan></text>
 <text class="TextShape"><tspan class="TextParagraph" font-family="Liberation Sans, sans-serif" font-size="348px" font-weight="400"><tspan class="TextPosition" x="360" y="497"><tspan fill="rgb(0,0,0)" stroke="none">25 ms</tspan></tspan></tspan></text>
 <text class="TextShape"><tspan class="TextParagraph" font-family="Liberation Sans, sans-serif" font-size="348px" font-weight="400"><tspan class="TextPosition" x="13826" y="6539"><tspan fill="rgb(0,0,0)" stroke="none">0 ms</tspan></tspan></tspan></text>
 <text class="TextShape"><tspan class="TextParagraph" font-family="Liberation Sans, sans-serif" font-size="348px" font-weight="400"><tspan class="TextPosition" x="13826" y="5330"><tspan fill="rgb(0,0,0)" stroke="none">5 ms</tspan></tspan></tspan></text>
 <text class="TextShape"><tspan class="TextParagraph" font-family="Liberation Sans, sans-serif" font-size="348px" font-weight="400"><tspan class="TextPosition" x="13826" y="4122"><tspan fill="rgb(0,0,0)" stroke="none">10 ms</tspan></tspan></tspan></text>
 <text class="TextShape"><tspan class="TextParagraph" font-family="Liberation Sans, sans-serif" font-size="348px" font-weight="400"><tspan class="TextPosition" x="13826" y="2913"><tspan fill="rgb(0,0,0)" stroke="none">15 ms</tspan></tspan></tspan></text>
 <text class="TextShape"><tspan class="TextParagraph" font-family="Liberation Sans, sans-serif" font-size="348px" font-weight="400"><tspan class="TextPosition" x="13826" y="1705"><tspan fill="rgb(0,0,0)" stroke="none">20 ms</tspan></tspan></tspan></text>
 <text class="TextShape"><tspan class="TextParagraph" font-family="Liberation Sans, sans-serif" font-size="348px" font-weight="400"><tspan class="TextPosition" x="13826" y="497"><tspan fill="rgb(0,0,0)" stroke="none">25 ms</tspan></tspan></tspan></text>
 <path fill="none" stroke="rgb(49,64,4)" stroke-width="80" stroke-linejoin="round" d="M 15215,1161 L 16015,1161"/>
 <path fill="none" stroke="rgb(87,157,28)" stroke-width="80" stroke-linejoin="round" d="M 15215,1567 L 16015,1567"/>
 <path fill="none" stroke="rgb(174,207,0)" stroke-width="80" stroke-linejoin="round" d="M 15215,1973 L 16015,1973"/>
 <text class="TextShape"><tspan class="TextParagraph" font-family="Liberation Sans, sans-serif" font-size="348px" font-weight="400"><tspan class="TextPosition" x="16115" y="1279"><tspan fill="rgb(0,0,0)" stroke="none">max</tspan></tspan></tspan></text>
 <text class="TextShape"><tspan class="TextParagraph" font-family="Liberation Sans, sans-serif" font-size="348px" font-weight="400"><tspan class="TextPosition" x="16115" y="1685"><tspan fill="rgb(0,0,0)" stroke="none">avg</tspan></tspan></tspan></text>
 <text class="TextShape"><tspan class="TextParagraph" font-family="Liberation Sans, sans-serif" font-size="348px" font-weight="400"><tspan class="TextPosition" x="16115" y="2091"><tspan fill="rgb(0,0,0)" stroke="none">min</tspan></tspan></tspan></text>
</svg>