<?xml version="1.0" encoding="UTF-8"?>
<!DOCTYPE svg PUBLIC "-//W3C//DTD SVG 1.1//EN" "http://www.w3.org/Graphics/SVG/1.1/DTD/svg11.dtd">
<svg width="174mm" height="76mm" viewBox="0 0 17400 7600" version="1.1" baseProfile="tiny" xmlns="http://www.w3.org/2000/svg" stroke-width="28.222" stroke-linejoin="round" xml:space="preserve">
 <path fill="rgb(255,255,255)" stroke="none" d="M 8703,7583 L 10,7583 10,0 17396,0 17396,7583 8703,7583 Z"/>
 <path fill="none" stroke="rgb(179,179,179)" stroke-linejoin="round" d="M 8881,6825 L 1759,6825 1759,151 16003,151 16003,6825 8881,6825 Z"/>
 <path fill="none" stroke="rgb(238,238,238)" stroke-linejoin="round" d="M 1759,150 L 1759,6824"/>
 <path fill="none" stroke="rgb(238,238,238)" stroke-linejoin="round" d="M 3539,150 L 3539,6824"/>
 <path fill="none" stroke="rgb(238,238,238)" stroke-linejoin="round" d="M 5320,150 L 5320,6824"/>
 <path fill="none" stroke="rgb(238,238,238)" stroke-linejoin="round" d="M 7100,150 L 7100,6824"/>
 <path fill="none" stroke="rgb(238,238,238)" stroke-linejoin="round" d="M 8880,150 L 8880,6824"/>
 <path fill="none" stroke="rgb(238,238,238)" stroke-linejoin="round" d="M 10661,150 L 10661,6824"/>
 <path fill="none" stroke="rgb(238,238,238)" stroke-linejoin="round" d="M 12441,150 L 12441,6824"/>
 <path fill="none" stroke="rgb(238,238,238)" stroke-linejoin="round" d="M 14222,150 L 14222,6824"/>
 <path fill="none" stroke="rgb(238,238,238)" stroke-linejoin="round" d="M 16003,150 L 16003,6824"/>
 <path fill="none" stroke="rgb(238,238,238)" stroke-linejoin="round" d="M 16003,6824 L 1759,6824"/>
 <path fill="none" stroke="rgb(238,238,238)" stroke-linejoin="round" d="M 16003,5641 L 1759,5641"/>
 <path fill="none" stroke="rgb(238,238,238)" stroke-linejoin="round" d="M 16003,4458 L 1759,4458"/>
 <path fill="none" stroke="rgb(238,238,238)" stroke-linejoin="round" d="M 16003,3276 L 1759,3276"/>
 <path fill="none" stroke="rgb(238,238,238)" stroke-linejoin="round" d="M 16003,2094 L 1759,2094"/>
 <path fill="none" stroke="rgb(238,238,238)" stroke-linejoin="round" d="M 16003,911 L 1759,911"/>
 <path fill="none" stroke="rgb(179,179,179)" stroke-linejoin="round" d="M 1759,6974 L 1759,6824"/>
 <path fill="none" stroke="rgb(179,179,179)" stroke-linejoin="round" d="M 1759,6974 L 1759,6824"/>
 <path fill="none" stroke="rgb(179,179,179)" stroke-linejoin="round" d="M 3539,6974 L 3539,6824"/>
 <path fill="none" stroke="rgb(179,179,179)" stroke-linejoin="round" d="M 3539,6974 L 3539,6824"/>
 <path fill="none" stroke="rgb(179,179,179)" stroke-linejoin="round" d="M 5320,6974 L 5320,6824"/>
 <path fill="none" stroke="rgb(179,179,179)" stroke-linejoin="round" d="M 5320,6974 L 5320,6824"/>
 <path fill="none" stroke="rgb(179,179,179)" stroke-linejoin="round" d="M 7100,6974 L 7100,6824"/>
 <path fill="none" stroke="rgb(179,179,179)" stroke-linejoin="round" d="M 7100,6974 L 7100,6824"/>
 <path fill="none" stroke="rgb(179,179,179)" stroke-linejoin="round" d="M 8880,6974 L 8880,6824"/>
 <path fill="none" stroke="rgb(179,179,179)" stroke-linejoin="round" d="M 8880,6974 L 8880,6824"/>
 <path fill="none" stroke="rgb(179,179,179)" stroke-linejoin="round" d="M 10661,6974 L 10661,6824"/>
 <path fill="none" stroke="rgb(179,179,179)" stroke-linejoin="round" d="M 10661,6974 L 10661,6824"/>
 <path fill="none" stroke="rgb(179,179,179)" stroke-linejoin="round" d="M 12441,6974 L 12441,6824"/>
 <path fill="none" stroke="rgb(179,179,179)" stroke-linejoin="round" d="M 12441,6974 L 12441,6824"/>
 <path fill="none" stroke="rgb(179,179,179)" stroke-linejoin="round" d="M 14222,6974 L 14222,6824"/>
 <path fill="none" stroke="rgb(179,179,179)" stroke-linejoin="round" d="M 14222,6974 L 14222,6824"/>
 <path fill="none" stroke="rgb(179,179,179)" stroke-linejoin="round" d="M 16003,6974 L 16003,6824"/>
 <path fill="none" stroke="rgb(179,179,179)" stroke-linejoin="round" d="M 16003,6974 L 16003,6824"/>
 <path fill="none" stroke="rgb(179,179,179)" stroke-linejoin="round" d="M 1759,6824 L 16003,6824"/>
 <path fill="none" stroke="rgb(179,179,179)" stroke-linejoin="round" d="M 1609,6824 L 1759,6824"/>
 <path fill="none" stroke="rgb(179,179,179)" stroke-linejoin="round" d="M 1609,6824 L 1759,6824"/>
 <path fill="none" stroke="rgb(179,179,179)" stroke-linejoin="round" d="M 1609,5641 L 1759,5641"/>
 <path fill="none" stroke="rgb(179,179,179)" stroke-linejoin="round" d="M 1609,5641 L 1759,5641"/>
 <path fill="none" stroke="rgb(179,179,179)" stroke-linejoin="round" d="M 1609,4458 L 1759,4458"/>
 <path fill="none" stroke="rgb(179,179,179)" stroke-linejoin="round" d="M 1609,4458 L 1759,4458"/>
 <path fill="none" stroke="rgb(179,179,179)" stroke-linejoin="round" d="M 1609,3276 L 1759,3276"/>
 <path fill="none" stroke="rgb(179,179,179)" stroke-linejoin="round" d="M 1609,3276 L 1759,3276"/>
 <path fill="none" stroke="rgb(179,179,179)" stroke-linejoin="round" d="M 1609,2094 L 1759,2094"/>
 <path fill="none" stroke="rgb(179,179,179)" stroke-linejoin="round" d="M 1609,2094 L 1759,2094"/>
 <path fill="none" stroke="rgb(179,179,179)" stroke-linejoin="round" d="M 1609,911 L 1759,911"/>
 <path fill="none" stroke="rgb(179,179,179)" stroke-linejoin="round" d="M 1609,911 L 1759,911"/>
 <path fill="none" stroke="rgb(179,179,179)" stroke-linejoin="round" d="M 1759,6824 L 1759,150"/>
 <path fill="none" stroke="rgb(179,179,179)" stroke-linejoin="round" d="M 16153,6824 L 16003,6824"/>
 <path fill="none" stroke="rgb(179,179,179)" stroke-linejoin="round" d="M 16153,6824 L 16003,6824"/>
 <path fill="none" stroke="rgb(179,179,179)" stroke-linejoin="round" d="M 16153,5610 L 16003,5610"/>
 <path fill="none" stroke="rgb(179,179,179)" stroke-linejoin="round" d="M 16153,5610 L 16003,5610"/>
 <path fill="none" stroke="rgb(179,179,179)" stroke-linejoin="round" d="M 16153,4396 L 16003,4396"/>
 <path fill="none" stroke="rgb(179,179,179)" stroke-linejoin="round" d="M 16153,4396 L 16003,4396"/>
 <path fill="none" stroke="rgb(179,179,179)" stroke-linejoin="round" d="M 16153,3184 L 16003,3184"/>
 <path fill="none" stroke="rgb(179,179,179)" stroke-linejoin="round" d="M 16153,3184 L 16003,3184"/>
 <path fill="none" stroke="rgb(179,179,179)" stroke-linejoin="round" d="M 16153,1970 L 16003,1970"/>
 <path fill="none" stroke="rgb(179,179,179)" stroke-linejoin="round" d="M 16153,1970 L 16003,1970"/>
 <path fill="none" stroke="rgb(179,179,179)" stroke-linejoin="round" d="M 16153,756 L 16003,756"/>
 <path fill="none" stroke="rgb(179,179,179)" stroke-linejoin="round" d="M 16153,756 L 16003,756"/>
 <path fill="none" stroke="rgb(179,179,179)" stroke-linejoin="round" d="M 16003,6824 L 16003,150"/>
 <path fill="none" stroke="rgb(255,66,14)" stroke-width="51" stroke-linejoin="round" d="M 1759,1043 L 1901,847 2043,987 2186,1207 2337,1029 2480,756 2622,1063 2765,1195 2907,958 3049,809 3201,1091 3343,1260 3486,1037 3628,979 3771,883 3913,909 4056,1111 4207,1211 4349,1316 4492,1373 4634,1560 4777,1304 4919,1060 5070,1205 5213,1410 5355,1554 5498,1571 5640,1407 5783,1161 5925,1577 6077,1682 6219,1259 6361,1813 6504,1426 6646,1852 6789,1688 6931,1643 7083,1806 7225,1455 7367,1815 7510,1887 7652,1757 7795,1548 7946,1875 8089,1969 8231,1946 8374,1955 8516,1895 8658,1962 8800,2121 8951,2126 9094,2161 9236,2097 9379,1881 9521,2294 9663,2243 9815,2187 9957,2273 10100,2142 10242,2346 10385,2364 10527,2179 10670,2354 10821,2430 10963,2596 11106,2585 11248,2549 11391,2444 11533,2387 11684,2733 11827,2676 11969,2583 12112,2775 12254,2680 12397,2858 12539,2877 12691,2878 12833,2907 12975,3036 13118,3029 13260,3028 13403,3008 13545,3094 13697,3096 13839,3173 13981,3238 14124,3254 14266,3397 14409,3366 14560,3401 14703,3512 14845,3505 14988,3566 15130,3580 15272,3706 15415,3711 15566,3958 15709,3944 15851,3964 15994,4204"/>
 <path fill="none" stroke="rgb(255,66,14)" stroke-width="51" stroke-linejoin="round" d="M 1759,1044 L 1901,847 2043,987 2186,1207 2337,1028 2480,756 2622,1063 2765,1195 2907,958 3049,808 3201,1091 3343,1260 3486,1037 3628,979 3771,883 3913,909 4056,1111 4207,1212 4349,1316 4492,1374 4634,1560 4777,1304 4919,1059 5070,1204 5213,1410 5355,1553 5498,1571 5640,1407 5783,1161 5925,1577 6077,1682 6219,1259 6361,1812 6504,1426 6646,1851 6789,1688 6931,1643 7083,1805 7225,1454 7367,1815 7510,1887 7652,1757 7795,1547 7946,1875 8089,1970 8231,1946 8374,1954 8516,1895 8658,1963 8800,2121 8951,2126 9094,2161 9236,2097 9379,1881 9521,2294 9663,2243 9815,2187 9957,2272 10100,2141 10242,2346 10385,2363 10527,2179 10670,2354 10821,2430 10963,2596 11106,2586 11248,2549 11391,2444 11533,2387 11684,2734 11827,2676 11969,2583 12112,2774 12254,2680 12397,2858 12539,2877 12691,2878 12833,2907 12975,3035 13118,3029 13260,3028 13403,3008 13545,3094 13697,3097 13839,3174 13981,3237 14124,3254 14266,3397 14409,3366 14560,3401 14703,3512 14845,3505 14988,3566 15130,3579 15272,3706 15415,3711 15566,3958 15709,3944 15851,3964 15994,4205"/>
 <text class="TextShape"><tspan class="TextParagraph" font-family="Liberation Sans, sans-serif" font-size="318px" font-weight="400"><tspan class="TextPosition" x="1349" y="7365"><tspan fill="rgb(0,0,0)" stroke="none">+0GB</tspan></tspan></tspan></text>
 <text class="TextShape"><tspan class="TextParagraph" font-family="Liberation Sans, sans-serif" font-size="318px" font-weight="400"><tspan class="TextPosition" x="3043" y="7365"><tspan fill="rgb(0,0,0)" stroke="none">+20GB</tspan></tspan></tspan></text>
 <text class="TextShape"><tspan class="TextParagraph" font-family="Liberation Sans, sans-serif" font-size="318px" font-weight="400"><tspan class="TextPosition" x="4824" y="7365"><tspan fill="rgb(0,0,0)" stroke="none">+40GB</tspan></tspan></tspan></text>
 <text class="TextShape"><tspan class="TextParagraph" font-family="Liberation Sans, sans-serif" font-size="318px" font-weight="400"><tspan class="TextPosition" x="6604" y="7365"><tspan fill="rgb(0,0,0)" stroke="none">+60GB</tspan></tspan></tspan></text>
 <text class="TextShape"><tspan class="TextParagraph" font-family="Liberation Sans, sans-serif" font-size="318px" font-weight="400"><tspan class="TextPosition" x="8385" y="7365"><tspan fill="rgb(0,0,0)" stroke="none">+80GB</tspan></tspan></tspan></text>
 <text class="TextShape"><tspan class="TextParagraph" font-family="Liberation Sans, sans-serif" font-size="318px" font-weight="400"><tspan class="TextPosition" x="10080" y="7365"><tspan fill="rgb(0,0,0)" stroke="none">+100GB</tspan></tspan></tspan></text>
 <text class="TextShape"><tspan class="TextParagraph" font-family="Liberation Sans, sans-serif" font-size="318px" font-weight="400"><tspan class="TextPosition" x="11860" y="7365"><tspan fill="rgb(0,0,0)" stroke="none">+120GB</tspan></tspan></tspan></text>
 <text class="TextShape"><tspan class="TextParagraph" font-family="Liberation Sans, sans-serif" font-size="318px" font-weight="400"><tspan class="TextPosition" x="13641" y="7365"><tspan fill="rgb(0,0,0)" stroke="none">+140GB</tspan></tspan></tspan></text>
 <text class="TextShape"><tspan class="TextParagraph" font-family="Liberation Sans, sans-serif" font-size="318px" font-weight="400"><tspan class="TextPosition" x="15422" y="7365"><tspan fill="rgb(0,0,0)" stroke="none">+160GB</tspan></tspan></tspan></text>
 <text class="TextShape"><tspan class="TextParagraph" font-family="Liberation Sans, sans-serif" font-size="318px" font-weight="400"><tspan class="TextPosition" x="530" y="6938"><tspan fill="rgb(0,0,0)" stroke="none">0 MB/s</tspan></tspan></tspan></text>
 <text class="TextShape"><tspan class="TextParagraph" font-family="Liberation Sans, sans-serif" font-size="318px" font-weight="400"><tspan class="TextPosition" x="358" y="5755"><tspan fill="rgb(0,0,0)" stroke="none">10 MB/s</tspan></tspan></tspan></text>
 <text class="TextShape"><tspan class="TextParagraph" font-family="Liberation Sans, sans-serif" font-size="318px" font-weight="400"><tspan class="TextPosition" x="358" y="4572"><tspan fill="rgb(0,0,0)" stroke="none">20 MB/s</tspan></tspan></tspan></text>
 <text class="TextShape"><tspan class="TextParagraph" font-family="Liberation Sans, sans-serif" font-size="318px" font-weight="400"><tspan class="TextPosition" x="358" y="3389"><tspan fill="rgb(0,0,0)" stroke="none">30 MB/s</tspan></tspan></tspan></text>
 <text class="TextShape"><tspan class="TextParagraph" font-family="Liberation Sans, sans-serif" font-size="318px" font-weight="400"><tspan class="TextPosition" x="358" y="2207"><tspan fill="rgb(0,0,0)" stroke="none">40 MB/s</tspan></tspan></tspan></text>
 <text class="TextShape"><tspan class="TextParagraph" font-family="Liberation Sans, sans-serif" font-size="318px" font-weight="400"><tspan class="TextPosition" x="358" y="1024"><tspan fill="rgb(0,0,0)" stroke="none">50 MB/s</tspan></tspan></tspan></text>
 <text class="TextShape"><tspan class="TextParagraph" font-family="Liberation Sans, sans-serif" font-size="318px" font-weight="400"><tspan class="TextPosition" x="16253" y="6938"><tspan fill="rgb(0,0,0)" stroke="none">0%</tspan></tspan></tspan></text>
 <text class="TextShape"><tspan class="TextParagraph" font-family="Liberation Sans, sans-serif" font-size="318px" font-weight="400"><tspan class="TextPosition" x="16253" y="5724"><tspan fill="rgb(0,0,0)" stroke="none">20%</tspan></tspan></tspan></text>
 <text class="TextShape"><tspan class="TextParagraph" font-family="Liberation Sans, sans-serif" font-size="318px" font-weight="400"><tspan class="TextPosition" x="16253" y="4510"><tspan fill="rgb(0,0,0)" stroke="none">40%</tspan></tspan></tspan></text>
 <text class="TextShape"><tspan class="TextParagraph" font-family="Liberation Sans, sans-serif" font-size="318px" font-weight="400"><tspan class="TextPosition" x="16253" y="3297"><tspan fill="rgb(0,0,0)" stroke="none">60%</tspan></tspan></tspan></text>
 <text class="TextShape"><tspan class="TextParagraph" font-family="Liberation Sans, sans-serif" font-size="318px" font-weight="400"><tspan class="TextPosition" x="16253" y="2083"><tspan fill="rgb(0,0,0)" stroke="none">80%</tspan></tspan></tspan></text>
 <text class="TextShape"><tspan class="TextParagraph" font-family="Liberation Sans, sans-serif" font-size="318px" font-weight="400"><tspan class="TextPosition" x="16253" y="869"><tspan fill="rgb(0,0,0)" stroke="none">100%</tspan></tspan></tspan></text>
</svg>