<?xml version="1.0" encoding="UTF-8"?>
<!DOCTYPE svg PUBLIC "-//W3C//DTD SVG 1.1//EN" "http://www.w3.org/Graphics/SVG/1.1/DTD/svg11.dtd">
<svg width="205mm" height="84mm" viewBox="0 0 20500 8400" version="1.1" baseProfile="tiny" xmlns="http://www.w3.org/2000/svg" stroke-width="28.222" stroke-linejoin="round" xml:space="preserve">
 <path fill="rgb(255,255,255)" stroke="none" d="M 10249,8355 L 2,8355 2,0 20496,0 20496,8355 10249,8355 Z"/>
 <path fill="none" stroke="rgb(179,179,179)" stroke-linejoin="round" d="M 10013,7539 L 2196,7539 2196,365 17830,365 17830,7539 10013,7539 Z"/>
 <path fill="none" stroke="rgb(238,238,238)" stroke-linejoin="round" d="M 2196,364 L 2196,7538"/>
 <path fill="none" stroke="rgb(238,238,238)" stroke-linejoin="round" d="M 3759,364 L 3759,7538"/>
 <path fill="none" stroke="rgb(238,238,238)" stroke-linejoin="round" d="M 5323,364 L 5323,7538"/>
 <path fill="none" stroke="rgb(238,238,238)" stroke-linejoin="round" d="M 6886,364 L 6886,7538"/>
 <path fill="none" stroke="rgb(238,238,238)" stroke-linejoin="round" d="M 8450,364 L 8450,7538"/>
 <path fill="none" stroke="rgb(238,238,238)" stroke-linejoin="round" d="M 10013,364 L 10013,7538"/>
 <path fill="none" stroke="rgb(238,238,238)" stroke-linejoin="round" d="M 11576,364 L 11576,7538"/>
 <path fill="none" stroke="rgb(238,238,238)" stroke-linejoin="round" d="M 13139,364 L 13139,7538"/>
 <path fill="none" stroke="rgb(238,238,238)" stroke-linejoin="round" d="M 14703,364 L 14703,7538"/>
 <path fill="none" stroke="rgb(238,238,238)" stroke-linejoin="round" d="M 16266,364 L 16266,7538"/>
 <path fill="none" stroke="rgb(238,238,238)" stroke-linejoin="round" d="M 17830,364 L 17830,7538"/>
 <path fill="none" stroke="rgb(238,238,238)" stroke-linejoin="round" d="M 17830,7538 L 2196,7538"/>
 <path fill="none" stroke="rgb(238,238,238)" stroke-linejoin="round" d="M 17830,6740 L 2196,6740"/>
 <path fill="none" stroke="rgb(238,238,238)" stroke-linejoin="round" d="M 17830,5943 L 2196,5943"/>
 <path fill="none" stroke="rgb(238,238,238)" stroke-linejoin="round" d="M 17830,5146 L 2196,5146"/>
 <path fill="none" stroke="rgb(238,238,238)" stroke-linejoin="round" d="M 17830,4349 L 2196,4349"/>
 <path fill="none" stroke="rgb(238,238,238)" stroke-linejoin="round" d="M 17830,3552 L 2196,3552"/>
 <path fill="none" stroke="rgb(238,238,238)" stroke-linejoin="round" d="M 17830,2755 L 2196,2755"/>
 <path fill="none" stroke="rgb(238,238,238)" stroke-linejoin="round" d="M 17830,1958 L 2196,1958"/>
 <path fill="none" stroke="rgb(238,238,238)" stroke-linejoin="round" d="M 17830,1161 L 2196,1161"/>
 <path fill="none" stroke="rgb(238,238,238)" stroke-linejoin="round" d="M 17830,364 L 2196,364"/>
 <path fill="none" stroke="rgb(179,179,179)" stroke-linejoin="round" d="M 2196,7688 L 2196,7538"/>
 <path fill="none" stroke="rgb(179,179,179)" stroke-linejoin="round" d="M 2196,7688 L 2196,7538"/>
 <path fill="none" stroke="rgb(179,179,179)" stroke-linejoin="round" d="M 3759,7688 L 3759,7538"/>
 <path fill="none" stroke="rgb(179,179,179)" stroke-linejoin="round" d="M 3759,7688 L 3759,7538"/>
 <path fill="none" stroke="rgb(179,179,179)" stroke-linejoin="round" d="M 5323,7688 L 5323,7538"/>
 <path fill="none" stroke="rgb(179,179,179)" stroke-linejoin="round" d="M 5323,7688 L 5323,7538"/>
 <path fill="none" stroke="rgb(179,179,179)" stroke-linejoin="round" d="M 6886,7688 L 6886,7538"/>
 <path fill="none" stroke="rgb(179,179,179)" stroke-linejoin="round" d="M 6886,7688 L 6886,7538"/>
 <path fill="none" stroke="rgb(179,179,179)" stroke-linejoin="round" d="M 8450,7688 L 8450,7538"/>
 <path fill="none" stroke="rgb(179,179,179)" stroke-linejoin="round" d="M 8450,7688 L 8450,7538"/>
 <path fill="none" stroke="rgb(179,179,179)" stroke-linejoin="round" d="M 10013,7688 L 10013,7538"/>
 <path fill="none" stroke="rgb(179,179,179)" stroke-linejoin="round" d="M 10013,7688 L 10013,7538"/>
 <path fill="none" stroke="rgb(179,179,179)" stroke-linejoin="round" d="M 11576,7688 L 11576,7538"/>
 <path fill="none" stroke="rgb(179,179,179)" stroke-linejoin="round" d="M 11576,7688 L 11576,7538"/>
 <path fill="none" stroke="rgb(179,179,179)" stroke-linejoin="round" d="M 13139,7688 L 13139,7538"/>
 <path fill="none" stroke="rgb(179,179,179)" stroke-linejoin="round" d="M 13139,7688 L 13139,7538"/>
 <path fill="none" stroke="rgb(179,179,179)" stroke-linejoin="round" d="M 14703,7688 L 14703,7538"/>
 <path fill="none" stroke="rgb(179,179,179)" stroke-linejoin="round" d="M 14703,7688 L 14703,7538"/>
 <path fill="none" stroke="rgb(179,179,179)" stroke-linejoin="round" d="M 16266,7688 L 16266,7538"/>
 <path fill="none" stroke="rgb(179,179,179)" stroke-linejoin="round" d="M 16266,7688 L 16266,7538"/>
 <path fill="none" stroke="rgb(179,179,179)" stroke-linejoin="round" d="M 17830,7688 L 17830,7538"/>
 <path fill="none" stroke="rgb(179,179,179)" stroke-linejoin="round" d="M 17830,7688 L 17830,7538"/>
 <path fill="none" stroke="rgb(179,179,179)" stroke-linejoin="round" d="M 2196,7538 L 17830,7538"/>
 <path fill="none" stroke="rgb(179,179,179)" stroke-linejoin="round" d="M 2196,364 L 17830,364"/>
 <path fill="none" stroke="rgb(179,179,179)" stroke-linejoin="round" d="M 2046,7538 L 2196,7538"/>
 <path fill="none" stroke="rgb(179,179,179)" stroke-linejoin="round" d="M 2046,7538 L 2196,7538"/>
 <path fill="none" stroke="rgb(179,179,179)" stroke-linejoin="round" d="M 2046,6740 L 2196,6740"/>
 <path fill="none" stroke="rgb(179,179,179)" stroke-linejoin="round" d="M 2046,6740 L 2196,6740"/>
 <path fill="none" stroke="rgb(179,179,179)" stroke-linejoin="round" d="M 2046,5943 L 2196,5943"/>
 <path fill="none" stroke="rgb(179,179,179)" stroke-linejoin="round" d="M 2046,5943 L 2196,5943"/>
 <path fill="none" stroke="rgb(179,179,179)" stroke-linejoin="round" d="M 2046,5146 L 2196,5146"/>
 <path fill="none" stroke="rgb(179,179,179)" stroke-linejoin="round" d="M 2046,5146 L 2196,5146"/>
 <path fill="none" stroke="rgb(179,179,179)" stroke-linejoin="round" d="M 2046,4349 L 2196,4349"/>
 <path fill="none" stroke="rgb(179,179,179)" stroke-linejoin="round" d="M 2046,4349 L 2196,4349"/>
 <path fill="none" stroke="rgb(179,179,179)" stroke-linejoin="round" d="M 2046,3552 L 2196,3552"/>
 <path fill="none" stroke="rgb(179,179,179)" stroke-linejoin="round" d="M 2046,3552 L 2196,3552"/>
 <path fill="none" stroke="rgb(179,179,179)" stroke-linejoin="round" d="M 2046,2755 L 2196,2755"/>
 <path fill="none" stroke="rgb(179,179,179)" stroke-linejoin="round" d="M 2046,2755 L 2196,2755"/>
 <path fill="none" stroke="rgb(179,179,179)" stroke-linejoin="round" d="M 2046,1958 L 2196,1958"/>
 <path fill="none" stroke="rgb(179,179,179)" stroke-linejoin="round" d="M 2046,1958 L 2196,1958"/>
 <path fill="none" stroke="rgb(179,179,179)" stroke-linejoin="round" d="M 2046,1161 L 2196,1161"/>
 <path fill="none" stroke="rgb(179,179,179)" stroke-linejoin="round" d="M 2046,1161 L 2196,1161"/>
 <path fill="none" stroke="rgb(179,179,179)" stroke-linejoin="round" d="M 2046,364 L 2196,364"/>
 <path fill="none" stroke="rgb(179,179,179)" stroke-linejoin="round" d="M 2046,364 L 2196,364"/>
 <path fill="none" stroke="rgb(179,179,179)" stroke-linejoin="round" d="M 2196,7538 L 2196,364"/>
 <path fill="none" stroke="rgb(179,179,179)" stroke-linejoin="round" d="M 17830,7538 L 17830,364"/>
 <path fill="none" stroke="rgb(255,66,14)" stroke-width="51" stroke-linejoin="round" d="M 2352,2332 L 2508,2077 2665,2125 2821,2076 2977,2049 3134,2368 3290,3079 3446,2367 3603,3275 3759,3141 3915,2988 4072,2714 4228,2379 4384,2755 4541,2540 4697,2499 4853,2303 5010,2428 5166,2540 5323,2409 5479,2389 5635,2628 5792,2779 5948,2325 6104,2572 6261,2364 6417,2900 6573,2731 6730,2919 6886,2451 7042,2470 7199,2381 7355,2798 7511,2404 7668,2830 7824,2320 7980,2806 8137,2434 8293,2259 8450,2809 8606,2793 8762,2716 8919,2392 9075,3745 9231,3014 9388,2587 9544,3120 9700,2726 9857,3313 10013,3048 10169,2790 10325,2791 10481,2642 10637,2680 10794,3070 10950,2857 11106,2679 11263,2855 11419,3198 11576,2945 11732,2554 11888,3234 12045,2734 12201,2433 12357,3408 12514,2684 12670,2678 12826,2654 12983,2942 13139,2898 13295,2847 13452,2954 13608,2669 13764,2914 13921,3404 14077,3099 14233,2537 14390,2047 14546,2045 14703,2190 14859,2126 15015,2188 15172,2160 15328,2377 15484,2118 15641,2107 15797,2323 15953,2803 16110,3066 16266,2553 16422,2274 16579,2152 16735,2142 16891,2794 17048,3114 17204,2526 17360,2501 17517,2942 17673,2492 17830,2268"/>
 <path fill="none" stroke="rgb(0,69,134)" stroke-width="51" stroke-linejoin="round" d="M 2352,1823 L 2508,1504 2665,1619 2821,1909 2977,1620 3134,1729 3290,1572 3446,1503 3603,1704 3759,1588 3915,1549 4072,1392 4228,1420 4384,1594 4541,1671 4697,1626 4853,1583 5010,1745 5166,1620 5323,1566 5479,1631 5635,1428 5792,1584 5948,1726 6104,1562 6261,1839 6417,1717 6573,1575 6730,1609 6886,1455 7042,1693 7199,1620 7355,1291 7511,1679 7668,1622 7824,1480 7980,1746 8137,1569 8293,1723 8450,1547 8606,1624 8762,1784 8919,1655 9075,1552 9231,1697 9388,1734 9544,1555 9700,1627 9857,1500 10013,1781 10169,2148 10325,1864 10481,1721 10637,2111 10794,1785 10950,1689 11106,1500 11263,1621 11419,1651 11576,1700 11732,1605 11888,1562 12045,1646 12201,1654 12357,1502 12514,1614 12670,1684 12826,1747 12983,1529 13139,1703 13295,1614 13452,1675 13608,1563 13764,1117 13921,1718 14077,1621 14233,1578 14390,1635 14546,1530 14703,1692 14859,1581 15015,1697 15172,1570 15328,1777 15484,1628 15641,1712 15797,1693 15953,1752 16110,1679 16266,1571 16422,1640 16579,1577 16735,1574 16891,1698 17048,1632 17204,1625 17360,1639 17517,1636 17673,1655 17830,1760"/>
 <text class="TextShape"><tspan class="TextParagraph" font-family="Liberation Sans, sans-serif" font-size="353px" font-weight="400"><tspan class="TextPosition" x="1938" y="8106"><tspan fill="rgb(0,0,0)" stroke="none">0%</tspan></tspan></tspan></text>
 <text class="TextShape"><tspan class="TextParagraph" font-family="Liberation Sans, sans-serif" font-size="353px" font-weight="400"><tspan class="TextPosition" x="3402" y="8106"><tspan fill="rgb(0,0,0)" stroke="none">10%</tspan></tspan></tspan></text>
 <text class="TextShape"><tspan class="TextParagraph" font-family="Liberation Sans, sans-serif" font-size="353px" font-weight="400"><tspan class="TextPosition" x="4966" y="8106"><tspan fill="rgb(0,0,0)" stroke="none">20%</tspan></tspan></tspan></text>
 <text class="TextShape"><tspan class="TextParagraph" font-family="Liberation Sans, sans-serif" font-size="353px" font-weight="400"><tspan class="TextPosition" x="6529" y="8106"><tspan fill="rgb(0,0,0)" stroke="none">30%</tspan></tspan></tspan></text>
 <text class="TextShape"><tspan class="TextParagraph" font-family="Liberation Sans, sans-serif" font-size="353px" font-weight="400"><tspan class="TextPosition" x="8093" y="8106"><tspan fill="rgb(0,0,0)" stroke="none">40%</tspan></tspan></tspan></text>
 <text class="TextShape"><tspan class="TextParagraph" font-family="Liberation Sans, sans-serif" font-size="353px" font-weight="400"><tspan class="TextPosition" x="9656" y="8106"><tspan fill="rgb(0,0,0)" stroke="none">50%</tspan></tspan></tspan></text>
 <text class="TextShape"><tspan class="TextParagraph" font-family="Liberation Sans, sans-serif" font-size="353px" font-weight="400"><tspan class="TextPosition" x="11220" y="8106"><tspan fill="rgb(0,0,0)" stroke="none">60%</tspan></tspan></tspan></text>
 <text class="TextShape"><tspan class="TextParagraph" font-family="Liberation Sans, sans-serif" font-size="353px" font-weight="400"><tspan class="TextPosition" x="12783" y="8106"><tspan fill="rgb(0,0,0)" stroke="none">70%</tspan></tspan></tspan></text>
 <text class="TextShape"><tspan class="TextParagraph" font-family="Liberation Sans, sans-serif" font-size="353px" font-weight="400"><tspan class="TextPosition" x="14347" y="8106"><tspan fill="rgb(0,0,0)" stroke="none">80%</tspan></tspan></tspan></text>
 <text class="TextShape"><tspan class="TextParagraph" font-family="Liberation Sans, sans-serif" font-size="353px" font-weight="400"><tspan class="TextPosition" x="15910" y="8106"><tspan fill="rgb(0,0,0)" stroke="none">90%</tspan></tspan></tspan></text>
 <text class="TextShape"><tspan class="TextParagraph" font-family="Liberation Sans, sans-serif" font-size="353px" font-weight="400"><tspan class="TextPosition" x="17374" y="8106"><tspan fill="rgb(0,0,0)" stroke="none">100%</tspan></tspan></tspan></text>
 <text class="TextShape"><tspan class="TextParagraph" font-family="Liberation Sans, sans-serif" font-size="71px" font-weight="400"><tspan class="TextPosition" x="2176" y="252"><tspan fill="rgb(255,255,255)" stroke="none">0</tspan></tspan></tspan></text>
 <text class="TextShape"><tspan class="TextParagraph" font-family="Liberation Sans, sans-serif" font-size="71px" font-weight="400"><tspan class="TextPosition" x="4761" y="252"><tspan fill="rgb(255,255,255)" stroke="none">20</tspan></tspan></tspan></text>
 <text class="TextShape"><tspan class="TextParagraph" font-family="Liberation Sans, sans-serif" font-size="71px" font-weight="400"><tspan class="TextPosition" x="7367" y="252"><tspan fill="rgb(255,255,255)" stroke="none">40</tspan></tspan></tspan></text>
 <text class="TextShape"><tspan class="TextParagraph" font-family="Liberation Sans, sans-serif" font-size="71px" font-weight="400"><tspan class="TextPosition" x="9973" y="252"><tspan fill="rgb(255,255,255)" stroke="none">60</tspan></tspan></tspan></text>
 <text class="TextShape"><tspan class="TextParagraph" font-family="Liberation Sans, sans-serif" font-size="71px" font-weight="400"><tspan class="TextPosition" x="12579" y="252"><tspan fill="rgb(255,255,255)" stroke="none">80</tspan></tspan></tspan></text>
 <text class="TextShape"><tspan class="TextParagraph" font-family="Liberation Sans, sans-serif" font-size="71px" font-weight="400"><tspan class="TextPosition" x="15165" y="252"><tspan fill="rgb(255,255,255)" stroke="none">100</tspan></tspan></tspan></text>
 <text class="TextShape"><tspan class="TextParagraph" font-family="Liberation Sans, sans-serif" font-size="71px" font-weight="400"><tspan class="TextPosition" x="17771" y="252"><tspan fill="rgb(255,255,255)" stroke="none">120</tspan></tspan></tspan></text>
 <text class="TextShape"><tspan class="TextParagraph" font-family="Liberation Sans, sans-serif" font-size="353px" font-weight="400"><tspan class="TextPosition" x="808" y="7659"><tspan fill="rgb(0,0,0)" stroke="none">0 MB/s</tspan></tspan></tspan></text>
 <text class="TextShape"><tspan class="TextParagraph" font-family="Liberation Sans, sans-serif" font-size="353px" font-weight="400"><tspan class="TextPosition" x="610" y="6861"><tspan fill="rgb(0,0,0)" stroke="none">50 MB/s</tspan></tspan></tspan></text>
 <text class="TextShape"><tspan class="TextParagraph" font-family="Liberation Sans, sans-serif" font-size="353px" font-weight="400"><tspan class="TextPosition" x="411" y="6064"><tspan fill="rgb(0,0,0)" stroke="none">100 MB/s</tspan></tspan></tspan></text>
 <text class="TextShape"><tspan class="TextParagraph" font-family="Liberation Sans, sans-serif" font-size="353px" font-weight="400"><tspan class="TextPosition" x="411" y="5267"><tspan fill="rgb(0,0,0)" stroke="none">150 MB/s</tspan></tspan></tspan></text>
 <text class="TextShape"><tspan class="TextParagraph" font-family="Liberation Sans, sans-serif" font-size="353px" font-weight="400"><tspan class="TextPosition" x="411" y="4470"><tspan fill="rgb(0,0,0)" stroke="none">200 MB/s</tspan></tspan></tspan></text>
 <text class="TextShape"><tspan class="TextParagraph" font-family="Liberation Sans, sans-serif" font-size="353px" font-weight="400"><tspan class="TextPosition" x="411" y="3672"><tspan fill="rgb(0,0,0)" stroke="none">250 MB/s</tspan></tspan></tspan></text>
 <text class="TextShape"><tspan class="TextParagraph" font-family="Liberation Sans, sans-serif" font-size="353px" font-weight="400"><tspan class="TextPosition" x="411" y="2875"><tspan fill="rgb(0,0,0)" stroke="none">300 MB/s</tspan></tspan></tspan></text>
 <text class="TextShape"><tspan class="TextParagraph" font-family="Liberation Sans, sans-serif" font-size="353px" font-weight="400"><tspan class="TextPosition" x="411" y="2078"><tspan fill="rgb(0,0,0)" stroke="none">350 MB/s</tspan></tspan></tspan></text>
 <text class="TextShape"><tspan class="TextParagraph" font-family="Liberation Sans, sans-serif" font-size="353px" font-weight="400"><tspan class="TextPosition" x="411" y="1281"><tspan fill="rgb(0,0,0)" stroke="none">400 MB/s</tspan></tspan></tspan></text>
 <text class="TextShape"><tspan class="TextParagraph" font-family="Liberation Sans, sans-serif" font-size="353px" font-weight="400"><tspan class="TextPosition" x="411" y="484"><tspan fill="rgb(0,0,0)" stroke="none">450 MB/s</tspan></tspan></tspan></text>
 <text class="TextShape"><tspan class="TextParagraph" font-family="Liberation Sans, sans-serif" font-size="71px" font-weight="400"><tspan class="TextPosition" x="17930" y="7566"><tspan fill="rgb(255,255,255)" stroke="none">0 MB/s</tspan></tspan></tspan></text>
 <text class="TextShape"><tspan class="TextParagraph" font-family="Liberation Sans, sans-serif" font-size="71px" font-weight="400"><tspan class="TextPosition" x="17930" y="6768"><tspan fill="rgb(255,255,255)" stroke="none">50 MB/s</tspan></tspan></tspan></text>
 <text class="TextShape"><tspan class="TextParagraph" font-family="Liberation Sans, sans-serif" font-size="71px" font-weight="400"><tspan class="TextPosition" x="17930" y="5971"><tspan fill="rgb(255,255,255)" stroke="none">100 MB/s</tspan></tspan></tspan></text>
 <text class="TextShape"><tspan class="TextParagraph" font-family="Liberation Sans, sans-serif" font-size="71px" font-weight="400"><tspan class="TextPosition" x="17930" y="5174"><tspan fill="rgb(255,255,255)" stroke="none">150 MB/s</tspan></tspan></tspan></text>
 <text class="TextShape"><tspan class="TextParagraph" font-family="Liberation Sans, sans-serif" font-size="71px" font-weight="400"><tspan class="TextPosition" x="17930" y="4377"><tspan fill="rgb(255,255,255)" stroke="none">200 MB/s</tspan></tspan></tspan></text>
 <text class="TextShape"><tspan class="TextParagraph" font-family="Liberation Sans, sans-serif" font-size="71px" font-weight="400"><tspan class="TextPosition" x="17930" y="3579"><tspan fill="rgb(255,255,255)" stroke="none">250 MB/s</tspan></tspan></tspan></text>
 <text class="TextShape"><tspan class="TextParagraph" font-family="Liberation Sans, sans-serif" font-size="71px" font-weight="400"><tspan class="TextPosition" x="17930" y="2782"><tspan fill="rgb(255,255,255)" stroke="none">300 MB/s</tspan></tspan></tspan></text>
 <text class="TextShape"><tspan class="TextParagraph" font-family="Liberation Sans, sans-serif" font-size="71px" font-weight="400"><tspan class="TextPosition" x="17930" y="1985"><tspan fill="rgb(255,255,255)" stroke="none">350 MB/s</tspan></tspan></tspan></text>
 <text class="TextShape"><tspan class="TextParagraph" font-family="Liberation Sans, sans-serif" font-size="71px" font-weight="400"><tspan class="TextPosition" x="17930" y="1188"><tspan fill="rgb(255,255,255)" stroke="none">400 MB/s</tspan></tspan></tspan></text>
 <text class="TextShape"><tspan class="TextParagraph" font-family="Liberation Sans, sans-serif" font-size="71px" font-weight="400"><tspan class="TextPosition" x="17930" y="391"><tspan fill="rgb(255,255,255)" stroke="none">450 MB/s</tspan></tspan></tspan></text>
 <path fill="none" stroke="rgb(0,69,134)" stroke-width="51" stroke-linejoin="round" d="M 18514,3928 L 19314,3928"/>
 <path fill="none" stroke="rgb(255,66,14)" stroke-width="51" stroke-linejoin="round" d="M 18514,4425 L 19314,4425"/>
 <text class="TextShape"><tspan class="TextParagraph" font-family="Liberation Sans, sans-serif" font-size="353px" font-weight="400"><tspan class="TextPosition" x="19414" y="4048"><tspan fill="rgb(0,0,0)" stroke="none">read</tspan></tspan></tspan></text>
 <text class="TextShape"><tspan class="TextParagraph" font-family="Liberation Sans, sans-serif" font-size="353px" font-weight="400"><tspan class="TextPosition" x="19414" y="4545"><tspan fill="rgb(0,0,0)" stroke="none">write</tspan></tspan></tspan></text>
</svg>