<?xml version="1.0" encoding="UTF-8"?>
<!DOCTYPE svg PUBLIC "-//W3C//DTD SVG 1.1//EN" "http://www.w3.org/Graphics/SVG/1.1/DTD/svg11.dtd">
<svg width="202mm" height="81mm" viewBox="0 0 20200 8100" version="1.1" baseProfile="tiny" xmlns="http://www.w3.org/2000/svg" stroke-width="28.222" stroke-linejoin="round" xml:space="preserve">
 <path fill="rgb(255,255,255)" stroke="none" d="M 10082,8120 L -2,8120 -2,0 20165,0 20165,8120 10082,8120 Z"/>
 <path fill="none" stroke="rgb(179,179,179)" stroke-linejoin="round" d="M 9550,7311 L 1750,7311 1750,361 17350,361 17350,7311 9550,7311 Z"/>
 <path fill="none" stroke="rgb(238,238,238)" stroke-linejoin="round" d="M 1750,360 L 1750,7310"/>
 <path fill="none" stroke="rgb(238,238,238)" stroke-linejoin="round" d="M 2950,360 L 2950,7310"/>
 <path fill="none" stroke="rgb(238,238,238)" stroke-linejoin="round" d="M 4150,360 L 4150,7310"/>
 <path fill="none" stroke="rgb(238,238,238)" stroke-linejoin="round" d="M 5350,360 L 5350,7310"/>
 <path fill="none" stroke="rgb(238,238,238)" stroke-linejoin="round" d="M 6550,360 L 6550,7310"/>
 <path fill="none" stroke="rgb(238,238,238)" stroke-linejoin="round" d="M 7750,360 L 7750,7310"/>
 <path fill="none" stroke="rgb(238,238,238)" stroke-linejoin="round" d="M 8950,360 L 8950,7310"/>
 <path fill="none" stroke="rgb(238,238,238)" stroke-linejoin="round" d="M 10149,360 L 10149,7310"/>
 <path fill="none" stroke="rgb(238,238,238)" stroke-linejoin="round" d="M 11349,360 L 11349,7310"/>
 <path fill="none" stroke="rgb(238,238,238)" stroke-linejoin="round" d="M 12549,360 L 12549,7310"/>
 <path fill="none" stroke="rgb(238,238,238)" stroke-linejoin="round" d="M 13749,360 L 13749,7310"/>
 <path fill="none" stroke="rgb(238,238,238)" stroke-linejoin="round" d="M 14949,360 L 14949,7310"/>
 <path fill="none" stroke="rgb(238,238,238)" stroke-linejoin="round" d="M 16149,360 L 16149,7310"/>
 <path fill="none" stroke="rgb(238,238,238)" stroke-linejoin="round" d="M 17350,360 L 17350,7310"/>
 <path fill="none" stroke="rgb(238,238,238)" stroke-linejoin="round" d="M 17350,7310 L 1750,7310"/>
 <path fill="none" stroke="rgb(238,238,238)" stroke-linejoin="round" d="M 17350,6537 L 1750,6537"/>
 <path fill="none" stroke="rgb(238,238,238)" stroke-linejoin="round" d="M 17350,5765 L 1750,5765"/>
 <path fill="none" stroke="rgb(238,238,238)" stroke-linejoin="round" d="M 17350,4993 L 1750,4993"/>
 <path fill="none" stroke="rgb(238,238,238)" stroke-linejoin="round" d="M 17350,4220 L 1750,4220"/>
 <path fill="none" stroke="rgb(238,238,238)" stroke-linejoin="round" d="M 17350,3449 L 1750,3449"/>
 <path fill="none" stroke="rgb(238,238,238)" stroke-linejoin="round" d="M 17350,2677 L 1750,2677"/>
 <path fill="none" stroke="rgb(238,238,238)" stroke-linejoin="round" d="M 17350,1904 L 1750,1904"/>
 <path fill="none" stroke="rgb(238,238,238)" stroke-linejoin="round" d="M 17350,1132 L 1750,1132"/>
 <path fill="none" stroke="rgb(238,238,238)" stroke-linejoin="round" d="M 17350,360 L 1750,360"/>
 <path fill="none" stroke="rgb(179,179,179)" stroke-linejoin="round" d="M 1750,7460 L 1750,7310"/>
 <path fill="none" stroke="rgb(179,179,179)" stroke-linejoin="round" d="M 1750,7460 L 1750,7310"/>
 <path fill="none" stroke="rgb(179,179,179)" stroke-linejoin="round" d="M 2950,7460 L 2950,7310"/>
 <path fill="none" stroke="rgb(179,179,179)" stroke-linejoin="round" d="M 2950,7460 L 2950,7310"/>
 <path fill="none" stroke="rgb(179,179,179)" stroke-linejoin="round" d="M 4150,7460 L 4150,7310"/>
 <path fill="none" stroke="rgb(179,179,179)" stroke-linejoin="round" d="M 4150,7460 L 4150,7310"/>
 <path fill="none" stroke="rgb(179,179,179)" stroke-linejoin="round" d="M 5350,7460 L 5350,7310"/>
 <path fill="none" stroke="rgb(179,179,179)" stroke-linejoin="round" d="M 5350,7460 L 5350,7310"/>
 <path fill="none" stroke="rgb(179,179,179)" stroke-linejoin="round" d="M 6550,7460 L 6550,7310"/>
 <path fill="none" stroke="rgb(179,179,179)" stroke-linejoin="round" d="M 6550,7460 L 6550,7310"/>
 <path fill="none" stroke="rgb(179,179,179)" stroke-linejoin="round" d="M 7750,7460 L 7750,7310"/>
 <path fill="none" stroke="rgb(179,179,179)" stroke-linejoin="round" d="M 7750,7460 L 7750,7310"/>
 <path fill="none" stroke="rgb(179,179,179)" stroke-linejoin="round" d="M 8950,7460 L 8950,7310"/>
 <path fill="none" stroke="rgb(179,179,179)" stroke-linejoin="round" d="M 8950,7460 L 8950,7310"/>
 <path fill="none" stroke="rgb(179,179,179)" stroke-linejoin="round" d="M 10149,7460 L 10149,7310"/>
 <path fill="none" stroke="rgb(179,179,179)" stroke-linejoin="round" d="M 10149,7460 L 10149,7310"/>
 <path fill="none" stroke="rgb(179,179,179)" stroke-linejoin="round" d="M 11349,7460 L 11349,7310"/>
 <path fill="none" stroke="rgb(179,179,179)" stroke-linejoin="round" d="M 11349,7460 L 11349,7310"/>
 <path fill="none" stroke="rgb(179,179,179)" stroke-linejoin="round" d="M 12549,7460 L 12549,7310"/>
 <path fill="none" stroke="rgb(179,179,179)" stroke-linejoin="round" d="M 12549,7460 L 12549,7310"/>
 <path fill="none" stroke="rgb(179,179,179)" stroke-linejoin="round" d="M 13749,7460 L 13749,7310"/>
 <path fill="none" stroke="rgb(179,179,179)" stroke-linejoin="round" d="M 13749,7460 L 13749,7310"/>
 <path fill="none" stroke="rgb(179,179,179)" stroke-linejoin="round" d="M 14949,7460 L 14949,7310"/>
 <path fill="none" stroke="rgb(179,179,179)" stroke-linejoin="round" d="M 14949,7460 L 14949,7310"/>
 <path fill="none" stroke="rgb(179,179,179)" stroke-linejoin="round" d="M 16149,7460 L 16149,7310"/>
 <path fill="none" stroke="rgb(179,179,179)" stroke-linejoin="round" d="M 16149,7460 L 16149,7310"/>
 <path fill="none" stroke="rgb(179,179,179)" stroke-linejoin="round" d="M 17350,7460 L 17350,7310"/>
 <path fill="none" stroke="rgb(179,179,179)" stroke-linejoin="round" d="M 17350,7460 L 17350,7310"/>
 <path fill="none" stroke="rgb(179,179,179)" stroke-linejoin="round" d="M 1750,7310 L 17350,7310"/>
 <path fill="none" stroke="rgb(179,179,179)" stroke-linejoin="round" d="M 1750,360 L 17350,360"/>
 <path fill="none" stroke="rgb(179,179,179)" stroke-linejoin="round" d="M 1600,7310 L 1750,7310"/>
 <path fill="none" stroke="rgb(179,179,179)" stroke-linejoin="round" d="M 1600,7310 L 1750,7310"/>
 <path fill="none" stroke="rgb(179,179,179)" stroke-linejoin="round" d="M 1600,6537 L 1750,6537"/>
 <path fill="none" stroke="rgb(179,179,179)" stroke-linejoin="round" d="M 1600,6537 L 1750,6537"/>
 <path fill="none" stroke="rgb(179,179,179)" stroke-linejoin="round" d="M 1600,5765 L 1750,5765"/>
 <path fill="none" stroke="rgb(179,179,179)" stroke-linejoin="round" d="M 1600,5765 L 1750,5765"/>
 <path fill="none" stroke="rgb(179,179,179)" stroke-linejoin="round" d="M 1600,4993 L 1750,4993"/>
 <path fill="none" stroke="rgb(179,179,179)" stroke-linejoin="round" d="M 1600,4993 L 1750,4993"/>
 <path fill="none" stroke="rgb(179,179,179)" stroke-linejoin="round" d="M 1600,4220 L 1750,4220"/>
 <path fill="none" stroke="rgb(179,179,179)" stroke-linejoin="round" d="M 1600,4220 L 1750,4220"/>
 <path fill="none" stroke="rgb(179,179,179)" stroke-linejoin="round" d="M 1600,3449 L 1750,3449"/>
 <path fill="none" stroke="rgb(179,179,179)" stroke-linejoin="round" d="M 1600,3449 L 1750,3449"/>
 <path fill="none" stroke="rgb(179,179,179)" stroke-linejoin="round" d="M 1600,2676 L 1750,2676"/>
 <path fill="none" stroke="rgb(179,179,179)" stroke-linejoin="round" d="M 1600,2676 L 1750,2676"/>
 <path fill="none" stroke="rgb(179,179,179)" stroke-linejoin="round" d="M 1600,1904 L 1750,1904"/>
 <path fill="none" stroke="rgb(179,179,179)" stroke-linejoin="round" d="M 1600,1904 L 1750,1904"/>
 <path fill="none" stroke="rgb(179,179,179)" stroke-linejoin="round" d="M 1600,1132 L 1750,1132"/>
 <path fill="none" stroke="rgb(179,179,179)" stroke-linejoin="round" d="M 1600,1132 L 1750,1132"/>
 <path fill="none" stroke="rgb(179,179,179)" stroke-linejoin="round" d="M 1600,360 L 1750,360"/>
 <path fill="none" stroke="rgb(179,179,179)" stroke-linejoin="round" d="M 1600,360 L 1750,360"/>
 <path fill="none" stroke="rgb(179,179,179)" stroke-linejoin="round" d="M 1750,7310 L 1750,360"/>
 <path fill="none" stroke="rgb(179,179,179)" stroke-linejoin="round" d="M 17350,7310 L 17350,360"/>
 <path fill="none" stroke="rgb(255,66,14)" stroke-width="51" stroke-linejoin="round" d="M 1750,5428 L 2150,4402 2550,4324 2950,4279 3350,4784 3750,5083 4150,5043 4550,4965 4950,4858 5350,5001 5750,5025 6150,4909 6550,4901 6950,4708 7350,5011 7750,4467 8150,4743 8550,5008 8950,4965 9350,4852 9750,4953 10149,5236 10549,4852 10949,4897 11349,5061 11749,5323 12149,5031 12549,5097 12949,5059 13349,5154 13749,4659 14149,4950 14549,4715 14949,4894 15349,5029 15749,4814 16149,5063 16549,4860 16949,5038 17350,4915"/>
 <path fill="none" stroke="rgb(0,69,134)" stroke-width="51" stroke-linejoin="round" d="M 1750,6676 L 2150,6050 2550,5456 2950,4897 3350,4470 3750,4093 4150,3769 4550,3510 4950,3245 5350,3052 5750,2809 6150,2598 6550,2390 6950,2203 7350,2109 7750,1909 8150,1788 8550,1710 8950,1626 9350,1569 9750,1525 10149,1477 10549,1477 10949,1453 11349,1415 11749,1470 12149,1439 12549,1417 12949,1630 13349,1429 13749,1409 14149,1446 14549,1426 14949,1444 15349,1445 15749,1444 16149,1474 16549,1595 16949,1469 17350,1502"/>
 <text class="TextShape"><tspan class="TextParagraph" font-family="Liberation Sans" font-size="353px" font-weight="400"><tspan class="TextPosition" x="1651" y="7878"><tspan fill="rgb(0,0,0)" stroke="none">1</tspan></tspan></tspan></text>
 <text class="TextShape"><tspan class="TextParagraph" font-family="Liberation Sans" font-size="353px" font-weight="400"><tspan class="TextPosition" x="2851" y="7878"><tspan fill="rgb(0,0,0)" stroke="none">4</tspan></tspan></tspan></text>
 <text class="TextShape"><tspan class="TextParagraph" font-family="Liberation Sans" font-size="353px" font-weight="400"><tspan class="TextPosition" x="4051" y="7878"><tspan fill="rgb(0,0,0)" stroke="none">7</tspan></tspan></tspan></text>
 <text class="TextShape"><tspan class="TextParagraph" font-family="Liberation Sans" font-size="353px" font-weight="400"><tspan class="TextPosition" x="5151" y="7878"><tspan fill="rgb(0,0,0)" stroke="none">10</tspan></tspan></tspan></text>
 <text class="TextShape"><tspan class="TextParagraph" font-family="Liberation Sans" font-size="353px" font-weight="400"><tspan class="TextPosition" x="6351" y="7878"><tspan fill="rgb(0,0,0)" stroke="none">13</tspan></tspan></tspan></text>
 <text class="TextShape"><tspan class="TextParagraph" font-family="Liberation Sans" font-size="353px" font-weight="400"><tspan class="TextPosition" x="7551" y="7878"><tspan fill="rgb(0,0,0)" stroke="none">16</tspan></tspan></tspan></text>
 <text class="TextShape"><tspan class="TextParagraph" font-family="Liberation Sans" font-size="353px" font-weight="400"><tspan class="TextPosition" x="8751" y="7878"><tspan fill="rgb(0,0,0)" stroke="none">19</tspan></tspan></tspan></text>
 <text class="TextShape"><tspan class="TextParagraph" font-family="Liberation Sans" font-size="353px" font-weight="400"><tspan class="TextPosition" x="9951" y="7878"><tspan fill="rgb(0,0,0)" stroke="none">22</tspan></tspan></tspan></text>
 <text class="TextShape"><tspan class="TextParagraph" font-family="Liberation Sans" font-size="353px" font-weight="400"><tspan class="TextPosition" x="11151" y="7878"><tspan fill="rgb(0,0,0)" stroke="none">25</tspan></tspan></tspan></text>
 <text class="TextShape"><tspan class="TextParagraph" font-family="Liberation Sans" font-size="353px" font-weight="400"><tspan class="TextPosition" x="12351" y="7878"><tspan fill="rgb(0,0,0)" stroke="none">28</tspan></tspan></tspan></text>
 <text class="TextShape"><tspan class="TextParagraph" font-family="Liberation Sans" font-size="353px" font-weight="400"><tspan class="TextPosition" x="13551" y="7878"><tspan fill="rgb(0,0,0)" stroke="none">31</tspan></tspan></tspan></text>
 <text class="TextShape"><tspan class="TextParagraph" font-family="Liberation Sans" font-size="353px" font-weight="400"><tspan class="TextPosition" x="14751" y="7878"><tspan fill="rgb(0,0,0)" stroke="none">34</tspan></tspan></tspan></text>
 <text class="TextShape"><tspan class="TextParagraph" font-family="Liberation Sans" font-size="353px" font-weight="400"><tspan class="TextPosition" x="15951" y="7878"><tspan fill="rgb(0,0,0)" stroke="none">37</tspan></tspan></tspan></text>
 <text class="TextShape"><tspan class="TextParagraph" font-family="Liberation Sans" font-size="353px" font-weight="400"><tspan class="TextPosition" x="17152" y="7878"><tspan fill="rgb(0,0,0)" stroke="none">40</tspan></tspan></tspan></text>
 <text class="TextShape"><tspan class="TextParagraph" font-family="Liberation Sans" font-size="71px" font-weight="400"><tspan class="TextPosition" x="1730" y="248"><tspan fill="rgb(255,255,255)" stroke="none">0</tspan></tspan></tspan></text>
 <text class="TextShape"><tspan class="TextParagraph" font-family="Liberation Sans" font-size="71px" font-weight="400"><tspan class="TextPosition" x="3463" y="248"><tspan fill="rgb(255,255,255)" stroke="none">5</tspan></tspan></tspan></text>
 <text class="TextShape"><tspan class="TextParagraph" font-family="Liberation Sans" font-size="71px" font-weight="400"><tspan class="TextPosition" x="5176" y="248"><tspan fill="rgb(255,255,255)" stroke="none">10</tspan></tspan></tspan></text>
 <text class="TextShape"><tspan class="TextParagraph" font-family="Liberation Sans" font-size="71px" font-weight="400"><tspan class="TextPosition" x="6910" y="248"><tspan fill="rgb(255,255,255)" stroke="none">15</tspan></tspan></tspan></text>
 <text class="TextShape"><tspan class="TextParagraph" font-family="Liberation Sans" font-size="71px" font-weight="400"><tspan class="TextPosition" x="8643" y="248"><tspan fill="rgb(255,255,255)" stroke="none">20</tspan></tspan></tspan></text>
 <text class="TextShape"><tspan class="TextParagraph" font-family="Liberation Sans" font-size="71px" font-weight="400"><tspan class="TextPosition" x="10377" y="248"><tspan fill="rgb(255,255,255)" stroke="none">25</tspan></tspan></tspan></text>
 <text class="TextShape"><tspan class="TextParagraph" font-family="Liberation Sans" font-size="71px" font-weight="400"><tspan class="TextPosition" x="12110" y="248"><tspan fill="rgb(255,255,255)" stroke="none">30</tspan></tspan></tspan></text>
 <text class="TextShape"><tspan class="TextParagraph" font-family="Liberation Sans" font-size="71px" font-weight="400"><tspan class="TextPosition" x="13844" y="248"><tspan fill="rgb(255,255,255)" stroke="none">35</tspan></tspan></tspan></text>
 <text class="TextShape"><tspan class="TextParagraph" font-family="Liberation Sans" font-size="71px" font-weight="400"><tspan class="TextPosition" x="15577" y="248"><tspan fill="rgb(255,255,255)" stroke="none">40</tspan></tspan></tspan></text>
 <text class="TextShape"><tspan class="TextParagraph" font-family="Liberation Sans" font-size="71px" font-weight="400"><tspan class="TextPosition" x="17311" y="248"><tspan fill="rgb(255,255,255)" stroke="none">45</tspan></tspan></tspan></text>
 <text class="TextShape"><tspan class="TextParagraph" font-family="Liberation Sans" font-size="353px" font-weight="400"><tspan class="TextPosition" x="1302" y="7431"><tspan fill="rgb(0,0,0)" stroke="none">0</tspan></tspan></tspan></text>
 <text class="TextShape"><tspan class="TextParagraph" font-family="Liberation Sans" font-size="353px" font-weight="400"><tspan class="TextPosition" x="402" y="6658"><tspan fill="rgb(0,0,0)" stroke="none">10,000</tspan></tspan></tspan></text>
 <text class="TextShape"><tspan class="TextParagraph" font-family="Liberation Sans" font-size="353px" font-weight="400"><tspan class="TextPosition" x="402" y="5886"><tspan fill="rgb(0,0,0)" stroke="none">20,000</tspan></tspan></tspan></text>
 <text class="TextShape"><tspan class="TextParagraph" font-family="Liberation Sans" font-size="353px" font-weight="400"><tspan class="TextPosition" x="402" y="5114"><tspan fill="rgb(0,0,0)" stroke="none">30,000</tspan></tspan></tspan></text>
 <text class="TextShape"><tspan class="TextParagraph" font-family="Liberation Sans" font-size="353px" font-weight="400"><tspan class="TextPosition" x="402" y="4341"><tspan fill="rgb(0,0,0)" stroke="none">40,000</tspan></tspan></tspan></text>
 <text class="TextShape"><tspan class="TextParagraph" font-family="Liberation Sans" font-size="353px" font-weight="400"><tspan class="TextPosition" x="402" y="3569"><tspan fill="rgb(0,0,0)" stroke="none">50,000</tspan></tspan></tspan></text>
 <text class="TextShape"><tspan class="TextParagraph" font-family="Liberation Sans" font-size="353px" font-weight="400"><tspan class="TextPosition" x="402" y="2796"><tspan fill="rgb(0,0,0)" stroke="none">60,000</tspan></tspan></tspan></text>
 <text class="TextShape"><tspan class="TextParagraph" font-family="Liberation Sans" font-size="353px" font-weight="400"><tspan class="TextPosition" x="402" y="2024"><tspan fill="rgb(0,0,0)" stroke="none">70,000</tspan></tspan></tspan></text>
 <text class="TextShape"><tspan class="TextParagraph" font-family="Liberation Sans" font-size="353px" font-weight="400"><tspan class="TextPosition" x="402" y="1252"><tspan fill="rgb(0,0,0)" stroke="none">80,000</tspan></tspan></tspan></text>
 <text class="TextShape"><tspan class="TextParagraph" font-family="Liberation Sans" font-size="353px" font-weight="400"><tspan class="TextPosition" x="402" y="480"><tspan fill="rgb(0,0,0)" stroke="none">90,000</tspan></tspan></tspan></text>
 <text class="TextShape"><tspan class="TextParagraph" font-family="Liberation Sans" font-size="71px" font-weight="400"><tspan class="TextPosition" x="17450" y="7338"><tspan fill="rgb(255,255,255)" stroke="none">0</tspan></tspan></tspan></text>
 <text class="TextShape"><tspan class="TextParagraph" font-family="Liberation Sans" font-size="71px" font-weight="400"><tspan class="TextPosition" x="17450" y="6565"><tspan fill="rgb(255,255,255)" stroke="none">10,000</tspan></tspan></tspan></text>
 <text class="TextShape"><tspan class="TextParagraph" font-family="Liberation Sans" font-size="71px" font-weight="400"><tspan class="TextPosition" x="17450" y="5793"><tspan fill="rgb(255,255,255)" stroke="none">20,000</tspan></tspan></tspan></text>
 <text class="TextShape"><tspan class="TextParagraph" font-family="Liberation Sans" font-size="71px" font-weight="400"><tspan class="TextPosition" x="17450" y="5021"><tspan fill="rgb(255,255,255)" stroke="none">30,000</tspan></tspan></tspan></text>
 <text class="TextShape"><tspan class="TextParagraph" font-family="Liberation Sans" font-size="71px" font-weight="400"><tspan class="TextPosition" x="17450" y="4248"><tspan fill="rgb(255,255,255)" stroke="none">40,000</tspan></tspan></tspan></text>
 <text class="TextShape"><tspan class="TextParagraph" font-family="Liberation Sans" font-size="71px" font-weight="400"><tspan class="TextPosition" x="17450" y="3476"><tspan fill="rgb(255,255,255)" stroke="none">50,000</tspan></tspan></tspan></text>
 <text class="TextShape"><tspan class="TextParagraph" font-family="Liberation Sans" font-size="71px" font-weight="400"><tspan class="TextPosition" x="17450" y="2703"><tspan fill="rgb(255,255,255)" stroke="none">60,000</tspan></tspan></tspan></text>
 <text class="TextShape"><tspan class="TextParagraph" font-family="Liberation Sans" font-size="71px" font-weight="400"><tspan class="TextPosition" x="17450" y="1931"><tspan fill="rgb(255,255,255)" stroke="none">70,000</tspan></tspan></tspan></text>
 <text class="TextShape"><tspan class="TextParagraph" font-family="Liberation Sans" font-size="71px" font-weight="400"><tspan class="TextPosition" x="17450" y="1159"><tspan fill="rgb(255,255,255)" stroke="none">80,000</tspan></tspan></tspan></text>
 <text class="TextShape"><tspan class="TextParagraph" font-family="Liberation Sans" font-size="71px" font-weight="400"><tspan class="TextPosition" x="17450" y="387"><tspan fill="rgb(255,255,255)" stroke="none">90,000</tspan></tspan></tspan></text>
 <path fill="none" stroke="rgb(0,69,134)" stroke-width="51" stroke-linejoin="round" d="M 18183,3810 L 18983,3810"/>
 <path fill="none" stroke="rgb(255,66,14)" stroke-width="51" stroke-linejoin="round" d="M 18183,4307 L 18983,4307"/>
 <text class="TextShape"><tspan class="TextParagraph" font-family="Liberation Sans" font-size="353px" font-weight="400"><tspan class="TextPosition" x="19083" y="3930"><tspan fill="rgb(0,0,0)" stroke="none">read</tspan></tspan></tspan></text>
 <text class="TextShape"><tspan class="TextParagraph" font-family="Liberation Sans" font-size="353px" font-weight="400"><tspan class="TextPosition" x="19083" y="4427"><tspan fill="rgb(0,0,0)" stroke="none">write</tspan></tspan></tspan></text>
</svg>