<?xml version="1.0" encoding="UTF-8"?>
<!DOCTYPE svg PUBLIC "-//W3C//DTD SVG 1.1//EN" "http://www.w3.org/Graphics/SVG/1.1/DTD/svg11.dtd">
<svg width="205mm" height="86mm" viewBox="0 0 20500 8600" version="1.1" baseProfile="tiny" xmlns="http://www.w3.org/2000/svg" stroke-width="28.222" stroke-linejoin="round" xml:space="preserve">
 <path fill="rgb(255,255,255)" stroke="none" d="M 10250,8639 L -6,8639 -6,0 20505,0 20505,8639 10250,8639 Z"/>
 <path fill="none" stroke="rgb(179,179,179)" stroke-linejoin="round" d="M 9342,7843 L 1878,7843 1878,364 16805,364 16805,7843 9342,7843 Z"/>
 <path fill="none" stroke="rgb(238,238,238)" stroke-linejoin="round" d="M 1878,362 L 1878,7842"/>
 <path fill="none" stroke="rgb(238,238,238)" stroke-linejoin="round" d="M 3370,362 L 3370,7842"/>
 <path fill="none" stroke="rgb(238,238,238)" stroke-linejoin="round" d="M 4863,362 L 4863,7842"/>
 <path fill="none" stroke="rgb(238,238,238)" stroke-linejoin="round" d="M 6356,362 L 6356,7842"/>
 <path fill="none" stroke="rgb(238,238,238)" stroke-linejoin="round" d="M 7849,362 L 7849,7842"/>
 <path fill="none" stroke="rgb(238,238,238)" stroke-linejoin="round" d="M 9342,362 L 9342,7842"/>
 <path fill="none" stroke="rgb(238,238,238)" stroke-linejoin="round" d="M 10833,362 L 10833,7842"/>
 <path fill="none" stroke="rgb(238,238,238)" stroke-linejoin="round" d="M 12326,362 L 12326,7842"/>
 <path fill="none" stroke="rgb(238,238,238)" stroke-linejoin="round" d="M 13819,362 L 13819,7842"/>
 <path fill="none" stroke="rgb(238,238,238)" stroke-linejoin="round" d="M 15312,362 L 15312,7842"/>
 <path fill="none" stroke="rgb(238,238,238)" stroke-linejoin="round" d="M 16805,362 L 16805,7842"/>
 <path fill="none" stroke="rgb(238,238,238)" stroke-linejoin="round" d="M 16805,7842 L 1878,7842"/>
 <path fill="none" stroke="rgb(238,238,238)" stroke-linejoin="round" d="M 16805,6346 L 1878,6346"/>
 <path fill="none" stroke="rgb(238,238,238)" stroke-linejoin="round" d="M 16805,4850 L 1878,4850"/>
 <path fill="none" stroke="rgb(238,238,238)" stroke-linejoin="round" d="M 16805,3355 L 1878,3355"/>
 <path fill="none" stroke="rgb(238,238,238)" stroke-linejoin="round" d="M 16805,1859 L 1878,1859"/>
 <path fill="none" stroke="rgb(238,238,238)" stroke-linejoin="round" d="M 16805,362 L 1878,362"/>
 <path fill="none" stroke="rgb(179,179,179)" stroke-linejoin="round" d="M 1878,7992 L 1878,7842"/>
 <path fill="none" stroke="rgb(179,179,179)" stroke-linejoin="round" d="M 1878,7992 L 1878,7842"/>
 <path fill="none" stroke="rgb(179,179,179)" stroke-linejoin="round" d="M 3370,7992 L 3370,7842"/>
 <path fill="none" stroke="rgb(179,179,179)" stroke-linejoin="round" d="M 3370,7992 L 3370,7842"/>
 <path fill="none" stroke="rgb(179,179,179)" stroke-linejoin="round" d="M 4863,7992 L 4863,7842"/>
 <path fill="none" stroke="rgb(179,179,179)" stroke-linejoin="round" d="M 4863,7992 L 4863,7842"/>
 <path fill="none" stroke="rgb(179,179,179)" stroke-linejoin="round" d="M 6356,7992 L 6356,7842"/>
 <path fill="none" stroke="rgb(179,179,179)" stroke-linejoin="round" d="M 6356,7992 L 6356,7842"/>
 <path fill="none" stroke="rgb(179,179,179)" stroke-linejoin="round" d="M 7849,7992 L 7849,7842"/>
 <path fill="none" stroke="rgb(179,179,179)" stroke-linejoin="round" d="M 7849,7992 L 7849,7842"/>
 <path fill="none" stroke="rgb(179,179,179)" stroke-linejoin="round" d="M 9342,7992 L 9342,7842"/>
 <path fill="none" stroke="rgb(179,179,179)" stroke-linejoin="round" d="M 9342,7992 L 9342,7842"/>
 <path fill="none" stroke="rgb(179,179,179)" stroke-linejoin="round" d="M 10833,7992 L 10833,7842"/>
 <path fill="none" stroke="rgb(179,179,179)" stroke-linejoin="round" d="M 10833,7992 L 10833,7842"/>
 <path fill="none" stroke="rgb(179,179,179)" stroke-linejoin="round" d="M 12326,7992 L 12326,7842"/>
 <path fill="none" stroke="rgb(179,179,179)" stroke-linejoin="round" d="M 12326,7992 L 12326,7842"/>
 <path fill="none" stroke="rgb(179,179,179)" stroke-linejoin="round" d="M 13819,7992 L 13819,7842"/>
 <path fill="none" stroke="rgb(179,179,179)" stroke-linejoin="round" d="M 13819,7992 L 13819,7842"/>
 <path fill="none" stroke="rgb(179,179,179)" stroke-linejoin="round" d="M 15312,7992 L 15312,7842"/>
 <path fill="none" stroke="rgb(179,179,179)" stroke-linejoin="round" d="M 15312,7992 L 15312,7842"/>
 <path fill="none" stroke="rgb(179,179,179)" stroke-linejoin="round" d="M 16805,7992 L 16805,7842"/>
 <path fill="none" stroke="rgb(179,179,179)" stroke-linejoin="round" d="M 16805,7992 L 16805,7842"/>
 <path fill="none" stroke="rgb(179,179,179)" stroke-linejoin="round" d="M 1878,7842 L 16805,7842"/>
 <path fill="none" stroke="rgb(179,179,179)" stroke-linejoin="round" d="M 1878,362 L 16805,362"/>
 <path fill="none" stroke="rgb(179,179,179)" stroke-linejoin="round" d="M 1728,7842 L 1878,7842"/>
 <path fill="none" stroke="rgb(179,179,179)" stroke-linejoin="round" d="M 1728,7842 L 1878,7842"/>
 <path fill="none" stroke="rgb(179,179,179)" stroke-linejoin="round" d="M 1728,6346 L 1878,6346"/>
 <path fill="none" stroke="rgb(179,179,179)" stroke-linejoin="round" d="M 1728,6346 L 1878,6346"/>
 <path fill="none" stroke="rgb(179,179,179)" stroke-linejoin="round" d="M 1728,4850 L 1878,4850"/>
 <path fill="none" stroke="rgb(179,179,179)" stroke-linejoin="round" d="M 1728,4850 L 1878,4850"/>
 <path fill="none" stroke="rgb(179,179,179)" stroke-linejoin="round" d="M 1728,3354 L 1878,3354"/>
 <path fill="none" stroke="rgb(179,179,179)" stroke-linejoin="round" d="M 1728,3354 L 1878,3354"/>
 <path fill="none" stroke="rgb(179,179,179)" stroke-linejoin="round" d="M 1728,1858 L 1878,1858"/>
 <path fill="none" stroke="rgb(179,179,179)" stroke-linejoin="round" d="M 1728,1858 L 1878,1858"/>
 <path fill="none" stroke="rgb(179,179,179)" stroke-linejoin="round" d="M 1728,362 L 1878,362"/>
 <path fill="none" stroke="rgb(179,179,179)" stroke-linejoin="round" d="M 1728,362 L 1878,362"/>
 <path fill="none" stroke="rgb(179,179,179)" stroke-linejoin="round" d="M 1766,7542 L 1878,7542"/>
 <path fill="none" stroke="rgb(179,179,179)" stroke-linejoin="round" d="M 1766,7542 L 1878,7542"/>
 <path fill="none" stroke="rgb(179,179,179)" stroke-linejoin="round" d="M 1766,7243 L 1878,7243"/>
 <path fill="none" stroke="rgb(179,179,179)" stroke-linejoin="round" d="M 1766,7243 L 1878,7243"/>
 <path fill="none" stroke="rgb(179,179,179)" stroke-linejoin="round" d="M 1766,6944 L 1878,6944"/>
 <path fill="none" stroke="rgb(179,179,179)" stroke-linejoin="round" d="M 1766,6944 L 1878,6944"/>
 <path fill="none" stroke="rgb(179,179,179)" stroke-linejoin="round" d="M 1766,6645 L 1878,6645"/>
 <path fill="none" stroke="rgb(179,179,179)" stroke-linejoin="round" d="M 1766,6645 L 1878,6645"/>
 <path fill="none" stroke="rgb(179,179,179)" stroke-linejoin="round" d="M 1766,6046 L 1878,6046"/>
 <path fill="none" stroke="rgb(179,179,179)" stroke-linejoin="round" d="M 1766,6046 L 1878,6046"/>
 <path fill="none" stroke="rgb(179,179,179)" stroke-linejoin="round" d="M 1766,5747 L 1878,5747"/>
 <path fill="none" stroke="rgb(179,179,179)" stroke-linejoin="round" d="M 1766,5747 L 1878,5747"/>
 <path fill="none" stroke="rgb(179,179,179)" stroke-linejoin="round" d="M 1766,5448 L 1878,5448"/>
 <path fill="none" stroke="rgb(179,179,179)" stroke-linejoin="round" d="M 1766,5448 L 1878,5448"/>
 <path fill="none" stroke="rgb(179,179,179)" stroke-linejoin="round" d="M 1766,5149 L 1878,5149"/>
 <path fill="none" stroke="rgb(179,179,179)" stroke-linejoin="round" d="M 1766,5149 L 1878,5149"/>
 <path fill="none" stroke="rgb(179,179,179)" stroke-linejoin="round" d="M 1766,4550 L 1878,4550"/>
 <path fill="none" stroke="rgb(179,179,179)" stroke-linejoin="round" d="M 1766,4550 L 1878,4550"/>
 <path fill="none" stroke="rgb(179,179,179)" stroke-linejoin="round" d="M 1766,4252 L 1878,4252"/>
 <path fill="none" stroke="rgb(179,179,179)" stroke-linejoin="round" d="M 1766,4252 L 1878,4252"/>
 <path fill="none" stroke="rgb(179,179,179)" stroke-linejoin="round" d="M 1766,3953 L 1878,3953"/>
 <path fill="none" stroke="rgb(179,179,179)" stroke-linejoin="round" d="M 1766,3953 L 1878,3953"/>
 <path fill="none" stroke="rgb(179,179,179)" stroke-linejoin="round" d="M 1766,3654 L 1878,3654"/>
 <path fill="none" stroke="rgb(179,179,179)" stroke-linejoin="round" d="M 1766,3654 L 1878,3654"/>
 <path fill="none" stroke="rgb(179,179,179)" stroke-linejoin="round" d="M 1766,3055 L 1878,3055"/>
 <path fill="none" stroke="rgb(179,179,179)" stroke-linejoin="round" d="M 1766,3055 L 1878,3055"/>
 <path fill="none" stroke="rgb(179,179,179)" stroke-linejoin="round" d="M 1766,2756 L 1878,2756"/>
 <path fill="none" stroke="rgb(179,179,179)" stroke-linejoin="round" d="M 1766,2756 L 1878,2756"/>
 <path fill="none" stroke="rgb(179,179,179)" stroke-linejoin="round" d="M 1766,2457 L 1878,2457"/>
 <path fill="none" stroke="rgb(179,179,179)" stroke-linejoin="round" d="M 1766,2457 L 1878,2457"/>
 <path fill="none" stroke="rgb(179,179,179)" stroke-linejoin="round" d="M 1766,2158 L 1878,2158"/>
 <path fill="none" stroke="rgb(179,179,179)" stroke-linejoin="round" d="M 1766,2158 L 1878,2158"/>
 <path fill="none" stroke="rgb(179,179,179)" stroke-linejoin="round" d="M 1766,1559 L 1878,1559"/>
 <path fill="none" stroke="rgb(179,179,179)" stroke-linejoin="round" d="M 1766,1559 L 1878,1559"/>
 <path fill="none" stroke="rgb(179,179,179)" stroke-linejoin="round" d="M 1766,1260 L 1878,1260"/>
 <path fill="none" stroke="rgb(179,179,179)" stroke-linejoin="round" d="M 1766,1260 L 1878,1260"/>
 <path fill="none" stroke="rgb(179,179,179)" stroke-linejoin="round" d="M 1766,961 L 1878,961"/>
 <path fill="none" stroke="rgb(179,179,179)" stroke-linejoin="round" d="M 1766,961 L 1878,961"/>
 <path fill="none" stroke="rgb(179,179,179)" stroke-linejoin="round" d="M 1766,662 L 1878,662"/>
 <path fill="none" stroke="rgb(179,179,179)" stroke-linejoin="round" d="M 1766,662 L 1878,662"/>
 <path fill="none" stroke="rgb(179,179,179)" stroke-linejoin="round" d="M 1878,7842 L 1878,362"/>
 <path fill="none" stroke="rgb(179,179,179)" stroke-linejoin="round" d="M 16805,7842 L 16805,362"/>
 <path fill="none" stroke="rgb(197,0,11)" stroke-width="51" stroke-linejoin="round" d="M 2069,7460 L 2279,7453 2375,7681 2451,7706 2527,7695 2681,7549 2890,7453 3100,7449 3215,7647 3291,7704 3349,7736 3482,7574 3693,7459 3903,7459 4036,7655 4132,7654 4209,7701 4305,7664 4514,7453 4724,7450 4878,7543 4935,7728 5030,7681 5106,7697 5317,7452 5527,7457 5718,7499 5775,7728 5890,7654 5966,7701 6177,7454 6387,7454 6540,7544 6616,7711 6731,7641 6826,7676 7037,7452 7247,7449 7380,7586 7458,7698 7571,7646 7667,7687 7877,7446 8088,7452 8222,7575 8317,7673 8431,7657 8526,7666 8718,7466 8928,7453 9062,7584 9138,7696 9234,7666 9330,7664 9482,7561 9692,7453 9846,7560 9979,7603 10074,7650 10170,7651 10323,7550 10532,7427 10686,7550 10838,7565 10914,7701 11029,7628 11163,7574 11374,7453 11526,7563 11698,7595 11813,7655 11908,7668 12099,7478 12310,7454 12425,7669 12557,7634 12634,7710 12729,7660 12920,7481 13131,7443 13284,7554 13417,7635 13513,7664 13608,7673 13819,7444 14029,7516 14220,7520 14277,7732 14373,7689 14507,7578 14718,7447 14909,7527 15080,7579 15156,7724 15271,7637 15462,7484 15673,7453 15806,7577 15940,7590 16016,7716 16112,7666 16322,7446 16533,7453 16666,7576 16800,7582 16805,7446"/>
 <path fill="none" stroke="rgb(0,69,134)" stroke-width="51" stroke-linejoin="round" d="M 1981,5776 L 2088,5734 2194,5723 2301,5702 2407,5767 2512,5749 2621,5689 2730,5687 2837,5717 2943,5720 3051,5710 3160,5690 3267,5708 3373,5698 3481,5724 3588,5709 3694,5706 3802,5700 3912,5661 4021,5679 4127,5760 4236,5694 4341,5738 4448,5724 4557,5674 4663,5701 4771,5709 4878,5732 4983,5753 5091,5669 5195,5780 5299,5738 5411,5658 5520,5673 5629,5668 5735,5698 5842,5732 5950,5725 6059,5685 6165,5698 6274,5684 6387,5620 6496,5690 6605,5681 6711,5703 6819,5717 6926,5732 7032,5734 7140,5733 7250,5658 7359,5671 7468,5664 7576,5735 7680,5756 7786,5764 7895,5670 7999,5753 8107,5728 8213,5704 8322,5685 8431,5668 8543,5632 8652,5682 8761,5680 8867,5723 8977,5639 9083,5747 9188,5760 9294,5759 9398,5767 9507,5664 9615,5719 9719,5754 9825,5764 9928,5776 10033,5746 10140,5722 10246,5726 10353,5713 10462,5668 10571,5693 10681,5640 10792,5656 10900,5688 11008,5724 11114,5742 11220,5731 11327,5717 11432,5740 11538,5744 11642,5759 11750,5704 11856,5705 11962,5747 12066,5740 12172,5769 12278,5732 12384,5763 12489,5760 12595,5759 12699,5753 12807,5706 12913,5724 13019,5744 13123,5738 13231,5728 13335,5740 13441,5747 13547,5730 13655,5718 13762,5714 13867,5750 13971,5760 14077,5744 14182,5755 14288,5743 14392,5743 14497,5764 14603,5742 14707,5740 14813,5746 14919,5730 15027,5717 15134,5722 15239,5764 15346,5716 15451,5744 15557,5755 15661,5737 15770,5671 15874,5765 15982,5719 16089,5717 16192,5777 16297,5737 16404,5736 16512,5719 16619,5686 16731,5638 16805,5697"/>
 <path fill="none" stroke="rgb(255,66,14)" stroke-width="51" stroke-linejoin="round" d="M 2178,1857 L 2500,1385 2831,1219 3137,1774 3466,1425 3782,1505 4121,1095 4435,1579 4735,1833 5023,2064 5296,2379 5632,1105 5963,1227 6298,1161 6632,1168 6935,1782 7232,1925 7553,1425 7876,1383 8153,2291 8492,1055 8823,1252 9138,1527 9482,983 9813,1225 10137,1352 10450,1566 10733,2177 11030,1872 11327,1928 11626,1878 11928,1822 12217,2056 12517,1859 12843,1366 13171,1278 13490,1461 13797,1736 14083,2149 14371,2066 14683,1606 15006,1377 15333,1327 15654,1444 15973,1474 16310,1090 16645,1166 16805,1296"/>
 <text class="TextShape"><tspan class="TextParagraph" font-family="Liberation Sans" font-size="353px" font-weight="400"><tspan class="TextPosition" x="1620" y="8410"><tspan fill="rgb(0,0,0)" stroke="none">0%</tspan></tspan></tspan></text>
 <text class="TextShape"><tspan class="TextParagraph" font-family="Liberation Sans" font-size="353px" font-weight="400"><tspan class="TextPosition" x="3013" y="8410"><tspan fill="rgb(0,0,0)" stroke="none">10%</tspan></tspan></tspan></text>
 <text class="TextShape"><tspan class="TextParagraph" font-family="Liberation Sans" font-size="353px" font-weight="400"><tspan class="TextPosition" x="4506" y="8410"><tspan fill="rgb(0,0,0)" stroke="none">20%</tspan></tspan></tspan></text>
 <text class="TextShape"><tspan class="TextParagraph" font-family="Liberation Sans" font-size="353px" font-weight="400"><tspan class="TextPosition" x="5999" y="8410"><tspan fill="rgb(0,0,0)" stroke="none">30%</tspan></tspan></tspan></text>
 <text class="TextShape"><tspan class="TextParagraph" font-family="Liberation Sans" font-size="353px" font-weight="400"><tspan class="TextPosition" x="7492" y="8410"><tspan fill="rgb(0,0,0)" stroke="none">40%</tspan></tspan></tspan></text>
 <text class="TextShape"><tspan class="TextParagraph" font-family="Liberation Sans" font-size="353px" font-weight="400"><tspan class="TextPosition" x="8985" y="8410"><tspan fill="rgb(0,0,0)" stroke="none">50%</tspan></tspan></tspan></text>
 <text class="TextShape"><tspan class="TextParagraph" font-family="Liberation Sans" font-size="353px" font-weight="400"><tspan class="TextPosition" x="10477" y="8410"><tspan fill="rgb(0,0,0)" stroke="none">60%</tspan></tspan></tspan></text>
 <text class="TextShape"><tspan class="TextParagraph" font-family="Liberation Sans" font-size="353px" font-weight="400"><tspan class="TextPosition" x="11970" y="8410"><tspan fill="rgb(0,0,0)" stroke="none">70%</tspan></tspan></tspan></text>
 <text class="TextShape"><tspan class="TextParagraph" font-family="Liberation Sans" font-size="353px" font-weight="400"><tspan class="TextPosition" x="13463" y="8410"><tspan fill="rgb(0,0,0)" stroke="none">80%</tspan></tspan></tspan></text>
 <text class="TextShape"><tspan class="TextParagraph" font-family="Liberation Sans" font-size="353px" font-weight="400"><tspan class="TextPosition" x="14956" y="8410"><tspan fill="rgb(0,0,0)" stroke="none">90%</tspan></tspan></tspan></text>
 <text class="TextShape"><tspan class="TextParagraph" font-family="Liberation Sans" font-size="353px" font-weight="400"><tspan class="TextPosition" x="16349" y="8410"><tspan fill="rgb(0,0,0)" stroke="none">100%</tspan></tspan></tspan></text>
 <text class="TextShape"><tspan class="TextParagraph" font-family="Liberation Sans" font-size="71px" font-weight="400"><tspan class="TextPosition" x="1858" y="250"><tspan fill="rgb(255,255,255)" stroke="none">0</tspan></tspan></tspan></text>
 <text class="TextShape"><tspan class="TextParagraph" font-family="Liberation Sans" font-size="71px" font-weight="400"><tspan class="TextPosition" x="4326" y="250"><tspan fill="rgb(255,255,255)" stroke="none">20</tspan></tspan></tspan></text>
 <text class="TextShape"><tspan class="TextParagraph" font-family="Liberation Sans" font-size="71px" font-weight="400"><tspan class="TextPosition" x="6814" y="250"><tspan fill="rgb(255,255,255)" stroke="none">40</tspan></tspan></tspan></text>
 <text class="TextShape"><tspan class="TextParagraph" font-family="Liberation Sans" font-size="71px" font-weight="400"><tspan class="TextPosition" x="9302" y="250"><tspan fill="rgb(255,255,255)" stroke="none">60</tspan></tspan></tspan></text>
 <text class="TextShape"><tspan class="TextParagraph" font-family="Liberation Sans" font-size="71px" font-weight="400"><tspan class="TextPosition" x="11790" y="250"><tspan fill="rgb(255,255,255)" stroke="none">80</tspan></tspan></tspan></text>
 <text class="TextShape"><tspan class="TextParagraph" font-family="Liberation Sans" font-size="71px" font-weight="400"><tspan class="TextPosition" x="14258" y="250"><tspan fill="rgb(255,255,255)" stroke="none">100</tspan></tspan></tspan></text>
 <text class="TextShape"><tspan class="TextParagraph" font-family="Liberation Sans" font-size="71px" font-weight="400"><tspan class="TextPosition" x="16746" y="250"><tspan fill="rgb(255,255,255)" stroke="none">120</tspan></tspan></tspan></text>
 <text class="TextShape"><tspan class="TextParagraph" font-family="Liberation Sans" font-size="353px" font-weight="400"><tspan class="TextPosition" x="1430" y="7963"><tspan fill="rgb(0,0,0)" stroke="none">0</tspan></tspan></tspan></text>
 <text class="TextShape"><tspan class="TextParagraph" font-family="Liberation Sans" font-size="353px" font-weight="400"><tspan class="TextPosition" x="728" y="6467"><tspan fill="rgb(0,0,0)" stroke="none">5,000</tspan></tspan></tspan></text>
 <text class="TextShape"><tspan class="TextParagraph" font-family="Liberation Sans" font-size="353px" font-weight="400"><tspan class="TextPosition" x="530" y="4971"><tspan fill="rgb(0,0,0)" stroke="none">10,000</tspan></tspan></tspan></text>
 <text class="TextShape"><tspan class="TextParagraph" font-family="Liberation Sans" font-size="353px" font-weight="400"><tspan class="TextPosition" x="530" y="3474"><tspan fill="rgb(0,0,0)" stroke="none">15,000</tspan></tspan></tspan></text>
 <text class="TextShape"><tspan class="TextParagraph" font-family="Liberation Sans" font-size="353px" font-weight="400"><tspan class="TextPosition" x="530" y="1978"><tspan fill="rgb(0,0,0)" stroke="none">20,000</tspan></tspan></tspan></text>
 <text class="TextShape"><tspan class="TextParagraph" font-family="Liberation Sans" font-size="353px" font-weight="400"><tspan class="TextPosition" x="530" y="482"><tspan fill="rgb(0,0,0)" stroke="none">25,000</tspan></tspan></tspan></text>
 <text class="TextShape"><tspan class="TextParagraph" font-family="Liberation Sans" font-size="71px" font-weight="400"><tspan class="TextPosition" x="16905" y="7870"><tspan fill="rgb(255,255,255)" stroke="none">0</tspan></tspan></tspan></text>
 <text class="TextShape"><tspan class="TextParagraph" font-family="Liberation Sans" font-size="71px" font-weight="400"><tspan class="TextPosition" x="16905" y="6374"><tspan fill="rgb(255,255,255)" stroke="none">5,000</tspan></tspan></tspan></text>
 <text class="TextShape"><tspan class="TextParagraph" font-family="Liberation Sans" font-size="71px" font-weight="400"><tspan class="TextPosition" x="16905" y="4878"><tspan fill="rgb(255,255,255)" stroke="none">10,000</tspan></tspan></tspan></text>
 <text class="TextShape"><tspan class="TextParagraph" font-family="Liberation Sans" font-size="71px" font-weight="400"><tspan class="TextPosition" x="16905" y="3381"><tspan fill="rgb(255,255,255)" stroke="none">15,000</tspan></tspan></tspan></text>
 <text class="TextShape"><tspan class="TextParagraph" font-family="Liberation Sans" font-size="71px" font-weight="400"><tspan class="TextPosition" x="16905" y="1885"><tspan fill="rgb(255,255,255)" stroke="none">20,000</tspan></tspan></tspan></text>
 <text class="TextShape"><tspan class="TextParagraph" font-family="Liberation Sans" font-size="71px" font-weight="400"><tspan class="TextPosition" x="16905" y="389"><tspan fill="rgb(255,255,255)" stroke="none">25,000</tspan></tspan></tspan></text>
 <path fill="none" stroke="rgb(255,66,14)" stroke-width="51" stroke-linejoin="round" d="M 17353,3837 L 18153,3837"/>
 <path fill="none" stroke="rgb(0,69,134)" stroke-width="51" stroke-linejoin="round" d="M 17353,4319 L 18153,4319"/>
 <path fill="none" stroke="rgb(197,0,11)" stroke-width="51" stroke-linejoin="round" d="M 17353,4800 L 18153,4800"/>
 <text class="TextShape"><tspan class="TextParagraph" font-family="Liberation Sans" font-size="353px" font-weight="400"><tspan class="TextPosition" x="18253" y="3957"><tspan fill="rgb(0,0,0)" stroke="none">write</tspan></tspan></tspan></text>
 <text class="TextShape"><tspan class="TextParagraph" font-family="Liberation Sans" font-size="353px" font-weight="400"><tspan class="TextPosition" x="18253" y="4438"><tspan fill="rgb(0,0,0)" stroke="none">read</tspan></tspan></tspan></text>
 <text class="TextShape"><tspan class="TextParagraph" font-family="Liberation Sans" font-size="353px" font-weight="400"><tspan class="TextPosition" x="18253" y="4920"><tspan fill="rgb(0,0,0)" stroke="none">write (sync)</tspan></tspan></tspan></text>
</svg>