<?xml version="1.0" encoding="UTF-8"?>
<!DOCTYPE svg PUBLIC "-//W3C//DTD SVG 1.1//EN" "http://www.w3.org/Graphics/SVG/1.1/DTD/svg11.dtd">
<svg width="173mm" height="59mm" viewBox="0 0 17300 5900" version="1.1" baseProfile="tiny" xmlns="http://www.w3.org/2000/svg" stroke-width="28.222" stroke-linejoin="round" xml:space="preserve">
 <path fill="rgb(255,255,255)" stroke="none" d="M 8654,5911 L 2,5911 2,39 17305,39 17305,5911 8654,5911 Z"/>
 <path fill="none" stroke="rgb(221,221,221)" stroke-linejoin="round" d="M 9032,5359 L 1665,5359 1665,258 16400,258 16400,5359 9032,5359 Z"/>
 <path fill="none" stroke="rgb(221,221,221)" stroke-linejoin="round" stroke-dasharray="53,53" d="M 16400,5358 L 1665,5358"/>
 <path fill="none" stroke="rgb(221,221,221)" stroke-linejoin="round" stroke-dasharray="53,53" d="M 16400,4198 L 1665,4198"/>
 <path fill="none" stroke="rgb(221,221,221)" stroke-linejoin="round" stroke-dasharray="53,53" d="M 16400,3038 L 1665,3038"/>
 <path fill="none" stroke="rgb(221,221,221)" stroke-linejoin="round" stroke-dasharray="53,53" d="M 16400,1879 L 1665,1879"/>
 <path fill="none" stroke="rgb(221,221,221)" stroke-linejoin="round" stroke-dasharray="53,53" d="M 16400,720 L 1665,720"/>
 <path fill="none" stroke="rgb(179,179,179)" stroke-linejoin="round" d="M 1665,5358 L 16400,5358"/>
 <path fill="none" stroke="rgb(179,179,179)" stroke-linejoin="round" d="M 1665,257 L 16400,257"/>
 <path fill="none" stroke="rgb(179,179,179)" stroke-linejoin="round" d="M 1515,5358 L 1665,5358"/>
 <path fill="none" stroke="rgb(179,179,179)" stroke-linejoin="round" d="M 1515,5358 L 1665,5358"/>
 <path fill="none" stroke="rgb(179,179,179)" stroke-linejoin="round" d="M 1515,4198 L 1665,4198"/>
 <path fill="none" stroke="rgb(179,179,179)" stroke-linejoin="round" d="M 1515,4198 L 1665,4198"/>
 <path fill="none" stroke="rgb(179,179,179)" stroke-linejoin="round" d="M 1515,3038 L 1665,3038"/>
 <path fill="none" stroke="rgb(179,179,179)" stroke-linejoin="round" d="M 1515,3038 L 1665,3038"/>
 <path fill="none" stroke="rgb(179,179,179)" stroke-linejoin="round" d="M 1515,1879 L 1665,1879"/>
 <path fill="none" stroke="rgb(179,179,179)" stroke-linejoin="round" d="M 1515,1879 L 1665,1879"/>
 <path fill="none" stroke="rgb(179,179,179)" stroke-linejoin="round" d="M 1515,720 L 1665,720"/>
 <path fill="none" stroke="rgb(179,179,179)" stroke-linejoin="round" d="M 1515,720 L 1665,720"/>
 <path fill="none" stroke="rgb(179,179,179)" stroke-linejoin="round" d="M 1665,5358 L 1665,257"/>
 <path fill="none" stroke="rgb(179,179,179)" stroke-linejoin="round" d="M 16400,5358 L 16400,257"/>
 <path fill="rgb(0,69,134)" stroke="none" d="M 16371,5358 L 16393,5358 16393,5172 16371,5172 16371,5358 Z"/>
 <path fill="rgb(0,69,134)" stroke="none" d="M 16337,5358 L 16358,5358 16358,5172 16337,5172 16337,5358 Z"/>
 <path fill="rgb(0,69,134)" stroke="none" d="M 16267,5358 L 16289,5358 16289,5264 16267,5264 16267,5358 Z"/>
 <path fill="rgb(0,69,134)" stroke="none" d="M 16233,5358 L 16254,5358 16254,5218 16233,5218 16233,5358 Z"/>
 <path fill="rgb(0,69,134)" stroke="none" d="M 16198,5358 L 16220,5358 16220,5264 16198,5264 16198,5358 Z"/>
 <path fill="rgb(0,69,134)" stroke="none" d="M 16163,5358 L 16185,5358 16185,5172 16163,5172 16163,5358 Z"/>
 <path fill="rgb(0,69,134)" stroke="none" d="M 16129,5358 L 16150,5358 16150,5311 16129,5311 16129,5358 Z"/>
 <path fill="rgb(0,69,134)" stroke="none" d="M 16094,5358 L 16116,5358 16116,5218 16094,5218 16094,5358 Z"/>
 <path fill="rgb(0,69,134)" stroke="none" d="M 16059,5358 L 16081,5358 16081,5172 16059,5172 16059,5358 Z"/>
 <path fill="rgb(0,69,134)" stroke="none" d="M 16025,5358 L 16046,5358 16046,5311 16025,5311 16025,5358 Z"/>
 <path fill="rgb(0,69,134)" stroke="none" d="M 15990,5358 L 16012,5358 16012,5218 15990,5218 15990,5358 Z"/>
 <path fill="rgb(0,69,134)" stroke="none" d="M 15921,5358 L 15942,5358 15942,5311 15921,5311 15921,5358 Z"/>
 <path fill="rgb(0,69,134)" stroke="none" d="M 15886,5358 L 15908,5358 15908,5172 15886,5172 15886,5358 Z"/>
 <path fill="rgb(0,69,134)" stroke="none" d="M 15851,5358 L 15873,5358 15873,5172 15851,5172 15851,5358 Z"/>
 <path fill="rgb(0,69,134)" stroke="none" d="M 15817,5358 L 15838,5358 15838,5172 15817,5172 15817,5358 Z"/>
 <path fill="rgb(0,69,134)" stroke="none" d="M 15782,5358 L 15804,5358 15804,5172 15782,5172 15782,5358 Z"/>
 <path fill="rgb(0,69,134)" stroke="none" d="M 15747,5358 L 15769,5358 15769,5218 15747,5218 15747,5358 Z"/>
 <path fill="rgb(0,69,134)" stroke="none" d="M 15609,5358 L 15630,5358 15630,5311 15609,5311 15609,5358 Z"/>
 <path fill="rgb(0,69,134)" stroke="none" d="M 15574,5358 L 15596,5358 15596,5264 15574,5264 15574,5358 Z"/>
 <path fill="rgb(0,69,134)" stroke="none" d="M 15539,5358 L 15561,5358 15561,5218 15539,5218 15539,5358 Z"/>
 <path fill="rgb(0,69,134)" stroke="none" d="M 15505,5358 L 15526,5358 15526,5264 15505,5264 15505,5358 Z"/>
 <path fill="rgb(0,69,134)" stroke="none" d="M 15470,5358 L 15492,5358 15492,5172 15470,5172 15470,5358 Z"/>
 <path fill="rgb(0,69,134)" stroke="none" d="M 15400,5358 L 15422,5358 15422,5311 15400,5311 15400,5358 Z"/>
 <path fill="rgb(0,69,134)" stroke="none" d="M 15366,5358 L 15387,5358 15387,5218 15366,5218 15366,5358 Z"/>
 <path fill="rgb(0,69,134)" stroke="none" d="M 15296,5358 L 15318,5358 15318,5218 15296,5218 15296,5358 Z"/>
 <path fill="rgb(0,69,134)" stroke="none" d="M 15262,5358 L 15283,5358 15283,5311 15262,5311 15262,5358 Z"/>
 <path fill="rgb(0,69,134)" stroke="none" d="M 15227,5358 L 15249,5358 15249,5172 15227,5172 15227,5358 Z"/>
 <path fill="rgb(0,69,134)" stroke="none" d="M 15158,5358 L 15179,5358 15179,5264 15158,5264 15158,5358 Z"/>
 <path fill="rgb(0,69,134)" stroke="none" d="M 15123,5358 L 15145,5358 15145,5264 15123,5264 15123,5358 Z"/>
 <path fill="rgb(0,69,134)" stroke="none" d="M 15088,5358 L 15110,5358 15110,5311 15088,5311 15088,5358 Z"/>
 <path fill="rgb(0,69,134)" stroke="none" d="M 15054,5358 L 15075,5358 15075,5264 15054,5264 15054,5358 Z"/>
 <path fill="rgb(0,69,134)" stroke="none" d="M 15019,5358 L 15041,5358 15041,5264 15019,5264 15019,5358 Z"/>
 <path fill="rgb(0,69,134)" stroke="none" d="M 14984,5358 L 15006,5358 15006,5172 14984,5172 14984,5358 Z"/>
 <path fill="rgb(0,69,134)" stroke="none" d="M 14915,5358 L 14937,5358 14937,5264 14915,5264 14915,5358 Z"/>
 <path fill="rgb(0,69,134)" stroke="none" d="M 14880,5358 L 14902,5358 14902,5172 14880,5172 14880,5358 Z"/>
 <path fill="rgb(0,69,134)" stroke="none" d="M 14811,5358 L 14833,5358 14833,5311 14811,5311 14811,5358 Z"/>
 <path fill="rgb(0,69,134)" stroke="none" d="M 14776,5358 L 14798,5358 14798,5218 14776,5218 14776,5358 Z"/>
 <path fill="rgb(0,69,134)" stroke="none" d="M 14742,5358 L 14763,5358 14763,5172 14742,5172 14742,5358 Z"/>
 <path fill="rgb(0,69,134)" stroke="none" d="M 14672,5358 L 14694,5358 14694,5311 14672,5311 14672,5358 Z"/>
 <path fill="rgb(0,69,134)" stroke="none" d="M 14638,5358 L 14659,5358 14659,5264 14638,5264 14638,5358 Z"/>
 <path fill="rgb(0,69,134)" stroke="none" d="M 14534,5358 L 14555,5358 14555,5218 14534,5218 14534,5358 Z"/>
 <path fill="rgb(0,69,134)" stroke="none" d="M 14499,5358 L 14521,5358 14521,5172 14499,5172 14499,5358 Z"/>
 <path fill="rgb(0,69,134)" stroke="none" d="M 14430,5358 L 14451,5358 14451,5311 14430,5311 14430,5358 Z"/>
 <path fill="rgb(0,69,134)" stroke="none" d="M 14395,5358 L 14417,5358 14417,5172 14395,5172 14395,5358 Z"/>
 <path fill="rgb(0,69,134)" stroke="none" d="M 14360,5358 L 14382,5358 14382,5311 14360,5311 14360,5358 Z"/>
 <path fill="rgb(0,69,134)" stroke="none" d="M 14326,5358 L 14347,5358 14347,5172 14326,5172 14326,5358 Z"/>
 <path fill="rgb(0,69,134)" stroke="none" d="M 14291,5358 L 14313,5358 14313,5218 14291,5218 14291,5358 Z"/>
 <path fill="rgb(0,69,134)" stroke="none" d="M 14256,5358 L 14278,5358 14278,5264 14256,5264 14256,5358 Z"/>
 <path fill="rgb(0,69,134)" stroke="none" d="M 14222,5358 L 14243,5358 14243,5172 14222,5172 14222,5358 Z"/>
 <path fill="rgb(0,69,134)" stroke="none" d="M 14187,5358 L 14209,5358 14209,5172 14187,5172 14187,5358 Z"/>
 <path fill="rgb(0,69,134)" stroke="none" d="M 14152,5358 L 14174,5358 14174,5311 14152,5311 14152,5358 Z"/>
 <path fill="rgb(0,69,134)" stroke="none" d="M 14118,5358 L 14139,5358 14139,5311 14118,5311 14118,5358 Z"/>
 <path fill="rgb(0,69,134)" stroke="none" d="M 14048,5358 L 14070,5358 14070,5311 14048,5311 14048,5358 Z"/>
 <path fill="rgb(0,69,134)" stroke="none" d="M 14014,5358 L 14035,5358 14035,5311 14014,5311 14014,5358 Z"/>
 <path fill="rgb(0,69,134)" stroke="none" d="M 13979,5358 L 14001,5358 14001,5311 13979,5311 13979,5358 Z"/>
 <path fill="rgb(0,69,134)" stroke="none" d="M 13944,5358 L 13966,5358 13966,5172 13944,5172 13944,5358 Z"/>
 <path fill="rgb(0,69,134)" stroke="none" d="M 13910,5358 L 13931,5358 13931,5218 13910,5218 13910,5358 Z"/>
 <path fill="rgb(0,69,134)" stroke="none" d="M 13875,5358 L 13897,5358 13897,5218 13875,5218 13875,5358 Z"/>
 <path fill="rgb(0,69,134)" stroke="none" d="M 13806,5358 L 13827,5358 13827,5218 13806,5218 13806,5358 Z"/>
 <path fill="rgb(0,69,134)" stroke="none" d="M 13771,5358 L 13793,5358 13793,5264 13771,5264 13771,5358 Z"/>
 <path fill="rgb(0,69,134)" stroke="none" d="M 13736,5358 L 13758,5358 13758,5218 13736,5218 13736,5358 Z"/>
 <path fill="rgb(0,69,134)" stroke="none" d="M 13702,5358 L 13723,5358 13723,5172 13702,5172 13702,5358 Z"/>
 <path fill="rgb(0,69,134)" stroke="none" d="M 13667,5358 L 13689,5358 13689,5218 13667,5218 13667,5358 Z"/>
 <path fill="rgb(0,69,134)" stroke="none" d="M 13632,5358 L 13654,5358 13654,5311 13632,5311 13632,5358 Z"/>
 <path fill="rgb(0,69,134)" stroke="none" d="M 13597,5358 L 13619,5358 13619,5264 13597,5264 13597,5358 Z"/>
 <path fill="rgb(0,69,134)" stroke="none" d="M 13563,5358 L 13584,5358 13584,5172 13563,5172 13563,5358 Z"/>
 <path fill="rgb(0,69,134)" stroke="none" d="M 13528,5358 L 13550,5358 13550,5264 13528,5264 13528,5358 Z"/>
 <path fill="rgb(0,69,134)" stroke="none" d="M 13493,5358 L 13515,5358 13515,5172 13493,5172 13493,5358 Z"/>
 <path fill="rgb(0,69,134)" stroke="none" d="M 13459,5358 L 13480,5358 13480,5172 13459,5172 13459,5358 Z"/>
 <path fill="rgb(0,69,134)" stroke="none" d="M 13424,5358 L 13446,5358 13446,5218 13424,5218 13424,5358 Z"/>
 <path fill="rgb(0,69,134)" stroke="none" d="M 13389,5358 L 13411,5358 13411,5172 13389,5172 13389,5358 Z"/>
 <path fill="rgb(0,69,134)" stroke="none" d="M 13320,5358 L 13342,5358 13342,5218 13320,5218 13320,5358 Z"/>
 <path fill="rgb(0,69,134)" stroke="none" d="M 13285,5358 L 13307,5358 13307,5264 13285,5264 13285,5358 Z"/>
 <path fill="rgb(0,69,134)" stroke="none" d="M 13251,5358 L 13272,5358 13272,5172 13251,5172 13251,5358 Z"/>
 <path fill="rgb(0,69,134)" stroke="none" d="M 13216,5358 L 13238,5358 13238,5311 13216,5311 13216,5358 Z"/>
 <path fill="rgb(0,69,134)" stroke="none" d="M 13181,5358 L 13203,5358 13203,5172 13181,5172 13181,5358 Z"/>
 <path fill="rgb(0,69,134)" stroke="none" d="M 13147,5358 L 13168,5358 13168,5311 13147,5311 13147,5358 Z"/>
 <path fill="rgb(0,69,134)" stroke="none" d="M 13112,5358 L 13134,5358 13134,5218 13112,5218 13112,5358 Z"/>
 <path fill="rgb(0,69,134)" stroke="none" d="M 13077,5358 L 13099,5358 13099,5172 13077,5172 13077,5358 Z"/>
 <path fill="rgb(0,69,134)" stroke="none" d="M 13043,5358 L 13064,5358 13064,5218 13043,5218 13043,5358 Z"/>
 <path fill="rgb(0,69,134)" stroke="none" d="M 13008,5358 L 13030,5358 13030,5218 13008,5218 13008,5358 Z"/>
 <path fill="rgb(0,69,134)" stroke="none" d="M 12973,5358 L 12995,5358 12995,5264 12973,5264 12973,5358 Z"/>
 <path fill="rgb(0,69,134)" stroke="none" d="M 12939,5358 L 12960,5358 12960,5172 12939,5172 12939,5358 Z"/>
 <path fill="rgb(0,69,134)" stroke="none" d="M 12904,5358 L 12926,5358 12926,5311 12904,5311 12904,5358 Z"/>
 <path fill="rgb(0,69,134)" stroke="none" d="M 12869,5358 L 12891,5358 12891,5218 12869,5218 12869,5358 Z"/>
 <path fill="rgb(0,69,134)" stroke="none" d="M 12835,5358 L 12856,5358 12856,5172 12835,5172 12835,5358 Z"/>
 <path fill="rgb(0,69,134)" stroke="none" d="M 12800,5358 L 12822,5358 12822,5311 12800,5311 12800,5358 Z"/>
 <path fill="rgb(0,69,134)" stroke="none" d="M 12765,5358 L 12787,5358 12787,5264 12765,5264 12765,5358 Z"/>
 <path fill="rgb(0,69,134)" stroke="none" d="M 12731,5358 L 12752,5358 12752,5264 12731,5264 12731,5358 Z"/>
 <path fill="rgb(0,69,134)" stroke="none" d="M 12696,5358 L 12718,5358 12718,5311 12696,5311 12696,5358 Z"/>
 <path fill="rgb(0,69,134)" stroke="none" d="M 12661,5358 L 12683,5358 12683,5311 12661,5311 12661,5358 Z"/>
 <path fill="rgb(0,69,134)" stroke="none" d="M 12627,5358 L 12648,5358 12648,5264 12627,5264 12627,5358 Z"/>
 <path fill="rgb(0,69,134)" stroke="none" d="M 12592,5358 L 12614,5358 12614,5172 12592,5172 12592,5358 Z"/>
 <path fill="rgb(0,69,134)" stroke="none" d="M 12557,5358 L 12579,5358 12579,3919 12557,3919 12557,5358 Z"/>
 <path fill="rgb(0,69,134)" stroke="none" d="M 12523,5358 L 12544,5358 12544,4198 12523,4198 12523,5358 Z"/>
 <path fill="rgb(0,69,134)" stroke="none" d="M 12488,5358 L 12510,5358 12510,3596 12488,3596 12488,5358 Z"/>
 <path fill="rgb(0,69,134)" stroke="none" d="M 12453,5358 L 12475,5358 12475,3596 12453,3596 12453,5358 Z"/>
 <path fill="rgb(0,69,134)" stroke="none" d="M 12419,5358 L 12440,5358 12440,4383 12419,4383 12419,5358 Z"/>
 <path fill="rgb(0,69,134)" stroke="none" d="M 12384,5358 L 12406,5358 12406,4059 12384,4059 12384,5358 Z"/>
 <path fill="rgb(0,69,134)" stroke="none" d="M 12349,5358 L 12371,5358 12371,3780 12349,3780 12349,5358 Z"/>
 <path fill="rgb(0,69,134)" stroke="none" d="M 12315,5358 L 12336,5358 12336,4338 12315,4338 12315,5358 Z"/>
 <path fill="rgb(0,69,134)" stroke="none" d="M 12280,5358 L 12302,5358 12302,3827 12280,3827 12280,5358 Z"/>
 <path fill="rgb(0,69,134)" stroke="none" d="M 12245,5358 L 12267,5358 12267,4059 12245,4059 12245,5358 Z"/>
 <path fill="rgb(0,69,134)" stroke="none" d="M 12211,5358 L 12232,5358 12232,1648 12211,1648 12211,5358 Z"/>
 <path fill="rgb(0,69,134)" stroke="none" d="M 12176,5358 L 12198,5358 12198,906 12176,906 12176,5358 Z"/>
 <path fill="rgb(0,69,134)" stroke="none" d="M 12141,5358 L 12163,5358 12163,1787 12141,1787 12141,5358 Z"/>
 <path fill="rgb(0,69,134)" stroke="none" d="M 12107,5358 L 12128,5358 12128,813 12107,813 12107,5358 Z"/>
 <path fill="rgb(0,69,134)" stroke="none" d="M 12072,5358 L 12094,5358 12094,1509 12072,1509 12072,5358 Z"/>
 <path fill="rgb(0,69,134)" stroke="none" d="M 12037,5358 L 12059,5358 12059,3966 12037,3966 12037,5358 Z"/>
 <path fill="rgb(0,69,134)" stroke="none" d="M 12003,5358 L 12024,5358 12024,3549 12003,3549 12003,5358 Z"/>
 <path fill="rgb(0,69,134)" stroke="none" d="M 11968,5358 L 11990,5358 11990,4244 11968,4244 11968,5358 Z"/>
 <path fill="rgb(0,69,134)" stroke="none" d="M 11933,5358 L 11955,5358 11955,4430 11933,4430 11933,5358 Z"/>
 <path fill="rgb(0,69,134)" stroke="none" d="M 11899,5358 L 11920,5358 11920,4338 11899,4338 11899,5358 Z"/>
 <path fill="rgb(0,69,134)" stroke="none" d="M 11864,5358 L 11886,5358 11886,4198 11864,4198 11864,5358 Z"/>
 <path fill="rgb(0,69,134)" stroke="none" d="M 11829,5358 L 11851,5358 11851,3966 11829,3966 11829,5358 Z"/>
 <path fill="rgb(0,69,134)" stroke="none" d="M 11795,5358 L 11816,5358 11816,4105 11795,4105 11795,5358 Z"/>
 <path fill="rgb(0,69,134)" stroke="none" d="M 11760,5358 L 11781,5358 11781,3874 11760,3874 11760,5358 Z"/>
 <path fill="rgb(0,69,134)" stroke="none" d="M 11725,5358 L 11747,5358 11747,3549 11725,3549 11725,5358 Z"/>
 <path fill="rgb(0,69,134)" stroke="none" d="M 11690,5358 L 11712,5358 11712,3688 11690,3688 11690,5358 Z"/>
 <path fill="rgb(0,69,134)" stroke="none" d="M 11656,5358 L 11677,5358 11677,4244 11656,4244 11656,5358 Z"/>
 <path fill="rgb(0,69,134)" stroke="none" d="M 11621,5358 L 11643,5358 11643,3874 11621,3874 11621,5358 Z"/>
 <path fill="rgb(0,69,134)" stroke="none" d="M 11586,5358 L 11608,5358 11608,4152 11586,4152 11586,5358 Z"/>
 <path fill="rgb(0,69,134)" stroke="none" d="M 11552,5358 L 11573,5358 11573,3688 11552,3688 11552,5358 Z"/>
 <path fill="rgb(0,69,134)" stroke="none" d="M 11482,5358 L 11504,5358 11504,5218 11482,5218 11482,5358 Z"/>
 <path fill="rgb(0,69,134)" stroke="none" d="M 11448,5358 L 11469,5358 11469,5264 11448,5264 11448,5358 Z"/>
 <path fill="rgb(0,69,134)" stroke="none" d="M 11413,5358 L 11435,5358 11435,5264 11413,5264 11413,5358 Z"/>
 <path fill="rgb(0,69,134)" stroke="none" d="M 11344,5358 L 11365,5358 11365,5218 11344,5218 11344,5358 Z"/>
 <path fill="rgb(0,69,134)" stroke="none" d="M 11309,5358 L 11331,5358 11331,5311 11309,5311 11309,5358 Z"/>
 <path fill="rgb(0,69,134)" stroke="none" d="M 11274,5358 L 11296,5358 11296,5264 11274,5264 11274,5358 Z"/>
 <path fill="rgb(0,69,134)" stroke="none" d="M 11240,5358 L 11261,5358 11261,5311 11240,5311 11240,5358 Z"/>
 <path fill="rgb(0,69,134)" stroke="none" d="M 11205,5358 L 11227,5358 11227,5218 11205,5218 11205,5358 Z"/>
 <path fill="rgb(0,69,134)" stroke="none" d="M 11136,5358 L 11157,5358 11157,5264 11136,5264 11136,5358 Z"/>
 <path fill="rgb(0,69,134)" stroke="none" d="M 11101,5358 L 11123,5358 11123,5172 11101,5172 11101,5358 Z"/>
 <path fill="rgb(0,69,134)" stroke="none" d="M 11066,5358 L 11088,5358 11088,5172 11066,5172 11066,5358 Z"/>
 <path fill="rgb(0,69,134)" stroke="none" d="M 11032,5358 L 11053,5358 11053,5311 11032,5311 11032,5358 Z"/>
 <path fill="rgb(0,69,134)" stroke="none" d="M 10997,5358 L 11019,5358 11019,5172 10997,5172 10997,5358 Z"/>
 <path fill="rgb(0,69,134)" stroke="none" d="M 10962,5358 L 10984,5358 10984,5172 10962,5172 10962,5358 Z"/>
 <path fill="rgb(0,69,134)" stroke="none" d="M 10928,5358 L 10949,5358 10949,5218 10928,5218 10928,5358 Z"/>
 <path fill="rgb(0,69,134)" stroke="none" d="M 10893,5358 L 10915,5358 10915,5172 10893,5172 10893,5358 Z"/>
 <path fill="rgb(0,69,134)" stroke="none" d="M 10858,5358 L 10880,5358 10880,5311 10858,5311 10858,5358 Z"/>
 <path fill="rgb(0,69,134)" stroke="none" d="M 10824,5358 L 10845,5358 10845,5264 10824,5264 10824,5358 Z"/>
 <path fill="rgb(0,69,134)" stroke="none" d="M 10789,5358 L 10811,5358 10811,5264 10789,5264 10789,5358 Z"/>
 <path fill="rgb(0,69,134)" stroke="none" d="M 10754,5358 L 10776,5358 10776,5172 10754,5172 10754,5358 Z"/>
 <path fill="rgb(0,69,134)" stroke="none" d="M 10720,5358 L 10741,5358 10741,5172 10720,5172 10720,5358 Z"/>
 <path fill="rgb(0,69,134)" stroke="none" d="M 10685,5358 L 10707,5358 10707,5172 10685,5172 10685,5358 Z"/>
 <path fill="rgb(0,69,134)" stroke="none" d="M 10650,5358 L 10672,5358 10672,5264 10650,5264 10650,5358 Z"/>
 <path fill="rgb(0,69,134)" stroke="none" d="M 10581,5358 L 10603,5358 10603,5311 10581,5311 10581,5358 Z"/>
 <path fill="rgb(0,69,134)" stroke="none" d="M 10546,5358 L 10568,5358 10568,5311 10546,5311 10546,5358 Z"/>
 <path fill="rgb(0,69,134)" stroke="none" d="M 10512,5358 L 10533,5358 10533,5218 10512,5218 10512,5358 Z"/>
 <path fill="rgb(0,69,134)" stroke="none" d="M 10442,5358 L 10464,5358 10464,5218 10442,5218 10442,5358 Z"/>
 <path fill="rgb(0,69,134)" stroke="none" d="M 10408,5358 L 10429,5358 10429,5264 10408,5264 10408,5358 Z"/>
 <path fill="rgb(0,69,134)" stroke="none" d="M 10373,5358 L 10395,5358 10395,5311 10373,5311 10373,5358 Z"/>
 <path fill="rgb(0,69,134)" stroke="none" d="M 10338,5358 L 10360,5358 10360,5218 10338,5218 10338,5358 Z"/>
 <path fill="rgb(0,69,134)" stroke="none" d="M 10304,5358 L 10325,5358 10325,5172 10304,5172 10304,5358 Z"/>
 <path fill="rgb(0,69,134)" stroke="none" d="M 10234,5358 L 10256,5358 10256,5172 10234,5172 10234,5358 Z"/>
 <path fill="rgb(0,69,134)" stroke="none" d="M 10200,5358 L 10221,5358 10221,5311 10200,5311 10200,5358 Z"/>
 <path fill="rgb(0,69,134)" stroke="none" d="M 10165,5358 L 10187,5358 10187,5172 10165,5172 10165,5358 Z"/>
 <path fill="rgb(0,69,134)" stroke="none" d="M 10130,5358 L 10152,5358 10152,5172 10130,5172 10130,5358 Z"/>
 <path fill="rgb(0,69,134)" stroke="none" d="M 10096,5358 L 10117,5358 10117,5172 10096,5172 10096,5358 Z"/>
 <path fill="rgb(0,69,134)" stroke="none" d="M 10061,5358 L 10083,5358 10083,5218 10061,5218 10061,5358 Z"/>
 <path fill="rgb(0,69,134)" stroke="none" d="M 10026,5358 L 10048,5358 10048,5172 10026,5172 10026,5358 Z"/>
 <path fill="rgb(0,69,134)" stroke="none" d="M 9957,5358 L 9979,5358 9979,5218 9957,5218 9957,5358 Z"/>
 <path fill="rgb(0,69,134)" stroke="none" d="M 9922,5358 L 9944,5358 9944,5218 9922,5218 9922,5358 Z"/>
 <path fill="rgb(0,69,134)" stroke="none" d="M 9887,5358 L 9909,5358 9909,5218 9887,5218 9887,5358 Z"/>
 <path fill="rgb(0,69,134)" stroke="none" d="M 9853,5358 L 9874,5358 9874,5264 9853,5264 9853,5358 Z"/>
 <path fill="rgb(0,69,134)" stroke="none" d="M 9818,5358 L 9840,5358 9840,5172 9818,5172 9818,5358 Z"/>
 <path fill="rgb(0,69,134)" stroke="none" d="M 9783,5358 L 9805,5358 9805,5311 9783,5311 9783,5358 Z"/>
 <path fill="rgb(0,69,134)" stroke="none" d="M 9749,5358 L 9770,5358 9770,5264 9749,5264 9749,5358 Z"/>
 <path fill="rgb(0,69,134)" stroke="none" d="M 9714,5358 L 9736,5358 9736,5172 9714,5172 9714,5358 Z"/>
 <path fill="rgb(0,69,134)" stroke="none" d="M 9679,5358 L 9701,5358 9701,5311 9679,5311 9679,5358 Z"/>
 <path fill="rgb(0,69,134)" stroke="none" d="M 9645,5358 L 9666,5358 9666,5218 9645,5218 9645,5358 Z"/>
 <path fill="rgb(0,69,134)" stroke="none" d="M 9575,5358 L 9597,5358 9597,5311 9575,5311 9575,5358 Z"/>
 <path fill="rgb(0,69,134)" stroke="none" d="M 9506,5358 L 9528,5358 9528,5218 9506,5218 9506,5358 Z"/>
 <path fill="rgb(0,69,134)" stroke="none" d="M 9402,5358 L 9424,5358 9424,5218 9402,5218 9402,5358 Z"/>
 <path fill="rgb(0,69,134)" stroke="none" d="M 9333,5358 L 9354,5358 9354,5264 9333,5264 9333,5358 Z"/>
 <path fill="rgb(0,69,134)" stroke="none" d="M 9298,5358 L 9320,5358 9320,5218 9298,5218 9298,5358 Z"/>
 <path fill="rgb(0,69,134)" stroke="none" d="M 9263,5358 L 9285,5358 9285,5264 9263,5264 9263,5358 Z"/>
 <path fill="rgb(0,69,134)" stroke="none" d="M 9229,5358 L 9250,5358 9250,5311 9229,5311 9229,5358 Z"/>
 <path fill="rgb(0,69,134)" stroke="none" d="M 9194,5358 L 9216,5358 9216,5172 9194,5172 9194,5358 Z"/>
 <path fill="rgb(0,69,134)" stroke="none" d="M 9125,5358 L 9146,5358 9146,5264 9125,5264 9125,5358 Z"/>
 <path fill="rgb(0,69,134)" stroke="none" d="M 9090,5358 L 9112,5358 9112,5264 9090,5264 9090,5358 Z"/>
 <path fill="rgb(0,69,134)" stroke="none" d="M 9021,5358 L 9042,5358 9042,5264 9021,5264 9021,5358 Z"/>
 <path fill="rgb(0,69,134)" stroke="none" d="M 8986,5358 L 9008,5358 9008,5264 8986,5264 8986,5358 Z"/>
 <path fill="rgb(0,69,134)" stroke="none" d="M 8951,5358 L 8973,5358 8973,5218 8951,5218 8951,5358 Z"/>
 <path fill="rgb(0,69,134)" stroke="none" d="M 8917,5358 L 8938,5358 8938,5264 8917,5264 8917,5358 Z"/>
 <path fill="rgb(0,69,134)" stroke="none" d="M 8847,5358 L 8869,5358 8869,5172 8847,5172 8847,5358 Z"/>
 <path fill="rgb(0,69,134)" stroke="none" d="M 8813,5358 L 8834,5358 8834,5264 8813,5264 8813,5358 Z"/>
 <path fill="rgb(0,69,134)" stroke="none" d="M 8778,5358 L 8800,5358 8800,5311 8778,5311 8778,5358 Z"/>
 <path fill="rgb(0,69,134)" stroke="none" d="M 8743,5358 L 8765,5358 8765,5218 8743,5218 8743,5358 Z"/>
 <path fill="rgb(0,69,134)" stroke="none" d="M 8709,5358 L 8730,5358 8730,5172 8709,5172 8709,5358 Z"/>
 <path fill="rgb(0,69,134)" stroke="none" d="M 8674,5358 L 8696,5358 8696,5311 8674,5311 8674,5358 Z"/>
 <path fill="rgb(0,69,134)" stroke="none" d="M 8640,5358 L 8661,5358 8661,5172 8640,5172 8640,5358 Z"/>
 <path fill="rgb(0,69,134)" stroke="none" d="M 8606,5358 L 8627,5358 8627,5172 8606,5172 8606,5358 Z"/>
 <path fill="rgb(0,69,134)" stroke="none" d="M 8536,5358 L 8558,5358 8558,5172 8536,5172 8536,5358 Z"/>
 <path fill="rgb(0,69,134)" stroke="none" d="M 8502,5358 L 8523,5358 8523,5264 8502,5264 8502,5358 Z"/>
 <path fill="rgb(0,69,134)" stroke="none" d="M 8398,5358 L 8419,5358 8419,5172 8398,5172 8398,5358 Z"/>
 <path fill="rgb(0,69,134)" stroke="none" d="M 8363,5358 L 8385,5358 8385,5311 8363,5311 8363,5358 Z"/>
 <path fill="rgb(0,69,134)" stroke="none" d="M 8328,5358 L 8350,5358 8350,5311 8328,5311 8328,5358 Z"/>
 <path fill="rgb(0,69,134)" stroke="none" d="M 8224,5358 L 8246,5358 8246,5172 8224,5172 8224,5358 Z"/>
 <path fill="rgb(0,69,134)" stroke="none" d="M 8190,5358 L 8211,5358 8211,5311 8190,5311 8190,5358 Z"/>
 <path fill="rgb(0,69,134)" stroke="none" d="M 8155,5358 L 8177,5358 8177,5264 8155,5264 8155,5358 Z"/>
 <path fill="rgb(0,69,134)" stroke="none" d="M 8120,5358 L 8142,5358 8142,5264 8120,5264 8120,5358 Z"/>
 <path fill="rgb(0,69,134)" stroke="none" d="M 8085,5358 L 8107,5358 8107,5311 8085,5311 8085,5358 Z"/>
 <path fill="rgb(0,69,134)" stroke="none" d="M 8051,5358 L 8072,5358 8072,5311 8051,5311 8051,5358 Z"/>
 <path fill="rgb(0,69,134)" stroke="none" d="M 7947,5358 L 7968,5358 7968,5218 7947,5218 7947,5358 Z"/>
 <path fill="rgb(0,69,134)" stroke="none" d="M 7912,5358 L 7934,5358 7934,5218 7912,5218 7912,5358 Z"/>
 <path fill="rgb(0,69,134)" stroke="none" d="M 7877,5358 L 7899,5358 7899,5264 7877,5264 7877,5358 Z"/>
 <path fill="rgb(0,69,134)" stroke="none" d="M 7843,5358 L 7864,5358 7864,5218 7843,5218 7843,5358 Z"/>
 <path fill="rgb(0,69,134)" stroke="none" d="M 7808,5358 L 7830,5358 7830,5218 7808,5218 7808,5358 Z"/>
 <path fill="rgb(0,69,134)" stroke="none" d="M 7773,5358 L 7795,5358 7795,5311 7773,5311 7773,5358 Z"/>
 <path fill="rgb(0,69,134)" stroke="none" d="M 7739,5358 L 7760,5358 7760,5172 7739,5172 7739,5358 Z"/>
 <path fill="rgb(0,69,134)" stroke="none" d="M 7704,5358 L 7726,5358 7726,2946 7704,2946 7704,5358 Z"/>
 <path fill="rgb(0,69,134)" stroke="none" d="M 7669,5358 L 7691,5358 7691,2899 7669,2899 7669,5358 Z"/>
 <path fill="rgb(0,69,134)" stroke="none" d="M 7635,5358 L 7656,5358 7656,3038 7635,3038 7635,5358 Z"/>
 <path fill="rgb(0,69,134)" stroke="none" d="M 7600,5358 L 7622,5358 7622,3038 7600,3038 7600,5358 Z"/>
 <path fill="rgb(0,69,134)" stroke="none" d="M 7565,5358 L 7587,5358 7587,2807 7565,2807 7565,5358 Z"/>
 <path fill="rgb(0,69,134)" stroke="none" d="M 7531,5358 L 7552,5358 7552,2668 7531,2668 7531,5358 Z"/>
 <path fill="rgb(0,69,134)" stroke="none" d="M 7496,5358 L 7518,5358 7518,2668 7496,2668 7496,5358 Z"/>
 <path fill="rgb(0,69,134)" stroke="none" d="M 7461,5358 L 7483,5358 7483,2854 7461,2854 7461,5358 Z"/>
 <path fill="rgb(0,69,134)" stroke="none" d="M 7427,5358 L 7448,5358 7448,3038 7427,3038 7427,5358 Z"/>
 <path fill="rgb(0,69,134)" stroke="none" d="M 7392,5358 L 7414,5358 7414,2668 7392,2668 7392,5358 Z"/>
 <path fill="rgb(0,69,134)" stroke="none" d="M 7357,5358 L 7379,5358 7379,5218 7357,5218 7357,5358 Z"/>
 <path fill="rgb(0,69,134)" stroke="none" d="M 7288,5358 L 7310,5358 7310,5311 7288,5311 7288,5358 Z"/>
 <path fill="rgb(0,69,134)" stroke="none" d="M 7219,5358 L 7240,5358 7240,5218 7219,5218 7219,5358 Z"/>
 <path fill="rgb(0,69,134)" stroke="none" d="M 7184,5358 L 7206,5358 7206,5218 7184,5218 7184,5358 Z"/>
 <path fill="rgb(0,69,134)" stroke="none" d="M 7149,5358 L 7171,5358 7171,5218 7149,5218 7149,5358 Z"/>
 <path fill="rgb(0,69,134)" stroke="none" d="M 7115,5358 L 7136,5358 7136,5311 7115,5311 7115,5358 Z"/>
 <path fill="rgb(0,69,134)" stroke="none" d="M 7080,5358 L 7102,5358 7102,5172 7080,5172 7080,5358 Z"/>
 <path fill="rgb(0,69,134)" stroke="none" d="M 7045,5358 L 7067,5358 7067,5311 7045,5311 7045,5358 Z"/>
 <path fill="rgb(0,69,134)" stroke="none" d="M 6976,5358 L 6998,5358 6998,5172 6976,5172 6976,5358 Z"/>
 <path fill="rgb(0,69,134)" stroke="none" d="M 6941,5358 L 6963,5358 6963,5311 6941,5311 6941,5358 Z"/>
 <path fill="rgb(0,69,134)" stroke="none" d="M 6872,5358 L 6894,5358 6894,5172 6872,5172 6872,5358 Z"/>
 <path fill="rgb(0,69,134)" stroke="none" d="M 6837,5358 L 6859,5358 6859,5264 6837,5264 6837,5358 Z"/>
 <path fill="rgb(0,69,134)" stroke="none" d="M 6768,5358 L 6790,5358 6790,5264 6768,5264 6768,5358 Z"/>
 <path fill="rgb(0,69,134)" stroke="none" d="M 6733,5358 L 6755,5358 6755,5264 6733,5264 6733,5358 Z"/>
 <path fill="rgb(0,69,134)" stroke="none" d="M 6699,5358 L 6720,5358 6720,5311 6699,5311 6699,5358 Z"/>
 <path fill="rgb(0,69,134)" stroke="none" d="M 6595,5358 L 6616,5358 6616,5311 6595,5311 6595,5358 Z"/>
 <path fill="rgb(0,69,134)" stroke="none" d="M 6525,5358 L 6547,5358 6547,5311 6525,5311 6525,5358 Z"/>
 <path fill="rgb(0,69,134)" stroke="none" d="M 6491,5358 L 6512,5358 6512,5218 6491,5218 6491,5358 Z"/>
 <path fill="rgb(0,69,134)" stroke="none" d="M 6456,5358 L 6478,5358 6478,5218 6456,5218 6456,5358 Z"/>
 <path fill="rgb(0,69,134)" stroke="none" d="M 6421,5358 L 6443,5358 6443,5218 6421,5218 6421,5358 Z"/>
 <path fill="rgb(0,69,134)" stroke="none" d="M 6387,5358 L 6408,5358 6408,5218 6387,5218 6387,5358 Z"/>
 <path fill="rgb(0,69,134)" stroke="none" d="M 6352,5358 L 6374,5358 6374,5264 6352,5264 6352,5358 Z"/>
 <path fill="rgb(0,69,134)" stroke="none" d="M 6317,5358 L 6339,5358 6339,5218 6317,5218 6317,5358 Z"/>
 <path fill="rgb(0,69,134)" stroke="none" d="M 6283,5358 L 6304,5358 6304,5218 6283,5218 6283,5358 Z"/>
 <path fill="rgb(0,69,134)" stroke="none" d="M 6248,5358 L 6270,5358 6270,5311 6248,5311 6248,5358 Z"/>
 <path fill="rgb(0,69,134)" stroke="none" d="M 6213,5358 L 6235,5358 6235,5172 6213,5172 6213,5358 Z"/>
 <path fill="rgb(0,69,134)" stroke="none" d="M 6178,5358 L 6200,5358 6200,5172 6178,5172 6178,5358 Z"/>
 <path fill="rgb(0,69,134)" stroke="none" d="M 6144,5358 L 6165,5358 6165,5264 6144,5264 6144,5358 Z"/>
 <path fill="rgb(0,69,134)" stroke="none" d="M 6074,5358 L 6096,5358 6096,5218 6074,5218 6074,5358 Z"/>
 <path fill="rgb(0,69,134)" stroke="none" d="M 6040,5358 L 6061,5358 6061,5311 6040,5311 6040,5358 Z"/>
 <path fill="rgb(0,69,134)" stroke="none" d="M 6005,5358 L 6027,5358 6027,5311 6005,5311 6005,5358 Z"/>
 <path fill="rgb(0,69,134)" stroke="none" d="M 5970,5358 L 5992,5358 5992,5218 5970,5218 5970,5358 Z"/>
 <path fill="rgb(0,69,134)" stroke="none" d="M 5936,5358 L 5957,5358 5957,5264 5936,5264 5936,5358 Z"/>
 <path fill="rgb(0,69,134)" stroke="none" d="M 5901,5358 L 5923,5358 5923,5218 5901,5218 5901,5358 Z"/>
 <path fill="rgb(0,69,134)" stroke="none" d="M 5866,5358 L 5888,5358 5888,5264 5866,5264 5866,5358 Z"/>
 <path fill="rgb(0,69,134)" stroke="none" d="M 5797,5358 L 5819,5358 5819,5172 5797,5172 5797,5358 Z"/>
 <path fill="rgb(0,69,134)" stroke="none" d="M 5728,5358 L 5749,5358 5749,5264 5728,5264 5728,5358 Z"/>
 <path fill="rgb(0,69,134)" stroke="none" d="M 5693,5358 L 5715,5358 5715,5311 5693,5311 5693,5358 Z"/>
 <path fill="rgb(0,69,134)" stroke="none" d="M 5658,5358 L 5680,5358 5680,5311 5658,5311 5658,5358 Z"/>
 <path fill="rgb(0,69,134)" stroke="none" d="M 5624,5358 L 5645,5358 5645,5172 5624,5172 5624,5358 Z"/>
 <path fill="rgb(0,69,134)" stroke="none" d="M 5589,5358 L 5611,5358 5611,5172 5589,5172 5589,5358 Z"/>
 <path fill="rgb(0,69,134)" stroke="none" d="M 5554,5358 L 5576,5358 5576,5172 5554,5172 5554,5358 Z"/>
 <path fill="rgb(0,69,134)" stroke="none" d="M 5520,5358 L 5541,5358 5541,5264 5520,5264 5520,5358 Z"/>
 <path fill="rgb(0,69,134)" stroke="none" d="M 5450,5358 L 5472,5358 5472,5218 5450,5218 5450,5358 Z"/>
 <path fill="rgb(0,69,134)" stroke="none" d="M 5416,5358 L 5437,5358 5437,5264 5416,5264 5416,5358 Z"/>
 <path fill="rgb(0,69,134)" stroke="none" d="M 5381,5358 L 5403,5358 5403,5218 5381,5218 5381,5358 Z"/>
 <path fill="rgb(0,69,134)" stroke="none" d="M 5346,5358 L 5368,5358 5368,5172 5346,5172 5346,5358 Z"/>
 <path fill="rgb(0,69,134)" stroke="none" d="M 5312,5358 L 5333,5358 5333,5264 5312,5264 5312,5358 Z"/>
 <path fill="rgb(0,69,134)" stroke="none" d="M 5277,5358 L 5299,5358 5299,5218 5277,5218 5277,5358 Z"/>
 <path fill="rgb(0,69,134)" stroke="none" d="M 5242,5358 L 5264,5358 5264,5311 5242,5311 5242,5358 Z"/>
 <path fill="rgb(0,69,134)" stroke="none" d="M 5208,5358 L 5229,5358 5229,5172 5208,5172 5208,5358 Z"/>
 <path fill="rgb(0,69,134)" stroke="none" d="M 5173,5358 L 5195,5358 5195,5264 5173,5264 5173,5358 Z"/>
 <path fill="rgb(0,69,134)" stroke="none" d="M 5138,5358 L 5160,5358 5160,5172 5138,5172 5138,5358 Z"/>
 <path fill="rgb(0,69,134)" stroke="none" d="M 5104,5358 L 5125,5358 5125,5264 5104,5264 5104,5358 Z"/>
 <path fill="rgb(0,69,134)" stroke="none" d="M 5069,5358 L 5091,5358 5091,5218 5069,5218 5069,5358 Z"/>
 <path fill="rgb(0,69,134)" stroke="none" d="M 5034,5358 L 5056,5358 5056,5311 5034,5311 5034,5358 Z"/>
 <path fill="rgb(0,69,134)" stroke="none" d="M 5000,5358 L 5021,5358 5021,5172 5000,5172 5000,5358 Z"/>
 <path fill="rgb(0,69,134)" stroke="none" d="M 4965,5358 L 4987,5358 4987,5172 4965,5172 4965,5358 Z"/>
 <path fill="rgb(0,69,134)" stroke="none" d="M 4896,5358 L 4917,5358 4917,5264 4896,5264 4896,5358 Z"/>
 <path fill="rgb(0,69,134)" stroke="none" d="M 4792,5358 L 4813,5358 4813,5264 4792,5264 4792,5358 Z"/>
 <path fill="rgb(0,69,134)" stroke="none" d="M 4757,5358 L 4779,5358 4779,5218 4757,5218 4757,5358 Z"/>
 <path fill="rgb(0,69,134)" stroke="none" d="M 4722,5358 L 4744,5358 4744,5172 4722,5172 4722,5358 Z"/>
 <path fill="rgb(0,69,134)" stroke="none" d="M 4688,5358 L 4709,5358 4709,5264 4688,5264 4688,5358 Z"/>
 <path fill="rgb(0,69,134)" stroke="none" d="M 4618,5358 L 4640,5358 4640,5264 4618,5264 4618,5358 Z"/>
 <path fill="rgb(0,69,134)" stroke="none" d="M 4584,5358 L 4605,5358 4605,5311 4584,5311 4584,5358 Z"/>
 <path fill="rgb(0,69,134)" stroke="none" d="M 4549,5358 L 4571,5358 4571,5218 4549,5218 4549,5358 Z"/>
 <path fill="rgb(0,69,134)" stroke="none" d="M 4514,5358 L 4536,5358 4536,5311 4514,5311 4514,5358 Z"/>
 <path fill="rgb(0,69,134)" stroke="none" d="M 4480,5358 L 4501,5358 4501,5264 4480,5264 4480,5358 Z"/>
 <path fill="rgb(0,69,134)" stroke="none" d="M 4410,5358 L 4432,5358 4432,5172 4410,5172 4410,5358 Z"/>
 <path fill="rgb(0,69,134)" stroke="none" d="M 4375,5358 L 4397,5358 4397,5311 4375,5311 4375,5358 Z"/>
 <path fill="rgb(0,69,134)" stroke="none" d="M 4306,5358 L 4328,5358 4328,5264 4306,5264 4306,5358 Z"/>
 <path fill="rgb(0,69,134)" stroke="none" d="M 4237,5358 L 4258,5358 4258,5264 4237,5264 4237,5358 Z"/>
 <path fill="rgb(0,69,134)" stroke="none" d="M 4202,5358 L 4224,5358 4224,5311 4202,5311 4202,5358 Z"/>
 <path fill="rgb(0,69,134)" stroke="none" d="M 4167,5358 L 4189,5358 4189,5218 4167,5218 4167,5358 Z"/>
 <path fill="rgb(0,69,134)" stroke="none" d="M 4133,5358 L 4154,5358 4154,5264 4133,5264 4133,5358 Z"/>
 <path fill="rgb(0,69,134)" stroke="none" d="M 4098,5358 L 4120,5358 4120,5172 4098,5172 4098,5358 Z"/>
 <path fill="rgb(0,69,134)" stroke="none" d="M 4063,5358 L 4085,5358 4085,5172 4063,5172 4063,5358 Z"/>
 <path fill="rgb(0,69,134)" stroke="none" d="M 3994,5358 L 4016,5358 4016,5172 3994,5172 3994,5358 Z"/>
 <path fill="rgb(0,69,134)" stroke="none" d="M 3959,5358 L 3981,5358 3981,5218 3959,5218 3959,5358 Z"/>
 <path fill="rgb(0,69,134)" stroke="none" d="M 3925,5358 L 3946,5358 3946,5264 3925,5264 3925,5358 Z"/>
 <path fill="rgb(0,69,134)" stroke="none" d="M 3890,5358 L 3912,5358 3912,5264 3890,5264 3890,5358 Z"/>
 <path fill="rgb(0,69,134)" stroke="none" d="M 3855,5358 L 3877,5358 3877,5172 3855,5172 3855,5358 Z"/>
 <path fill="rgb(0,69,134)" stroke="none" d="M 3821,5358 L 3842,5358 3842,5311 3821,5311 3821,5358 Z"/>
 <path fill="rgb(0,69,134)" stroke="none" d="M 3786,5358 L 3808,5358 3808,5311 3786,5311 3786,5358 Z"/>
 <path fill="rgb(0,69,134)" stroke="none" d="M 3751,5358 L 3773,5358 3773,5311 3751,5311 3751,5358 Z"/>
 <path fill="rgb(0,69,134)" stroke="none" d="M 3682,5358 L 3704,5358 3704,5218 3682,5218 3682,5358 Z"/>
 <path fill="rgb(0,69,134)" stroke="none" d="M 3647,5358 L 3669,5358 3669,5311 3647,5311 3647,5358 Z"/>
 <path fill="rgb(0,69,134)" stroke="none" d="M 3578,5358 L 3600,5358 3600,5218 3578,5218 3578,5358 Z"/>
 <path fill="rgb(0,69,134)" stroke="none" d="M 3543,5358 L 3565,5358 3565,5264 3543,5264 3543,5358 Z"/>
 <path fill="rgb(0,69,134)" stroke="none" d="M 3509,5358 L 3530,5358 3530,5172 3509,5172 3509,5358 Z"/>
 <path fill="rgb(0,69,134)" stroke="none" d="M 3474,5358 L 3496,5358 3496,5311 3474,5311 3474,5358 Z"/>
 <path fill="rgb(0,69,134)" stroke="none" d="M 3439,5358 L 3461,5358 3461,5172 3439,5172 3439,5358 Z"/>
 <path fill="rgb(0,69,134)" stroke="none" d="M 3405,5358 L 3426,5358 3426,5311 3405,5311 3405,5358 Z"/>
 <path fill="rgb(0,69,134)" stroke="none" d="M 3370,5358 L 3392,5358 3392,5218 3370,5218 3370,5358 Z"/>
 <path fill="rgb(0,69,134)" stroke="none" d="M 3335,5358 L 3357,5358 3357,5264 3335,5264 3335,5358 Z"/>
 <path fill="rgb(0,69,134)" stroke="none" d="M 3301,5358 L 3322,5358 3322,5172 3301,5172 3301,5358 Z"/>
 <path fill="rgb(0,69,134)" stroke="none" d="M 3266,5358 L 3288,5358 3288,5311 3266,5311 3266,5358 Z"/>
 <path fill="rgb(0,69,134)" stroke="none" d="M 3231,5358 L 3253,5358 3253,5172 3231,5172 3231,5358 Z"/>
 <path fill="rgb(0,69,134)" stroke="none" d="M 3197,5358 L 3218,5358 3218,5172 3197,5172 3197,5358 Z"/>
 <path fill="rgb(0,69,134)" stroke="none" d="M 3162,5358 L 3184,5358 3184,5264 3162,5264 3162,5358 Z"/>
 <path fill="rgb(0,69,134)" stroke="none" d="M 3127,5358 L 3149,5358 3149,5218 3127,5218 3127,5358 Z"/>
 <path fill="rgb(0,69,134)" stroke="none" d="M 3093,5358 L 3114,5358 3114,5218 3093,5218 3093,5358 Z"/>
 <path fill="rgb(0,69,134)" stroke="none" d="M 3058,5358 L 3080,5358 3080,5311 3058,5311 3058,5358 Z"/>
 <path fill="rgb(0,69,134)" stroke="none" d="M 3023,5358 L 3045,5358 3045,5172 3023,5172 3023,5358 Z"/>
 <path fill="rgb(0,69,134)" stroke="none" d="M 2989,5358 L 3010,5358 3010,5311 2989,5311 2989,5358 Z"/>
 <path fill="rgb(0,69,134)" stroke="none" d="M 2919,5358 L 2941,5358 2941,5218 2919,5218 2919,5358 Z"/>
 <path fill="rgb(0,69,134)" stroke="none" d="M 2885,5358 L 2906,5358 2906,5311 2885,5311 2885,5358 Z"/>
 <path fill="rgb(0,69,134)" stroke="none" d="M 2850,5358 L 2872,5358 2872,5172 2850,5172 2850,5358 Z"/>
 <path fill="rgb(0,69,134)" stroke="none" d="M 2781,5358 L 2802,5358 2802,5264 2781,5264 2781,5358 Z"/>
 <path fill="rgb(0,69,134)" stroke="none" d="M 2746,5358 L 2768,5358 2768,5218 2746,5218 2746,5358 Z"/>
 <path fill="rgb(0,69,134)" stroke="none" d="M 2711,5358 L 2733,5358 2733,5218 2711,5218 2711,5358 Z"/>
 <path fill="rgb(0,69,134)" stroke="none" d="M 2677,5358 L 2698,5358 2698,5218 2677,5218 2677,5358 Z"/>
 <path fill="rgb(0,69,134)" stroke="none" d="M 2642,5358 L 2664,5358 2664,5264 2642,5264 2642,5358 Z"/>
 <path fill="rgb(0,69,134)" stroke="none" d="M 2607,5358 L 2629,5358 2629,5311 2607,5311 2607,5358 Z"/>
 <path fill="rgb(0,69,134)" stroke="none" d="M 2572,5358 L 2594,5358 2594,5311 2572,5311 2572,5358 Z"/>
 <path fill="rgb(0,69,134)" stroke="none" d="M 2538,5358 L 2559,5358 2559,5311 2538,5311 2538,5358 Z"/>
 <path fill="rgb(0,69,134)" stroke="none" d="M 2468,5358 L 2490,5358 2490,5218 2468,5218 2468,5358 Z"/>
 <path fill="rgb(0,69,134)" stroke="none" d="M 2434,5358 L 2455,5358 2455,5172 2434,5172 2434,5358 Z"/>
 <path fill="rgb(0,69,134)" stroke="none" d="M 2399,5358 L 2421,5358 2421,5311 2399,5311 2399,5358 Z"/>
 <path fill="rgb(0,69,134)" stroke="none" d="M 2295,5358 L 2317,5358 2317,5218 2295,5218 2295,5358 Z"/>
 <path fill="rgb(0,69,134)" stroke="none" d="M 2260,5358 L 2282,5358 2282,5311 2260,5311 2260,5358 Z"/>
 <path fill="rgb(0,69,134)" stroke="none" d="M 2226,5358 L 2247,5358 2247,5172 2226,5172 2226,5358 Z"/>
 <path fill="rgb(0,69,134)" stroke="none" d="M 2191,5358 L 2213,5358 2213,5172 2191,5172 2191,5358 Z"/>
 <path fill="rgb(0,69,134)" stroke="none" d="M 2156,5358 L 2178,5358 2178,1601 2156,1601 2156,5358 Z"/>
 <path fill="rgb(0,69,134)" stroke="none" d="M 2122,5358 L 2143,5358 2143,1462 2122,1462 2122,5358 Z"/>
 <path fill="rgb(0,69,134)" stroke="none" d="M 2087,5358 L 2109,5358 2109,1184 2087,1184 2087,5358 Z"/>
 <path fill="rgb(0,69,134)" stroke="none" d="M 2052,5358 L 2074,5358 2074,1184 2052,1184 2052,5358 Z"/>
 <path fill="rgb(0,69,134)" stroke="none" d="M 2018,5358 L 2039,5358 2039,859 2018,859 2018,5358 Z"/>
 <path fill="rgb(0,69,134)" stroke="none" d="M 1983,5358 L 2005,5358 2005,1555 1983,1555 1983,5358 Z"/>
 <path fill="rgb(0,69,134)" stroke="none" d="M 1948,5358 L 1970,5358 1970,1555 1948,1555 1948,5358 Z"/>
 <path fill="rgb(0,69,134)" stroke="none" d="M 1914,5358 L 1935,5358 1935,859 1914,859 1914,5358 Z"/>
 <path fill="rgb(0,69,134)" stroke="none" d="M 1879,5358 L 1901,5358 1901,859 1879,859 1879,5358 Z"/>
 <path fill="rgb(0,69,134)" stroke="none" d="M 1844,5358 L 1866,5358 1866,1370 1844,1370 1844,5358 Z"/>
 <path fill="rgb(0,69,134)" stroke="none" d="M 1810,5358 L 1831,5358 1831,1370 1810,1370 1810,5358 Z"/>
 <path fill="rgb(0,69,134)" stroke="none" d="M 1775,5358 L 1797,5358 1797,813 1775,813 1775,5358 Z"/>
 <path fill="rgb(0,69,134)" stroke="none" d="M 1740,5358 L 1762,5358 1762,906 1740,906 1740,5358 Z"/>
 <path fill="rgb(0,69,134)" stroke="none" d="M 1706,5358 L 1727,5358 1727,906 1706,906 1706,5358 Z"/>
 <path fill="rgb(0,69,134)" stroke="none" d="M 1671,5358 L 1693,5358 1693,1648 1671,1648 1671,5358 Z"/>
 <text class="TextShape"><tspan class="TextParagraph" font-family="Liberation Sans, sans-serif" font-size="351px" font-weight="400"><tspan class="TextPosition" x="1272" y="5773"><tspan fill="rgb(0,0,0)" stroke="none">0 GB</tspan></tspan></tspan></text>
 <text class="TextShape"><tspan class="TextParagraph" font-family="Liberation Sans, sans-serif" font-size="351px" font-weight="400"><tspan class="TextPosition" x="4748" y="5773"><tspan fill="rgb(0,0,0)" stroke="none">500 GB</tspan></tspan></tspan></text>
 <text class="TextShape"><tspan class="TextParagraph" font-family="Liberation Sans, sans-serif" font-size="351px" font-weight="400"><tspan class="TextPosition" x="8325" y="5773"><tspan fill="rgb(0,0,0)" stroke="none">1000 GB</tspan></tspan></tspan></text>
 <text class="TextShape"><tspan class="TextParagraph" font-family="Liberation Sans, sans-serif" font-size="351px" font-weight="400"><tspan class="TextPosition" x="12000" y="5773"><tspan fill="rgb(0,0,0)" stroke="none">1500 GB</tspan></tspan></tspan></text>
 <text class="TextShape"><tspan class="TextParagraph" font-family="Liberation Sans, sans-serif" font-size="351px" font-weight="400"><tspan class="TextPosition" x="15675" y="5773"><tspan fill="rgb(0,0,0)" stroke="none">2000 GB</tspan></tspan></tspan></text>
 <text class="TextShape"><tspan class="TextParagraph" font-family="Liberation Sans, sans-serif" font-size="71px" font-weight="400"><tspan class="TextPosition" x="1609" y="67"><tspan fill="rgb(255,255,255)" stroke="none">0 GB</tspan></tspan></tspan></text>
 <text class="TextShape"><tspan class="TextParagraph" font-family="Liberation Sans, sans-serif" font-size="71px" font-weight="400"><tspan class="TextPosition" x="5244" y="146"><tspan fill="rgb(255,255,255)" stroke="none">500 GB</tspan></tspan></tspan></text>
 <text class="TextShape"><tspan class="TextParagraph" font-family="Liberation Sans, sans-serif" font-size="71px" font-weight="400"><tspan class="TextPosition" x="8900" y="67"><tspan fill="rgb(255,255,255)" stroke="none">1000 GB</tspan></tspan></tspan></text>
 <text class="TextShape"><tspan class="TextParagraph" font-family="Liberation Sans, sans-serif" font-size="71px" font-weight="400"><tspan class="TextPosition" x="12575" y="146"><tspan fill="rgb(255,255,255)" stroke="none">1500 GB</tspan></tspan></tspan></text>
 <text class="TextShape"><tspan class="TextParagraph" font-family="Liberation Sans, sans-serif" font-size="71px" font-weight="400"><tspan class="TextPosition" x="16250" y="67"><tspan fill="rgb(255,255,255)" stroke="none">2000 GB</tspan></tspan></tspan></text>
 <text class="TextShape"><tspan class="TextParagraph" font-family="Liberation Sans, sans-serif" font-size="351px" font-weight="400"><tspan class="TextPosition" x="595" y="5477"><tspan fill="rgb(0,0,0)" stroke="none">0 r/m</tspan></tspan></tspan></text>
 <text class="TextShape"><tspan class="TextParagraph" font-family="Liberation Sans, sans-serif" font-size="351px" font-weight="400"><tspan class="TextPosition" x="396" y="4317"><tspan fill="rgb(0,0,0)" stroke="none">25 r/m</tspan></tspan></tspan></text>
 <text class="TextShape"><tspan class="TextParagraph" font-family="Liberation Sans, sans-serif" font-size="351px" font-weight="400"><tspan class="TextPosition" x="396" y="3158"><tspan fill="rgb(0,0,0)" stroke="none">50 r/m</tspan></tspan></tspan></text>
 <text class="TextShape"><tspan class="TextParagraph" font-family="Liberation Sans, sans-serif" font-size="351px" font-weight="400"><tspan class="TextPosition" x="396" y="1999"><tspan fill="rgb(0,0,0)" stroke="none">75 r/m</tspan></tspan></tspan></text>
 <text class="TextShape"><tspan class="TextParagraph" font-family="Liberation Sans, sans-serif" font-size="351px" font-weight="400"><tspan class="TextPosition" x="198" y="840"><tspan fill="rgb(0,0,0)" stroke="none">100 r/m</tspan></tspan></tspan></text>
 <text class="TextShape"><tspan class="TextParagraph" font-family="Liberation Sans, sans-serif" font-size="71px" font-weight="400"><tspan class="TextPosition" x="16500" y="5385"><tspan fill="rgb(255,255,255)" stroke="none">0 r/m</tspan></tspan></tspan></text>
 <text class="TextShape"><tspan class="TextParagraph" font-family="Liberation Sans, sans-serif" font-size="71px" font-weight="400"><tspan class="TextPosition" x="16500" y="4225"><tspan fill="rgb(255,255,255)" stroke="none">25 r/m</tspan></tspan></tspan></text>
 <text class="TextShape"><tspan class="TextParagraph" font-family="Liberation Sans, sans-serif" font-size="71px" font-weight="400"><tspan class="TextPosition" x="16500" y="3066"><tspan fill="rgb(255,255,255)" stroke="none">50 r/m</tspan></tspan></tspan></text>
 <text class="TextShape"><tspan class="TextParagraph" font-family="Liberation Sans, sans-serif" font-size="71px" font-weight="400"><tspan class="TextPosition" x="16500" y="1907"><tspan fill="rgb(255,255,255)" stroke="none">75 r/m</tspan></tspan></tspan></text>
 <text class="TextShape"><tspan class="TextParagraph" font-family="Liberation Sans, sans-serif" font-size="71px" font-weight="400"><tspan class="TextPosition" x="16500" y="747"><tspan fill="rgb(255,255,255)" stroke="none">100 r/m</tspan></tspan></tspan></text>
</svg>