<?xml version="1.0" encoding="UTF-8"?>
<!DOCTYPE svg PUBLIC "-//W3C//DTD SVG 1.1//EN" "http://www.w3.org/Graphics/SVG/1.1/DTD/svg11.dtd">
<svg width="186mm" height="76mm" viewBox="0 0 18600 7600" version="1.1" baseProfile="tiny" xmlns="http://www.w3.org/2000/svg" stroke-width="28.222" stroke-linejoin="round" xml:space="preserve">
 <path fill="rgb(255,255,255)" stroke="none" d="M 9335,7604 L 11,7604 11,0 18659,0 18659,7604 9335,7604 Z"/>
 <path fill="none" stroke="rgb(179,179,179)" stroke-width="25" stroke-linejoin="round" d="M 9374,6805 L 1626,6805 1626,351 17122,351 17122,6805 9374,6805 Z"/>
 <path fill="none" stroke="rgb(221,221,221)" stroke-linejoin="round" d="M 1626,350 L 1626,6804"/>
 <path fill="none" stroke="rgb(221,221,221)" stroke-linejoin="round" d="M 3175,350 L 3175,6804"/>
 <path fill="none" stroke="rgb(221,221,221)" stroke-linejoin="round" d="M 4725,350 L 4725,6804"/>
 <path fill="none" stroke="rgb(221,221,221)" stroke-linejoin="round" d="M 6275,350 L 6275,6804"/>
 <path fill="none" stroke="rgb(221,221,221)" stroke-linejoin="round" d="M 7824,350 L 7824,6804"/>
 <path fill="none" stroke="rgb(221,221,221)" stroke-linejoin="round" d="M 9373,350 L 9373,6804"/>
 <path fill="none" stroke="rgb(221,221,221)" stroke-linejoin="round" d="M 10923,350 L 10923,6804"/>
 <path fill="none" stroke="rgb(221,221,221)" stroke-linejoin="round" d="M 12472,350 L 12472,6804"/>
 <path fill="none" stroke="rgb(221,221,221)" stroke-linejoin="round" d="M 14022,350 L 14022,6804"/>
 <path fill="none" stroke="rgb(221,221,221)" stroke-linejoin="round" d="M 15572,350 L 15572,6804"/>
 <path fill="none" stroke="rgb(221,221,221)" stroke-linejoin="round" d="M 17122,350 L 17122,6804"/>
 <path fill="none" stroke="rgb(221,221,221)" stroke-linejoin="round" d="M 17122,6804 L 1626,6804"/>
 <path fill="none" stroke="rgb(221,221,221)" stroke-linejoin="round" d="M 17122,6158 L 1626,6158"/>
 <path fill="none" stroke="rgb(221,221,221)" stroke-linejoin="round" d="M 17122,5513 L 1626,5513"/>
 <path fill="none" stroke="rgb(221,221,221)" stroke-linejoin="round" d="M 17122,4867 L 1626,4867"/>
 <path fill="none" stroke="rgb(221,221,221)" stroke-linejoin="round" d="M 17122,4222 L 1626,4222"/>
 <path fill="none" stroke="rgb(221,221,221)" stroke-linejoin="round" d="M 17122,3577 L 1626,3577"/>
 <path fill="none" stroke="rgb(221,221,221)" stroke-linejoin="round" d="M 17122,2932 L 1626,2932"/>
 <path fill="none" stroke="rgb(221,221,221)" stroke-linejoin="round" d="M 17122,2286 L 1626,2286"/>
 <path fill="none" stroke="rgb(221,221,221)" stroke-linejoin="round" d="M 17122,1641 L 1626,1641"/>
 <path fill="none" stroke="rgb(221,221,221)" stroke-linejoin="round" d="M 17122,995 L 1626,995"/>
 <path fill="none" stroke="rgb(221,221,221)" stroke-linejoin="round" d="M 17122,350 L 1626,350"/>
 <path fill="none" stroke="rgb(179,179,179)" stroke-linejoin="round" d="M 1626,6954 L 1626,6804"/>
 <path fill="none" stroke="rgb(179,179,179)" stroke-linejoin="round" d="M 1626,6954 L 1626,6804"/>
 <path fill="none" stroke="rgb(179,179,179)" stroke-linejoin="round" d="M 3175,6954 L 3175,6804"/>
 <path fill="none" stroke="rgb(179,179,179)" stroke-linejoin="round" d="M 3175,6954 L 3175,6804"/>
 <path fill="none" stroke="rgb(179,179,179)" stroke-linejoin="round" d="M 4725,6954 L 4725,6804"/>
 <path fill="none" stroke="rgb(179,179,179)" stroke-linejoin="round" d="M 4725,6954 L 4725,6804"/>
 <path fill="none" stroke="rgb(179,179,179)" stroke-linejoin="round" d="M 6275,6954 L 6275,6804"/>
 <path fill="none" stroke="rgb(179,179,179)" stroke-linejoin="round" d="M 6275,6954 L 6275,6804"/>
 <path fill="none" stroke="rgb(179,179,179)" stroke-linejoin="round" d="M 7824,6954 L 7824,6804"/>
 <path fill="none" stroke="rgb(179,179,179)" stroke-linejoin="round" d="M 7824,6954 L 7824,6804"/>
 <path fill="none" stroke="rgb(179,179,179)" stroke-linejoin="round" d="M 9373,6954 L 9373,6804"/>
 <path fill="none" stroke="rgb(179,179,179)" stroke-linejoin="round" d="M 9373,6954 L 9373,6804"/>
 <path fill="none" stroke="rgb(179,179,179)" stroke-linejoin="round" d="M 10923,6954 L 10923,6804"/>
 <path fill="none" stroke="rgb(179,179,179)" stroke-linejoin="round" d="M 10923,6954 L 10923,6804"/>
 <path fill="none" stroke="rgb(179,179,179)" stroke-linejoin="round" d="M 12472,6954 L 12472,6804"/>
 <path fill="none" stroke="rgb(179,179,179)" stroke-linejoin="round" d="M 12472,6954 L 12472,6804"/>
 <path fill="none" stroke="rgb(179,179,179)" stroke-linejoin="round" d="M 14022,6954 L 14022,6804"/>
 <path fill="none" stroke="rgb(179,179,179)" stroke-linejoin="round" d="M 14022,6954 L 14022,6804"/>
 <path fill="none" stroke="rgb(179,179,179)" stroke-linejoin="round" d="M 15572,6954 L 15572,6804"/>
 <path fill="none" stroke="rgb(179,179,179)" stroke-linejoin="round" d="M 15572,6954 L 15572,6804"/>
 <path fill="none" stroke="rgb(179,179,179)" stroke-linejoin="round" d="M 17122,6954 L 17122,6804"/>
 <path fill="none" stroke="rgb(179,179,179)" stroke-linejoin="round" d="M 17122,6954 L 17122,6804"/>
 <path fill="none" stroke="rgb(179,179,179)" stroke-linejoin="round" d="M 1626,6804 L 17122,6804"/>
 <path fill="none" stroke="rgb(179,179,179)" stroke-width="25" stroke-linejoin="round" d="M 1626,350 L 17122,350"/>
 <path fill="none" stroke="rgb(179,179,179)" stroke-linejoin="round" d="M 1476,6804 L 1626,6804"/>
 <path fill="none" stroke="rgb(179,179,179)" stroke-linejoin="round" d="M 1476,6804 L 1626,6804"/>
 <path fill="none" stroke="rgb(179,179,179)" stroke-linejoin="round" d="M 1476,6158 L 1626,6158"/>
 <path fill="none" stroke="rgb(179,179,179)" stroke-linejoin="round" d="M 1476,6158 L 1626,6158"/>
 <path fill="none" stroke="rgb(179,179,179)" stroke-linejoin="round" d="M 1476,5513 L 1626,5513"/>
 <path fill="none" stroke="rgb(179,179,179)" stroke-linejoin="round" d="M 1476,5513 L 1626,5513"/>
 <path fill="none" stroke="rgb(179,179,179)" stroke-linejoin="round" d="M 1476,4867 L 1626,4867"/>
 <path fill="none" stroke="rgb(179,179,179)" stroke-linejoin="round" d="M 1476,4867 L 1626,4867"/>
 <path fill="none" stroke="rgb(179,179,179)" stroke-linejoin="round" d="M 1476,4222 L 1626,4222"/>
 <path fill="none" stroke="rgb(179,179,179)" stroke-linejoin="round" d="M 1476,4222 L 1626,4222"/>
 <path fill="none" stroke="rgb(179,179,179)" stroke-linejoin="round" d="M 1476,3577 L 1626,3577"/>
 <path fill="none" stroke="rgb(179,179,179)" stroke-linejoin="round" d="M 1476,3577 L 1626,3577"/>
 <path fill="none" stroke="rgb(179,179,179)" stroke-linejoin="round" d="M 1476,2931 L 1626,2931"/>
 <path fill="none" stroke="rgb(179,179,179)" stroke-linejoin="round" d="M 1476,2931 L 1626,2931"/>
 <path fill="none" stroke="rgb(179,179,179)" stroke-linejoin="round" d="M 1476,2286 L 1626,2286"/>
 <path fill="none" stroke="rgb(179,179,179)" stroke-linejoin="round" d="M 1476,2286 L 1626,2286"/>
 <path fill="none" stroke="rgb(179,179,179)" stroke-linejoin="round" d="M 1476,1641 L 1626,1641"/>
 <path fill="none" stroke="rgb(179,179,179)" stroke-linejoin="round" d="M 1476,1641 L 1626,1641"/>
 <path fill="none" stroke="rgb(179,179,179)" stroke-linejoin="round" d="M 1476,995 L 1626,995"/>
 <path fill="none" stroke="rgb(179,179,179)" stroke-linejoin="round" d="M 1476,995 L 1626,995"/>
 <path fill="none" stroke="rgb(179,179,179)" stroke-linejoin="round" d="M 1476,350 L 1626,350"/>
 <path fill="none" stroke="rgb(179,179,179)" stroke-linejoin="round" d="M 1476,350 L 1626,350"/>
 <path fill="none" stroke="rgb(179,179,179)" stroke-linejoin="round" d="M 1626,6804 L 1626,350"/>
 <path fill="none" stroke="rgb(179,179,179)" stroke-linejoin="round" d="M 17272,6804 L 17122,6804"/>
 <path fill="none" stroke="rgb(179,179,179)" stroke-linejoin="round" d="M 17272,6804 L 17122,6804"/>
 <path fill="none" stroke="rgb(179,179,179)" stroke-linejoin="round" d="M 17272,5622 L 17122,5622"/>
 <path fill="none" stroke="rgb(179,179,179)" stroke-linejoin="round" d="M 17272,5622 L 17122,5622"/>
 <path fill="none" stroke="rgb(179,179,179)" stroke-linejoin="round" d="M 17272,4441 L 17122,4441"/>
 <path fill="none" stroke="rgb(179,179,179)" stroke-linejoin="round" d="M 17272,4441 L 17122,4441"/>
 <path fill="none" stroke="rgb(179,179,179)" stroke-linejoin="round" d="M 17272,3261 L 17122,3261"/>
 <path fill="none" stroke="rgb(179,179,179)" stroke-linejoin="round" d="M 17272,3261 L 17122,3261"/>
 <path fill="none" stroke="rgb(179,179,179)" stroke-linejoin="round" d="M 17272,2080 L 17122,2080"/>
 <path fill="none" stroke="rgb(179,179,179)" stroke-linejoin="round" d="M 17272,2080 L 17122,2080"/>
 <path fill="none" stroke="rgb(179,179,179)" stroke-linejoin="round" d="M 17272,898 L 17122,898"/>
 <path fill="none" stroke="rgb(179,179,179)" stroke-linejoin="round" d="M 17272,898 L 17122,898"/>
 <path fill="none" stroke="rgb(179,179,179)" stroke-linejoin="round" d="M 17122,6804 L 17122,350"/>
 <path fill="none" stroke="rgb(0,69,134)" stroke-width="51" stroke-linejoin="round" d="M 1626,958 L 3175,898 4725,1286 6275,1907 7824,2426 9373,2869 10923,3038 12472,3304 14022,3455 15572,3591 17122,3750"/>
 <path fill="rgb(0,69,134)" stroke="none" d="M 1576,908 L 1576,1008 1676,1008 1676,908 1576,908 Z"/>
 <path fill="none" stroke="rgb(0,69,134)" stroke-linejoin="round" d="M 1576,908 L 1576,1008 1676,1008 1676,908 1576,908 Z"/>
 <path fill="rgb(0,69,134)" stroke="none" d="M 3125,848 L 3125,948 3225,948 3225,848 3125,848 Z"/>
 <path fill="none" stroke="rgb(0,69,134)" stroke-linejoin="round" d="M 3125,848 L 3125,948 3225,948 3225,848 3125,848 Z"/>
 <path fill="rgb(0,69,134)" stroke="none" d="M 4675,1236 L 4675,1336 4775,1336 4775,1236 4675,1236 Z"/>
 <path fill="none" stroke="rgb(0,69,134)" stroke-linejoin="round" d="M 4675,1236 L 4675,1336 4775,1336 4775,1236 4675,1236 Z"/>
 <path fill="rgb(0,69,134)" stroke="none" d="M 6225,1857 L 6225,1957 6325,1957 6325,1857 6225,1857 Z"/>
 <path fill="none" stroke="rgb(0,69,134)" stroke-linejoin="round" d="M 6225,1857 L 6225,1957 6325,1957 6325,1857 6225,1857 Z"/>
 <path fill="rgb(0,69,134)" stroke="none" d="M 7774,2376 L 7774,2476 7874,2476 7874,2376 7774,2376 Z"/>
 <path fill="none" stroke="rgb(0,69,134)" stroke-linejoin="round" d="M 7774,2376 L 7774,2476 7874,2476 7874,2376 7774,2376 Z"/>
 <path fill="rgb(0,69,134)" stroke="none" d="M 9324,2819 L 9324,2919 9423,2919 9423,2819 9324,2819 Z"/>
 <path fill="none" stroke="rgb(0,69,134)" stroke-linejoin="round" d="M 9324,2819 L 9324,2919 9423,2919 9423,2819 9324,2819 Z"/>
 <path fill="rgb(0,69,134)" stroke="none" d="M 10873,2988 L 10873,3088 10973,3088 10973,2988 10873,2988 Z"/>
 <path fill="none" stroke="rgb(0,69,134)" stroke-linejoin="round" d="M 10873,2988 L 10873,3088 10973,3088 10973,2988 10873,2988 Z"/>
 <path fill="rgb(0,69,134)" stroke="none" d="M 12422,3254 L 12422,3354 12522,3354 12522,3254 12422,3254 Z"/>
 <path fill="none" stroke="rgb(0,69,134)" stroke-linejoin="round" d="M 12422,3254 L 12422,3354 12522,3354 12522,3254 12422,3254 Z"/>
 <path fill="rgb(0,69,134)" stroke="none" d="M 13972,3405 L 13972,3505 14072,3505 14072,3405 13972,3405 Z"/>
 <path fill="none" stroke="rgb(0,69,134)" stroke-linejoin="round" d="M 13972,3405 L 13972,3505 14072,3505 14072,3405 13972,3405 Z"/>
 <path fill="rgb(0,69,134)" stroke="none" d="M 15522,3541 L 15522,3641 15622,3641 15622,3541 15522,3541 Z"/>
 <path fill="none" stroke="rgb(0,69,134)" stroke-linejoin="round" d="M 15522,3541 L 15522,3641 15622,3641 15622,3541 15522,3541 Z"/>
 <path fill="rgb(0,69,134)" stroke="none" d="M 17072,3700 L 17072,3800 17172,3800 17172,3700 17072,3700 Z"/>
 <path fill="none" stroke="rgb(0,69,134)" stroke-linejoin="round" d="M 17072,3700 L 17072,3800 17172,3800 17172,3700 17072,3700 Z"/>
 <path fill="none" stroke="rgb(0,69,134)" stroke-width="51" stroke-linejoin="round" d="M 1626,958 L 3175,898 4725,1286 6275,1907 7824,2426 9373,2869 10923,3038 12472,3304 14022,3455 15572,3591 17122,3750"/>
 <path fill="rgb(0,69,134)" stroke="none" d="M 1576,958 L 1626,1008 1676,958 1626,908 1576,958 Z"/>
 <path fill="none" stroke="rgb(0,69,134)" stroke-linejoin="round" d="M 1576,958 L 1626,1008 1676,958 1626,908 1576,958 Z"/>
 <path fill="rgb(0,69,134)" stroke="none" d="M 3125,898 L 3175,948 3225,898 3175,848 3125,898 Z"/>
 <path fill="none" stroke="rgb(0,69,134)" stroke-linejoin="round" d="M 3125,898 L 3175,948 3225,898 3175,848 3125,898 Z"/>
 <path fill="rgb(0,69,134)" stroke="none" d="M 4675,1286 L 4725,1336 4775,1286 4725,1236 4675,1286 Z"/>
 <path fill="none" stroke="rgb(0,69,134)" stroke-linejoin="round" d="M 4675,1286 L 4725,1336 4775,1286 4725,1236 4675,1286 Z"/>
 <path fill="rgb(0,69,134)" stroke="none" d="M 6225,1907 L 6275,1957 6325,1907 6275,1857 6225,1907 Z"/>
 <path fill="none" stroke="rgb(0,69,134)" stroke-linejoin="round" d="M 6225,1907 L 6275,1957 6325,1907 6275,1857 6225,1907 Z"/>
 <path fill="rgb(0,69,134)" stroke="none" d="M 7774,2426 L 7824,2476 7874,2426 7824,2376 7774,2426 Z"/>
 <path fill="none" stroke="rgb(0,69,134)" stroke-linejoin="round" d="M 7774,2426 L 7824,2476 7874,2426 7824,2376 7774,2426 Z"/>
 <path fill="rgb(0,69,134)" stroke="none" d="M 9324,2869 L 9373,2919 9423,2869 9373,2819 9324,2869 Z"/>
 <path fill="none" stroke="rgb(0,69,134)" stroke-linejoin="round" d="M 9324,2869 L 9373,2919 9423,2869 9373,2819 9324,2869 Z"/>
 <path fill="rgb(0,69,134)" stroke="none" d="M 10873,3038 L 10923,3088 10973,3038 10923,2988 10873,3038 Z"/>
 <path fill="none" stroke="rgb(0,69,134)" stroke-linejoin="round" d="M 10873,3038 L 10923,3088 10973,3038 10923,2988 10873,3038 Z"/>
 <path fill="rgb(0,69,134)" stroke="none" d="M 12422,3304 L 12472,3354 12522,3304 12472,3254 12422,3304 Z"/>
 <path fill="none" stroke="rgb(0,69,134)" stroke-linejoin="round" d="M 12422,3304 L 12472,3354 12522,3304 12472,3254 12422,3304 Z"/>
 <path fill="rgb(0,69,134)" stroke="none" d="M 13972,3455 L 14022,3505 14072,3455 14022,3405 13972,3455 Z"/>
 <path fill="none" stroke="rgb(0,69,134)" stroke-linejoin="round" d="M 13972,3455 L 14022,3505 14072,3455 14022,3405 13972,3455 Z"/>
 <path fill="rgb(0,69,134)" stroke="none" d="M 15522,3591 L 15572,3641 15622,3591 15572,3541 15522,3591 Z"/>
 <path fill="none" stroke="rgb(0,69,134)" stroke-linejoin="round" d="M 15522,3591 L 15572,3641 15622,3591 15572,3541 15522,3591 Z"/>
 <path fill="rgb(0,69,134)" stroke="none" d="M 17072,3750 L 17122,3800 17172,3750 17122,3700 17072,3750 Z"/>
 <path fill="none" stroke="rgb(0,69,134)" stroke-linejoin="round" d="M 17072,3750 L 17122,3800 17172,3750 17122,3700 17072,3750 Z"/>
 <text class="TextShape"><tspan class="TextParagraph" font-family="Liberation Sans, sans-serif" font-size="353px" font-weight="400"><tspan class="TextPosition" x="1527" y="7372"><tspan fill="rgb(0,0,0)" stroke="none">1</tspan></tspan></tspan></text>
 <text class="TextShape"><tspan class="TextParagraph" font-family="Liberation Sans, sans-serif" font-size="353px" font-weight="400"><tspan class="TextPosition" x="3076" y="7372"><tspan fill="rgb(0,0,0)" stroke="none">2</tspan></tspan></tspan></text>
 <text class="TextShape"><tspan class="TextParagraph" font-family="Liberation Sans, sans-serif" font-size="353px" font-weight="400"><tspan class="TextPosition" x="4626" y="7372"><tspan fill="rgb(0,0,0)" stroke="none">4</tspan></tspan></tspan></text>
 <text class="TextShape"><tspan class="TextParagraph" font-family="Liberation Sans, sans-serif" font-size="353px" font-weight="400"><tspan class="TextPosition" x="6176" y="7372"><tspan fill="rgb(0,0,0)" stroke="none">8</tspan></tspan></tspan></text>
 <text class="TextShape"><tspan class="TextParagraph" font-family="Liberation Sans, sans-serif" font-size="353px" font-weight="400"><tspan class="TextPosition" x="7625" y="7372"><tspan fill="rgb(0,0,0)" stroke="none">16</tspan></tspan></tspan></text>
 <text class="TextShape"><tspan class="TextParagraph" font-family="Liberation Sans, sans-serif" font-size="353px" font-weight="400"><tspan class="TextPosition" x="9175" y="7372"><tspan fill="rgb(0,0,0)" stroke="none">32</tspan></tspan></tspan></text>
 <text class="TextShape"><tspan class="TextParagraph" font-family="Liberation Sans, sans-serif" font-size="353px" font-weight="400"><tspan class="TextPosition" x="10725" y="7372"><tspan fill="rgb(0,0,0)" stroke="none">64</tspan></tspan></tspan></text>
 <text class="TextShape"><tspan class="TextParagraph" font-family="Liberation Sans, sans-serif" font-size="353px" font-weight="400"><tspan class="TextPosition" x="12175" y="7372"><tspan fill="rgb(0,0,0)" stroke="none">128</tspan></tspan></tspan></text>
 <text class="TextShape"><tspan class="TextParagraph" font-family="Liberation Sans, sans-serif" font-size="353px" font-weight="400"><tspan class="TextPosition" x="13725" y="7372"><tspan fill="rgb(0,0,0)" stroke="none">256</tspan></tspan></tspan></text>
 <text class="TextShape"><tspan class="TextParagraph" font-family="Liberation Sans, sans-serif" font-size="353px" font-weight="400"><tspan class="TextPosition" x="15275" y="7372"><tspan fill="rgb(0,0,0)" stroke="none">512</tspan></tspan></tspan></text>
 <text class="TextShape"><tspan class="TextParagraph" font-family="Liberation Sans, sans-serif" font-size="353px" font-weight="400"><tspan class="TextPosition" x="16726" y="7372"><tspan fill="rgb(0,0,0)" stroke="none">1024</tspan></tspan></tspan></text>
 <text class="TextShape"><tspan class="TextParagraph" font-family="Liberation Sans, sans-serif" font-size="71px" font-weight="400"><tspan class="TextPosition" x="1606" y="238"><tspan fill="rgb(255,255,255)" stroke="none">1</tspan></tspan></tspan></text>
 <text class="TextShape"><tspan class="TextParagraph" font-family="Liberation Sans, sans-serif" font-size="71px" font-weight="400"><tspan class="TextPosition" x="3155" y="238"><tspan fill="rgb(255,255,255)" stroke="none">2</tspan></tspan></tspan></text>
 <text class="TextShape"><tspan class="TextParagraph" font-family="Liberation Sans, sans-serif" font-size="71px" font-weight="400"><tspan class="TextPosition" x="4705" y="238"><tspan fill="rgb(255,255,255)" stroke="none">4</tspan></tspan></tspan></text>
 <text class="TextShape"><tspan class="TextParagraph" font-family="Liberation Sans, sans-serif" font-size="71px" font-weight="400"><tspan class="TextPosition" x="6255" y="238"><tspan fill="rgb(255,255,255)" stroke="none">8</tspan></tspan></tspan></text>
 <text class="TextShape"><tspan class="TextParagraph" font-family="Liberation Sans, sans-serif" font-size="71px" font-weight="400"><tspan class="TextPosition" x="7784" y="238"><tspan fill="rgb(255,255,255)" stroke="none">16</tspan></tspan></tspan></text>
 <text class="TextShape"><tspan class="TextParagraph" font-family="Liberation Sans, sans-serif" font-size="71px" font-weight="400"><tspan class="TextPosition" x="9334" y="238"><tspan fill="rgb(255,255,255)" stroke="none">32</tspan></tspan></tspan></text>
 <text class="TextShape"><tspan class="TextParagraph" font-family="Liberation Sans, sans-serif" font-size="71px" font-weight="400"><tspan class="TextPosition" x="10884" y="238"><tspan fill="rgb(255,255,255)" stroke="none">64</tspan></tspan></tspan></text>
 <text class="TextShape"><tspan class="TextParagraph" font-family="Liberation Sans, sans-serif" font-size="71px" font-weight="400"><tspan class="TextPosition" x="12413" y="238"><tspan fill="rgb(255,255,255)" stroke="none">128</tspan></tspan></tspan></text>
 <text class="TextShape"><tspan class="TextParagraph" font-family="Liberation Sans, sans-serif" font-size="71px" font-weight="400"><tspan class="TextPosition" x="13963" y="238"><tspan fill="rgb(255,255,255)" stroke="none">256</tspan></tspan></tspan></text>
 <text class="TextShape"><tspan class="TextParagraph" font-family="Liberation Sans, sans-serif" font-size="71px" font-weight="400"><tspan class="TextPosition" x="15513" y="238"><tspan fill="rgb(255,255,255)" stroke="none">512</tspan></tspan></tspan></text>
 <text class="TextShape"><tspan class="TextParagraph" font-family="Liberation Sans, sans-serif" font-size="71px" font-weight="400"><tspan class="TextPosition" x="17043" y="238"><tspan fill="rgb(255,255,255)" stroke="none">1024</tspan></tspan></tspan></text>
 <text class="TextShape"><tspan class="TextParagraph" font-family="Liberation Sans, sans-serif" font-size="353px" font-weight="400"><tspan class="TextPosition" x="582" y="6925"><tspan fill="rgb(0,0,0)" stroke="none">0.0 s</tspan></tspan></tspan></text>
 <text class="TextShape"><tspan class="TextParagraph" font-family="Liberation Sans, sans-serif" font-size="353px" font-weight="400"><tspan class="TextPosition" x="582" y="6279"><tspan fill="rgb(0,0,0)" stroke="none">2.0 s</tspan></tspan></tspan></text>
 <text class="TextShape"><tspan class="TextParagraph" font-family="Liberation Sans, sans-serif" font-size="353px" font-weight="400"><tspan class="TextPosition" x="582" y="5634"><tspan fill="rgb(0,0,0)" stroke="none">4.0 s</tspan></tspan></tspan></text>
 <text class="TextShape"><tspan class="TextParagraph" font-family="Liberation Sans, sans-serif" font-size="353px" font-weight="400"><tspan class="TextPosition" x="582" y="4988"><tspan fill="rgb(0,0,0)" stroke="none">6.0 s</tspan></tspan></tspan></text>
 <text class="TextShape"><tspan class="TextParagraph" font-family="Liberation Sans, sans-serif" font-size="353px" font-weight="400"><tspan class="TextPosition" x="582" y="4343"><tspan fill="rgb(0,0,0)" stroke="none">8.0 s</tspan></tspan></tspan></text>
 <text class="TextShape"><tspan class="TextParagraph" font-family="Liberation Sans, sans-serif" font-size="353px" font-weight="400"><tspan class="TextPosition" x="384" y="3697"><tspan fill="rgb(0,0,0)" stroke="none">10.0 s</tspan></tspan></tspan></text>
 <text class="TextShape"><tspan class="TextParagraph" font-family="Liberation Sans, sans-serif" font-size="353px" font-weight="400"><tspan class="TextPosition" x="384" y="3051"><tspan fill="rgb(0,0,0)" stroke="none">12.0 s</tspan></tspan></tspan></text>
 <text class="TextShape"><tspan class="TextParagraph" font-family="Liberation Sans, sans-serif" font-size="353px" font-weight="400"><tspan class="TextPosition" x="384" y="2406"><tspan fill="rgb(0,0,0)" stroke="none">14.0 s</tspan></tspan></tspan></text>
 <text class="TextShape"><tspan class="TextParagraph" font-family="Liberation Sans, sans-serif" font-size="353px" font-weight="400"><tspan class="TextPosition" x="384" y="1761"><tspan fill="rgb(0,0,0)" stroke="none">16.0 s</tspan></tspan></tspan></text>
 <text class="TextShape"><tspan class="TextParagraph" font-family="Liberation Sans, sans-serif" font-size="353px" font-weight="400"><tspan class="TextPosition" x="384" y="1115"><tspan fill="rgb(0,0,0)" stroke="none">18.0 s</tspan></tspan></tspan></text>
 <text class="TextShape"><tspan class="TextParagraph" font-family="Liberation Sans, sans-serif" font-size="353px" font-weight="400"><tspan class="TextPosition" x="384" y="470"><tspan fill="rgb(0,0,0)" stroke="none">20.0 s</tspan></tspan></tspan></text>
 <text class="TextShape"><tspan class="TextParagraph" font-family="Liberation Sans, sans-serif" font-size="353px" font-weight="400"><tspan class="TextPosition" x="17372" y="6925"><tspan fill="rgb(0,0,0)" stroke="none">0%</tspan></tspan></tspan></text>
 <text class="TextShape"><tspan class="TextParagraph" font-family="Liberation Sans, sans-serif" font-size="353px" font-weight="400"><tspan class="TextPosition" x="17372" y="5743"><tspan fill="rgb(0,0,0)" stroke="none">20%</tspan></tspan></tspan></text>
 <text class="TextShape"><tspan class="TextParagraph" font-family="Liberation Sans, sans-serif" font-size="353px" font-weight="400"><tspan class="TextPosition" x="17372" y="4562"><tspan fill="rgb(0,0,0)" stroke="none">40%</tspan></tspan></tspan></text>
 <text class="TextShape"><tspan class="TextParagraph" font-family="Liberation Sans, sans-serif" font-size="353px" font-weight="400"><tspan class="TextPosition" x="17372" y="3381"><tspan fill="rgb(0,0,0)" stroke="none">60%</tspan></tspan></tspan></text>
 <text class="TextShape"><tspan class="TextParagraph" font-family="Liberation Sans, sans-serif" font-size="353px" font-weight="400"><tspan class="TextPosition" x="17372" y="2200"><tspan fill="rgb(0,0,0)" stroke="none">80%</tspan></tspan></tspan></text>
 <text class="TextShape"><tspan class="TextParagraph" font-family="Liberation Sans, sans-serif" font-size="353px" font-weight="400"><tspan class="TextPosition" x="17372" y="1018"><tspan fill="rgb(0,0,0)" stroke="none">100%</tspan></tspan></tspan></text>
 <text class="TextShape"><tspan class="TextParagraph" font-family="Liberation Sans, sans-serif" font-size="353px" font-weight="400"><tspan class="TextPosition" x="1269" y="1427"><tspan fill="rgb(0,69,134)" stroke="none">99%</tspan></tspan></tspan></text>
 <text class="TextShape"><tspan class="TextParagraph" font-family="Liberation Sans, sans-serif" font-size="353px" font-weight="400"><tspan class="TextPosition" x="2718" y="1367"><tspan fill="rgb(0,69,134)" stroke="none">100%</tspan></tspan></tspan></text>
 <text class="TextShape"><tspan class="TextParagraph" font-family="Liberation Sans, sans-serif" font-size="353px" font-weight="400"><tspan class="TextPosition" x="4368" y="1755"><tspan fill="rgb(0,69,134)" stroke="none">93%</tspan></tspan></tspan></text>
 <text class="TextShape"><tspan class="TextParagraph" font-family="Liberation Sans, sans-serif" font-size="353px" font-weight="400"><tspan class="TextPosition" x="5918" y="2376"><tspan fill="rgb(0,69,134)" stroke="none">83%</tspan></tspan></tspan></text>
 <text class="TextShape"><tspan class="TextParagraph" font-family="Liberation Sans, sans-serif" font-size="353px" font-weight="400"><tspan class="TextPosition" x="7467" y="2895"><tspan fill="rgb(0,69,134)" stroke="none">74%</tspan></tspan></tspan></text>
 <text class="TextShape"><tspan class="TextParagraph" font-family="Liberation Sans, sans-serif" font-size="353px" font-weight="400"><tspan class="TextPosition" x="9017" y="3338"><tspan fill="rgb(0,69,134)" stroke="none">67%</tspan></tspan></tspan></text>
 <text class="TextShape"><tspan class="TextParagraph" font-family="Liberation Sans, sans-serif" font-size="353px" font-weight="400"><tspan class="TextPosition" x="10567" y="3507"><tspan fill="rgb(0,69,134)" stroke="none">64%</tspan></tspan></tspan></text>
 <text class="TextShape"><tspan class="TextParagraph" font-family="Liberation Sans, sans-serif" font-size="353px" font-weight="400"><tspan class="TextPosition" x="12116" y="3773"><tspan fill="rgb(0,69,134)" stroke="none">59%</tspan></tspan></tspan></text>
 <text class="TextShape"><tspan class="TextParagraph" font-family="Liberation Sans, sans-serif" font-size="353px" font-weight="400"><tspan class="TextPosition" x="13666" y="3923"><tspan fill="rgb(0,69,134)" stroke="none">57%</tspan></tspan></tspan></text>
 <text class="TextShape"><tspan class="TextParagraph" font-family="Liberation Sans, sans-serif" font-size="353px" font-weight="400"><tspan class="TextPosition" x="15216" y="4059"><tspan fill="rgb(0,69,134)" stroke="none">54%</tspan></tspan></tspan></text>
 <text class="TextShape"><tspan class="TextParagraph" font-family="Liberation Sans, sans-serif" font-size="353px" font-weight="400"><tspan class="TextPosition" x="16766" y="4218"><tspan fill="rgb(0,69,134)" stroke="none">52%</tspan></tspan></tspan></text>
</svg>