<?xml version="1.0" encoding="UTF-8" standalone="no"?>
<!DOCTYPE svg PUBLIC "-//W3C//DTD SVG 1.0//EN" "http://www.w3.org/TR/2001/PR-SVG-20010719/DTD/svg10.dtd">
<svg width="46cm" height="30cm" viewBox="439 -262 902 583" xmlns="http://www.w3.org/2000/svg" xmlns:xlink="http://www.w3.org/1999/xlink">
  <g id="Background">
    <g>
      <rect style="fill: #ffffff; fill-opacity: 1; stroke-opacity: 1; stroke-width: 2; stroke-dasharray: 2; stroke: #000000" x="440" y="-140" width="900" height="460" rx="0" ry="0"/>
      <text font-size="12.8" style="fill: #000000; fill-opacity: 1; stroke: none;text-anchor:middle;font-family:sans-serif;font-style:normal;font-weight:normal" x="890" y="93.8812">
        <tspan x="890" y="93.8812"></tspan>
      </text>
    </g>
    <g>
      <line style="fill: none; stroke-opacity: 1; stroke-width: 2; stroke: #000000" x1="960" y1="60" x2="960" y2="100"/>
      <path style="fill: none; stroke-opacity: 1; stroke-width: 2; stroke: #000000" d="M 960,100 A 20,20 0 0 1 940,120"/>
      <line style="fill: none; stroke-opacity: 1; stroke-width: 2; stroke: #000000" x1="940" y1="120" x2="710" y2="120"/>
      <path style="fill: none; stroke-opacity: 1; stroke-width: 2; stroke: #000000" d="M 710,120 A 20,20 0 0 1 690,100"/>
      <line style="fill: none; stroke-opacity: 1; stroke-width: 2; stroke: #000000" x1="690" y1="100" x2="690" y2="10"/>
      <path style="fill: #000000; fill-opacity: 1; stroke-opacity: 1; stroke-width: 2; stroke: #000000" fill-rule="evenodd" d="M 690 10 C 692.5,10 695,12.5 695,15 C 695,17.5 692.5,20 690,20 C 687.5,20 685,17.5 685,15 C 685,12.5 687.5,10 690,10z"/>
    </g>
    <g>
      <line style="fill: none; stroke-opacity: 1; stroke-width: 2; stroke: #000000" x1="1020" y1="60" x2="1020" y2="120"/>
      <path style="fill: none; stroke-opacity: 1; stroke-width: 2; stroke: #000000" d="M 1020,120 A 20,20 0 0 1 1000,140"/>
      <line style="fill: none; stroke-opacity: 1; stroke-width: 2; stroke: #000000" x1="1000" y1="140" x2="590" y2="140"/>
      <path style="fill: none; stroke-opacity: 1; stroke-width: 2; stroke: #000000" d="M 590,140 A 20,20 0 0 0 570,160"/>
      <line style="fill: none; stroke-opacity: 1; stroke-width: 2; stroke: #000000" x1="570" y1="160" x2="570" y2="200"/>
      <path style="fill: #000000; fill-opacity: 1; stroke-opacity: 1; stroke-width: 2; stroke: #000000" fill-rule="evenodd" d="M 570 200 C 567.5,200 565,197.5 565,195 C 565,192.5 567.5,190 570,190 C 572.5,190 575,192.5 575,195 C 575,197.5 572.5,200 570,200z"/>
    </g>
    <g>
      <line style="fill: none; stroke-opacity: 1; stroke-width: 2; stroke: #000000" x1="1080" y1="60" x2="1080" y2="140"/>
      <path style="fill: none; stroke-opacity: 1; stroke-width: 2; stroke: #000000" d="M 1080,140 A 20,20 0 0 1 1060,160"/>
      <line style="fill: none; stroke-opacity: 1; stroke-width: 2; stroke: #000000" x1="1060" y1="160" x2="904.142" y2="160"/>
      <path style="fill: none; stroke-opacity: 1; stroke-width: 2; stroke: #000000" d="M 904.142,160 A 14.1421,14.1421 0 0 0 890,174.142"/>
      <line style="fill: none; stroke-opacity: 1; stroke-width: 2; stroke: #000000" x1="890" y1="174.142" x2="890" y2="200"/>
      <path style="fill: #000000; fill-opacity: 1; stroke-opacity: 1; stroke-width: 2; stroke: #000000" fill-rule="evenodd" d="M 890 200 C 887.5,200 885,197.5 885,195 C 885,192.5 887.5,190 890,190 C 892.5,190 895,192.5 895,195 C 895,197.5 892.5,200 890,200z"/>
    </g>
    <g>
      <line style="fill: none; stroke-opacity: 1; stroke-width: 2; stroke: #000000" x1="1140" y1="60" x2="1140" y2="140"/>
      <path style="fill: none; stroke-opacity: 1; stroke-width: 2; stroke: #000000" d="M 1140,140 A 20,20 0 0 0 1160,160"/>
      <line style="fill: none; stroke-opacity: 1; stroke-width: 2; stroke: #000000" x1="1160" y1="160" x2="1195.86" y2="160"/>
      <path style="fill: none; stroke-opacity: 1; stroke-width: 2; stroke: #000000" d="M 1195.86,160 A 14.1421,14.1421 0 0 1 1210,174.142"/>
      <line style="fill: none; stroke-opacity: 1; stroke-width: 2; stroke: #000000" x1="1210" y1="174.142" x2="1210" y2="200"/>
      <path style="fill: #000000; fill-opacity: 1; stroke-opacity: 1; stroke-width: 2; stroke: #000000" fill-rule="evenodd" d="M 1210 200 C 1207.5,200 1205,197.5 1205,195 C 1205,192.5 1207.5,190 1210,190 C 1212.5,190 1215,192.5 1215,195 C 1215,197.5 1212.5,200 1210,200z"/>
    </g>
    <g>
      <rect style="fill: #ffffff; fill-opacity: 1; stroke-opacity: 1; stroke-width: 2; stroke: #000000" x="540" y="-140" width="300" height="150" rx="0" ry="0"/>
      <text font-size="22.5778" style="fill: #000000; fill-opacity: 1; stroke: none;text-anchor:middle;font-family:sans-serif;font-style:normal;font-weight:normal" x="690" y="-58.1533">
        <tspan x="690" y="-58.1533"></tspan>
      </text>
    </g>
    <g>
      <rect style="fill: #ffffff; fill-opacity: 1; stroke-opacity: 1; stroke-width: 2; stroke: #000000" x="900" y="20" width="300" height="60" rx="0" ry="0"/>
      <text font-size="22.5778" style="fill: #000000; fill-opacity: 1; stroke: none;text-anchor:start;font-family:sans-serif;font-style:normal;font-weight:normal" x="909" y="56.8467">
        <tspan x="909" y="56.8467">Virtual switch</tspan>
      </text>
    </g>
    <g>
      <rect style="fill: #ffffff; fill-opacity: 1; stroke-opacity: 1; stroke-width: 2; stroke: #000000" x="1080" y="200" width="260" height="120" rx="0" ry="0"/>
      <text font-size="22.5778" style="fill: #000000; fill-opacity: 1; stroke: none;text-anchor:middle;font-family:sans-serif;font-style:normal;font-weight:normal" x="1210" y="266.847">
        <tspan x="1210" y="266.847"></tspan>
      </text>
    </g>
    <g>
      <rect style="fill: #ffffff; fill-opacity: 1; stroke-opacity: 1; stroke-width: 2; stroke: #000000" x="760" y="200" width="260" height="120" rx="0" ry="0"/>
      <text font-size="22.5778" style="fill: #000000; fill-opacity: 1; stroke: none;text-anchor:middle;font-family:sans-serif;font-style:normal;font-weight:normal" x="890" y="266.847">
        <tspan x="890" y="266.847"></tspan>
      </text>
    </g>
    <g>
      <rect style="fill: #ffffff; fill-opacity: 1; stroke-opacity: 1; stroke-width: 2; stroke: #000000" x="440" y="200" width="260" height="120" rx="0" ry="0"/>
      <text font-size="22.5778" style="fill: #000000; fill-opacity: 1; stroke: none;text-anchor:middle;font-family:sans-serif;font-style:normal;font-weight:normal" x="570" y="266.847">
        <tspan x="570" y="266.847"></tspan>
      </text>
    </g>
    <text font-size="14.6756" style="fill: #000000; fill-opacity: 1; stroke: none;text-anchor:middle;font-family:sans-serif;font-style:normal;font-weight:700" x="570" y="220">
      <tspan x="570" y="220">eth0</tspan>
      <tspan x="570" y="238.344">10.0.3.x</tspan>
    </text>
    <g>
      <path style="fill: #ffffff; fill-opacity: 1; stroke-opacity: 1; stroke-width: 2; stroke: #000000" fill-rule="evenodd" d="M 590.836 -243.183 C 579.384,-243.403 557.175,-238.783 560.298,-228.884 C 563.421,-218.984 578.343,-216.785 584.59,-219.644 C 590.836,-222.504 574.873,-205.785 605.411,-201.386 C 635.949,-196.986 651.565,-204.026 647.054,-209.085 C 642.543,-214.145 673.775,-197.206 688.35,-206.885 C 702.925,-216.565 673.428,-225.804 679.675,-224.484 C 685.921,-223.164 705.007,-224.924 698.761,-241.423 C 692.514,-257.922 636.296,-245.163 642.543,-247.583 C 648.789,-250.002 633.173,-262.102 613.74,-259.682 C 594.306,-257.262 592.928,-252.871 590.846,-243.191 L 590.836,-243.183z"/>
      <text font-size="12.8" style="fill: #000000; fill-opacity: 1; stroke: none;text-anchor:middle;font-family:sans-serif;font-style:normal;font-weight:normal" x="635.054" y="-224.508">
        <tspan x="635.054" y="-224.508"></tspan>
      </text>
    </g>
    <g>
      <path style="fill: #0078aa; fill-opacity: 1; stroke: none" fill-rule="evenodd" d="M 612.208 -9.22633 L 612.154,-9.79407 L 612.037,-10.3618 L 611.839,-10.9205 L 611.559,-11.4702 L 611.181,-12.029 L 610.739,-12.5697 L 610.208,-13.1013 L 609.613,-13.624 L 608.928,-14.1377 L 608.171,-14.6333 L 607.351,-15.111 L 606.459,-15.5976 L 605.494,-16.0572 L 604.467,-16.4897 L 603.368,-16.9043 L 602.214,-17.3008 L 601.016,-17.6883 L 599.754,-18.0397 L 598.447,-18.3732 L 597.087,-18.6886 L 595.681,-18.977 L 594.23,-19.2203 L 592.752,-19.4726 L 591.256,-19.6709 L 589.715,-19.8601 L 588.147,-20.0043 L 586.561,-20.1395 L 584.957,-20.2296 L 583.353,-20.3197 L 581.731,-20.3467 L 580.109,-20.3738 L 580.109,-20.3738 L 578.477,-20.3467 L 576.855,-20.3197 L 575.251,-20.2296 L 573.647,-20.1395 L 572.061,-20.0043 L 570.493,-19.8601 L 568.952,-19.6709 L 567.447,-19.4726 L 565.969,-19.2203 L 564.527,-18.977 L 563.122,-18.6886 L 561.761,-18.3732 L 560.454,-18.0397 L 559.192,-17.6883 L 557.985,-17.3008 L 556.84,-16.9043 L 555.741,-16.4897 L 554.714,-16.0572 L 553.749,-15.5976 L 552.857,-15.111 L 552.037,-14.6333 L 551.28,-14.1377 L 550.595,-13.624 L 550.001,-13.1013 L 549.469,-12.5697 L 549.027,-12.029 L 548.649,-11.4702 L 548.36,-10.9205 L 548.153,-10.3618 L 548.045,-9.79407 L 548,-9.22633 L 548,-9.22633 L 548.045,-8.66761 L 548.153,-8.09987 L 548.36,-7.54115 L 548.649,-6.99144 L 549.027,-6.43271 L 549.469,-5.89201 L 550.001,-5.36033 L 550.595,-4.83765 L 551.28,-4.32398 L 552.037,-3.82834 L 552.857,-3.3327 L 553.749,-2.86409 L 554.714,-2.4045 L 555.741,-1.97194 L 556.84,-1.53938 L 557.985,-1.14286 L 559.192,-0.773386 L 560.454,-0.41292 L 561.761,-0.0884995 L 563.122,0.226909 L 564.527,0.515282 L 565.969,0.776621 L 567.447,1.01092 L 568.952,1.2272 L 570.493,1.39843 L 572.061,1.56064 L 573.647,1.67779 L 575.251,1.78593 L 576.855,1.85802 L 578.477,1.90308 L 580.109,1.91209 L 580.109,1.91209 L 581.731,1.90308 L 583.353,1.85802 L 584.957,1.78593 L 586.561,1.67779 L 588.147,1.56064 L 589.715,1.39843 L 591.256,1.2272 L 592.752,1.01092 L 594.23,0.776621 L 595.681,0.515282 L 597.087,0.226909 L 598.447,-0.0884995 L 599.754,-0.41292 L 601.016,-0.773386 L 602.214,-1.14286 L 603.368,-1.53938 L 604.467,-1.97194 L 605.494,-2.4045 L 606.459,-2.86409 L 607.351,-3.3327 L 608.171,-3.82834 L 608.928,-4.32398 L 609.613,-4.83765 L 610.208,-5.36033 L 610.739,-5.89201 L 611.181,-6.43271 L 611.559,-6.99144 L 611.839,-7.54115 L 612.037,-8.09987 L 612.154,-8.66761 L 612.208,-9.22633z"/>
      <path style="fill: none; stroke-opacity: 1; stroke-width: 0.02; stroke: #aae6ff" d="M 611.83 -9.40657 L 611.785,-9.9743 L 611.676,-10.515 L 611.469,-11.0737 L 611.19,-11.6144 L 610.82,-12.1551 L 610.352,-12.6868 L 609.865,-13.2005 L 609.252,-13.7232 L 608.576,-14.2278 L 607.828,-14.7325 L 606.999,-15.2011 L 606.116,-15.6697 L 605.161,-16.1203 L 604.143,-16.5528 L 603.061,-16.9674 L 601.908,-17.3458 L 600.7,-17.7063 L 599.457,-18.0758 L 598.159,-18.3822 L 596.807,-18.7066 L 595.401,-18.986 L 593.978,-19.2383 L 592.518,-19.4726 L 591.013,-19.6709 L 589.49,-19.8601 L 587.922,-20.0043 L 586.354,-20.1395 L 584.759,-20.2296 L 583.155,-20.2927 L 581.541,-20.3467 L 579.928,-20.3467 L 579.928,-20.3467 L 578.297,-20.3467 L 576.693,-20.2927 L 575.08,-20.2296 L 573.503,-20.1395 L 571.926,-20.0043 L 570.367,-19.8601 L 568.835,-19.6709 L 567.33,-19.4726 L 565.861,-19.2383 L 564.437,-18.986 L 563.031,-18.7066 L 561.68,-18.3822 L 560.391,-18.0758 L 559.138,-17.7063 L 557.931,-17.3458 L 556.786,-16.9674 L 555.714,-16.5528 L 554.696,-16.1203 L 553.731,-15.6697 L 552.83,-15.2011 L 552.028,-14.7325 L 551.271,-14.2278 L 550.595,-13.7232 L 550.001,-13.2005 L 549.478,-12.6868 L 549.027,-12.1551 L 548.667,-11.6144 L 548.378,-11.0737 L 548.171,-10.515 L 548.054,-9.9743 L 548.009,-9.40657 L 548.009,-9.40657 L 548.054,-8.85685 L 548.171,-8.28912 L 548.378,-7.75743 L 548.667,-7.20772 L 549.027,-6.65801 L 549.478,-6.13533 L 550.001,-5.61265 L 550.595,-5.08998 L 551.271,-4.59433 L 552.028,-4.08968 L 552.83,-3.61206 L 553.731,-3.16148 L 554.696,-2.70188 L 555.714,-2.26031 L 556.786,-1.8638 L 557.931,-1.4763 L 559.138,-1.10682 L 560.391,-0.746351 L 561.68,-0.430943 L 563.031,-0.124546 L 564.437,0.163827 L 565.861,0.416154 L 567.33,0.641446 L 568.835,0.857726 L 570.367,1.03796 L 571.926,1.18215 L 573.503,1.30831 L 575.08,1.39843 L 576.693,1.47953 L 578.297,1.52459 L 579.928,1.5336 L 579.928,1.5336 L 581.541,1.52459 L 583.155,1.47953 L 584.759,1.39843 L 586.354,1.30831 L 587.922,1.18215 L 589.49,1.03796 L 591.013,0.857726 L 592.518,0.641446 L 593.978,0.416154 L 595.401,0.163827 L 596.807,-0.124546 L 598.159,-0.430943 L 599.457,-0.746351 L 600.7,-1.10682 L 601.908,-1.4763 L 603.061,-1.8638 L 604.143,-2.26031 L 605.161,-2.70188 L 606.116,-3.16148 L 606.999,-3.61206 L 607.828,-4.08968 L 608.576,-4.59433 L 609.252,-5.08998 L 609.865,-5.61265 L 610.352,-6.13533 L 610.82,-6.65801 L 611.19,-7.20772 L 611.469,-7.75743 L 611.676,-8.28912 L 611.785,-8.85685 L 611.83,-9.40657"/>
      <path style="fill: #0078aa; fill-opacity: 1; stroke: none" fill-rule="evenodd" d="M 548.009 -24.6633 L 548.009,-9.01906 L 611.83,-9.01906 L 611.83,-24.6633 L 548.009,-24.6633z"/>
      <path style="fill: #00b4ff; fill-opacity: 1; stroke: none" fill-rule="evenodd" d="M 612.208 -24.8526 L 612.154,-25.4203 L 612.037,-25.997 L 611.839,-26.5468 L 611.559,-27.1055 L 611.181,-27.6642 L 610.739,-28.2049 L 610.208,-28.7366 L 609.613,-29.2503 L 608.928,-29.7729 L 608.171,-30.2596 L 607.351,-30.7552 L 606.459,-31.2238 L 605.494,-31.6924 L 604.467,-32.116 L 603.368,-32.5395 L 602.214,-32.945 L 601.016,-33.3235 L 599.754,-33.675 L 598.447,-34.0084 L 597.087,-34.3148 L 595.681,-34.5942 L 594.23,-34.8645 L 592.752,-35.0988 L 591.256,-35.3151 L 589.715,-35.4953 L 588.147,-35.6485 L 586.561,-35.7747 L 584.957,-35.8738 L 583.353,-35.9459 L 581.731,-35.991 L 580.109,-36 L 580.109,-36 L 578.477,-35.991 L 576.855,-35.9459 L 575.251,-35.8738 L 573.647,-35.7747 L 572.061,-35.6485 L 570.493,-35.4953 L 568.952,-35.3151 L 567.447,-35.0988 L 565.969,-34.8645 L 564.527,-34.5942 L 563.122,-34.3148 L 561.761,-34.0084 L 560.454,-33.675 L 559.192,-33.3235 L 557.985,-32.945 L 556.84,-32.5395 L 555.741,-32.116 L 554.714,-31.6924 L 553.749,-31.2238 L 552.857,-30.7552 L 552.037,-30.2596 L 551.28,-29.7729 L 550.595,-29.2503 L 550.001,-28.7366 L 549.469,-28.2049 L 549.027,-27.6642 L 548.649,-27.1055 L 548.36,-26.5468 L 548.153,-25.997 L 548.045,-25.4203 L 548,-24.8526 L 548,-24.8526 L 548.045,-24.2938 L 548.153,-23.7261 L 548.36,-23.1674 L 548.649,-22.6267 L 549.027,-22.068 L 549.469,-21.5273 L 550.001,-20.9956 L 550.595,-20.4639 L 551.28,-19.9502 L 552.037,-19.4636 L 552.857,-18.977 L 553.749,-18.4903 L 554.714,-18.0397 L 555.741,-17.6072 L 556.84,-17.1836 L 557.985,-16.7871 L 559.192,-16.3996 L 560.454,-16.0572 L 561.761,-15.7237 L 563.122,-15.4083 L 564.527,-15.111 L 565.969,-14.8676 L 567.447,-14.6243 L 568.952,-14.408 L 570.493,-14.2368 L 572.061,-14.0836 L 573.647,-13.9575 L 575.251,-13.8583 L 576.855,-13.7772 L 578.477,-13.7322 L 580.109,-13.7232 L 580.109,-13.7232 L 581.731,-13.7322 L 583.353,-13.7772 L 584.957,-13.8583 L 586.561,-13.9575 L 588.147,-14.0836 L 589.715,-14.2368 L 591.256,-14.408 L 592.752,-14.6243 L 594.23,-14.8676 L 595.681,-15.111 L 597.087,-15.4083 L 598.447,-15.7237 L 599.754,-16.0572 L 601.016,-16.3996 L 602.214,-16.7871 L 603.368,-17.1836 L 604.467,-17.6072 L 605.494,-18.0397 L 606.459,-18.4903 L 607.351,-18.977 L 608.171,-19.4636 L 608.928,-19.9502 L 609.613,-20.4639 L 610.208,-20.9956 L 610.739,-21.5273 L 611.181,-22.068 L 611.559,-22.6267 L 611.839,-23.1674 L 612.037,-23.7261 L 612.154,-24.2938 L 612.208,-24.8526z"/>
      <path style="fill: none; stroke-opacity: 1; stroke-width: 0.02; stroke: #aae6ff" d="M 611.83 -25.0418 L 611.785,-25.6095 L 611.676,-26.1502 L 611.469,-26.7 L 611.19,-27.2497 L 610.82,-27.7814 L 610.352,-28.3311 L 609.865,-28.8357 L 609.252,-29.3584 L 608.576,-29.854 L 607.828,-30.3677 L 606.999,-30.8273 L 606.116,-31.3049 L 605.161,-31.7555 L 604.143,-32.17 L 603.061,-32.6026 L 601.908,-32.9631 L 600.7,-33.3506 L 599.457,-33.702 L 598.159,-34.0264 L 596.807,-34.3419 L 595.401,-34.6212 L 593.978,-34.8735 L 592.518,-35.0988 L 591.013,-35.3151 L 589.49,-35.4953 L 587.922,-35.6395 L 586.354,-35.7747 L 584.759,-35.8648 L 583.155,-35.9369 L 581.541,-35.982 L 579.928,-35.991 L 579.928,-35.991 L 578.297,-35.982 L 576.693,-35.9369 L 575.08,-35.8648 L 573.503,-35.7747 L 571.926,-35.6395 L 570.367,-35.4953 L 568.835,-35.3151 L 567.33,-35.0988 L 565.861,-34.8735 L 564.437,-34.6212 L 563.031,-34.3419 L 561.68,-34.0264 L 560.391,-33.702 L 559.138,-33.3506 L 557.931,-32.9631 L 556.786,-32.6026 L 555.714,-32.17 L 554.696,-31.7555 L 553.731,-31.3049 L 552.83,-30.8273 L 552.028,-30.3677 L 551.271,-29.854 L 550.595,-29.3584 L 550.001,-28.8357 L 549.478,-28.3311 L 549.027,-27.7814 L 548.667,-27.2497 L 548.378,-26.7 L 548.171,-26.1502 L 548.054,-25.6095 L 548.009,-25.0418 L 548.009,-25.0418 L 548.054,-24.4831 L 548.171,-23.9334 L 548.378,-23.3837 L 548.667,-22.843 L 549.027,-22.3023 L 549.478,-21.7616 L 550.001,-21.2479 L 550.595,-20.7252 L 551.271,-20.2296 L 552.028,-19.7249 L 552.83,-19.2473 L 553.731,-18.7967 L 554.696,-18.3371 L 555.714,-17.9046 L 556.786,-17.499 L 557.931,-17.1115 L 559.138,-16.7421 L 560.391,-16.3906 L 561.68,-16.0662 L 563.031,-15.7508 L 564.437,-15.4534 L 565.861,-15.2191 L 567.33,-14.9758 L 568.835,-14.7685 L 570.367,-14.5973 L 571.926,-14.4351 L 573.503,-14.3089 L 575.08,-14.2278 L 576.693,-14.1467 L 578.297,-14.1016 L 579.928,-14.0926 L 579.928,-14.0926 L 581.541,-14.1016 L 583.155,-14.1467 L 584.759,-14.2278 L 586.354,-14.3089 L 587.922,-14.4351 L 589.49,-14.5973 L 591.013,-14.7685 L 592.518,-14.9758 L 593.978,-15.2191 L 595.401,-15.4534 L 596.807,-15.7508 L 598.159,-16.0662 L 599.457,-16.3906 L 600.7,-16.7421 L 601.908,-17.1115 L 603.061,-17.499 L 604.143,-17.9046 L 605.161,-18.3371 L 606.116,-18.7967 L 606.999,-19.2473 L 607.828,-19.7249 L 608.576,-20.2296 L 609.252,-20.7252 L 609.865,-21.2479 L 610.352,-21.7616 L 610.82,-22.3023 L 611.19,-22.843 L 611.469,-23.3837 L 611.676,-23.9334 L 611.785,-24.4831 L 611.83,-25.0418"/>
      <path style="fill: #000000; fill-opacity: 1; stroke: none" fill-rule="evenodd" d="M 580.703 -27.3848 L 585.371,-25.8168 L 596.663,-30.5209 L 601.719,-28.9619 L 598.988,-32.8549 L 585.768,-32.8549 L 591.202,-31.6924 L 580.703,-27.3848z"/>
      <path style="fill: #000000; fill-opacity: 1; stroke: none" fill-rule="evenodd" d="M 578.748 -23.0863 L 574.089,-24.6633 L 563.185,-19.9502 L 557.742,-21.5273 L 560.454,-17.2287 L 574.089,-17.2287 L 568.24,-18.7967 L 578.748,-23.0863z"/>
      <path style="fill: #000000; fill-opacity: 1; stroke: none" fill-rule="evenodd" d="M 558.904 -31.6924 L 563.563,-33.2514 L 574.864,-28.9619 L 579.928,-30.1244 L 577.207,-26.2314 L 563.96,-26.2314 L 569.403,-27.3848 L 558.904,-31.6924z"/>
      <path style="fill: #000000; fill-opacity: 1; stroke: none" fill-rule="evenodd" d="M 600.935 -18.4092 L 596.257,-16.8412 L 585.371,-21.5273 L 579.928,-19.9502 L 582.65,-23.8793 L 596.257,-23.8793 L 590.427,-22.7078 L 600.935,-18.4092z"/>
      <path style="fill: #ffffff; fill-opacity: 1; stroke: none" fill-rule="evenodd" d="M 581.091 -26.9973 L 585.768,-25.4383 L 597.032,-30.1244 L 602.106,-28.5564 L 599.376,-32.4764 L 586.146,-32.4764 L 591.598,-31.3139 L 581.091,-26.9973z"/>
      <path style="fill: #ffffff; fill-opacity: 1; stroke: none" fill-rule="evenodd" d="M 579.144 -22.7078 L 574.458,-24.2668 L 563.563,-19.5807 L 558.12,-21.1398 L 560.842,-16.8412 L 574.458,-16.8412 L 568.628,-18.4092 L 579.144,-22.7078z"/>
      <path style="fill: #ffffff; fill-opacity: 1; stroke: none" fill-rule="evenodd" d="M 559.292 -31.3139 L 563.96,-32.8549 L 575.251,-28.5564 L 580.307,-29.7459 L 577.594,-25.8168 L 564.347,-25.8168 L 569.808,-26.9973 L 559.292,-31.3139z"/>
      <path style="fill: #ffffff; fill-opacity: 1; stroke: none" fill-rule="evenodd" d="M 601.313 -18.0037 L 596.663,-16.4447 L 585.768,-21.1398 L 580.307,-19.5807 L 583.028,-23.4738 L 596.663,-23.4738 L 590.823,-22.3113 L 601.313,-18.0037z"/>
      <path style="fill: none; stroke-opacity: 1; stroke-width: 0.02; stroke: #aae6ff" d="M 548.009 -25.0418 L 548.009,-9.42459"/>
      <path style="fill: none; stroke-opacity: 1; stroke-width: 0.02; stroke: #aae6ff" d="M 611.83 -25.0418 L 611.83,-9.42459"/>
    </g>
    <g>
      <path style="fill: #0096d4; fill-opacity: 1; stroke: none" fill-rule="evenodd" d="M 1090 51.6364 L 1090,70 L 1162.64,70 L 1162.64,51.6364 L 1090,51.6364z"/>
      <path style="fill: none; stroke-opacity: 1; stroke-width: 0.02; stroke: #aae6ff" d="M 1090 51.6364 L 1090,70 L 1162.64,70 L 1162.64,51.6364 L 1090,51.6364"/>
      <path style="fill: #005a80; fill-opacity: 1; stroke: none" fill-rule="evenodd" d="M 1162.64 51.6364 L 1185.14,30 L 1185.14,48.3636 L 1162.64,70 L 1162.64,51.6364z"/>
      <path style="fill: none; stroke-opacity: 1; stroke-width: 0.02; stroke: #aae6ff" d="M 1162.64 51.6364 L 1185.14,30 L 1185.14,48.3636 L 1162.64,70 L 1162.64,51.6364"/>
      <path style="fill: #00b4ff; fill-opacity: 1; stroke: none" fill-rule="evenodd" d="M 1162.64 51.6364 L 1185.14,30 L 1112.45,30 L 1090,51.6364 L 1162.64,51.6364z"/>
      <path style="fill: none; stroke-opacity: 1; stroke-width: 0.02; stroke: #aae6ff" d="M 1162.64 51.6364 L 1185.14,30 L 1112.45,30 L 1090,51.6364 L 1162.64,51.6364"/>
      <path style="fill: #000000; fill-opacity: 1; stroke: none" fill-rule="evenodd" d="M 1135.55 41.157 L 1132.93,43.7355 L 1151.4,43.7355 L 1148.78,47.0413 L 1163.97,43.0909 L 1156.05,39.8347 L 1154.05,41.157 L 1135.55,41.157z"/>
      <path style="fill: #000000; fill-opacity: 1; stroke: none" fill-rule="evenodd" d="M 1144.81 32.6281 L 1142.17,35.2397 L 1160.66,35.2397 L 1157.36,38.5124 L 1173.21,33.9504 L 1164.63,30.6446 L 1163.34,32.6281 L 1144.81,32.6281z"/>
      <path style="fill: #000000; fill-opacity: 1; stroke: none" fill-rule="evenodd" d="M 1128.94 48.3636 L 1131.64,45.719 L 1112.45,45.719 L 1115.75,42.4463 L 1100.53,46.3636 L 1108.48,49.6694 L 1109.82,48.3636 L 1128.94,48.3636z"/>
      <path style="fill: #000000; fill-opacity: 1; stroke: none" fill-rule="evenodd" d="M 1137.55 39.1405 L 1140.2,36.5785 L 1121.7,36.5785 L 1125.02,33.2727 L 1109.14,37.8512 L 1117.72,41.157 L 1119.04,39.1405 L 1137.55,39.1405z"/>
      <path style="fill: #ffffff; fill-opacity: 1; stroke: none" fill-rule="evenodd" d="M 1136.21 41.7686 L 1133.59,44.3967 L 1152.08,44.3967 L 1149.44,47.686 L 1164.63,43.7355 L 1156.68,40.4793 L 1154.73,41.7686 L 1136.21,41.7686z"/>
      <path style="fill: #ffffff; fill-opacity: 1; stroke: none" fill-rule="evenodd" d="M 1145.47 33.2727 L 1142.83,35.8843 L 1161.32,35.8843 L 1158.02,39.1405 L 1173.88,34.562 L 1165.31,31.3058 L 1163.97,33.2727 L 1145.47,33.2727z"/>
      <path style="fill: #ffffff; fill-opacity: 1; stroke: none" fill-rule="evenodd" d="M 1129.6 49.0083 L 1132.25,46.3636 L 1113.12,46.3636 L 1116.38,43.0909 L 1101.21,47.0413 L 1109.14,50.314 L 1110.45,49.0083 L 1129.6,49.0083z"/>
      <path style="fill: #ffffff; fill-opacity: 1; stroke: none" fill-rule="evenodd" d="M 1138.18 39.8347 L 1140.86,37.1901 L 1122.33,37.1901 L 1125.65,33.9504 L 1109.82,38.5124 L 1118.4,41.7686 L 1119.69,39.8347 L 1138.18,39.8347z"/>
    </g>
    <g>
      <path style="fill: #b7b79d; fill-opacity: 1; stroke: none" fill-rule="evenodd" d="M 450 297.365 L 475.884,297.365 L 475.884,302.149 L 450,302.149 L 450,297.365z"/>
      <path style="fill: none; stroke-opacity: 1; stroke-width: 0.02; stroke: #494936" d="M 450 297.365 L 475.884,297.365 L 475.884,302.149 L 450,302.149 L 450,297.365"/>
      <path style="fill: #c9c9b6; fill-opacity: 1; stroke: none" fill-rule="evenodd" d="M 450 297.365 L 452.745,294.763 L 478.629,294.763 L 475.884,297.365 L 450,297.365z"/>
      <path style="fill: none; stroke-opacity: 1; stroke-width: 0.02; stroke: #494936" d="M 450 297.365 L 452.745,294.763 L 478.629,294.763 L 475.884,297.365 L 450,297.365"/>
      <path style="fill: none; stroke-opacity: 1; stroke-width: 2.12; stroke: #000000" d="M 474.437 299.543 L 468.226,299.543"/>
      <path style="fill: #7a7a5a; fill-opacity: 1; stroke: none" fill-rule="evenodd" d="M 475.884 302.149 L 478.629,299.396 L 478.629,294.763 L 475.884,297.365 L 475.884,302.149z"/>
      <path style="fill: none; stroke-opacity: 1; stroke-width: 0.02; stroke: #494936" d="M 475.884 302.149 L 478.629,299.396 L 478.629,294.763 L 475.884,297.365 L 475.884,302.149"/>
      <path style="fill: #c9c9b6; fill-opacity: 1; stroke: none" fill-rule="evenodd" d="M 450.147 305.183 L 453.034,301.566 L 472.993,301.566 L 470.106,305.183 L 450.147,305.183z"/>
      <path style="fill: none; stroke-opacity: 1; stroke-width: 0.02; stroke: #494936" d="M 450.147 305.183 L 453.034,301.566 L 472.993,301.566 L 470.106,305.183 L 450.147,305.183"/>
      <path style="fill: #7a7a5a; fill-opacity: 1; stroke: none" fill-rule="evenodd" d="M 470.106 305.905 L 472.993,302.871 L 472.993,301.566 L 470.106,305.183 L 470.106,305.905z"/>
      <path style="fill: none; stroke-opacity: 1; stroke-width: 0.02; stroke: #494936" d="M 470.106 305.905 L 472.993,302.871 L 472.993,301.566 L 470.106,305.183 L 470.106,305.905"/>
      <path style="fill: #b7b79d; fill-opacity: 1; stroke: none" fill-rule="evenodd" d="M 450.147 305.183 L 470.106,305.183 L 470.106,305.905 L 450.147,305.905 L 450.147,305.183z"/>
      <path style="fill: none; stroke-opacity: 1; stroke-width: 0.02; stroke: #494936" d="M 450.147 305.183 L 470.106,305.183 L 470.106,305.905 L 450.147,305.905 L 450.147,305.183"/>
      <path style="fill: #000000; fill-opacity: 1; stroke: none" fill-rule="evenodd" d="M 453.903 296.79 L 456.077,294.763 L 474.437,294.763 L 472.418,296.79 L 453.903,296.79z"/>
      <path style="fill: none; stroke-opacity: 1; stroke-width: 0.02; stroke: #000000" d="M 453.903 296.79 L 456.077,294.763 L 474.437,294.763 L 472.418,296.79 L 453.903,296.79"/>
      <path style="fill: #c9c9b6; fill-opacity: 1; stroke: none" fill-rule="evenodd" d="M 453.756 281.88 L 455.787,280 L 474.155,280 L 472.124,281.88 L 453.756,281.88z"/>
      <path style="fill: none; stroke-opacity: 1; stroke-width: 0.02; stroke: #494936" d="M 453.756 281.88 L 455.787,280 L 474.155,280 L 472.124,281.88 L 453.756,281.88"/>
      <path style="fill: #b7b79d; fill-opacity: 1; stroke: none" fill-rule="evenodd" d="M 453.756 281.88 L 472.271,281.88 L 472.271,296.496 L 453.756,296.496 L 453.756,281.88z"/>
      <path style="fill: none; stroke-opacity: 1; stroke-width: 0.02; stroke: #494936" d="M 453.756 281.88 L 472.263,281.88 L 472.263,296.492 L 453.756,296.492 L 453.756,281.88"/>
      <path style="fill: #ffffff; fill-opacity: 1; stroke: none" fill-rule="evenodd" d="M 455.347 283.756 L 470.677,283.756 L 470.677,295.049 L 455.347,295.049 L 455.347,283.756z"/>
      <path style="fill: none; stroke-opacity: 1; stroke-width: 0.02; stroke: #494936" d="M 455.347 283.756 L 470.677,283.756 L 470.677,295.045 L 455.347,295.045 L 455.347,283.756"/>
      <path style="fill: #7a7a5a; fill-opacity: 1; stroke: none" fill-rule="evenodd" d="M 472.124 296.358 L 474.155,294.331 L 474.155,280 L 472.124,281.88 L 472.124,296.358z"/>
      <path style="fill: none; stroke-opacity: 1; stroke-width: 0.02; stroke: #494936" d="M 472.124 296.358 L 474.155,294.331 L 474.155,280 L 472.124,281.88 L 472.124,296.358"/>
    </g>
    <g>
      <path style="fill: #b7b79d; fill-opacity: 1; stroke: none" fill-rule="evenodd" d="M 770 297.365 L 795.884,297.365 L 795.884,302.149 L 770,302.149 L 770,297.365z"/>
      <path style="fill: none; stroke-opacity: 1; stroke-width: 0.02; stroke: #494936" d="M 770 297.365 L 795.884,297.365 L 795.884,302.149 L 770,302.149 L 770,297.365"/>
      <path style="fill: #c9c9b6; fill-opacity: 1; stroke: none" fill-rule="evenodd" d="M 770 297.365 L 772.745,294.763 L 798.629,294.763 L 795.884,297.365 L 770,297.365z"/>
      <path style="fill: none; stroke-opacity: 1; stroke-width: 0.02; stroke: #494936" d="M 770 297.365 L 772.745,294.763 L 798.629,294.763 L 795.884,297.365 L 770,297.365"/>
      <path style="fill: none; stroke-opacity: 1; stroke-width: 2.12; stroke: #000000" d="M 794.437 299.543 L 788.226,299.543"/>
      <path style="fill: #7a7a5a; fill-opacity: 1; stroke: none" fill-rule="evenodd" d="M 795.884 302.149 L 798.629,299.396 L 798.629,294.763 L 795.884,297.365 L 795.884,302.149z"/>
      <path style="fill: none; stroke-opacity: 1; stroke-width: 0.02; stroke: #494936" d="M 795.884 302.149 L 798.629,299.396 L 798.629,294.763 L 795.884,297.365 L 795.884,302.149"/>
      <path style="fill: #c9c9b6; fill-opacity: 1; stroke: none" fill-rule="evenodd" d="M 770.147 305.183 L 773.034,301.566 L 792.993,301.566 L 790.106,305.183 L 770.147,305.183z"/>
      <path style="fill: none; stroke-opacity: 1; stroke-width: 0.02; stroke: #494936" d="M 770.147 305.183 L 773.034,301.566 L 792.993,301.566 L 790.106,305.183 L 770.147,305.183"/>
      <path style="fill: #7a7a5a; fill-opacity: 1; stroke: none" fill-rule="evenodd" d="M 790.106 305.905 L 792.993,302.871 L 792.993,301.566 L 790.106,305.183 L 790.106,305.905z"/>
      <path style="fill: none; stroke-opacity: 1; stroke-width: 0.02; stroke: #494936" d="M 790.106 305.905 L 792.993,302.871 L 792.993,301.566 L 790.106,305.183 L 790.106,305.905"/>
      <path style="fill: #b7b79d; fill-opacity: 1; stroke: none" fill-rule="evenodd" d="M 770.147 305.183 L 790.106,305.183 L 790.106,305.905 L 770.147,305.905 L 770.147,305.183z"/>
      <path style="fill: none; stroke-opacity: 1; stroke-width: 0.02; stroke: #494936" d="M 770.147 305.183 L 790.106,305.183 L 790.106,305.905 L 770.147,305.905 L 770.147,305.183"/>
      <path style="fill: #000000; fill-opacity: 1; stroke: none" fill-rule="evenodd" d="M 773.903 296.79 L 776.077,294.763 L 794.437,294.763 L 792.418,296.79 L 773.903,296.79z"/>
      <path style="fill: none; stroke-opacity: 1; stroke-width: 0.02; stroke: #000000" d="M 773.903 296.79 L 776.077,294.763 L 794.437,294.763 L 792.418,296.79 L 773.903,296.79"/>
      <path style="fill: #c9c9b6; fill-opacity: 1; stroke: none" fill-rule="evenodd" d="M 773.756 281.88 L 775.787,280 L 794.155,280 L 792.124,281.88 L 773.756,281.88z"/>
      <path style="fill: none; stroke-opacity: 1; stroke-width: 0.02; stroke: #494936" d="M 773.756 281.88 L 775.787,280 L 794.155,280 L 792.124,281.88 L 773.756,281.88"/>
      <path style="fill: #b7b79d; fill-opacity: 1; stroke: none" fill-rule="evenodd" d="M 773.756 281.88 L 792.271,281.88 L 792.271,296.496 L 773.756,296.496 L 773.756,281.88z"/>
      <path style="fill: none; stroke-opacity: 1; stroke-width: 0.02; stroke: #494936" d="M 773.756 281.88 L 792.263,281.88 L 792.263,296.492 L 773.756,296.492 L 773.756,281.88"/>
      <path style="fill: #ffffff; fill-opacity: 1; stroke: none" fill-rule="evenodd" d="M 775.347 283.756 L 790.677,283.756 L 790.677,295.049 L 775.347,295.049 L 775.347,283.756z"/>
      <path style="fill: none; stroke-opacity: 1; stroke-width: 0.02; stroke: #494936" d="M 775.347 283.756 L 790.677,283.756 L 790.677,295.045 L 775.347,295.045 L 775.347,283.756"/>
      <path style="fill: #7a7a5a; fill-opacity: 1; stroke: none" fill-rule="evenodd" d="M 792.124 296.358 L 794.155,294.331 L 794.155,280 L 792.124,281.88 L 792.124,296.358z"/>
      <path style="fill: none; stroke-opacity: 1; stroke-width: 0.02; stroke: #494936" d="M 792.124 296.358 L 794.155,294.331 L 794.155,280 L 792.124,281.88 L 792.124,296.358"/>
    </g>
    <g>
      <path style="fill: #b7b79d; fill-opacity: 1; stroke: none" fill-rule="evenodd" d="M 1090 297.365 L 1115.88,297.365 L 1115.88,302.149 L 1090,302.149 L 1090,297.365z"/>
      <path style="fill: none; stroke-opacity: 1; stroke-width: 0.02; stroke: #494936" d="M 1090 297.365 L 1115.88,297.365 L 1115.88,302.149 L 1090,302.149 L 1090,297.365"/>
      <path style="fill: #c9c9b6; fill-opacity: 1; stroke: none" fill-rule="evenodd" d="M 1090 297.365 L 1092.74,294.763 L 1118.63,294.763 L 1115.88,297.365 L 1090,297.365z"/>
      <path style="fill: none; stroke-opacity: 1; stroke-width: 0.02; stroke: #494936" d="M 1090 297.365 L 1092.74,294.763 L 1118.63,294.763 L 1115.88,297.365 L 1090,297.365"/>
      <path style="fill: none; stroke-opacity: 1; stroke-width: 2.12; stroke: #000000" d="M 1114.44 299.543 L 1108.23,299.543"/>
      <path style="fill: #7a7a5a; fill-opacity: 1; stroke: none" fill-rule="evenodd" d="M 1115.88 302.149 L 1118.63,299.396 L 1118.63,294.763 L 1115.88,297.365 L 1115.88,302.149z"/>
      <path style="fill: none; stroke-opacity: 1; stroke-width: 0.02; stroke: #494936" d="M 1115.88 302.149 L 1118.63,299.396 L 1118.63,294.763 L 1115.88,297.365 L 1115.88,302.149"/>
      <path style="fill: #c9c9b6; fill-opacity: 1; stroke: none" fill-rule="evenodd" d="M 1090.15 305.183 L 1093.03,301.566 L 1112.99,301.566 L 1110.11,305.183 L 1090.15,305.183z"/>
      <path style="fill: none; stroke-opacity: 1; stroke-width: 0.02; stroke: #494936" d="M 1090.15 305.183 L 1093.03,301.566 L 1112.99,301.566 L 1110.11,305.183 L 1090.15,305.183"/>
      <path style="fill: #7a7a5a; fill-opacity: 1; stroke: none" fill-rule="evenodd" d="M 1110.11 305.905 L 1112.99,302.871 L 1112.99,301.566 L 1110.11,305.183 L 1110.11,305.905z"/>
      <path style="fill: none; stroke-opacity: 1; stroke-width: 0.02; stroke: #494936" d="M 1110.11 305.905 L 1112.99,302.871 L 1112.99,301.566 L 1110.11,305.183 L 1110.11,305.905"/>
      <path style="fill: #b7b79d; fill-opacity: 1; stroke: none" fill-rule="evenodd" d="M 1090.15 305.183 L 1110.11,305.183 L 1110.11,305.905 L 1090.15,305.905 L 1090.15,305.183z"/>
      <path style="fill: none; stroke-opacity: 1; stroke-width: 0.02; stroke: #494936" d="M 1090.15 305.183 L 1110.11,305.183 L 1110.11,305.905 L 1090.15,305.905 L 1090.15,305.183"/>
      <path style="fill: #000000; fill-opacity: 1; stroke: none" fill-rule="evenodd" d="M 1093.9 296.79 L 1096.08,294.763 L 1114.44,294.763 L 1112.42,296.79 L 1093.9,296.79z"/>
      <path style="fill: none; stroke-opacity: 1; stroke-width: 0.02; stroke: #000000" d="M 1093.9 296.79 L 1096.08,294.763 L 1114.44,294.763 L 1112.42,296.79 L 1093.9,296.79"/>
      <path style="fill: #c9c9b6; fill-opacity: 1; stroke: none" fill-rule="evenodd" d="M 1093.76 281.88 L 1095.79,280 L 1114.16,280 L 1112.12,281.88 L 1093.76,281.88z"/>
      <path style="fill: none; stroke-opacity: 1; stroke-width: 0.02; stroke: #494936" d="M 1093.76 281.88 L 1095.79,280 L 1114.16,280 L 1112.12,281.88 L 1093.76,281.88"/>
      <path style="fill: #b7b79d; fill-opacity: 1; stroke: none" fill-rule="evenodd" d="M 1093.76 281.88 L 1112.27,281.88 L 1112.27,296.496 L 1093.76,296.496 L 1093.76,281.88z"/>
      <path style="fill: none; stroke-opacity: 1; stroke-width: 0.02; stroke: #494936" d="M 1093.76 281.88 L 1112.26,281.88 L 1112.26,296.492 L 1093.76,296.492 L 1093.76,281.88"/>
      <path style="fill: #ffffff; fill-opacity: 1; stroke: none" fill-rule="evenodd" d="M 1095.35 283.756 L 1110.68,283.756 L 1110.68,295.049 L 1095.35,295.049 L 1095.35,283.756z"/>
      <path style="fill: none; stroke-opacity: 1; stroke-width: 0.02; stroke: #494936" d="M 1095.35 283.756 L 1110.68,283.756 L 1110.68,295.045 L 1095.35,295.045 L 1095.35,283.756"/>
      <path style="fill: #7a7a5a; fill-opacity: 1; stroke: none" fill-rule="evenodd" d="M 1112.12 296.358 L 1114.16,294.331 L 1114.16,280 L 1112.12,281.88 L 1112.12,296.358z"/>
      <path style="fill: none; stroke-opacity: 1; stroke-width: 0.02; stroke: #494936" d="M 1112.12 296.358 L 1114.16,294.331 L 1114.16,280 L 1112.12,281.88 L 1112.12,296.358"/>
    </g>
    <g>
      <path style="fill: #b7b79d; fill-opacity: 1; stroke: none" fill-rule="evenodd" d="M 560 -54.6349 L 585.884,-54.6349 L 585.884,-49.8512 L 560,-49.8512 L 560,-54.6349z"/>
      <path style="fill: none; stroke-opacity: 1; stroke-width: 0.02; stroke: #494936" d="M 560 -54.6349 L 585.884,-54.6349 L 585.884,-49.8512 L 560,-49.8512 L 560,-54.6349"/>
      <path style="fill: #c9c9b6; fill-opacity: 1; stroke: none" fill-rule="evenodd" d="M 560 -54.6349 L 562.745,-57.2368 L 588.629,-57.2368 L 585.884,-54.6349 L 560,-54.6349z"/>
      <path style="fill: none; stroke-opacity: 1; stroke-width: 0.02; stroke: #494936" d="M 560 -54.6349 L 562.745,-57.2368 L 588.629,-57.2368 L 585.884,-54.6349 L 560,-54.6349"/>
      <path style="fill: none; stroke-opacity: 1; stroke-width: 2.12; stroke: #000000" d="M 584.437 -52.4572 L 578.226,-52.4572"/>
      <path style="fill: #7a7a5a; fill-opacity: 1; stroke: none" fill-rule="evenodd" d="M 585.884 -49.8512 L 588.629,-52.604 L 588.629,-57.2368 L 585.884,-54.6349 L 585.884,-49.8512z"/>
      <path style="fill: none; stroke-opacity: 1; stroke-width: 0.02; stroke: #494936" d="M 585.884 -49.8512 L 588.629,-52.604 L 588.629,-57.2368 L 585.884,-54.6349 L 585.884,-49.8512"/>
      <path style="fill: #c9c9b6; fill-opacity: 1; stroke: none" fill-rule="evenodd" d="M 560.147 -46.817 L 563.034,-50.4344 L 582.993,-50.4344 L 580.106,-46.817 L 560.147,-46.817z"/>
      <path style="fill: none; stroke-opacity: 1; stroke-width: 0.02; stroke: #494936" d="M 560.147 -46.817 L 563.034,-50.4344 L 582.993,-50.4344 L 580.106,-46.817 L 560.147,-46.817"/>
      <path style="fill: #7a7a5a; fill-opacity: 1; stroke: none" fill-rule="evenodd" d="M 580.106 -46.0952 L 582.993,-49.1294 L 582.993,-50.4344 L 580.106,-46.817 L 580.106,-46.0952z"/>
      <path style="fill: none; stroke-opacity: 1; stroke-width: 0.02; stroke: #494936" d="M 580.106 -46.0952 L 582.993,-49.1294 L 582.993,-50.4344 L 580.106,-46.817 L 580.106,-46.0952"/>
      <path style="fill: #b7b79d; fill-opacity: 1; stroke: none" fill-rule="evenodd" d="M 560.147 -46.817 L 580.106,-46.817 L 580.106,-46.0952 L 560.147,-46.0952 L 560.147,-46.817z"/>
      <path style="fill: none; stroke-opacity: 1; stroke-width: 0.02; stroke: #494936" d="M 560.147 -46.817 L 580.106,-46.817 L 580.106,-46.0952 L 560.147,-46.0952 L 560.147,-46.817"/>
      <path style="fill: #000000; fill-opacity: 1; stroke: none" fill-rule="evenodd" d="M 563.903 -55.21 L 566.077,-57.2368 L 584.437,-57.2368 L 582.418,-55.21 L 563.903,-55.21z"/>
      <path style="fill: none; stroke-opacity: 1; stroke-width: 0.02; stroke: #000000" d="M 563.903 -55.21 L 566.077,-57.2368 L 584.437,-57.2368 L 582.418,-55.21 L 563.903,-55.21"/>
      <path style="fill: #c9c9b6; fill-opacity: 1; stroke: none" fill-rule="evenodd" d="M 563.756 -70.1199 L 565.787,-72 L 584.155,-72 L 582.124,-70.1199 L 563.756,-70.1199z"/>
      <path style="fill: none; stroke-opacity: 1; stroke-width: 0.02; stroke: #494936" d="M 563.756 -70.1199 L 565.787,-72 L 584.155,-72 L 582.124,-70.1199 L 563.756,-70.1199"/>
      <path style="fill: #b7b79d; fill-opacity: 1; stroke: none" fill-rule="evenodd" d="M 563.756 -70.1199 L 582.271,-70.1199 L 582.271,-55.5036 L 563.756,-55.5036 L 563.756,-70.1199z"/>
      <path style="fill: none; stroke-opacity: 1; stroke-width: 0.02; stroke: #494936" d="M 563.756 -70.1199 L 582.263,-70.1199 L 582.263,-55.5077 L 563.756,-55.5077 L 563.756,-70.1199"/>
      <path style="fill: #ffffff; fill-opacity: 1; stroke: none" fill-rule="evenodd" d="M 565.347 -68.244 L 580.677,-68.244 L 580.677,-56.9514 L 565.347,-56.9514 L 565.347,-68.244z"/>
      <path style="fill: none; stroke-opacity: 1; stroke-width: 0.02; stroke: #494936" d="M 565.347 -68.244 L 580.677,-68.244 L 580.677,-56.9555 L 565.347,-56.9555 L 565.347,-68.244"/>
      <path style="fill: #7a7a5a; fill-opacity: 1; stroke: none" fill-rule="evenodd" d="M 582.124 -55.6423 L 584.155,-57.6691 L 584.155,-72 L 582.124,-70.1199 L 582.124,-55.6423z"/>
      <path style="fill: none; stroke-opacity: 1; stroke-width: 0.02; stroke: #494936" d="M 582.124 -55.6423 L 584.155,-57.6691 L 584.155,-72 L 582.124,-70.1199 L 582.124,-55.6423"/>
    </g>
    <g>
      <rect style="fill: #e5e5e5; fill-opacity: 1; stroke-opacity: 1; stroke-width: 2; stroke: #000000" x="720" y="-112" width="108" height="72" rx="10" ry="10"/>
      <text font-size="12.8" style="fill: #000000; fill-opacity: 1; stroke: none;text-anchor:middle;font-family:sans-serif;font-style:normal;font-weight:normal" x="774" y="-72.1187">
        <tspan x="774" y="-72.1187"></tspan>
      </text>
    </g>
    <text font-size="22.5778" style="fill: #000000; fill-opacity: 1; stroke: none;text-anchor:start;font-family:sans-serif;font-style:normal;font-weight:normal" x="510" y="300">
      <tspan x="510" y="300">Container #1</tspan>
    </text>
    <text font-size="22.5778" style="fill: #000000; fill-opacity: 1; stroke: none;text-anchor:start;font-family:sans-serif;font-style:normal;font-weight:normal" x="840" y="300">
      <tspan x="840" y="300">Container #2</tspan>
    </text>
    <text font-size="14.6756" style="fill: #000000; fill-opacity: 1; stroke: none;text-anchor:middle;font-family:sans-serif;font-style:normal;font-weight:700" x="890" y="220">
      <tspan x="890" y="220">eth0</tspan>
      <tspan x="890" y="238.344">10.0.3.y</tspan>
    </text>
    <text font-size="22.5778" style="fill: #000000; fill-opacity: 1; stroke: none;text-anchor:start;font-family:sans-serif;font-style:normal;font-weight:normal" x="1160" y="300">
      <tspan x="1160" y="300">Container #3</tspan>
    </text>
    <text font-size="14.6756" style="fill: #000000; fill-opacity: 1; stroke: none;text-anchor:middle;font-family:sans-serif;font-style:normal;font-weight:700" x="1210" y="220">
      <tspan x="1210" y="220">eth0</tspan>
      <tspan x="1210" y="238.344">10.0.3.z</tspan>
    </text>
    <text font-size="14.6756" style="fill: #000000; fill-opacity: 1; stroke: none;text-anchor:middle;font-family:sans-serif;font-style:normal;font-weight:700" x="648" y="-20">
      <tspan x="648" y="-20">lxcbr0</tspan>
      <tspan x="648" y="-1.65556">10.0.3.1</tspan>
    </text>
    <text font-size="22.5778" style="fill: #000000; fill-opacity: 1; stroke: none;text-anchor:start;font-family:sans-serif;font-style:normal;font-weight:normal" x="616" y="-76">
      <tspan x="616" y="-76">Host</tspan>
    </text>
    <text font-size="22.5778" style="fill: #000000; fill-opacity: 1; stroke: none;text-anchor:start;font-family:sans-serif;font-style:normal;font-weight:normal" x="724" y="-88">
      <tspan x="724" y="-88">dnsmasq</tspan>
    </text>
    <text font-size="14.6756" style="fill: #000000; fill-opacity: 1; stroke: none;text-anchor:middle;font-family:sans-serif;font-style:normal;font-weight:700" x="800" y="-64">
      <tspan x="800" y="-64">:53</tspan>
      <tspan x="800" y="-45.6556">DNS</tspan>
    </text>
    <g>
      <line style="fill: none; stroke-opacity: 1; stroke-width: 2; stroke: #000000" x1="801" y1="-40" x2="801" y2="-14.1421"/>
      <path style="fill: none; stroke-opacity: 1; stroke-width: 2; stroke: #000000" d="M 801,-14.1421 A 14.1421,14.1421 0 0 1 786.858,0"/>
      <line style="fill: none; stroke-opacity: 1; stroke-width: 2; stroke: #000000" x1="786.858" y1="-0" x2="693.536" y2="0"/>
      <path style="fill: none; stroke-opacity: 1; stroke-width: 2; stroke: #000000" d="M 693.536,0 A 3.53553,3.53553 0 0 0 690,3.53553"/>
      <line style="fill: none; stroke-opacity: 1; stroke-width: 2; stroke: #000000" x1="690" y1="3.53553" x2="690" y2="10"/>
    </g>
    <g>
      <line style="fill: none; stroke-opacity: 1; stroke-width: 2; stroke: #000000" x1="747" y1="-40" x2="747" y2="-20.6066"/>
      <path style="fill: none; stroke-opacity: 1; stroke-width: 2; stroke: #000000" d="M 747,-20.6066 A 10.6066,10.6066 0 0 1 736.393,-10"/>
      <line style="fill: none; stroke-opacity: 1; stroke-width: 2; stroke: #000000" x1="736.393" y1="-10" x2="697.071" y2="-10"/>
      <path style="fill: none; stroke-opacity: 1; stroke-width: 2; stroke: #000000" d="M 697.071,-10 A 7.07107,7.07107 0 0 0 690,-2.92893"/>
      <line style="fill: none; stroke-opacity: 1; stroke-width: 2; stroke: #000000" x1="690" y1="-2.92893" x2="690" y2="10"/>
    </g>
    <text font-size="14.6756" style="fill: #000000; fill-opacity: 1; stroke: none;text-anchor:middle;font-family:sans-serif;font-style:normal;font-weight:700" x="748" y="-64">
      <tspan x="748" y="-64">:67 </tspan>
      <tspan x="748" y="-45.6556">DHCP</tspan>
    </text>
    <g>
      <line style="fill: none; stroke-opacity: 1; stroke-width: 2; stroke: #000000" x1="690" y1="10" x2="690" y2="-23"/>
      <polygon style="fill: #000000; fill-opacity: 1; stroke-opacity: 1; stroke-width: 2; stroke: #000000" fill-rule="evenodd" points="693,-23 690,-29 687,-23 "/>
    </g>
    <g>
      <line style="fill: none; stroke-opacity: 1; stroke-width: 2; stroke: #000000" x1="596" y1="-140" x2="596" y2="-185"/>
      <path style="fill: #000000; fill-opacity: 1; stroke-opacity: 1; stroke-width: 2; stroke: #000000" fill-rule="evenodd" d="M 596 -140 C 593.5,-140 591,-142.5 591,-145 C 591,-147.5 593.5,-150 596,-150 C 598.5,-150 601,-147.5 601,-145 C 601,-142.5 598.5,-140 596,-140z"/>
      <polygon style="fill: #000000; fill-opacity: 1; stroke-opacity: 1; stroke-width: 2; stroke: #000000" fill-rule="evenodd" points="599,-185 596,-191 593,-185 "/>
    </g>
    <text font-size="14.6756" style="fill: #000000; fill-opacity: 1; stroke: none;text-anchor:middle;font-family:sans-serif;font-style:normal;font-weight:700" x="596" y="-124">
      <tspan x="596" y="-124">eth*</tspan>
    </text>
    <g>
      <line style="fill: none; stroke-opacity: 1; stroke-width: 2; stroke: #000000" x1="660" y1="-140" x2="660" y2="-185"/>
      <path style="fill: #000000; fill-opacity: 1; stroke-opacity: 1; stroke-width: 2; stroke: #000000" fill-rule="evenodd" d="M 660 -140 C 657.5,-140 655,-142.5 655,-145 C 655,-147.5 657.5,-150 660,-150 C 662.5,-150 665,-147.5 665,-145 C 665,-142.5 662.5,-140 660,-140z"/>
      <polygon style="fill: #000000; fill-opacity: 1; stroke-opacity: 1; stroke-width: 2; stroke: #000000" fill-rule="evenodd" points="663,-185 660,-191 657,-185 "/>
    </g>
    <text font-size="14.6756" style="fill: #000000; fill-opacity: 1; stroke: none;text-anchor:middle;font-family:sans-serif;font-style:normal;font-weight:700" x="660" y="-124">
      <tspan x="660" y="-124">wlx*</tspan>
    </text>
  </g>
</svg>
