<?xml version="1.0" encoding="UTF-8" standalone="no"?>
<!DOCTYPE svg PUBLIC "-//W3C//DTD SVG 1.0//EN" "http://www.w3.org/TR/2001/PR-SVG-20010719/DTD/svg10.dtd">
<svg width="73cm" height="11cm" viewBox="170 199 1445 203" xmlns="http://www.w3.org/2000/svg" xmlns:xlink="http://www.w3.org/1999/xlink">
  <defs/>
  <g id="Background">
    <g>
      <rect style="fill: #ffffff; fill-opacity: 1; stroke-opacity: 1; stroke-width: 2; stroke: #000000" x="400" y="280" width="40" height="40" rx="0" ry="0"/>
      <text font-size="27.0933" style="fill: #000000; fill-opacity: 1; stroke: none;text-anchor:middle;font-family:sans-serif;font-style:normal;font-weight:700" x="420" y="308.215">
        <tspan x="420" y="308.215">b</tspan>
      </text>
    </g>
    <g>
      <rect style="fill: #ffffff; fill-opacity: 1; stroke-opacity: 1; stroke-width: 2; stroke: #000000" x="440" y="280" width="40" height="40" rx="0" ry="0"/>
      <text font-size="27.0933" style="fill: #000000; fill-opacity: 1; stroke: none;text-anchor:middle;font-family:sans-serif;font-style:normal;font-weight:700" x="460" y="308.215">
        <tspan x="460" y="308.215">r</tspan>
      </text>
    </g>
    <g>
      <rect style="fill: #ffffff; fill-opacity: 1; stroke-opacity: 1; stroke-width: 2; stroke: #000000" x="480" y="280" width="40" height="40" rx="0" ry="0"/>
      <text font-size="27.0933" style="fill: #000000; fill-opacity: 1; stroke: none;text-anchor:middle;font-family:sans-serif;font-style:normal;font-weight:700" x="500" y="308.215">
        <tspan x="500" y="308.215">a</tspan>
      </text>
    </g>
    <g>
      <rect style="fill: #ffffff; fill-opacity: 1; stroke-opacity: 1; stroke-width: 2; stroke: #000000" x="520" y="280" width="40" height="40" rx="0" ry="0"/>
      <text font-size="27.0933" style="fill: #000000; fill-opacity: 1; stroke: none;text-anchor:middle;font-family:sans-serif;font-style:normal;font-weight:700" x="540" y="308.215">
        <tspan x="540" y="308.215">g</tspan>
      </text>
    </g>
    <g>
      <rect style="fill: #ffffff; fill-opacity: 1; stroke-opacity: 1; stroke-width: 2; stroke: #000000" x="560" y="280" width="40" height="40" rx="0" ry="0"/>
      <text font-size="27.0933" style="fill: #000000; fill-opacity: 1; stroke: none;text-anchor:middle;font-family:sans-serif;font-style:normal;font-weight:700" x="580" y="308.215">
        <tspan x="580" y="308.215">r</tspan>
      </text>
    </g>
    <g>
      <rect style="fill: #ffffff; fill-opacity: 1; stroke-opacity: 1; stroke-width: 2; stroke: #000000" x="600" y="280" width="40" height="40" rx="0" ry="0"/>
      <text font-size="27.0933" style="fill: #000000; fill-opacity: 1; stroke: none;text-anchor:middle;font-family:sans-serif;font-style:normal;font-weight:700" x="620" y="308.215">
        <tspan x="620" y="308.215">a</tspan>
      </text>
    </g>
    <g>
      <rect style="fill: #83caff; fill-opacity: 1; stroke-opacity: 1; stroke-width: 2; stroke: #000000" x="640" y="280" width="40" height="40" rx="0" ry="0"/>
      <text font-size="27.0933" style="fill: #000000; fill-opacity: 1; stroke: none;text-anchor:middle;font-family:sans-serif;font-style:normal;font-weight:700" x="660" y="308.215">
        <tspan x="660" y="308.215">c</tspan>
      </text>
    </g>
    <g>
      <rect style="fill: #d0f0c0; fill-opacity: 1; stroke-opacity: 1; stroke-width: 2; stroke: #000000" x="680" y="280" width="40" height="40" rx="0" ry="0"/>
      <text font-size="27.0933" style="fill: #000000; fill-opacity: 1; stroke: none;text-anchor:middle;font-family:sans-serif;font-style:normal;font-weight:700" x="700" y="308.215">
        <tspan x="700" y="308.215">a</tspan>
      </text>
    </g>
    <g>
      <rect style="fill: #fef7bf; fill-opacity: 1; stroke-opacity: 1; stroke-width: 2; stroke: #000000" x="720" y="280" width="40" height="40" rx="0" ry="0"/>
      <text font-size="27.0933" style="fill: #000000; fill-opacity: 1; stroke: none;text-anchor:middle;font-family:sans-serif;font-style:normal;font-weight:700" x="740" y="308.215">
        <tspan x="740" y="308.215">d</tspan>
      </text>
    </g>
    <g>
      <rect style="fill: #ffbcb3; fill-opacity: 1; stroke-opacity: 1; stroke-width: 2; stroke: #000000" x="760" y="280" width="40" height="40" rx="0" ry="0"/>
      <text font-size="27.0933" style="fill: #000000; fill-opacity: 1; stroke: none;text-anchor:middle;font-family:sans-serif;font-style:normal;font-weight:700" x="780" y="308.215">
        <tspan x="780" y="308.215">a</tspan>
      </text>
    </g>
    <g>
      <rect style="fill: #83caff; fill-opacity: 1; stroke-opacity: 1; stroke-width: 2; stroke: #000000" x="800" y="280" width="40" height="40" rx="0" ry="0"/>
      <text font-size="27.0933" style="fill: #000000; fill-opacity: 1; stroke: none;text-anchor:middle;font-family:sans-serif;font-style:normal;font-weight:700" x="820" y="308.215">
        <tspan x="820" y="308.215">b</tspan>
      </text>
    </g>
    <g>
      <rect style="fill: #d0f0c0; fill-opacity: 1; stroke-opacity: 1; stroke-width: 2; stroke: #000000" x="840" y="280" width="40" height="40" rx="0" ry="0"/>
      <text font-size="27.0933" style="fill: #000000; fill-opacity: 1; stroke: none;text-anchor:middle;font-family:sans-serif;font-style:normal;font-weight:700" x="860" y="308.215">
        <tspan x="860" y="308.215">r</tspan>
      </text>
    </g>
    <g>
      <rect style="fill: #fef7bf; fill-opacity: 1; stroke-opacity: 1; stroke-width: 2; stroke: #000000" x="880" y="280" width="40" height="40" rx="0" ry="0"/>
      <text font-size="27.0933" style="fill: #000000; fill-opacity: 1; stroke: none;text-anchor:middle;font-family:sans-serif;font-style:normal;font-weight:700" x="900" y="308.215">
        <tspan x="900" y="308.215">a</tspan>
      </text>
    </g>
    <g>
      <rect style="fill: #ffffff; fill-opacity: 1; stroke-opacity: 1; stroke-width: 2; stroke: #000000" x="200" y="360" width="40" height="40" rx="0" ry="0"/>
      <text font-size="27.0933" style="fill: #000000; fill-opacity: 1; stroke: none;text-anchor:middle;font-family:sans-serif;font-style:normal;font-weight:700" x="220" y="388.215">
        <tspan x="220" y="388.215">b</tspan>
      </text>
    </g>
    <g>
      <rect style="fill: #ffffff; fill-opacity: 1; stroke-opacity: 1; stroke-width: 2; stroke: #000000" x="240" y="360" width="40" height="40" rx="0" ry="0"/>
      <text font-size="27.0933" style="fill: #000000; fill-opacity: 1; stroke: none;text-anchor:middle;font-family:sans-serif;font-style:normal;font-weight:700" x="260" y="388.215">
        <tspan x="260" y="388.215">r</tspan>
      </text>
    </g>
    <g>
      <rect style="fill: #ffffff; fill-opacity: 1; stroke-opacity: 1; stroke-width: 2; stroke: #000000" x="280" y="360" width="40" height="40" rx="0" ry="0"/>
      <text font-size="27.0933" style="fill: #000000; fill-opacity: 1; stroke: none;text-anchor:middle;font-family:sans-serif;font-style:normal;font-weight:700" x="300" y="388.215">
        <tspan x="300" y="388.215">a</tspan>
      </text>
    </g>
    <g>
      <rect style="fill: #ffffff; fill-opacity: 1; stroke-opacity: 1; stroke-width: 2; stroke: #000000" x="320" y="360" width="40" height="40" rx="0" ry="0"/>
      <text font-size="27.0933" style="fill: #000000; fill-opacity: 1; stroke: none;text-anchor:middle;font-family:sans-serif;font-style:normal;font-weight:700" x="340" y="388.215">
        <tspan x="340" y="388.215">g</tspan>
      </text>
    </g>
    <g>
      <rect style="fill: #ffffff; fill-opacity: 1; stroke-opacity: 1; stroke-width: 2; stroke: #000000" x="360" y="360" width="40" height="40" rx="0" ry="0"/>
      <text font-size="27.0933" style="fill: #000000; fill-opacity: 1; stroke: none;text-anchor:middle;font-family:sans-serif;font-style:normal;font-weight:700" x="380" y="388.215">
        <tspan x="380" y="388.215">r</tspan>
      </text>
    </g>
    <g>
      <rect style="fill: #ffffff; fill-opacity: 1; stroke-opacity: 1; stroke-width: 2; stroke: #000000" x="400" y="360" width="40" height="40" rx="0" ry="0"/>
      <text font-size="27.0933" style="fill: #000000; fill-opacity: 1; stroke: none;text-anchor:middle;font-family:sans-serif;font-style:normal;font-weight:700" x="420" y="388.215">
        <tspan x="420" y="388.215">a</tspan>
      </text>
    </g>
    <g>
      <rect style="fill: #ffffff; fill-opacity: 1; stroke-opacity: 1; stroke-width: 2; stroke: #000000" x="440" y="360" width="40" height="40" rx="0" ry="0"/>
      <text font-size="27.0933" style="fill: #000000; fill-opacity: 1; stroke: none;text-anchor:middle;font-family:sans-serif;font-style:normal;font-weight:700" x="460" y="388.215">
        <tspan x="460" y="388.215">c</tspan>
      </text>
    </g>
    <g>
      <rect style="fill: #ffffff; fill-opacity: 1; stroke-opacity: 1; stroke-width: 2; stroke: #000000" x="480" y="360" width="40" height="40" rx="0" ry="0"/>
      <text font-size="27.0933" style="fill: #000000; fill-opacity: 1; stroke: none;text-anchor:middle;font-family:sans-serif;font-style:normal;font-weight:700" x="500" y="388.215">
        <tspan x="500" y="388.215">a</tspan>
      </text>
    </g>
    <g>
      <rect style="fill: #ffffff; fill-opacity: 1; stroke-opacity: 1; stroke-width: 2; stroke: #000000" x="520" y="360" width="40" height="40" rx="0" ry="0"/>
      <text font-size="27.0933" style="fill: #000000; fill-opacity: 1; stroke: none;text-anchor:middle;font-family:sans-serif;font-style:normal;font-weight:700" x="540" y="388.215">
        <tspan x="540" y="388.215">d</tspan>
      </text>
    </g>
    <g>
      <rect style="fill: #ffffff; fill-opacity: 1; stroke-opacity: 1; stroke-width: 2; stroke: #000000" x="560" y="360" width="40" height="40" rx="0" ry="0"/>
      <text font-size="27.0933" style="fill: #000000; fill-opacity: 1; stroke: none;text-anchor:middle;font-family:sans-serif;font-style:normal;font-weight:700" x="580" y="388.215">
        <tspan x="580" y="388.215">a</tspan>
      </text>
    </g>
    <g>
      <rect style="fill: #ffffff; fill-opacity: 1; stroke-opacity: 1; stroke-width: 2; stroke: #000000" x="600" y="360" width="40" height="40" rx="0" ry="0"/>
      <text font-size="27.0933" style="fill: #000000; fill-opacity: 1; stroke: none;text-anchor:middle;font-family:sans-serif;font-style:normal;font-weight:700" x="620" y="388.215">
        <tspan x="620" y="388.215">b</tspan>
      </text>
    </g>
    <g>
      <rect style="fill: #ffffff; fill-opacity: 1; stroke-opacity: 1; stroke-width: 2; stroke: #000000" x="640" y="360" width="40" height="40" rx="0" ry="0"/>
      <text font-size="27.0933" style="fill: #000000; fill-opacity: 1; stroke: none;text-anchor:middle;font-family:sans-serif;font-style:normal;font-weight:700" x="660" y="388.215">
        <tspan x="660" y="388.215">r</tspan>
      </text>
    </g>
    <g>
      <rect style="fill: #ffffff; fill-opacity: 1; stroke-opacity: 1; stroke-width: 2; stroke: #000000" x="680" y="360" width="40" height="40" rx="0" ry="0"/>
      <text font-size="27.0933" style="fill: #000000; fill-opacity: 1; stroke: none;text-anchor:middle;font-family:sans-serif;font-style:normal;font-weight:700" x="700" y="388.215">
        <tspan x="700" y="388.215">a</tspan>
      </text>
    </g>
    <g>
      <rect style="fill: #83caff; fill-opacity: 1; stroke-opacity: 1; stroke-width: 2; stroke: #000000" x="800" y="200" width="40" height="40" rx="0" ry="0"/>
      <text font-size="27.0933" style="fill: #000000; fill-opacity: 1; stroke: none;text-anchor:middle;font-family:sans-serif;font-style:normal;font-weight:700" x="820" y="228.215">
        <tspan x="820" y="228.215">b</tspan>
      </text>
    </g>
    <g>
      <rect style="fill: #d0f0c0; fill-opacity: 1; stroke-opacity: 1; stroke-width: 2; stroke: #000000" x="840" y="200" width="40" height="40" rx="0" ry="0"/>
      <text font-size="27.0933" style="fill: #000000; fill-opacity: 1; stroke: none;text-anchor:middle;font-family:sans-serif;font-style:normal;font-weight:700" x="860" y="228.215">
        <tspan x="860" y="228.215">r</tspan>
      </text>
    </g>
    <g>
      <rect style="fill: #fef7bf; fill-opacity: 1; stroke-opacity: 1; stroke-width: 2; stroke: #000000" x="880" y="200" width="40" height="40" rx="0" ry="0"/>
      <text font-size="27.0933" style="fill: #000000; fill-opacity: 1; stroke: none;text-anchor:middle;font-family:sans-serif;font-style:normal;font-weight:700" x="900" y="228.215">
        <tspan x="900" y="228.215">a</tspan>
      </text>
    </g>
    <g>
      <rect style="fill: #d0f0c0; fill-opacity: 1; stroke-opacity: 1; stroke-width: 2; stroke: #000000" x="680" y="200" width="40" height="40" rx="0" ry="0"/>
      <text font-size="27.0933" style="fill: #000000; fill-opacity: 1; stroke: none;text-anchor:middle;font-family:sans-serif;font-style:normal;font-weight:700" x="700" y="228.215">
        <tspan x="700" y="228.215">a</tspan>
      </text>
    </g>
    <g>
      <rect style="fill: #fef7bf; fill-opacity: 1; stroke-opacity: 1; stroke-width: 2; stroke: #000000" x="720" y="200" width="40" height="40" rx="0" ry="0"/>
      <text font-size="27.0933" style="fill: #000000; fill-opacity: 1; stroke: none;text-anchor:middle;font-family:sans-serif;font-style:normal;font-weight:700" x="740" y="228.215">
        <tspan x="740" y="228.215">d</tspan>
      </text>
    </g>
    <g>
      <rect style="fill: #ffbcb3; fill-opacity: 1; stroke-opacity: 1; stroke-width: 2; stroke: #000000" x="760" y="200" width="40" height="40" rx="0" ry="0"/>
      <text font-size="27.0933" style="fill: #000000; fill-opacity: 1; stroke: none;text-anchor:middle;font-family:sans-serif;font-style:normal;font-weight:700" x="780" y="228.215">
        <tspan x="780" y="228.215">a</tspan>
      </text>
    </g>
    <g>
      <rect style="fill: #f0f0f0; fill-opacity: 1; stroke-opacity: 1; stroke-width: 2; stroke: #000000" x="560" y="200" width="40" height="40" rx="0" ry="0"/>
      <text font-size="22.5778" style="fill: #000000; fill-opacity: 1; stroke: none;text-anchor:middle;font-family:sans-serif;font-style:normal;font-weight:700" x="580" y="226.847">
        <tspan x="580" y="226.847"></tspan>
      </text>
    </g>
    <g>
      <rect style="fill: #f0f0f0; fill-opacity: 1; stroke-opacity: 1; stroke-width: 2; stroke: #000000" x="600" y="200" width="40" height="40" rx="0" ry="0"/>
      <text font-size="22.5778" style="fill: #000000; fill-opacity: 1; stroke: none;text-anchor:middle;font-family:sans-serif;font-style:normal;font-weight:700" x="620" y="226.847">
        <tspan x="620" y="226.847"></tspan>
      </text>
    </g>
    <g>
      <rect style="fill: #0084c1; fill-opacity: 1; stroke-opacity: 1; stroke-width: 2; stroke: #000000" x="640" y="200" width="40" height="40" rx="0" ry="0"/>
      <text font-size="27.0933" style="fill: #000000; fill-opacity: 1; stroke: none;text-anchor:middle;font-family:sans-serif;font-style:normal;font-weight:700" x="660" y="228.215">
        <tspan x="660" y="228.215">r</tspan>
      </text>
    </g>
    <g>
      <rect style="fill: #f0f0f0; fill-opacity: 1; stroke-opacity: 1; stroke-width: 2; stroke: #000000" x="440" y="200" width="40" height="40" rx="0" ry="0"/>
      <text font-size="22.5778" style="fill: #000000; fill-opacity: 1; stroke: none;text-anchor:middle;font-family:sans-serif;font-style:normal;font-weight:700" x="460" y="226.847">
        <tspan x="460" y="226.847"></tspan>
      </text>
    </g>
    <g>
      <rect style="fill: #f0f0f0; fill-opacity: 1; stroke-opacity: 1; stroke-width: 2; stroke: #000000" x="480" y="200" width="40" height="40" rx="0" ry="0"/>
      <text font-size="22.5778" style="fill: #000000; fill-opacity: 1; stroke: none;text-anchor:middle;font-family:sans-serif;font-style:normal;font-weight:700" x="500" y="226.847">
        <tspan x="500" y="226.847"></tspan>
      </text>
    </g>
    <g>
      <rect style="fill: #f0f0f0; fill-opacity: 1; stroke-opacity: 1; stroke-width: 2; stroke: #000000" x="520" y="200" width="40" height="40" rx="0" ry="0"/>
      <text font-size="22.5778" style="fill: #000000; fill-opacity: 1; stroke: none;text-anchor:middle;font-family:sans-serif;font-style:normal;font-weight:700" x="540" y="226.847">
        <tspan x="540" y="226.847"></tspan>
      </text>
    </g>
    <g>
      <rect style="fill: #f0f0f0; fill-opacity: 1; stroke-opacity: 1; stroke-width: 2; stroke: #000000" x="320" y="200" width="40" height="40" rx="0" ry="0"/>
      <text font-size="22.5778" style="fill: #000000; fill-opacity: 1; stroke: none;text-anchor:middle;font-family:sans-serif;font-style:normal;font-weight:700" x="340" y="226.847">
        <tspan x="340" y="226.847"></tspan>
      </text>
    </g>
    <g>
      <rect style="fill: #f0f0f0; fill-opacity: 1; stroke-opacity: 1; stroke-width: 2; stroke: #000000" x="360" y="200" width="40" height="40" rx="0" ry="0"/>
      <text font-size="22.5778" style="fill: #000000; fill-opacity: 1; stroke: none;text-anchor:middle;font-family:sans-serif;font-style:normal;font-weight:700" x="380" y="226.847">
        <tspan x="380" y="226.847"></tspan>
      </text>
    </g>
    <g>
      <rect style="fill: #f0f0f0; fill-opacity: 1; stroke-opacity: 1; stroke-width: 2; stroke: #000000" x="400" y="200" width="40" height="40" rx="0" ry="0"/>
      <text font-size="22.5778" style="fill: #000000; fill-opacity: 1; stroke: none;text-anchor:middle;font-family:sans-serif;font-style:normal;font-weight:700" x="420" y="226.847">
        <tspan x="420" y="226.847"></tspan>
      </text>
    </g>
    <g>
      <rect style="fill: #f0f0f0; fill-opacity: 1; stroke-opacity: 1; stroke-width: 2; stroke: #000000" x="200" y="200" width="40" height="40" rx="0" ry="0"/>
      <text font-size="22.5778" style="fill: #000000; fill-opacity: 1; stroke: none;text-anchor:middle;font-family:sans-serif;font-style:normal;font-weight:700" x="220" y="226.847">
        <tspan x="220" y="226.847"></tspan>
      </text>
    </g>
    <g>
      <rect style="fill: #f0f0f0; fill-opacity: 1; stroke-opacity: 1; stroke-width: 2; stroke: #000000" x="240" y="200" width="40" height="40" rx="0" ry="0"/>
      <text font-size="22.5778" style="fill: #000000; fill-opacity: 1; stroke: none;text-anchor:middle;font-family:sans-serif;font-style:normal;font-weight:700" x="260" y="226.847">
        <tspan x="260" y="226.847"></tspan>
      </text>
    </g>
    <g>
      <rect style="fill: #f0f0f0; fill-opacity: 1; stroke-opacity: 1; stroke-width: 2; stroke: #000000" x="280" y="200" width="40" height="40" rx="0" ry="0"/>
      <text font-size="22.5778" style="fill: #000000; fill-opacity: 1; stroke: none;text-anchor:middle;font-family:sans-serif;font-style:normal;font-weight:700" x="300" y="226.847">
        <tspan x="300" y="226.847"></tspan>
      </text>
    </g>
    <g>
      <rect style="fill: #f0f0f0; fill-opacity: 1; stroke-opacity: 1; stroke-width: 2; stroke: #000000" x="920" y="200" width="40" height="40" rx="0" ry="0"/>
      <text font-size="22.5778" style="fill: #000000; fill-opacity: 1; stroke: none;text-anchor:middle;font-family:sans-serif;font-style:normal;font-weight:700" x="940" y="226.847">
        <tspan x="940" y="226.847"></tspan>
      </text>
    </g>
    <g>
      <rect style="fill: #f0f0f0; fill-opacity: 1; stroke-opacity: 1; stroke-width: 2; stroke: #000000" x="960" y="200" width="40" height="40" rx="0" ry="0"/>
      <text font-size="22.5778" style="fill: #000000; fill-opacity: 1; stroke: none;text-anchor:middle;font-family:sans-serif;font-style:normal;font-weight:700" x="980" y="226.847">
        <tspan x="980" y="226.847"></tspan>
      </text>
    </g>
    <g>
      <rect style="fill: #f0f0f0; fill-opacity: 1; stroke-opacity: 1; stroke-width: 2; stroke: #000000" x="1000" y="200" width="40" height="40" rx="0" ry="0"/>
      <text font-size="22.5778" style="fill: #000000; fill-opacity: 1; stroke: none;text-anchor:middle;font-family:sans-serif;font-style:normal;font-weight:700" x="1020" y="226.847">
        <tspan x="1020" y="226.847"></tspan>
      </text>
    </g>
    <g>
      <rect style="fill: #f0f0f0; fill-opacity: 1; stroke-opacity: 1; stroke-width: 2; stroke: #000000" x="1040" y="200" width="40" height="40" rx="0" ry="0"/>
      <text font-size="22.5778" style="fill: #000000; fill-opacity: 1; stroke: none;text-anchor:middle;font-family:sans-serif;font-style:normal;font-weight:700" x="1060" y="226.847">
        <tspan x="1060" y="226.847"></tspan>
      </text>
    </g>
    <g>
      <rect style="fill: #f0f0f0; fill-opacity: 1; stroke-opacity: 1; stroke-width: 2; stroke: #000000" x="1080" y="200" width="40" height="40" rx="0" ry="0"/>
      <text font-size="22.5778" style="fill: #000000; fill-opacity: 1; stroke: none;text-anchor:middle;font-family:sans-serif;font-style:normal;font-weight:700" x="1100" y="226.847">
        <tspan x="1100" y="226.847"></tspan>
      </text>
    </g>
    <g>
      <rect style="fill: #f0f0f0; fill-opacity: 1; stroke-opacity: 1; stroke-width: 2; stroke: #000000" x="1120" y="200" width="40" height="40" rx="0" ry="0"/>
      <text font-size="22.5778" style="fill: #000000; fill-opacity: 1; stroke: none;text-anchor:middle;font-family:sans-serif;font-style:normal;font-weight:700" x="1140" y="226.847">
        <tspan x="1140" y="226.847"></tspan>
      </text>
    </g>
    <g>
      <rect style="fill: #f0f0f0; fill-opacity: 1; stroke-opacity: 1; stroke-width: 2; stroke: #000000" x="1160" y="200" width="40" height="40" rx="0" ry="0"/>
      <text font-size="22.5778" style="fill: #000000; fill-opacity: 1; stroke: none;text-anchor:middle;font-family:sans-serif;font-style:normal;font-weight:700" x="1180" y="226.847">
        <tspan x="1180" y="226.847"></tspan>
      </text>
    </g>
    <g>
      <rect style="fill: #f0f0f0; fill-opacity: 1; stroke-opacity: 1; stroke-width: 2; stroke: #000000" x="1200" y="200" width="40" height="40" rx="0" ry="0"/>
      <text font-size="22.5778" style="fill: #000000; fill-opacity: 1; stroke: none;text-anchor:middle;font-family:sans-serif;font-style:normal;font-weight:700" x="1220" y="226.847">
        <tspan x="1220" y="226.847"></tspan>
      </text>
    </g>
    <g>
      <rect style="fill: #f0f0f0; fill-opacity: 1; stroke-opacity: 1; stroke-width: 2; stroke: #000000" x="1240" y="200" width="40" height="40" rx="0" ry="0"/>
      <text font-size="22.5778" style="fill: #000000; fill-opacity: 1; stroke: none;text-anchor:middle;font-family:sans-serif;font-style:normal;font-weight:700" x="1260" y="226.847">
        <tspan x="1260" y="226.847"></tspan>
      </text>
    </g>
    <g>
      <rect style="fill: #f0f0f0; fill-opacity: 1; stroke-opacity: 1; stroke-width: 2; stroke: #000000" x="1280" y="200" width="40" height="40" rx="0" ry="0"/>
      <text font-size="22.5778" style="fill: #000000; fill-opacity: 1; stroke: none;text-anchor:middle;font-family:sans-serif;font-style:normal;font-weight:700" x="1300" y="226.847">
        <tspan x="1300" y="226.847"></tspan>
      </text>
    </g>
    <g>
      <rect style="fill: #f0f0f0; fill-opacity: 1; stroke-opacity: 1; stroke-width: 2; stroke: #000000" x="1320" y="200" width="40" height="40" rx="0" ry="0"/>
      <text font-size="22.5778" style="fill: #000000; fill-opacity: 1; stroke: none;text-anchor:middle;font-family:sans-serif;font-style:normal;font-weight:700" x="1340" y="226.847">
        <tspan x="1340" y="226.847"></tspan>
      </text>
    </g>
    <g>
      <rect style="fill: #f0f0f0; fill-opacity: 1; stroke-opacity: 1; stroke-width: 2; stroke: #000000" x="1360" y="200" width="40" height="40" rx="0" ry="0"/>
      <text font-size="22.5778" style="fill: #000000; fill-opacity: 1; stroke: none;text-anchor:middle;font-family:sans-serif;font-style:normal;font-weight:700" x="1380" y="226.847">
        <tspan x="1380" y="226.847"></tspan>
      </text>
    </g>
    <g>
      <rect style="fill: #f0f0f0; fill-opacity: 1; stroke-opacity: 1; stroke-width: 2; stroke: #000000" x="1400" y="200" width="40" height="40" rx="0" ry="0"/>
      <text font-size="22.5778" style="fill: #000000; fill-opacity: 1; stroke: none;text-anchor:middle;font-family:sans-serif;font-style:normal;font-weight:700" x="1420" y="226.847">
        <tspan x="1420" y="226.847"></tspan>
      </text>
    </g>
    <g>
      <rect style="fill: #f0f0f0; fill-opacity: 1; stroke-opacity: 1; stroke-width: 2; stroke: #000000" x="1440" y="200" width="40" height="40" rx="0" ry="0"/>
      <text font-size="22.5778" style="fill: #000000; fill-opacity: 1; stroke: none;text-anchor:middle;font-family:sans-serif;font-style:normal;font-weight:700" x="1460" y="226.847">
        <tspan x="1460" y="226.847"></tspan>
      </text>
    </g>
    <g>
      <rect style="fill: #f0f0f0; fill-opacity: 1; stroke-opacity: 1; stroke-width: 2; stroke: #000000" x="1480" y="200" width="40" height="40" rx="0" ry="0"/>
      <text font-size="22.5778" style="fill: #000000; fill-opacity: 1; stroke: none;text-anchor:middle;font-family:sans-serif;font-style:normal;font-weight:700" x="1500" y="226.847">
        <tspan x="1500" y="226.847"></tspan>
      </text>
    </g>
    <text font-size="22.5778" style="fill: #000000; fill-opacity: 1; stroke: none;text-anchor:start;font-family:sans-serif;font-style:normal;font-weight:normal" x="1570" y="230">
      <tspan x="1570" y="230">Text</tspan>
    </text>
    <text font-size="22.5778" style="fill: #000000; fill-opacity: 1; stroke: none;text-anchor:start;font-family:sans-serif;font-style:normal;font-weight:normal" x="950" y="310">
      <tspan x="950" y="310">Original alignment</tspan>
    </text>
    <text font-size="22.5778" style="fill: #000000; fill-opacity: 1; stroke: none;text-anchor:start;font-family:sans-serif;font-style:normal;font-weight:normal" x="750" y="390">
      <tspan x="750" y="390">Next alignment to try</tspan>
    </text>
    <line style="fill: none; stroke-opacity: 1; stroke-width: 2; stroke: #000000" x1="390" y1="330" x2="390" y2="350"/>
    <g>
      <line style="fill: none; stroke-opacity: 1; stroke-width: 2; stroke: #000000" x1="390" y1="340" x2="209.736" y2="340"/>
      <polygon style="fill: #000000; fill-opacity: 1; stroke-opacity: 1; stroke-width: 2; stroke: #000000" fill-rule="evenodd" points="202.236,340 212.236,335 209.736,340 212.236,345 "/>
    </g>
    <text font-size="22.5778" style="fill: #000000; fill-opacity: 1; stroke: none;text-anchor:start;font-family:sans-serif;font-style:normal;font-weight:normal" x="250" y="330">
      <tspan x="250" y="330">shift=-5</tspan>
    </text>
    <path style="fill: #f0f0f0; fill-opacity: 1; stroke-opacity: 1; stroke-width: 2; stroke: #000000" fill-rule="evenodd" d="M 1520 200 C 1520,200 1548,200 1544,200 C 1540,200 1548,200 1548,208 C 1548,216 1540,220 1540,228 C 1540,236 1548,240 1548,240 C 1548,240 1520,240 1520,240 C 1520,240 1520,200 1520,200z"/>
    <path style="fill: #f0f0f0; fill-opacity: 1; stroke-opacity: 1; stroke-width: 2; stroke: #000000" fill-rule="evenodd" d="M 200 200 C 200,200 172,200 172,200 C 172,200 180,204 180,212 C 180,220 172,224 172,232 C 172,240 176,240 176,240 C 176,240 200,240 200,240 C 200,240 200,200 200,200z"/>
    <line style="fill: none; stroke-opacity: 1; stroke-width: 4; stroke-dasharray: 2; stroke: #000000" x1="660" y1="336" x2="660" y2="356"/>
  </g>
</svg>
